<svg width="236" height="164" viewBox="0 0 236 164" fill="none" xmlns="http://www.w3.org/2000/svg">
<g filter="url(#filter0_d_3718_13951)">
<path d="M36 52C36 47.5817 39.5817 44 44 44H192C196.418 44 200 47.5817 200 52V72C200 76.4183 196.418 80 192 80H44C39.5817 80 36 76.4183 36 72V52Z" fill="white" shape-rendering="crispEdges"/>
<path d="M191 44V44.5H192C192.332 44.5 192.66 44.5217 192.98 44.5635L193.044 44.0693C193.75 44.1613 194.426 44.344 195.062 44.6074L194.871 45.0693C195.48 45.322 196.049 45.6523 196.565 46.0488L196.868 45.6533C197.423 46.0794 197.92 46.5763 198.346 47.1309L197.951 47.4346C198.348 47.9506 198.678 48.5197 198.931 49.1289L199.392 48.9375C199.655 49.5729 199.838 50.2495 199.93 50.9551L199.437 51.0195C199.478 51.3401 199.5 51.6675 199.5 52V53H200V55H199.5V57H200V59H199.5V61H200V63H199.5V65H200V67H199.5V69H200V71H199.5V72C199.5 72.3325 199.478 72.6599 199.437 72.9805L199.93 73.0439C199.838 73.7496 199.655 74.4261 199.392 75.0615L198.931 74.8711C198.678 75.4803 198.348 76.0494 197.951 76.5654L198.346 76.8682C197.92 77.4228 197.423 77.9196 196.868 78.3457L196.565 77.9512C196.049 78.3477 195.48 78.678 194.871 78.9307L195.062 79.3916C194.426 79.6551 193.75 79.8377 193.044 79.9297L192.98 79.4365C192.66 79.4783 192.332 79.5 192 79.5H191V80H189V79.5H187V80H185V79.5H183V80H181V79.5H179V80H177V79.5H175V80H173V79.5H171V80H169V79.5H167V80H165V79.5H163V80H161V79.5H159V80H157V79.5H155V80H153V79.5H151V80H149V79.5H147V80H145V79.5H143V80H141V79.5H139V80H137V79.5H135V80H133V79.5H131V80H129V79.5H127V80H125V79.5H123V80H121V79.5H119V80H117V79.5H115V80H113V79.5H111V80H109V79.5H107V80H105V79.5H103V80H101V79.5H99V80H97V79.5H95V80H93V79.5H91V80H89V79.5H87V80H85V79.5H83V80H81V79.5H79V80H77V79.5H75V80H73V79.5H71V80H69V79.5H67V80H65V79.5H63V80H61V79.5H59V80H57V79.5H55V80H53V79.5H51V80H49V79.5H47V80H45V79.5H44C43.6675 79.5 43.3401 79.4783 43.0195 79.4365L42.9551 79.9297C42.2495 79.8376 41.5729 79.6551 40.9375 79.3916L41.1289 78.9307C40.5197 78.678 39.9506 78.3477 39.4346 77.9512L39.1309 78.3457C38.5763 77.9195 38.0794 77.4228 37.6533 76.8682L38.0488 76.5654C37.6523 76.0494 37.322 75.4803 37.0693 74.8711L36.6074 75.0615C36.344 74.4262 36.1613 73.7495 36.0693 73.0439L36.5635 72.9805C36.5217 72.6599 36.5 72.3325 36.5 72V71H36V69H36.5V67H36V65H36.5V63H36V61H36.5V59H36V57H36.5V55H36V53H36.5V52C36.5 51.6675 36.5217 51.3401 36.5635 51.0195L36.0693 50.9551C36.1614 50.2496 36.3439 49.5728 36.6074 48.9375L37.0693 49.1289C37.322 48.5197 37.6523 47.9506 38.0488 47.4346L37.6533 47.1309C38.0794 46.5763 38.5763 46.0794 39.1309 45.6533L39.4346 46.0488C39.9506 45.6523 40.5197 45.322 41.1289 45.0693L40.9375 44.6074C41.5728 44.3439 42.2496 44.1614 42.9551 44.0693L43.0195 44.5635C43.3401 44.5217 43.6675 44.5 44 44.5H45V44H47V44.5H49V44H51V44.5H53V44H55V44.5H57V44H59V44.5H61V44H63V44.5H65V44H67V44.5H69V44H71V44.5H73V44H75V44.5H77V44H79V44.5H81V44H83V44.5H85V44H87V44.5H89V44H91V44.5H93V44H95V44.5H97V44H99V44.5H101V44H103V44.5H105V44H107V44.5H109V44H111V44.5H113V44H115V44.5H117V44H119V44.5H121V44H123V44.5H125V44H127V44.5H129V44H131V44.5H133V44H135V44.5H137V44H139V44.5H141V44H143V44.5H145V44H147V44.5H149V44H151V44.5H153V44H155V44.5H157V44H159V44.5H161V44H163V44.5H165V44H167V44.5H169V44H171V44.5H173V44H175V44.5H177V44H179V44.5H181V44H183V44.5H185V44H187V44.5H189V44H191Z" stroke="black" stroke-opacity="0.08" stroke-dasharray="2 2" shape-rendering="crispEdges"/>
<path opacity="0.6" d="M44 62C44 56.4772 48.4772 52 54 52C59.5228 52 64 56.4772 64 62C64 67.5228 59.5228 72 54 72C48.4772 72 44 67.5228 44 62Z" fill="black" fill-opacity="0.08"/>
<path opacity="0.6" d="M72 56C72 54.3431 73.3431 53 75 53H112C113.657 53 115 54.3431 115 56C115 57.6569 113.657 59 112 59H75C73.3431 59 72 57.6569 72 56Z" fill="black" fill-opacity="0.08"/>
<path opacity="0.6" d="M72 67C72 64.7909 73.7909 63 76 63H161C163.209 63 165 64.7909 165 67C165 69.2091 163.209 71 161 71H76C73.7909 71 72 69.2091 72 67Z" fill="black" fill-opacity="0.08"/>
</g>
<g filter="url(#filter1_d_3718_13951)">
<path d="M32 72C32 67.5817 35.5817 64 40 64H196C200.418 64 204 67.5817 204 72V92C204 96.4183 200.418 100 196 100H40C35.5817 100 32 96.4183 32 92V72Z" fill="white" shape-rendering="crispEdges"/>
<path d="M195 64V64.5H196C196.332 64.5 196.66 64.5217 196.98 64.5635L197.044 64.0693C197.75 64.1613 198.426 64.344 199.062 64.6074L198.871 65.0693C199.48 65.322 200.049 65.6523 200.565 66.0488L200.868 65.6533C201.423 66.0794 201.92 66.5763 202.346 67.1309L201.951 67.4346C202.348 67.9506 202.678 68.5197 202.931 69.1289L203.392 68.9375C203.655 69.5729 203.838 70.2495 203.93 70.9551L203.437 71.0195C203.478 71.3401 203.5 71.6675 203.5 72V73H204V75H203.5V77H204V79H203.5V81H204V83H203.5V85H204V87H203.5V89H204V91H203.5V92C203.5 92.3325 203.478 92.6599 203.437 92.9805L203.93 93.0439C203.838 93.7496 203.655 94.4261 203.392 95.0615L202.931 94.8711C202.678 95.4803 202.348 96.0494 201.951 96.5654L202.346 96.8682C201.92 97.4228 201.423 97.9196 200.868 98.3457L200.565 97.9512C200.049 98.3477 199.48 98.678 198.871 98.9307L199.062 99.3916C198.426 99.6551 197.75 99.8377 197.044 99.9297L196.98 99.4365C196.66 99.4783 196.332 99.5 196 99.5H195V100H193V99.5H191V100H189V99.5H187V100H185V99.5H183V100H181V99.5H179V100H177V99.5H175V100H173V99.5H171V100H169V99.5H167V100H165V99.5H163V100H161V99.5H159V100H157V99.5H155V100H153V99.5H151V100H149V99.5H147V100H145V99.5H143V100H141V99.5H139V100H137V99.5H135V100H133V99.5H131V100H129V99.5H127V100H125V99.5H123V100H121V99.5H119V100H117V99.5H115V100H113V99.5H111V100H109V99.5H107V100H105V99.5H103V100H101V99.5H99V100H97V99.5H95V100H93V99.5H91V100H89V99.5H87V100H85V99.5H83V100H81V99.5H79V100H77V99.5H75V100H73V99.5H71V100H69V99.5H67V100H65V99.5H63V100H61V99.5H59V100H57V99.5H55V100H53V99.5H51V100H49V99.5H47V100H45V99.5H43V100H41V99.5H40C39.6675 99.5 39.3401 99.4783 39.0195 99.4365L38.9551 99.9297C38.2495 99.8376 37.5729 99.6551 36.9375 99.3916L37.1289 98.9307C36.5197 98.678 35.9506 98.3477 35.4346 97.9512L35.1309 98.3457C34.5763 97.9195 34.0794 97.4228 33.6533 96.8682L34.0488 96.5654C33.6523 96.0494 33.322 95.4803 33.0693 94.8711L32.6074 95.0615C32.344 94.4262 32.1613 93.7495 32.0693 93.0439L32.5635 92.9805C32.5217 92.6599 32.5 92.3325 32.5 92V91H32V89H32.5V87H32V85H32.5V83H32V81H32.5V79H32V77H32.5V75H32V73H32.5V72C32.5 71.6675 32.5217 71.3401 32.5635 71.0195L32.0693 70.9551C32.1614 70.2496 32.3439 69.5728 32.6074 68.9375L33.0693 69.1289C33.322 68.5197 33.6523 67.9506 34.0488 67.4346L33.6533 67.1309C34.0794 66.5763 34.5763 66.0794 35.1309 65.6533L35.4346 66.0488C35.9506 65.6523 36.5197 65.322 37.1289 65.0693L36.9375 64.6074C37.5728 64.3439 38.2496 64.1614 38.9551 64.0693L39.0195 64.5635C39.3401 64.5217 39.6675 64.5 40 64.5H41V64H43V64.5H45V64H47V64.5H49V64H51V64.5H53V64H55V64.5H57V64H59V64.5H61V64H63V64.5H65V64H67V64.5H69V64H71V64.5H73V64H75V64.5H77V64H79V64.5H81V64H83V64.5H85V64H87V64.5H89V64H91V64.5H93V64H95V64.5H97V64H99V64.5H101V64H103V64.5H105V64H107V64.5H109V64H111V64.5H113V64H115V64.5H117V64H119V64.5H121V64H123V64.5H125V64H127V64.5H129V64H131V64.5H133V64H135V64.5H137V64H139V64.5H141V64H143V64.5H145V64H147V64.5H149V64H151V64.5H153V64H155V64.5H157V64H159V64.5H161V64H163V64.5H165V64H167V64.5H169V64H171V64.5H173V64H175V64.5H177V64H179V64.5H181V64H183V64.5H185V64H187V64.5H189V64H191V64.5H193V64H195Z" stroke="black" stroke-opacity="0.08" stroke-dasharray="2 2" shape-rendering="crispEdges"/>
<path opacity="0.6" d="M40 82C40 76.4772 44.4772 72 50 72C55.5228 72 60 76.4772 60 82C60 87.5228 55.5228 92 50 92C44.4772 92 40 87.5228 40 82Z" fill="black" fill-opacity="0.08"/>
<path opacity="0.6" d="M68 76C68 74.3431 69.3431 73 71 73H108C109.657 73 111 74.3431 111 76C111 77.6569 109.657 79 108 79H71C69.3431 79 68 77.6569 68 76Z" fill="black" fill-opacity="0.08"/>
<path d="M68 87C68 84.7909 69.7909 83 72 83H157C159.209 83 161 84.7909 161 87C161 89.2091 159.209 91 157 91H72C69.7909 91 68 89.2091 68 87Z" fill="black" fill-opacity="0.04"/>
</g>
<g filter="url(#filter2_d_3718_13951)">
<path d="M28 92C28 87.5817 31.5817 84 36 84H200C204.418 84 208 87.5817 208 92V112C208 116.418 204.418 120 200 120H36C31.5817 120 28 116.418 28 112V92Z" fill="white" shape-rendering="crispEdges"/>
<path d="M199 84V84.5H200C200.332 84.5 200.66 84.5217 200.98 84.5635L201.044 84.0693C201.75 84.1613 202.426 84.344 203.062 84.6074L202.871 85.0693C203.48 85.322 204.049 85.6523 204.565 86.0488L204.868 85.6533C205.423 86.0794 205.92 86.5763 206.346 87.1309L205.951 87.4346C206.348 87.9506 206.678 88.5197 206.931 89.1289L207.392 88.9375C207.655 89.5729 207.838 90.2495 207.93 90.9551L207.437 91.0195C207.478 91.3401 207.5 91.6675 207.5 92V93H208V95H207.5V97H208V99H207.5V101H208V103H207.5V105H208V107H207.5V109H208V111H207.5V112C207.5 112.332 207.478 112.66 207.437 112.98L207.93 113.044C207.838 113.75 207.655 114.426 207.392 115.062L206.931 114.871C206.678 115.48 206.348 116.049 205.951 116.565L206.346 116.868C205.92 117.423 205.423 117.92 204.868 118.346L204.565 117.951C204.049 118.348 203.48 118.678 202.871 118.931L203.062 119.392C202.426 119.655 201.75 119.838 201.044 119.93L200.98 119.437C200.66 119.478 200.332 119.5 200 119.5H199V120H197V119.5H195V120H193V119.5H191V120H189V119.5H187V120H185V119.5H183V120H181V119.5H179V120H177V119.5H175V120H173V119.5H171V120H169V119.5H167V120H165V119.5H163V120H161V119.5H159V120H157V119.5H155V120H153V119.5H151V120H149V119.5H147V120H145V119.5H143V120H141V119.5H139V120H137V119.5H135V120H133V119.5H131V120H129V119.5H127V120H125V119.5H123V120H121V119.5H119V120H117V119.5H115V120H113V119.5H111V120H109V119.5H107V120H105V119.5H103V120H101V119.5H99V120H97V119.5H95V120H93V119.5H91V120H89V119.5H87V120H85V119.5H83V120H81V119.5H79V120H77V119.5H75V120H73V119.5H71V120H69V119.5H67V120H65V119.5H63V120H61V119.5H59V120H57V119.5H55V120H53V119.5H51V120H49V119.5H47V120H45V119.5H43V120H41V119.5H39V120H37V119.5H36C35.6675 119.5 35.3401 119.478 35.0195 119.437L34.9551 119.93C34.2495 119.838 33.5729 119.655 32.9375 119.392L33.1289 118.931C32.5197 118.678 31.9506 118.348 31.4346 117.951L31.1309 118.346C30.5763 117.92 30.0794 117.423 29.6533 116.868L30.0488 116.565C29.6523 116.049 29.322 115.48 29.0693 114.871L28.6074 115.062C28.344 114.426 28.1613 113.75 28.0693 113.044L28.5635 112.98C28.5217 112.66 28.5 112.332 28.5 112V111H28V109H28.5V107H28V105H28.5V103H28V101H28.5V99H28V97H28.5V95H28V93H28.5V92C28.5 91.6675 28.5217 91.3401 28.5635 91.0195L28.0693 90.9551C28.1614 90.2496 28.3439 89.5728 28.6074 88.9375L29.0693 89.1289C29.322 88.5197 29.6523 87.9506 30.0488 87.4346L29.6533 87.1309C30.0794 86.5763 30.5763 86.0794 31.1309 85.6533L31.4346 86.0488C31.9506 85.6523 32.5197 85.322 33.1289 85.0693L32.9375 84.6074C33.5728 84.3439 34.2496 84.1614 34.9551 84.0693L35.0195 84.5635C35.3401 84.5217 35.6675 84.5 36 84.5H37V84H39V84.5H41V84H43V84.5H45V84H47V84.5H49V84H51V84.5H53V84H55V84.5H57V84H59V84.5H61V84H63V84.5H65V84H67V84.5H69V84H71V84.5H73V84H75V84.5H77V84H79V84.5H81V84H83V84.5H85V84H87V84.5H89V84H91V84.5H93V84H95V84.5H97V84H99V84.5H101V84H103V84.5H105V84H107V84.5H109V84H111V84.5H113V84H115V84.5H117V84H119V84.5H121V84H123V84.5H125V84H127V84.5H129V84H131V84.5H133V84H135V84.5H137V84H139V84.5H141V84H143V84.5H145V84H147V84.5H149V84H151V84.5H153V84H155V84.5H157V84H159V84.5H161V84H163V84.5H165V84H167V84.5H169V84H171V84.5H173V84H175V84.5H177V84H179V84.5H181V84H183V84.5H185V84H187V84.5H189V84H191V84.5H193V84H195V84.5H197V84H199Z" stroke="black" stroke-opacity="0.08" stroke-dasharray="2 2" shape-rendering="crispEdges"/>
<rect opacity="0.6" x="36" y="92" width="20" height="20" rx="10" fill="black" fill-opacity="0.08"/>
<path opacity="0.6" d="M64 96C64 94.3431 65.3431 93 67 93H104C105.657 93 107 94.3431 107 96C107 97.6569 105.657 99 104 99H67C65.3431 99 64 97.6569 64 96Z" fill="black" fill-opacity="0.08"/>
<path opacity="0.6" d="M64 107C64 104.791 65.7909 103 68 103H153C155.209 103 157 104.791 157 107C157 109.209 155.209 111 153 111H68C65.7909 111 64 109.209 64 107Z" fill="black" fill-opacity="0.08"/>
</g>
<defs>
<filter id="filter0_d_3718_13951" x="30" y="41" width="176" height="48" filterUnits="userSpaceOnUse" color-interpolation-filters="sRGB">
<feFlood flood-opacity="0" result="BackgroundImageFix"/>
<feColorMatrix in="SourceAlpha" type="matrix" values="0 0 0 0 0 0 0 0 0 0 0 0 0 0 0 0 0 0 127 0" result="hardAlpha"/>
<feOffset dy="3"/>
<feGaussianBlur stdDeviation="3"/>
<feComposite in2="hardAlpha" operator="out"/>
<feColorMatrix type="matrix" values="0 0 0 0 0 0 0 0 0 0 0 0 0 0 0 0 0 0 0.04 0"/>
<feBlend mode="normal" in2="BackgroundImageFix" result="effect1_dropShadow_3718_13951"/>
<feBlend mode="normal" in="SourceGraphic" in2="effect1_dropShadow_3718_13951" result="shape"/>
</filter>
<filter id="filter1_d_3718_13951" x="26" y="61" width="184" height="48" filterUnits="userSpaceOnUse" color-interpolation-filters="sRGB">
<feFlood flood-opacity="0" result="BackgroundImageFix"/>
<feColorMatrix in="SourceAlpha" type="matrix" values="0 0 0 0 0 0 0 0 0 0 0 0 0 0 0 0 0 0 127 0" result="hardAlpha"/>
<feOffset dy="3"/>
<feGaussianBlur stdDeviation="3"/>
<feComposite in2="hardAlpha" operator="out"/>
<feColorMatrix type="matrix" values="0 0 0 0 0 0 0 0 0 0 0 0 0 0 0 0 0 0 0.04 0"/>
<feBlend mode="normal" in2="BackgroundImageFix" result="effect1_dropShadow_3718_13951"/>
<feBlend mode="normal" in="SourceGraphic" in2="effect1_dropShadow_3718_13951" result="shape"/>
</filter>
<filter id="filter2_d_3718_13951" x="22" y="81" width="192" height="48" filterUnits="userSpaceOnUse" color-interpolation-filters="sRGB">
<feFlood flood-opacity="0" result="BackgroundImageFix"/>
<feColorMatrix in="SourceAlpha" type="matrix" values="0 0 0 0 0 0 0 0 0 0 0 0 0 0 0 0 0 0 127 0" result="hardAlpha"/>
<feOffset dy="3"/>
<feGaussianBlur stdDeviation="3"/>
<feComposite in2="hardAlpha" operator="out"/>
<feColorMatrix type="matrix" values="0 0 0 0 0 0 0 0 0 0 0 0 0 0 0 0 0 0 0.04 0"/>
<feBlend mode="normal" in2="BackgroundImageFix" result="effect1_dropShadow_3718_13951"/>
<feBlend mode="normal" in="SourceGraphic" in2="effect1_dropShadow_3718_13951" result="shape"/>
</filter>
</defs>
</svg>
