<svg width="236" height="164" viewBox="0 0 236 164" fill="none" xmlns="http://www.w3.org/2000/svg">
<g filter="url(#filter0_d_3718_13949)">
<rect x="66.5" y="30.5" width="103" height="103" rx="51.5" stroke="#E6EBFF" shape-rendering="crispEdges"/>
</g>
<mask id="mask0_3718_13949" style="mask-type:alpha" maskUnits="userSpaceOnUse" x="66" y="29" width="104" height="105">
<rect x="66" y="29.5" width="104" height="104" rx="52" fill="black"/>
</mask>
<g mask="url(#mask0_3718_13949)">
<g filter="url(#filter1_d_3718_13949)">
<path d="M90 71.5C90 67.0817 93.5817 63.5 98 63.5H216C220.418 63.5 224 67.0817 224 71.5V91.5C224 95.9183 220.418 99.5 216 99.5H98C93.5817 99.5 90 95.9183 90 91.5V71.5Z" fill="white" shape-rendering="crispEdges"/>
<path d="M215.017 63.5V64H216C216.332 64 216.66 64.0217 216.98 64.0635L217.044 63.5693C217.75 63.6613 218.426 63.844 219.062 64.1074L218.871 64.5693C219.48 64.822 220.049 65.1523 220.565 65.5488L220.868 65.1533C221.423 65.5794 221.92 66.0763 222.346 66.6309L221.951 66.9346C222.348 67.4506 222.678 68.0197 222.931 68.6289L223.392 68.4375C223.655 69.0729 223.838 69.7495 223.93 70.4551L223.437 70.5195C223.478 70.8401 223.5 71.1675 223.5 71.5V72.5H224V74.5H223.5V76.5H224V78.5H223.5V80.5H224V82.5H223.5V84.5H224V86.5H223.5V88.5H224V90.5H223.5V91.5C223.5 91.8325 223.478 92.1599 223.437 92.4805L223.93 92.5439C223.838 93.2496 223.655 93.9261 223.392 94.5615L222.931 94.3711C222.678 94.9803 222.348 95.5494 221.951 96.0654L222.346 96.3682C221.92 96.9228 221.423 97.4196 220.868 97.8457L220.565 97.4512C220.049 97.8477 219.48 98.178 218.871 98.4307L219.062 98.8916C218.426 99.1551 217.75 99.3377 217.044 99.4297L216.98 98.9365C216.66 98.9783 216.332 99 216 99H215.017V99.5H213.05V99H211.083V99.5H209.116V99H207.15V99.5H205.184V99H203.217V99.5H201.25V99H199.283V99.5H197.316V99H195.35V99.5H193.384V99H191.417V99.5H189.45V99H187.483V99.5H185.517V99H183.55V99.5H181.583V99H179.616V99.5H177.65V99H175.684V99.5H173.717V99H171.75V99.5H169.783V99H167.816V99.5H165.85V99H163.884V99.5H161.917V99H159.95V99.5H157.983V99H156.017V99.5H154.05V99H152.083V99.5H150.116V99H148.15V99.5H146.184V99H144.217V99.5H142.25V99H140.283V99.5H138.316V99H136.35V99.5H134.384V99H132.417V99.5H130.45V99H128.483V99.5H126.517V99H124.55V99.5H122.583V99H120.616V99.5H118.65V99H116.684V99.5H114.717V99H112.75V99.5H110.783V99H108.816V99.5H106.85V99H104.884V99.5H102.917V99H100.95V99.5H98.9834V99H98C97.6675 99 97.3401 98.9783 97.0195 98.9365L96.9551 99.4297C96.2495 99.3376 95.5729 99.1551 94.9375 98.8916L95.1289 98.4307C94.5197 98.178 93.9506 97.8477 93.4346 97.4512L93.1309 97.8457C92.5763 97.4195 92.0794 96.9228 91.6533 96.3682L92.0488 96.0654C91.6523 95.5494 91.322 94.9803 91.0693 94.3711L90.6074 94.5615C90.344 93.9262 90.1613 93.2495 90.0693 92.5439L90.5635 92.4805C90.5217 92.1599 90.5 91.8325 90.5 91.5V90.5H90V88.5H90.5V86.5H90V84.5H90.5V82.5H90V80.5H90.5V78.5H90V76.5H90.5V74.5H90V72.5H90.5V71.5C90.5 71.1675 90.5217 70.8401 90.5635 70.5195L90.0693 70.4551C90.1614 69.7496 90.3439 69.0728 90.6074 68.4375L91.0693 68.6289C91.322 68.0197 91.6523 67.4506 92.0488 66.9346L91.6533 66.6309C92.0794 66.0763 92.5763 65.5794 93.1309 65.1533L93.4346 65.5488C93.9506 65.1523 94.5197 64.822 95.1289 64.5693L94.9375 64.1074C95.5728 63.8439 96.2496 63.6614 96.9551 63.5693L97.0195 64.0635C97.3401 64.0217 97.6675 64 98 64H98.9834V63.5H100.95V64H102.917V63.5H104.884V64H106.85V63.5H108.816V64H110.783V63.5H112.75V64H114.717V63.5H116.684V64H118.65V63.5H120.616V64H122.583V63.5H124.55V64H126.517V63.5H128.483V64H130.45V63.5H132.417V64H134.384V63.5H136.35V64H138.316V63.5H140.283V64H142.25V63.5H144.217V64H146.184V63.5H148.15V64H150.116V63.5H152.083V64H154.05V63.5H156.017V64H157.983V63.5H159.95V64H161.917V63.5H163.884V64H165.85V63.5H167.816V64H169.783V63.5H171.75V64H173.717V63.5H175.684V64H177.65V63.5H179.616V64H181.583V63.5H183.55V64H185.517V63.5H187.483V64H189.45V63.5H191.417V64H193.384V63.5H195.35V64H197.316V63.5H199.283V64H201.25V63.5H203.217V64H205.184V63.5H207.15V64H209.116V63.5H211.083V64H213.05V63.5H215.017Z" stroke="black" stroke-opacity="0.08" stroke-dasharray="2 2" shape-rendering="crispEdges"/>
<rect opacity="0.6" x="98" y="71.5" width="20" height="20" rx="10" fill="black" fill-opacity="0.08"/>
<path opacity="0.6" d="M126 75.5C126 73.8431 127.343 72.5 129 72.5H166C167.657 72.5 169 73.8431 169 75.5C169 77.1569 167.657 78.5 166 78.5H129C127.343 78.5 126 77.1569 126 75.5Z" fill="black" fill-opacity="0.08"/>
<path opacity="0.6" d="M126 86.5C126 84.2909 127.791 82.5 130 82.5H215C217.209 82.5 219 84.2909 219 86.5C219 88.7091 217.209 90.5 215 90.5H130C127.791 90.5 126 88.7091 126 86.5Z" fill="black" fill-opacity="0.08"/>
</g>
</g>
<defs>
<filter id="filter0_d_3718_13949" x="48" y="12" width="140" height="140" filterUnits="userSpaceOnUse" color-interpolation-filters="sRGB">
<feFlood flood-opacity="0" result="BackgroundImageFix"/>
<feColorMatrix in="SourceAlpha" type="matrix" values="0 0 0 0 0 0 0 0 0 0 0 0 0 0 0 0 0 0 127 0" result="hardAlpha"/>
<feMorphology radius="8" operator="dilate" in="SourceAlpha" result="effect1_dropShadow_3718_13949"/>
<feOffset/>
<feGaussianBlur stdDeviation="5"/>
<feComposite in2="hardAlpha" operator="out"/>
<feColorMatrix type="matrix" values="0 0 0 0 0 0 0 0 0 0 0 0 0 0 0 0 0 0 0.02 0"/>
<feBlend mode="normal" in2="BackgroundImageFix" result="effect1_dropShadow_3718_13949"/>
<feBlend mode="normal" in="SourceGraphic" in2="effect1_dropShadow_3718_13949" result="shape"/>
</filter>
<filter id="filter1_d_3718_13949" x="84" y="60.5" width="146" height="48" filterUnits="userSpaceOnUse" color-interpolation-filters="sRGB">
<feFlood flood-opacity="0" result="BackgroundImageFix"/>
<feColorMatrix in="SourceAlpha" type="matrix" values="0 0 0 0 0 0 0 0 0 0 0 0 0 0 0 0 0 0 127 0" result="hardAlpha"/>
<feOffset dy="3"/>
<feGaussianBlur stdDeviation="3"/>
<feComposite in2="hardAlpha" operator="out"/>
<feColorMatrix type="matrix" values="0 0 0 0 0 0 0 0 0 0 0 0 0 0 0 0 0 0 0.04 0"/>
<feBlend mode="normal" in2="BackgroundImageFix" result="effect1_dropShadow_3718_13949"/>
<feBlend mode="normal" in="SourceGraphic" in2="effect1_dropShadow_3718_13949" result="shape"/>
</filter>
</defs>
</svg>
