<svg width="236" height="164" viewBox="0 0 236 164" fill="none" xmlns="http://www.w3.org/2000/svg">
<g filter="url(#filter0_d_5099_9104)">
<path d="M32 52C32 47.5817 35.5817 44 40 44H196C200.418 44 204 47.5817 204 52V72C204 76.4183 200.418 80 196 80H40C35.5817 80 32 76.4183 32 72V52Z" fill="white" shape-rendering="crispEdges"/>
<path d="M195 44V44.5H196C196.332 44.5 196.66 44.5217 196.98 44.5635L197.044 44.0693C197.75 44.1613 198.426 44.344 199.062 44.6074L198.871 45.0693C199.48 45.322 200.049 45.6523 200.565 46.0488L200.868 45.6533C201.423 46.0794 201.92 46.5763 202.346 47.1309L201.951 47.4346C202.348 47.9506 202.678 48.5197 202.931 49.1289L203.392 48.9375C203.655 49.5729 203.838 50.2495 203.93 50.9551L203.437 51.0195C203.478 51.3401 203.5 51.6675 203.5 52V53H204V55H203.5V57H204V59H203.5V61H204V63H203.5V65H204V67H203.5V69H204V71H203.5V72C203.5 72.3325 203.478 72.6599 203.437 72.9805L203.93 73.0439C203.838 73.7496 203.655 74.4261 203.392 75.0615L202.931 74.8711C202.678 75.4803 202.348 76.0494 201.951 76.5654L202.346 76.8682C201.92 77.4228 201.423 77.9196 200.868 78.3457L200.565 77.9512C200.049 78.3477 199.48 78.678 198.871 78.9307L199.062 79.3916C198.426 79.6551 197.75 79.8377 197.044 79.9297L196.98 79.4365C196.66 79.4783 196.332 79.5 196 79.5H195V80H193V79.5H191V80H189V79.5H187V80H185V79.5H183V80H181V79.5H179V80H177V79.5H175V80H173V79.5H171V80H169V79.5H167V80H165V79.5H163V80H161V79.5H159V80H157V79.5H155V80H153V79.5H151V80H149V79.5H147V80H145V79.5H143V80H141V79.5H139V80H137V79.5H135V80H133V79.5H131V80H129V79.5H127V80H125V79.5H123V80H121V79.5H119V80H117V79.5H115V80H113V79.5H111V80H109V79.5H107V80H105V79.5H103V80H101V79.5H99V80H97V79.5H95V80H93V79.5H91V80H89V79.5H87V80H85V79.5H83V80H81V79.5H79V80H77V79.5H75V80H73V79.5H71V80H69V79.5H67V80H65V79.5H63V80H61V79.5H59V80H57V79.5H55V80H53V79.5H51V80H49V79.5H47V80H45V79.5H43V80H41V79.5H40C39.6675 79.5 39.3401 79.4783 39.0195 79.4365L38.9551 79.9297C38.2495 79.8376 37.5729 79.6551 36.9375 79.3916L37.1289 78.9307C36.5197 78.678 35.9506 78.3477 35.4346 77.9512L35.1309 78.3457C34.5763 77.9195 34.0794 77.4228 33.6533 76.8682L34.0488 76.5654C33.6523 76.0494 33.322 75.4803 33.0693 74.8711L32.6074 75.0615C32.344 74.4262 32.1613 73.7495 32.0693 73.0439L32.5635 72.9805C32.5217 72.6599 32.5 72.3325 32.5 72V71H32V69H32.5V67H32V65H32.5V63H32V61H32.5V59H32V57H32.5V55H32V53H32.5V52C32.5 51.6675 32.5217 51.3401 32.5635 51.0195L32.0693 50.9551C32.1614 50.2496 32.3439 49.5728 32.6074 48.9375L33.0693 49.1289C33.322 48.5197 33.6523 47.9506 34.0488 47.4346L33.6533 47.1309C34.0794 46.5763 34.5763 46.0794 35.1309 45.6533L35.4346 46.0488C35.9506 45.6523 36.5197 45.322 37.1289 45.0693L36.9375 44.6074C37.5728 44.3439 38.2496 44.1614 38.9551 44.0693L39.0195 44.5635C39.3401 44.5217 39.6675 44.5 40 44.5H41V44H43V44.5H45V44H47V44.5H49V44H51V44.5H53V44H55V44.5H57V44H59V44.5H61V44H63V44.5H65V44H67V44.5H69V44H71V44.5H73V44H75V44.5H77V44H79V44.5H81V44H83V44.5H85V44H87V44.5H89V44H91V44.5H93V44H95V44.5H97V44H99V44.5H101V44H103V44.5H105V44H107V44.5H109V44H111V44.5H113V44H115V44.5H117V44H119V44.5H121V44H123V44.5H125V44H127V44.5H129V44H131V44.5H133V44H135V44.5H137V44H139V44.5H141V44H143V44.5H145V44H147V44.5H149V44H151V44.5H153V44H155V44.5H157V44H159V44.5H161V44H163V44.5H165V44H167V44.5H169V44H171V44.5H173V44H175V44.5H177V44H179V44.5H181V44H183V44.5H185V44H187V44.5H189V44H191V44.5H193V44H195Z" stroke="black" stroke-opacity="0.04" stroke-dasharray="2 2" shape-rendering="crispEdges"/>
<g opacity="0.6">
<path d="M39.5 56C39.5 53.5147 41.5147 51.5 44 51.5V51.5C46.4853 51.5 48.5 53.5147 48.5 56V56C48.5 58.4853 46.4853 60.5 44 60.5V60.5C41.5147 60.5 39.5 58.4853 39.5 56V56Z" stroke="black" stroke-opacity="0.4" stroke-width="0.75" stroke-linecap="round" stroke-dasharray="0.75 1.5"/>
</g>
<path opacity="0.6" d="M54 56C54 54.3431 55.3431 53 57 53H134C135.657 53 137 54.3431 137 56C137 57.6569 135.657 59 134 59H57C55.3431 59 54 57.6569 54 56Z" fill="black" fill-opacity="0.08"/>
<g opacity="0.8">
<path opacity="0.8" d="M54 69C54 67.3431 55.3431 66 57 66H193C194.657 66 196 67.3431 196 69C196 70.6569 194.657 72 193 72H57C55.3431 72 54 70.6569 54 69Z" fill="black" fill-opacity="0.08"/>
</g>
</g>
<g filter="url(#filter1_d_5099_9104)">
<path d="M28 72C28 67.5817 31.5817 64 36 64H200C204.418 64 208 67.5817 208 72V92C208 96.4183 204.418 100 200 100H36C31.5817 100 28 96.4183 28 92V72Z" fill="white" shape-rendering="crispEdges"/>
<path d="M199 64V64.5H200C200.332 64.5 200.66 64.5217 200.98 64.5635L201.044 64.0693C201.75 64.1613 202.426 64.344 203.062 64.6074L202.871 65.0693C203.48 65.322 204.049 65.6523 204.565 66.0488L204.868 65.6533C205.423 66.0794 205.92 66.5763 206.346 67.1309L205.951 67.4346C206.348 67.9506 206.678 68.5197 206.931 69.1289L207.392 68.9375C207.655 69.5729 207.838 70.2495 207.93 70.9551L207.437 71.0195C207.478 71.3401 207.5 71.6675 207.5 72V73H208V75H207.5V77H208V79H207.5V81H208V83H207.5V85H208V87H207.5V89H208V91H207.5V92C207.5 92.3325 207.478 92.6599 207.437 92.9805L207.93 93.0439C207.838 93.7496 207.655 94.4261 207.392 95.0615L206.931 94.8711C206.678 95.4803 206.348 96.0494 205.951 96.5654L206.346 96.8682C205.92 97.4228 205.423 97.9196 204.868 98.3457L204.565 97.9512C204.049 98.3477 203.48 98.678 202.871 98.9307L203.062 99.3916C202.426 99.6551 201.75 99.8377 201.044 99.9297L200.98 99.4365C200.66 99.4783 200.332 99.5 200 99.5H199V100H197V99.5H195V100H193V99.5H191V100H189V99.5H187V100H185V99.5H183V100H181V99.5H179V100H177V99.5H175V100H173V99.5H171V100H169V99.5H167V100H165V99.5H163V100H161V99.5H159V100H157V99.5H155V100H153V99.5H151V100H149V99.5H147V100H145V99.5H143V100H141V99.5H139V100H137V99.5H135V100H133V99.5H131V100H129V99.5H127V100H125V99.5H123V100H121V99.5H119V100H117V99.5H115V100H113V99.5H111V100H109V99.5H107V100H105V99.5H103V100H101V99.5H99V100H97V99.5H95V100H93V99.5H91V100H89V99.5H87V100H85V99.5H83V100H81V99.5H79V100H77V99.5H75V100H73V99.5H71V100H69V99.5H67V100H65V99.5H63V100H61V99.5H59V100H57V99.5H55V100H53V99.5H51V100H49V99.5H47V100H45V99.5H43V100H41V99.5H39V100H37V99.5H36C35.6675 99.5 35.3401 99.4783 35.0195 99.4365L34.9551 99.9297C34.2495 99.8376 33.5729 99.6551 32.9375 99.3916L33.1289 98.9307C32.5197 98.678 31.9506 98.3477 31.4346 97.9512L31.1309 98.3457C30.5763 97.9195 30.0794 97.4228 29.6533 96.8682L30.0488 96.5654C29.6523 96.0494 29.322 95.4803 29.0693 94.8711L28.6074 95.0615C28.344 94.4262 28.1613 93.7495 28.0693 93.0439L28.5635 92.9805C28.5217 92.6599 28.5 92.3325 28.5 92V91H28V89H28.5V87H28V85H28.5V83H28V81H28.5V79H28V77H28.5V75H28V73H28.5V72C28.5 71.6675 28.5217 71.3401 28.5635 71.0195L28.0693 70.9551C28.1614 70.2496 28.3439 69.5728 28.6074 68.9375L29.0693 69.1289C29.322 68.5197 29.6523 67.9506 30.0488 67.4346L29.6533 67.1309C30.0794 66.5763 30.5763 66.0794 31.1309 65.6533L31.4346 66.0488C31.9506 65.6523 32.5197 65.322 33.1289 65.0693L32.9375 64.6074C33.5728 64.3439 34.2496 64.1614 34.9551 64.0693L35.0195 64.5635C35.3401 64.5217 35.6675 64.5 36 64.5H37V64H39V64.5H41V64H43V64.5H45V64H47V64.5H49V64H51V64.5H53V64H55V64.5H57V64H59V64.5H61V64H63V64.5H65V64H67V64.5H69V64H71V64.5H73V64H75V64.5H77V64H79V64.5H81V64H83V64.5H85V64H87V64.5H89V64H91V64.5H93V64H95V64.5H97V64H99V64.5H101V64H103V64.5H105V64H107V64.5H109V64H111V64.5H113V64H115V64.5H117V64H119V64.5H121V64H123V64.5H125V64H127V64.5H129V64H131V64.5H133V64H135V64.5H137V64H139V64.5H141V64H143V64.5H145V64H147V64.5H149V64H151V64.5H153V64H155V64.5H157V64H159V64.5H161V64H163V64.5H165V64H167V64.5H169V64H171V64.5H173V64H175V64.5H177V64H179V64.5H181V64H183V64.5H185V64H187V64.5H189V64H191V64.5H193V64H195V64.5H197V64H199Z" stroke="black" stroke-opacity="0.04" stroke-dasharray="2 2" shape-rendering="crispEdges"/>
<g opacity="0.6">
<path d="M35.5 76C35.5 73.5147 37.5147 71.5 40 71.5V71.5C42.4853 71.5 44.5 73.5147 44.5 76V76C44.5 78.4853 42.4853 80.5 40 80.5V80.5C37.5147 80.5 35.5 78.4853 35.5 76V76Z" stroke="black" stroke-opacity="0.4" stroke-width="0.75" stroke-linecap="round" stroke-dasharray="0.75 1.5"/>
</g>
<path opacity="0.6" d="M50 76C50 74.3431 51.3431 73 53 73H120C121.657 73 123 74.3431 123 76C123 77.6569 121.657 79 120 79H53C51.3431 79 50 77.6569 50 76Z" fill="black" fill-opacity="0.08"/>
<g opacity="0.8">
<path opacity="0.8" d="M50 89C50 87.3431 51.3431 86 53 86H189C190.657 86 192 87.3431 192 89C192 90.6569 190.657 92 189 92H53C51.3431 92 50 90.6569 50 89Z" fill="black" fill-opacity="0.08"/>
</g>
</g>
<g filter="url(#filter2_d_5099_9104)">
<path d="M24 92C24 87.5817 27.5817 84 32 84H204C208.418 84 212 87.5817 212 92V112C212 116.418 208.418 120 204 120H32C27.5817 120 24 116.418 24 112V92Z" fill="white" shape-rendering="crispEdges"/>
<path d="M32 84.5H204C208.142 84.5 211.5 87.8579 211.5 92V112C211.5 116.142 208.142 119.5 204 119.5H32C27.8579 119.5 24.5 116.142 24.5 112V92C24.5 87.8579 27.8579 84.5 32 84.5Z" stroke="black" stroke-opacity="0.04" shape-rendering="crispEdges"/>
<g opacity="0.8">
<path d="M31.5 96C31.5 93.5147 33.5147 91.5 36 91.5V91.5C38.4853 91.5 40.5 93.5147 40.5 96V96C40.5 98.4853 38.4853 100.5 36 100.5V100.5C33.5147 100.5 31.5 98.4853 31.5 96V96Z" fill="#4061D8"/>
<path d="M31.875 96C31.875 93.7218 33.7218 91.875 36 91.875V91.875C38.2782 91.875 40.125 93.7218 40.125 96V96C40.125 98.2782 38.2782 100.125 36 100.125V100.125C33.7218 100.125 31.875 98.2782 31.875 96V96Z" stroke="black" stroke-opacity="0.08" stroke-width="0.75" stroke-linecap="round"/>
<path d="M37.8232 94.5732C37.9209 94.4756 38.0791 94.4756 38.1767 94.5732C38.2744 94.6709 38.2744 94.8291 38.1767 94.9268L35.4267 97.6768C35.3291 97.7744 35.1709 97.7744 35.0732 97.6768L33.8232 96.4268C33.7256 96.3291 33.7256 96.1709 33.8232 96.0732C33.9209 95.9756 34.0791 95.9756 34.1767 96.0732L35.25 97.1465L37.8232 94.5732Z" fill="white"/>
</g>
<path opacity="0.6" d="M46 96C46 94.3431 47.3431 93 49 93H156C157.657 93 159 94.3431 159 96C159 97.6569 157.657 99 156 99H49C47.3431 99 46 97.6569 46 96Z" fill="black" fill-opacity="0.08"/>
<g opacity="0.8">
<path opacity="0.8" d="M46 109C46 107.343 47.3431 106 49 106H185C186.657 106 188 107.343 188 109C188 110.657 186.657 112 185 112H49C47.3431 112 46 110.657 46 109Z" fill="black" fill-opacity="0.08"/>
</g>
</g>
<defs>
<filter id="filter0_d_5099_9104" x="26" y="41" width="184" height="48" filterUnits="userSpaceOnUse" color-interpolation-filters="sRGB">
<feFlood flood-opacity="0" result="BackgroundImageFix"/>
<feColorMatrix in="SourceAlpha" type="matrix" values="0 0 0 0 0 0 0 0 0 0 0 0 0 0 0 0 0 0 127 0" result="hardAlpha"/>
<feOffset dy="3"/>
<feGaussianBlur stdDeviation="3"/>
<feComposite in2="hardAlpha" operator="out"/>
<feColorMatrix type="matrix" values="0 0 0 0 0 0 0 0 0 0 0 0 0 0 0 0 0 0 0.04 0"/>
<feBlend mode="normal" in2="BackgroundImageFix" result="effect1_dropShadow_5099_9104"/>
<feBlend mode="normal" in="SourceGraphic" in2="effect1_dropShadow_5099_9104" result="shape"/>
</filter>
<filter id="filter1_d_5099_9104" x="22" y="61" width="192" height="48" filterUnits="userSpaceOnUse" color-interpolation-filters="sRGB">
<feFlood flood-opacity="0" result="BackgroundImageFix"/>
<feColorMatrix in="SourceAlpha" type="matrix" values="0 0 0 0 0 0 0 0 0 0 0 0 0 0 0 0 0 0 127 0" result="hardAlpha"/>
<feOffset dy="3"/>
<feGaussianBlur stdDeviation="3"/>
<feComposite in2="hardAlpha" operator="out"/>
<feColorMatrix type="matrix" values="0 0 0 0 0 0 0 0 0 0 0 0 0 0 0 0 0 0 0.04 0"/>
<feBlend mode="normal" in2="BackgroundImageFix" result="effect1_dropShadow_5099_9104"/>
<feBlend mode="normal" in="SourceGraphic" in2="effect1_dropShadow_5099_9104" result="shape"/>
</filter>
<filter id="filter2_d_5099_9104" x="18" y="81" width="200" height="48" filterUnits="userSpaceOnUse" color-interpolation-filters="sRGB">
<feFlood flood-opacity="0" result="BackgroundImageFix"/>
<feColorMatrix in="SourceAlpha" type="matrix" values="0 0 0 0 0 0 0 0 0 0 0 0 0 0 0 0 0 0 127 0" result="hardAlpha"/>
<feOffset dy="3"/>
<feGaussianBlur stdDeviation="3"/>
<feComposite in2="hardAlpha" operator="out"/>
<feColorMatrix type="matrix" values="0 0 0 0 0 0 0 0 0 0 0 0 0 0 0 0 0 0 0.04 0"/>
<feBlend mode="normal" in2="BackgroundImageFix" result="effect1_dropShadow_5099_9104"/>
<feBlend mode="normal" in="SourceGraphic" in2="effect1_dropShadow_5099_9104" result="shape"/>
</filter>
</defs>
</svg>
