<svg xmlns="http://www.w3.org/2000/svg" xmlns:xlink="http://www.w3.org/1999/xlink" preserveAspectRatio="xMidYMid meet" width="944" height="656" viewBox="0 0 944 656" style="width:100%;height:100%"><defs><animateMotion repeatCount="indefinite" dur="2.002002s" begin="0s" xlink:href="#_R_G_L_17_G" fill="freeze" keyTimes="0;0.1666667;1" path="M472 224 C472,224 472,328 472,328 C472,328 472,328 472,328 " keyPoints="0;1;1" keySplines="0.333 0 0.667 1;0 0 0 0" calcMode="spline"/><animateTransform repeatCount="indefinite" dur="2.002002s" begin="0s" xlink:href="#_R_G_L_17_G" fill="freeze" attributeName="transform" from="3.8000000000000003 3.8000000000000003" to="4.2 4.2" type="scale" additive="sum" keyTimes="0;0.1666667;1" values="3.8000000000000003 3.8000000000000003;4.2 4.2;4.2 4.2" keySplines="0.333 0 0.667 1;0 0 0 0" calcMode="spline"/><animateTransform repeatCount="indefinite" dur="2.002002s" begin="0s" xlink:href="#_R_G_L_17_G" fill="freeze" attributeName="transform" from="-98.5 -18.5" to="-98.5 -18.5" type="translate" additive="sum" keyTimes="0;1" values="-98.5 -18.5;-98.5 -18.5" keySplines="0 0 1 1" calcMode="spline"/><animate repeatCount="indefinite" dur="2.002002s" begin="0s" xlink:href="#_R_G_L_17_G_M" fill="freeze" attributeName="opacity" from="1" to="0" keyTimes="0;0.0333333;0.0333333;1" values="1;1;0;0" keySplines="0 0 0 0;0 0 0 0;0 0 0 0" calcMode="spline"/><animateMotion repeatCount="indefinite" dur="2.002002s" begin="0s" xlink:href="#_R_G_L_16_G" fill="freeze" keyTimes="0;0.1666667;1" path="M472 224 C472,224 472,328 472,328 C472,328 472,328 472,328 " keyPoints="0;1;1" keySplines="0.333 0 0.667 1;0 0 0 0" calcMode="spline"/><animateTransform repeatCount="indefinite" dur="2.002002s" begin="0s" xlink:href="#_R_G_L_16_G" fill="freeze" attributeName="transform" from="3.8000000000000003 3.8000000000000003" to="4.2 4.2" type="scale" additive="sum" keyTimes="0;0.1666667;1" values="3.8000000000000003 3.8000000000000003;4.2 4.2;4.2 4.2" keySplines="0.333 0 0.667 1;0 0 0 0" calcMode="spline"/><animateTransform repeatCount="indefinite" dur="2.002002s" begin="0s" xlink:href="#_R_G_L_16_G" fill="freeze" attributeName="transform" from="-98.5 -18.5" to="-98.5 -18.5" type="translate" additive="sum" keyTimes="0;1" values="-98.5 -18.5;-98.5 -18.5" keySplines="0 0 1 1" calcMode="spline"/><animate repeatCount="indefinite" dur="2.002002s" begin="0s" xlink:href="#_R_G_L_16_G_M" fill="freeze" attributeName="opacity" from="1" to="0" keyTimes="0;0.0333333;0.0333333;1" values="1;1;0;0" keySplines="0 0 0 0;0 0 0 0;0 0 0 0" calcMode="spline"/><animateMotion repeatCount="indefinite" dur="2.002002s" begin="0s" xlink:href="#_R_G_L_15_G" fill="freeze" keyTimes="0;0.1666667;1" path="M472 424 C472,424 472,328 472,328 C472,328 472,328 472,328 " keyPoints="0;1;1" keySplines="0.333 0 0.667 1;0 0 0 0" calcMode="spline"/><animateTransform repeatCount="indefinite" dur="2.002002s" begin="0s" xlink:href="#_R_G_L_15_G" fill="freeze" attributeName="transform" from="3.8000000000000003 3.8000000000000003" to="3.4 3.4" type="scale" additive="sum" keyTimes="0;0.1666667;1" values="3.8000000000000003 3.8000000000000003;3.4 3.4;3.4 3.4" keySplines="0.333 0 0.667 1;0 0 0 0" calcMode="spline"/><animateTransform repeatCount="indefinite" dur="2.002002s" begin="0s" xlink:href="#_R_G_L_15_G" fill="freeze" attributeName="transform" from="-98.5 -18.5" to="-98.5 -18.5" type="translate" additive="sum" keyTimes="0;1" values="-98.5 -18.5;-98.5 -18.5" keySplines="0 0 1 1" calcMode="spline"/><animateMotion repeatCount="indefinite" dur="2.002002s" begin="0s" xlink:href="#_R_G_L_14_G" fill="freeze" keyTimes="0;0.1666667;1" path="M472 424 C472,424 472,328 472,328 C472,328 472,328 472,328 " keyPoints="0;1;1" keySplines="0.333 0 0.667 1;0 0 0 0" calcMode="spline"/><animateTransform repeatCount="indefinite" dur="2.002002s" begin="0s" xlink:href="#_R_G_L_14_G" fill="freeze" attributeName="transform" from="3.8000000000000003 3.8000000000000003" to="3.4 3.4" type="scale" additive="sum" keyTimes="0;0.1666667;1" values="3.8000000000000003 3.8000000000000003;3.4 3.4;3.4 3.4" keySplines="0.333 0 0.667 1;0 0 0 0" calcMode="spline"/><animateTransform repeatCount="indefinite" dur="2.002002s" begin="0s" xlink:href="#_R_G_L_14_G" fill="freeze" attributeName="transform" from="-98.5 -18.5" to="-98.5 -18.5" type="translate" additive="sum" keyTimes="0;1" values="-98.5 -18.5;-98.5 -18.5" keySplines="0 0 1 1" calcMode="spline"/><animateMotion repeatCount="indefinite" dur="2.002002s" begin="0s" xlink:href="#_R_G_L_13_G" fill="freeze" keyTimes="0;0.05;0.1833333;1" path="M469.15 338.61 C469.15,338.61 469.15,338.61 469.15,338.61 C469.15,338.61 469.15,427 469.15,427 C469.15,427 469.15,427 469.15,427 " keyPoints="0;0;1;1" keySplines="0.333 0.38 0.667 1;0.333 0.38 0.667 1;0 0 0 0" calcMode="spline"/><animateTransform repeatCount="indefinite" dur="2.002002s" begin="0s" xlink:href="#_R_G_L_13_G" fill="freeze" attributeName="transform" from="1 1" to="0.9 0.9" type="scale" additive="sum" keyTimes="0;0.05;0.1833333;1" values="1 1;1 1;0.9 0.9;0.9 0.9" keySplines="0.333 0 0.667 1;0.333 0 0.667 1;0 0 0 0" calcMode="spline"/><animate repeatCount="indefinite" dur="2.002002s" begin="0s" xlink:href="#_R_G_L_13_G_M" fill="freeze" attributeName="opacity" from="0" to="0" keyTimes="0;0.0833333;0.083335;0.25;0.25;1" values="0;0;1;1;0;0" keySplines="0 0 0 0;0 0 0 0;0 0 0 0;0 0 0 0;0 0 0 0" calcMode="spline"/><animateMotion repeatCount="indefinite" dur="2.002002s" begin="0s" xlink:href="#_R_G_L_12_G" fill="freeze" keyTimes="0;0.0166667;0.1666667;1" path="M472 328 C472,328 472,328 472,328 C472,328 472,432 472,432 C472,432 472,432 472,432 " keyPoints="0;0;1;1" keySplines="0.333 0 0.667 1;0.333 0 0.667 1;0 0 0 0" calcMode="spline"/><animateTransform repeatCount="indefinite" dur="2.002002s" begin="0s" xlink:href="#_R_G_L_12_G" fill="freeze" attributeName="transform" from="4.2 4.2" to="3.8000000000000003 3.8000000000000003" type="scale" additive="sum" keyTimes="0;0.05;0.2;1" values="4.2 4.2;4.2 4.2;3.8000000000000003 3.8000000000000003;3.8000000000000003 3.8000000000000003" keySplines="0.333 0 0.667 1;0.333 0 0.667 1;0 0 0 0" calcMode="spline"/><animateTransform repeatCount="indefinite" dur="2.002002s" begin="0s" xlink:href="#_R_G_L_12_G" fill="freeze" attributeName="transform" from="-98.5 -18.5" to="-98.5 -18.5" type="translate" additive="sum" keyTimes="0;1" values="-98.5 -18.5;-98.5 -18.5" keySplines="0 0 1 1" calcMode="spline"/><animate repeatCount="indefinite" dur="2.002002s" begin="0s" xlink:href="#_R_G_L_12_G_M" fill="freeze" attributeName="opacity" from="0" to="1" keyTimes="0;0.0833333;0.083335;1" values="0;0;1;1" keySplines="0 0 0 0;0 0 0 0;0 0 0 0" calcMode="spline"/><animateMotion repeatCount="indefinite" dur="2.002002s" begin="0s" xlink:href="#_R_G_L_11_G" fill="freeze" keyTimes="0;0.0166667;0.1666667;1" path="M472 328 C472,328 472,328 472,328 C472,328 472,432 472,432 C472,432 472,432 472,432 " keyPoints="0;0;1;1" keySplines="0.333 0 0.667 1;0.333 0 0.667 1;0 0 0 0" calcMode="spline"/><animateTransform repeatCount="indefinite" dur="2.002002s" begin="0s" xlink:href="#_R_G_L_11_G" fill="freeze" attributeName="transform" from="4.2 4.2" to="3.8000000000000003 3.8000000000000003" type="scale" additive="sum" keyTimes="0;0.05;0.2;1" values="4.2 4.2;4.2 4.2;3.8000000000000003 3.8000000000000003;3.8000000000000003 3.8000000000000003" keySplines="0.333 0 0.667 1;0.333 0 0.667 1;0 0 0 0" calcMode="spline"/><animateTransform repeatCount="indefinite" dur="2.002002s" begin="0s" xlink:href="#_R_G_L_11_G" fill="freeze" attributeName="transform" from="-98.5 -18.5" to="-98.5 -18.5" type="translate" additive="sum" keyTimes="0;1" values="-98.5 -18.5;-98.5 -18.5" keySplines="0 0 1 1" calcMode="spline"/><animate repeatCount="indefinite" dur="2.002002s" begin="0s" xlink:href="#_R_G_L_11_G_M" fill="freeze" attributeName="opacity" from="0" to="1" keyTimes="0;0.0833333;0.083335;1" values="0;0;1;1" keySplines="0 0 0 0;0 0 0 0;0 0 0 0" calcMode="spline"/><animateMotion repeatCount="indefinite" dur="2.002002s" begin="0s" xlink:href="#_R_G_L_10_G" fill="freeze" keyTimes="0;0.0166667;0.1666667;1" path="M472 328 C472,328 472,328 472,328 C472,328 472,232 472,232 C472,232 472,232 472,232 " keyPoints="0;0;1;1" keySplines="0.333 0 0.667 1;0.333 0 0.667 1;0 0 0 0" calcMode="spline"/><animateTransform repeatCount="indefinite" dur="2.002002s" begin="0s" xlink:href="#_R_G_L_10_G" fill="freeze" attributeName="transform" from="3.4 3.4" to="3.8000000000000003 3.8000000000000003" type="scale" additive="sum" keyTimes="0;0.05;0.2;1" values="3.4 3.4;3.4 3.4;3.8000000000000003 3.8000000000000003;3.8000000000000003 3.8000000000000003" keySplines="0.333 0 0.667 1;0.333 0 0.667 1;0 0 0 0" calcMode="spline"/><animateTransform repeatCount="indefinite" dur="2.002002s" begin="0s" xlink:href="#_R_G_L_10_G" fill="freeze" attributeName="transform" from="-98.5 -18.5" to="-98.5 -18.5" type="translate" additive="sum" keyTimes="0;1" values="-98.5 -18.5;-98.5 -18.5" keySplines="0 0 1 1" calcMode="spline"/><animateMotion repeatCount="indefinite" dur="2.002002s" begin="0s" xlink:href="#_R_G_L_9_G" fill="freeze" keyTimes="0;0.0166667;0.1666667;1" path="M472 328 C472,328 472,328 472,328 C472,328 472,232 472,232 C472,232 472,232 472,232 " keyPoints="0;0;1;1" keySplines="0.333 0 0.667 1;0.333 0 0.667 1;0 0 0 0" calcMode="spline"/><animateTransform repeatCount="indefinite" dur="2.002002s" begin="0s" xlink:href="#_R_G_L_9_G" fill="freeze" attributeName="transform" from="3.4 3.4" to="3.8000000000000003 3.8000000000000003" type="scale" additive="sum" keyTimes="0;0.05;0.2;1" values="3.4 3.4;3.4 3.4;3.8000000000000003 3.8000000000000003;3.8000000000000003 3.8000000000000003" keySplines="0.333 0 0.667 1;0.333 0 0.667 1;0 0 0 0" calcMode="spline"/><animateTransform repeatCount="indefinite" dur="2.002002s" begin="0s" xlink:href="#_R_G_L_9_G" fill="freeze" attributeName="transform" from="-98.5 -18.5" to="-98.5 -18.5" type="translate" additive="sum" keyTimes="0;1" values="-98.5 -18.5;-98.5 -18.5" keySplines="0 0 1 1" calcMode="spline"/><animateMotion repeatCount="indefinite" dur="2.002002s" begin="0s" xlink:href="#_R_G_L_8_G" fill="freeze" keyTimes="0;0.05;0.1833333;1" path="M469.15 338.61 C469.15,338.61 469.15,338.61 469.15,338.61 C469.15,338.61 469.15,447 469.15,447 C469.15,447 469.15,447 469.15,447 " keyPoints="0;0;1;1" keySplines="0.333 0.31 0.667 1;0.333 0.31 0.667 1;0 0 0 0" calcMode="spline"/><animateTransform repeatCount="indefinite" dur="2.002002s" begin="0s" xlink:href="#_R_G_L_8_G" fill="freeze" attributeName="transform" from="1 1" to="0.9 0.9" type="scale" additive="sum" keyTimes="0;0.05;0.1833333;1" values="1 1;1 1;0.9 0.9;0.9 0.9" keySplines="0.333 0 0.667 1;0.333 0 0.667 1;0 0 0 0" calcMode="spline"/><animate repeatCount="indefinite" dur="2.002002s" begin="0s" xlink:href="#_R_G_L_8_G_M" fill="freeze" attributeName="opacity" from="0" to="0" keyTimes="0;0.05;0.0500017;0.0833333;0.0833333;1" values="0;0;1;1;0;0" keySplines="0 0 0 0;0 0 0 0;0 0 0 0;0 0 0 0;0 0 0 0" calcMode="spline"/><animateMotion repeatCount="indefinite" dur="2.002002s" begin="0s" xlink:href="#_R_G_L_7_G" fill="freeze" keyTimes="0;0.0166667;0.1666667;1" path="M472 328 C472,328 472,328 472,328 C472,328 472,432 472,432 C472,432 472,432 472,432 " keyPoints="0;0;1;1" keySplines="0.333 0 0.667 1;0.333 0 0.667 1;0 0 0 0" calcMode="spline"/><animateTransform repeatCount="indefinite" dur="2.002002s" begin="0s" xlink:href="#_R_G_L_7_G" fill="freeze" attributeName="transform" from="4.2 4.2" to="3.8000000000000003 3.8000000000000003" type="scale" additive="sum" keyTimes="0;0.05;0.2;1" values="4.2 4.2;4.2 4.2;3.8000000000000003 3.8000000000000003;3.8000000000000003 3.8000000000000003" keySplines="0.333 0 0.667 1;0.333 0 0.667 1;0 0 0 0" calcMode="spline"/><animateTransform repeatCount="indefinite" dur="2.002002s" begin="0s" xlink:href="#_R_G_L_7_G" fill="freeze" attributeName="transform" from="-98.5 -18.5" to="-98.5 -18.5" type="translate" additive="sum" keyTimes="0;1" values="-98.5 -18.5;-98.5 -18.5" keySplines="0 0 1 1" calcMode="spline"/><animate repeatCount="indefinite" dur="2.002002s" begin="0s" xlink:href="#_R_G_L_7_G_M" fill="freeze" attributeName="opacity" from="1" to="0" keyTimes="0;0.0833333;0.0833333;1" values="1;1;0;0" keySplines="0 0 0 0;0 0 0 0;0 0 0 0" calcMode="spline"/><animateMotion repeatCount="indefinite" dur="2.002002s" begin="0s" xlink:href="#_R_G_L_6_G" fill="freeze" keyTimes="0;0.0166667;0.1666667;1" path="M472 328 C472,328 472,328 472,328 C472,328 472,432 472,432 C472,432 472,432 472,432 " keyPoints="0;0;1;1" keySplines="0.333 0 0.667 1;0.333 0 0.667 1;0 0 0 0" calcMode="spline"/><animateTransform repeatCount="indefinite" dur="2.002002s" begin="0s" xlink:href="#_R_G_L_6_G" fill="freeze" attributeName="transform" from="4.2 4.2" to="3.8000000000000003 3.8000000000000003" type="scale" additive="sum" keyTimes="0;0.05;0.2;1" values="4.2 4.2;4.2 4.2;3.8000000000000003 3.8000000000000003;3.8000000000000003 3.8000000000000003" keySplines="0.333 0 0.667 1;0.333 0 0.667 1;0 0 0 0" calcMode="spline"/><animateTransform repeatCount="indefinite" dur="2.002002s" begin="0s" xlink:href="#_R_G_L_6_G" fill="freeze" attributeName="transform" from="-98.5 -18.5" to="-98.5 -18.5" type="translate" additive="sum" keyTimes="0;1" values="-98.5 -18.5;-98.5 -18.5" keySplines="0 0 1 1" calcMode="spline"/><animate repeatCount="indefinite" dur="2.002002s" begin="0s" xlink:href="#_R_G_L_6_G_M" fill="freeze" attributeName="opacity" from="1" to="0" keyTimes="0;0.0833333;0.0833333;1" values="1;1;0;0" keySplines="0 0 0 0;0 0 0 0;0 0 0 0" calcMode="spline"/><animate repeatCount="indefinite" dur="2.002002s" begin="0s" xlink:href="#_R_G_L_5_G_M" fill="freeze" attributeName="opacity" from="1" to="0" keyTimes="0;0.05;0.05;1" values="1;1;0;0" keySplines="0 0 0 0;0 0 0 0;0 0 0 0" calcMode="spline"/><animate repeatCount="indefinite" dur="2.002002s" begin="0s" xlink:href="#_R_G_L_4_G_M" fill="freeze" attributeName="opacity" from="0" to="1" keyTimes="0;0.1666667;0.1666683;1" values="0;0;1;1" keySplines="0 0 0 0;0 0 0 0;0 0 0 0" calcMode="spline"/><animateMotion repeatCount="indefinite" dur="2.002002s" begin="0s" xlink:href="#_R_G_L_3_G" fill="freeze" keyTimes="0;0.1666667;1" path="M469.15 227 C469.15,227 469.15,327 469.15,327 C469.15,327 469.15,327 469.15,327 " keyPoints="0;1;1" keySplines="0.333 0 0.667 1;0 0 0 0" calcMode="spline"/><animateTransform repeatCount="indefinite" dur="2.002002s" begin="0s" xlink:href="#_R_G_L_3_G" fill="freeze" attributeName="transform" from="0.9 0.9" to="1 1" type="scale" additive="sum" keyTimes="0;0.1666667;1" values="0.9 0.9;1 1;1 1" keySplines="0.333 0 0.667 1;0 0 0 0" calcMode="spline"/><animate repeatCount="indefinite" dur="2.002002s" begin="0s" xlink:href="#_R_G_L_3_G_M" fill="freeze" attributeName="opacity" from="0" to="0" keyTimes="0;0.0333333;0.033335;0.1666667;0.1666667;1" values="0;0;1;1;0;0" keySplines="0 0 0 0;0 0 0 0;0 0 0 0;0 0 0 0;0 0 0 0" calcMode="spline"/><animateMotion repeatCount="indefinite" dur="2.002002s" begin="0s" xlink:href="#_R_G_L_2_G" fill="freeze" keyTimes="0;0.1666667;1" path="M472 224 C472,224 472,328 472,328 C472,328 472,328 472,328 " keyPoints="0;1;1" keySplines="0.333 0 0.667 1;0 0 0 0" calcMode="spline"/><animateTransform repeatCount="indefinite" dur="2.002002s" begin="0s" xlink:href="#_R_G_L_2_G" fill="freeze" attributeName="transform" from="3.8000000000000003 3.8000000000000003" to="4.2 4.2" type="scale" additive="sum" keyTimes="0;0.1666667;1" values="3.8000000000000003 3.8000000000000003;4.2 4.2;4.2 4.2" keySplines="0.333 0 0.667 1;0 0 0 0" calcMode="spline"/><animateTransform repeatCount="indefinite" dur="2.002002s" begin="0s" xlink:href="#_R_G_L_2_G" fill="freeze" attributeName="transform" from="-98.5 -18.5" to="-98.5 -18.5" type="translate" additive="sum" keyTimes="0;1" values="-98.5 -18.5;-98.5 -18.5" keySplines="0 0 1 1" calcMode="spline"/><animate repeatCount="indefinite" dur="2.002002s" begin="0s" xlink:href="#_R_G_L_2_G_M" fill="freeze" attributeName="opacity" from="0" to="0" keyTimes="0;0.0333333;0.033335;0.1666667;0.1666667;1" values="0;0;1;1;0;0" keySplines="0 0 0 0;0 0 0 0;0 0 0 0;0 0 0 0;0 0 0 0" calcMode="spline"/><animateMotion repeatCount="indefinite" dur="2.002002s" begin="0s" xlink:href="#_R_G_L_1_G" fill="freeze" keyTimes="0;0.1666667;1" path="M472 224 C472,224 472,328 472,328 C472,328 472,328 472,328 " keyPoints="0;1;1" keySplines="0.333 0 0.667 1;0 0 0 0" calcMode="spline"/><animateTransform repeatCount="indefinite" dur="2.002002s" begin="0s" xlink:href="#_R_G_L_1_G" fill="freeze" attributeName="transform" from="3.8000000000000003 3.8000000000000003" to="4.2 4.2" type="scale" additive="sum" keyTimes="0;0.1666667;1" values="3.8000000000000003 3.8000000000000003;4.2 4.2;4.2 4.2" keySplines="0.333 0 0.667 1;0 0 0 0" calcMode="spline"/><animateTransform repeatCount="indefinite" dur="2.002002s" begin="0s" xlink:href="#_R_G_L_1_G" fill="freeze" attributeName="transform" from="-98.5 -18.5" to="-98.5 -18.5" type="translate" additive="sum" keyTimes="0;1" values="-98.5 -18.5;-98.5 -18.5" keySplines="0 0 1 1" calcMode="spline"/><animate repeatCount="indefinite" dur="2.002002s" begin="0s" xlink:href="#_R_G_L_1_G_M" fill="freeze" attributeName="opacity" from="0" to="0" keyTimes="0;0.0333333;0.033335;0.1666667;0.1666667;1" values="0;0;1;1;0;0" keySplines="0 0 0 0;0 0 0 0;0 0 0 0;0 0 0 0;0 0 0 0" calcMode="spline"/><animate attributeType="XML" attributeName="opacity" dur="2s" from="0" to="1" xlink:href="#time_group"/></defs><g id="_R_G"><g id="_R_G_L_17_G_M"><g id="_R_G_L_17_G"><path id="_R_G_L_17_G_D_0_P_0" fill="#000000" fill-opacity="0.039220000000000005" fill-rule="nonzero" d=" M189 36 C189,36 8,36 8,36 C3.59,36 0,32.41 0,28 C0,28 0,8 0,8 C0,3.59 3.59,0 8,0 C8,0 189,0 189,0 C193.41,0 197,3.59 197,8 C197,8 197,28 197,28 C197,32.41 193.41,36 189,36z  M8 1 C4.14,1 1,4.14 1,8 C1,8 1,28 1,28 C1,31.86 4.14,35 8,35 C8,35 189,35 189,35 C192.86,35 196,31.86 196,28 C196,28 196,8 196,8 C196,4.14 192.86,1 189,1 C189,1 8,1 8,1z "/></g></g><g id="_R_G_L_16_G_M"><g id="_R_G_L_16_G" opacity="0.15"><path id="_R_G_L_16_G_D_0_P_0" fill="#000000" fill-opacity="0.6" fill-rule="nonzero" d=" M12 8 C12,8 24,8 24,8 C26.21,8 28,9.79 28,12 C28,12 28,24 28,24 C28,26.21 26.21,28 24,28 C24,28 12,28 12,28 C9.79,28 8,26.21 8,24 C8,24 8,12 8,12 C8,9.79 9.79,8 12,8z "/><path id="_R_G_L_16_G_D_1_P_0" fill="#000000" fill-opacity="0.6" fill-rule="nonzero" d=" M36 18 C36,15.24 38.24,13 41,13 C41,13 114,13 114,13 C116.76,13 119,15.24 119,18 C119,20.76 116.76,23 114,23 C114,23 41,23 41,23 C38.24,23 36,20.76 36,18z "/></g></g><g id="_R_G_L_15_G" opacity="0.15"><path id="_R_G_L_15_G_D_0_P_0" fill="#000000" fill-opacity="0.6" fill-rule="nonzero" d=" M12 8 C12,8 24,8 24,8 C26.21,8 28,9.79 28,12 C28,12 28,24 28,24 C28,26.21 26.21,28 24,28 C24,28 12,28 12,28 C9.79,28 8,26.21 8,24 C8,24 8,12 8,12 C8,9.79 9.79,8 12,8z "/><path id="_R_G_L_15_G_D_1_P_0" fill="#000000" fill-opacity="0.6" fill-rule="nonzero" d=" M36 18 C36,15.24 38.24,13 41,13 C41,13 114,13 114,13 C116.76,13 119,15.24 119,18 C119,20.76 116.76,23 114,23 C114,23 41,23 41,23 C38.24,23 36,20.76 36,18z "/></g><g id="_R_G_L_14_G"><path id="_R_G_L_14_G_D_0_P_0" fill="#000000" fill-opacity="0.039220000000000005" fill-rule="nonzero" d=" M189 36 C189,36 8,36 8,36 C3.59,36 0,32.41 0,28 C0,28 0,8 0,8 C0,3.59 3.59,0 8,0 C8,0 189,0 189,0 C193.41,0 197,3.59 197,8 C197,8 197,28 197,28 C197,32.41 193.41,36 189,36z  M8 1 C4.14,1 1,4.14 1,8 C1,8 1,28 1,28 C1,31.86 4.14,35 8,35 C8,35 189,35 189,35 C192.86,35 196,31.86 196,28 C196,28 196,8 196,8 C196,4.14 192.86,1 189,1 C189,1 8,1 8,1z "/></g><g id="_R_G_L_13_G_M"><g id="_R_G_L_13_G"><path id="_R_G_L_13_G_D_0_P_0" fill="#ffffff" fill-opacity="1" fill-rule="nonzero" d=" M412.24 -75.63 C412.24,-75.63 -409.76,-75.63 -409.76,-75.63 C-409.76,-75.63 -409.76,72.86 -409.76,72.86 C-409.76,72.86 412.24,72.86 412.24,72.86 C412.24,72.86 412.24,-75.63 412.24,-75.63z "/></g></g><g id="_R_G_L_12_G_M"><g id="_R_G_L_12_G" opacity="0.15"><path id="_R_G_L_12_G_D_0_P_0" fill="#000000" fill-opacity="0.6" fill-rule="nonzero" d=" M12 8 C12,8 24,8 24,8 C26.21,8 28,9.79 28,12 C28,12 28,24 28,24 C28,26.21 26.21,28 24,28 C24,28 12,28 12,28 C9.79,28 8,26.21 8,24 C8,24 8,12 8,12 C8,9.79 9.79,8 12,8z "/><path id="_R_G_L_12_G_D_1_P_0" fill="#000000" fill-opacity="0.6" fill-rule="nonzero" d=" M36 18 C36,15.24 38.24,13 41,13 C41,13 114,13 114,13 C116.76,13 119,15.24 119,18 C119,20.76 116.76,23 114,23 C114,23 41,23 41,23 C38.24,23 36,20.76 36,18z "/></g></g><g id="_R_G_L_11_G_M"><g id="_R_G_L_11_G"><path id="_R_G_L_11_G_D_0_P_0" fill="#000000" fill-opacity="0.039220000000000005" fill-rule="nonzero" d=" M189 36 C189,36 8,36 8,36 C3.59,36 0,32.41 0,28 C0,28 0,8 0,8 C0,3.59 3.59,0 8,0 C8,0 189,0 189,0 C193.41,0 197,3.59 197,8 C197,8 197,28 197,28 C197,32.41 193.41,36 189,36z  M8 1 C4.14,1 1,4.14 1,8 C1,8 1,28 1,28 C1,31.86 4.14,35 8,35 C8,35 189,35 189,35 C192.86,35 196,31.86 196,28 C196,28 196,8 196,8 C196,4.14 192.86,1 189,1 C189,1 8,1 8,1z "/></g></g><g id="_R_G_L_10_G" opacity="0.15"><path id="_R_G_L_10_G_D_0_P_0" fill="#000000" fill-opacity="0.6" fill-rule="nonzero" d=" M12 8 C12,8 24,8 24,8 C26.21,8 28,9.79 28,12 C28,12 28,24 28,24 C28,26.21 26.21,28 24,28 C24,28 12,28 12,28 C9.79,28 8,26.21 8,24 C8,24 8,12 8,12 C8,9.79 9.79,8 12,8z "/><path id="_R_G_L_10_G_D_1_P_0" fill="#000000" fill-opacity="0.6" fill-rule="nonzero" d=" M36 18 C36,15.24 38.24,13 41,13 C41,13 114,13 114,13 C116.76,13 119,15.24 119,18 C119,20.76 116.76,23 114,23 C114,23 41,23 41,23 C38.24,23 36,20.76 36,18z "/></g><g id="_R_G_L_9_G"><path id="_R_G_L_9_G_D_0_P_0" fill="#000000" fill-opacity="0.039220000000000005" fill-rule="nonzero" d=" M189 36 C189,36 8,36 8,36 C3.59,36 0,32.41 0,28 C0,28 0,8 0,8 C0,3.59 3.59,0 8,0 C8,0 189,0 189,0 C193.41,0 197,3.59 197,8 C197,8 197,28 197,28 C197,32.41 193.41,36 189,36z  M8 1 C4.14,1 1,4.14 1,8 C1,8 1,28 1,28 C1,31.86 4.14,35 8,35 C8,35 189,35 189,35 C192.86,35 196,31.86 196,28 C196,28 196,8 196,8 C196,4.14 192.86,1 189,1 C189,1 8,1 8,1z "/></g><g id="_R_G_L_8_G_M"><g id="_R_G_L_8_G"><path id="_R_G_L_8_G_D_0_P_0" fill="#ffffff" fill-opacity="1" fill-rule="nonzero" d=" M412.24 -75.63 C412.24,-75.63 -409.76,-75.63 -409.76,-75.63 C-409.76,-75.63 -409.76,72.86 -409.76,72.86 C-409.76,72.86 412.24,72.86 412.24,72.86 C412.24,72.86 412.24,-75.63 412.24,-75.63z "/></g></g><g id="_R_G_L_7_G_M"><g id="_R_G_L_7_G" opacity="0.15"><path id="_R_G_L_7_G_D_0_P_0" fill="#000000" fill-opacity="0.6" fill-rule="nonzero" d=" M12 8 C12,8 24,8 24,8 C26.21,8 28,9.79 28,12 C28,12 28,24 28,24 C28,26.21 26.21,28 24,28 C24,28 12,28 12,28 C9.79,28 8,26.21 8,24 C8,24 8,12 8,12 C8,9.79 9.79,8 12,8z "/><path id="_R_G_L_7_G_D_1_P_0" fill="#000000" fill-opacity="0.6" fill-rule="nonzero" d=" M36 18 C36,15.24 38.24,13 41,13 C41,13 114,13 114,13 C116.76,13 119,15.24 119,18 C119,20.76 116.76,23 114,23 C114,23 41,23 41,23 C38.24,23 36,20.76 36,18z "/></g></g><g id="_R_G_L_6_G_M"><g id="_R_G_L_6_G"><path id="_R_G_L_6_G_D_0_P_0" fill="#000000" fill-opacity="0.039220000000000005" fill-rule="nonzero" d=" M189 36 C189,36 8,36 8,36 C3.59,36 0,32.41 0,28 C0,28 0,8 0,8 C0,3.59 3.59,0 8,0 C8,0 189,0 189,0 C193.41,0 197,3.59 197,8 C197,8 197,28 197,28 C197,32.41 193.41,36 189,36z  M8 1 C4.14,1 1,4.14 1,8 C1,8 1,28 1,28 C1,31.86 4.14,35 8,35 C8,35 189,35 189,35 C192.86,35 196,31.86 196,28 C196,28 196,8 196,8 C196,4.14 192.86,1 189,1 C189,1 8,1 8,1z "/></g></g><g id="_R_G_L_5_G_M"><g id="_R_G_L_5_G" transform=" translate(472, 328) scale(4.2, 4.2) translate(-99, -18.5)"><path id="_R_G_L_5_G_D_0_P_0" fill="#ffffff" fill-opacity="1" fill-rule="nonzero" d=" M0.25 8.25 C0.25,3.83 3.83,0.25 8.25,0.25 C8.25,0.25 189.25,0.25 189.25,0.25 C193.67,0.25 197.25,3.83 197.25,8.25 C197.25,8.25 197.25,28.25 197.25,28.25 C197.25,32.67 193.67,36.25 189.25,36.25 C189.25,36.25 8.25,36.25 8.25,36.25 C3.83,36.25 0.25,32.67 0.25,28.25 C0.25,28.25 0.25,8.25 0.25,8.25z "/><path id="_R_G_L_5_G_D_1_P_0" fill="#000000" fill-opacity="0.039220000000000005" fill-rule="nonzero" d=" M189.25 36.25 C189.25,36.25 8.25,36.25 8.25,36.25 C3.84,36.25 0.25,32.66 0.25,28.25 C0.25,28.25 0.25,8.25 0.25,8.25 C0.25,3.84 3.84,0.25 8.25,0.25 C8.25,0.25 189.25,0.25 189.25,0.25 C193.66,0.25 197.25,3.84 197.25,8.25 C197.25,8.25 197.25,28.25 197.25,28.25 C197.25,32.66 193.66,36.25 189.25,36.25z  M8.25 1.25 C4.39,1.25 1.25,4.39 1.25,8.25 C1.25,8.25 1.25,28.25 1.25,28.25 C1.25,32.11 4.39,35.25 8.25,35.25 C8.25,35.25 189.25,35.25 189.25,35.25 C193.11,35.25 196.25,32.11 196.25,28.25 C196.25,28.25 196.25,8.25 196.25,8.25 C196.25,4.39 193.11,1.25 189.25,1.25 C189.25,1.25 8.25,1.25 8.25,1.25z "/><path id="_R_G_L_5_G_D_2_P_0" fill="#b3c7ff" fill-opacity="0.6" fill-rule="nonzero" d=" M12.25 8.25 C12.25,8.25 24.25,8.25 24.25,8.25 C26.46,8.25 28.25,10.04 28.25,12.25 C28.25,12.25 28.25,24.25 28.25,24.25 C28.25,26.46 26.46,28.25 24.25,28.25 C24.25,28.25 12.25,28.25 12.25,28.25 C10.04,28.25 8.25,26.46 8.25,24.25 C8.25,24.25 8.25,12.25 8.25,12.25 C8.25,10.04 10.04,8.25 12.25,8.25z "/><path id="_R_G_L_5_G_D_3_P_0" fill="#b3c7ff" fill-opacity="0.6" fill-rule="nonzero" d=" M36.25 18.25 C36.25,15.49 38.49,13.25 41.25,13.25 C41.25,13.25 114.25,13.25 114.25,13.25 C117.01,13.25 119.25,15.49 119.25,18.25 C119.25,21.01 117.01,23.25 114.25,23.25 C114.25,23.25 41.25,23.25 41.25,23.25 C38.49,23.25 36.25,21.01 36.25,18.25z "/></g></g><g id="_R_G_L_4_G_M"><g id="_R_G_L_4_G" transform=" translate(472, 328) scale(4.2, 4.2) translate(-99, -18.5)"><path id="_R_G_L_4_G_D_0_P_0" fill="#ffffff" fill-opacity="1" fill-rule="nonzero" d=" M0.25 8.25 C0.25,3.83 3.83,0.25 8.25,0.25 C8.25,0.25 189.25,0.25 189.25,0.25 C193.67,0.25 197.25,3.83 197.25,8.25 C197.25,8.25 197.25,28.25 197.25,28.25 C197.25,32.67 193.67,36.25 189.25,36.25 C189.25,36.25 8.25,36.25 8.25,36.25 C3.83,36.25 0.25,32.67 0.25,28.25 C0.25,28.25 0.25,8.25 0.25,8.25z "/><path id="_R_G_L_4_G_D_1_P_0" fill="#000000" fill-opacity="0.039220000000000005" fill-rule="nonzero" d=" M189.25 36.25 C189.25,36.25 8.25,36.25 8.25,36.25 C3.84,36.25 0.25,32.66 0.25,28.25 C0.25,28.25 0.25,8.25 0.25,8.25 C0.25,3.84 3.84,0.25 8.25,0.25 C8.25,0.25 189.25,0.25 189.25,0.25 C193.66,0.25 197.25,3.84 197.25,8.25 C197.25,8.25 197.25,28.25 197.25,28.25 C197.25,32.66 193.66,36.25 189.25,36.25z  M8.25 1.25 C4.39,1.25 1.25,4.39 1.25,8.25 C1.25,8.25 1.25,28.25 1.25,28.25 C1.25,32.11 4.39,35.25 8.25,35.25 C8.25,35.25 189.25,35.25 189.25,35.25 C193.11,35.25 196.25,32.11 196.25,28.25 C196.25,28.25 196.25,8.25 196.25,8.25 C196.25,4.39 193.11,1.25 189.25,1.25 C189.25,1.25 8.25,1.25 8.25,1.25z "/><path id="_R_G_L_4_G_D_2_P_0" fill="#b3c7ff" fill-opacity="0.6" fill-rule="nonzero" d=" M12.25 8.25 C12.25,8.25 24.25,8.25 24.25,8.25 C26.46,8.25 28.25,10.04 28.25,12.25 C28.25,12.25 28.25,24.25 28.25,24.25 C28.25,26.46 26.46,28.25 24.25,28.25 C24.25,28.25 12.25,28.25 12.25,28.25 C10.04,28.25 8.25,26.46 8.25,24.25 C8.25,24.25 8.25,12.25 8.25,12.25 C8.25,10.04 10.04,8.25 12.25,8.25z "/><path id="_R_G_L_4_G_D_3_P_0" fill="#b3c7ff" fill-opacity="0.6" fill-rule="nonzero" d=" M36.25 18.25 C36.25,15.49 38.49,13.25 41.25,13.25 C41.25,13.25 114.25,13.25 114.25,13.25 C117.01,13.25 119.25,15.49 119.25,18.25 C119.25,21.01 117.01,23.25 114.25,23.25 C114.25,23.25 41.25,23.25 41.25,23.25 C38.49,23.25 36.25,21.01 36.25,18.25z "/></g></g><g id="_R_G_L_3_G_M"><g id="_R_G_L_3_G"><path id="_R_G_L_3_G_D_0_P_0" fill="#ffffff" fill-opacity="1" fill-rule="nonzero" d=" M412.24 -75.63 C412.24,-75.63 -409.76,-75.63 -409.76,-75.63 C-409.76,-75.63 -409.76,72.86 -409.76,72.86 C-409.76,72.86 412.24,72.86 412.24,72.86 C412.24,72.86 412.24,-75.63 412.24,-75.63z "/></g></g><g id="_R_G_L_2_G_M"><g id="_R_G_L_2_G"><path id="_R_G_L_2_G_D_0_P_0" fill="#000000" fill-opacity="0.039220000000000005" fill-rule="nonzero" d=" M189 36 C189,36 8,36 8,36 C3.59,36 0,32.41 0,28 C0,28 0,8 0,8 C0,3.59 3.59,0 8,0 C8,0 189,0 189,0 C193.41,0 197,3.59 197,8 C197,8 197,28 197,28 C197,32.41 193.41,36 189,36z  M8 1 C4.14,1 1,4.14 1,8 C1,8 1,28 1,28 C1,31.86 4.14,35 8,35 C8,35 189,35 189,35 C192.86,35 196,31.86 196,28 C196,28 196,8 196,8 C196,4.14 192.86,1 189,1 C189,1 8,1 8,1z "/></g></g><g id="_R_G_L_1_G_M"><g id="_R_G_L_1_G" opacity="0.15"><path id="_R_G_L_1_G_D_0_P_0" fill="#000000" fill-opacity="0.6" fill-rule="nonzero" d=" M12 8 C12,8 24,8 24,8 C26.21,8 28,9.79 28,12 C28,12 28,24 28,24 C28,26.21 26.21,28 24,28 C24,28 12,28 12,28 C9.79,28 8,26.21 8,24 C8,24 8,12 8,12 C8,9.79 9.79,8 12,8z "/><path id="_R_G_L_1_G_D_1_P_0" fill="#000000" fill-opacity="0.6" fill-rule="nonzero" d=" M36 18 C36,15.24 38.24,13 41,13 C41,13 114,13 114,13 C116.76,13 119,15.24 119,18 C119,20.76 116.76,23 114,23 C114,23 41,23 41,23 C38.24,23 36,20.76 36,18z "/></g></g><g id="_R_G_L_0_G" transform=" translate(472, 328) scale(4.2, 4.2) translate(-101, -20.5)"><path id="_R_G_L_0_G_D_0_P_0" fill="#b3c7ff" fill-opacity="1" fill-rule="nonzero" d=" M191.25 40.25 C191.25,40.25 10.25,40.25 10.25,40.25 C4.74,40.25 0.25,35.76 0.25,30.25 C0.25,30.25 0.25,10.25 0.25,10.25 C0.25,4.74 4.74,0.25 10.25,0.25 C10.25,0.25 191.25,0.25 191.25,0.25 C196.76,0.25 201.25,4.74 201.25,10.25 C201.25,10.25 201.25,30.25 201.25,30.25 C201.25,35.76 196.76,40.25 191.25,40.25z  M10.25 1.25 C5.29,1.25 1.25,5.29 1.25,10.25 C1.25,10.25 1.25,30.25 1.25,30.25 C1.25,35.21 5.29,39.25 10.25,39.25 C10.25,39.25 191.25,39.25 191.25,39.25 C196.21,39.25 200.25,35.21 200.25,30.25 C200.25,30.25 200.25,10.25 200.25,10.25 C200.25,5.29 196.21,1.25 191.25,1.25 C191.25,1.25 10.25,1.25 10.25,1.25z "/></g></g><g id="time_group"/></svg>