<svg width="137" height="45" viewBox="0 0 137 45" fill="none" xmlns="http://www.w3.org/2000/svg">
<g filter="url(#filter0_d_4315_8242)">
<rect x="9.43903" y="9.43902" width="26" height="26" rx="9" fill="white"/>
<rect x="9.70122" y="9.70122" width="25.4756" height="25.4756" rx="8.7378" stroke="#B3C7FF" stroke-width="0.52439" stroke-dasharray="1.05 1.05"/>
</g>
<g filter="url(#filter1_d_4315_8242)">
<rect x="12.439" y="12.439" width="20" height="20" rx="6" fill="#FAFAFC"/>
<rect x="12.939" y="12.939" width="19" height="19" rx="5.5" stroke="black" stroke-opacity="0.04"/>
</g>
<g filter="url(#filter2_d_4315_8242)">
<circle cx="114.439" cy="22.439" r="13" fill="white"/>
<circle cx="114.439" cy="22.439" r="12.7378" stroke="#B3C7FF" stroke-width="0.52439" stroke-dasharray="1.05 1.05"/>
</g>
<g filter="url(#filter3_d_4315_8242)">
<rect x="104.439" y="12.439" width="20" height="20" rx="10" fill="#FAFAFC"/>
<rect x="104.939" y="12.939" width="19" height="19" rx="9.5" stroke="black" stroke-opacity="0.04"/>
</g>
<g filter="url(#filter4_d_4315_8242)">
<path d="M99.439 22.439H37.439" stroke="#B3C7FF" stroke-width="0.52439" stroke-dasharray="1.05 1.05"/>
</g>
<rect x="60.439" y="14.439" width="16" height="16" rx="4" fill="white"/>
<path opacity="0.08" d="M70.314 17.939V18.839C70.314 22.0699 67.6949 24.689 64.464 24.689L64.0274 22.8179C63.9695 22.5694 63.9758 22.3103 64.0459 22.065L64.5621 20.2584C64.6448 19.9689 64.8127 19.7109 65.0441 19.5182L66.5218 18.2867C66.7914 18.062 67.1312 17.939 67.4821 17.939H70.314Z" fill="#4061D8"/>
<path d="M69.939 17.564C71.803 17.564 73.314 19.0751 73.314 20.939V23.939C73.314 25.803 71.803 27.314 69.939 27.314H66.939C65.0751 27.314 63.564 25.803 63.564 23.939V20.939C63.564 19.0751 65.0751 17.564 66.939 17.564H69.939ZM66.939 18.314C65.4893 18.314 64.314 19.4893 64.314 20.939V23.939C64.314 25.3888 65.4893 26.564 66.939 26.564H69.939C71.3888 26.564 72.564 25.3888 72.564 23.939V20.939C72.564 19.4893 71.3888 18.314 69.939 18.314H66.939ZM69.6734 21.4234C69.8198 21.277 70.0582 21.277 70.2047 21.4234C70.3511 21.5698 70.3511 21.8082 70.2047 21.9546L68.3297 23.8296C68.1832 23.9761 67.9448 23.9761 67.7984 23.8296L66.6734 22.7046C66.527 22.5582 66.527 22.3198 66.6734 22.1734C66.8198 22.027 67.0582 22.027 67.2047 22.1734L68.064 23.0328L69.6734 21.4234Z" fill="#4061D8"/>
<defs>
<filter id="filter0_d_4315_8242" x="1.90735e-06" y="0" width="44.878" height="44.878" filterUnits="userSpaceOnUse" color-interpolation-filters="sRGB">
<feFlood flood-opacity="0" result="BackgroundImageFix"/>
<feColorMatrix in="SourceAlpha" type="matrix" values="0 0 0 0 0 0 0 0 0 0 0 0 0 0 0 0 0 0 127 0" result="hardAlpha"/>
<feMorphology radius="4.19512" operator="dilate" in="SourceAlpha" result="effect1_dropShadow_4315_8242"/>
<feOffset/>
<feGaussianBlur stdDeviation="2.62195"/>
<feComposite in2="hardAlpha" operator="out"/>
<feColorMatrix type="matrix" values="0 0 0 0 0 0 0 0 0 0 0 0 0 0 0 0 0 0 0.02 0"/>
<feBlend mode="normal" in2="BackgroundImageFix" result="effect1_dropShadow_4315_8242"/>
<feBlend mode="normal" in="SourceGraphic" in2="effect1_dropShadow_4315_8242" result="shape"/>
</filter>
<filter id="filter1_d_4315_8242" x="6.43903" y="9.43902" width="32" height="32" filterUnits="userSpaceOnUse" color-interpolation-filters="sRGB">
<feFlood flood-opacity="0" result="BackgroundImageFix"/>
<feColorMatrix in="SourceAlpha" type="matrix" values="0 0 0 0 0 0 0 0 0 0 0 0 0 0 0 0 0 0 127 0" result="hardAlpha"/>
<feOffset dy="3"/>
<feGaussianBlur stdDeviation="3"/>
<feComposite in2="hardAlpha" operator="out"/>
<feColorMatrix type="matrix" values="0 0 0 0 0 0 0 0 0 0 0 0 0 0 0 0 0 0 0.04 0"/>
<feBlend mode="normal" in2="BackgroundImageFix" result="effect1_dropShadow_4315_8242"/>
<feBlend mode="normal" in="SourceGraphic" in2="effect1_dropShadow_4315_8242" result="shape"/>
</filter>
<filter id="filter2_d_4315_8242" x="92" y="0" width="44.878" height="44.878" filterUnits="userSpaceOnUse" color-interpolation-filters="sRGB">
<feFlood flood-opacity="0" result="BackgroundImageFix"/>
<feColorMatrix in="SourceAlpha" type="matrix" values="0 0 0 0 0 0 0 0 0 0 0 0 0 0 0 0 0 0 127 0" result="hardAlpha"/>
<feMorphology radius="4.19512" operator="dilate" in="SourceAlpha" result="effect1_dropShadow_4315_8242"/>
<feOffset/>
<feGaussianBlur stdDeviation="2.62195"/>
<feComposite in2="hardAlpha" operator="out"/>
<feColorMatrix type="matrix" values="0 0 0 0 0 0 0 0 0 0 0 0 0 0 0 0 0 0 0.02 0"/>
<feBlend mode="normal" in2="BackgroundImageFix" result="effect1_dropShadow_4315_8242"/>
<feBlend mode="normal" in="SourceGraphic" in2="effect1_dropShadow_4315_8242" result="shape"/>
</filter>
<filter id="filter3_d_4315_8242" x="98.439" y="9.43902" width="32" height="32" filterUnits="userSpaceOnUse" color-interpolation-filters="sRGB">
<feFlood flood-opacity="0" result="BackgroundImageFix"/>
<feColorMatrix in="SourceAlpha" type="matrix" values="0 0 0 0 0 0 0 0 0 0 0 0 0 0 0 0 0 0 127 0" result="hardAlpha"/>
<feOffset dy="3"/>
<feGaussianBlur stdDeviation="3"/>
<feComposite in2="hardAlpha" operator="out"/>
<feColorMatrix type="matrix" values="0 0 0 0 0 0 0 0 0 0 0 0 0 0 0 0 0 0 0.04 0"/>
<feBlend mode="normal" in2="BackgroundImageFix" result="effect1_dropShadow_4315_8242"/>
<feBlend mode="normal" in="SourceGraphic" in2="effect1_dropShadow_4315_8242" result="shape"/>
</filter>
<filter id="filter4_d_4315_8242" x="28" y="12.7378" width="80.878" height="19.4024" filterUnits="userSpaceOnUse" color-interpolation-filters="sRGB">
<feFlood flood-opacity="0" result="BackgroundImageFix"/>
<feColorMatrix in="SourceAlpha" type="matrix" values="0 0 0 0 0 0 0 0 0 0 0 0 0 0 0 0 0 0 127 0" result="hardAlpha"/>
<feMorphology radius="4.19512" operator="dilate" in="SourceAlpha" result="effect1_dropShadow_4315_8242"/>
<feOffset/>
<feGaussianBlur stdDeviation="2.62195"/>
<feComposite in2="hardAlpha" operator="out"/>
<feColorMatrix type="matrix" values="0 0 0 0 0 0 0 0 0 0 0 0 0 0 0 0 0 0 0.02 0"/>
<feBlend mode="normal" in2="BackgroundImageFix" result="effect1_dropShadow_4315_8242"/>
<feBlend mode="normal" in="SourceGraphic" in2="effect1_dropShadow_4315_8242" result="shape"/>
</filter>
</defs>
</svg>
