<svg width="12" height="12" viewBox="0 0 12 12" fill="none" xmlns="http://www.w3.org/2000/svg">
<path opacity="0.08" d="M6.03325 3H5.96675C4.74248 3 3.75 3.99247 3.75 5.21675C3.75 5.23511 3.76489 5.25 3.78325 5.25H8.21675C8.23511 5.25 8.25 5.23511 8.25 5.21675C8.25 3.99247 7.25753 3 6.03325 3Z" fill="#010103"/>
<path d="M7.16504 1.83249C7.25778 1.64753 7.48286 1.57294 7.66797 1.6655C7.85279 1.75829 7.92748 1.98338 7.83496 2.16843L7.49609 2.84421C8.17798 3.31832 8.625 4.10701 8.625 5.00046V8.65964C8.62471 9.19282 8.19242 9.62541 7.65918 9.62546H7.375V10.5005C7.37476 10.7074 7.20696 10.8755 7 10.8755C6.79304 10.8755 6.62524 10.7074 6.625 10.5005V9.62546H5.375V10.5005C5.37476 10.7074 5.20696 10.8755 5 10.8755C4.79304 10.8755 4.62524 10.7074 4.625 10.5005V9.62546H4.34082C3.80758 9.62541 3.37529 9.19282 3.375 8.65964V5.00046C3.375 4.1073 3.82141 3.31837 4.50293 2.84421L4.16504 2.16843C4.07251 1.98337 4.14721 1.75829 4.33203 1.6655C4.51714 1.57294 4.74222 1.64753 4.83496 1.83249L5.17285 2.50925C5.43301 2.4229 5.71086 2.37546 6 2.37546C6.28882 2.37546 6.56627 2.42308 6.82617 2.50925L7.16504 1.83249ZM4.125 8.65964C4.12529 8.77861 4.2218 8.87541 4.34082 8.87546H7.65918C7.7782 8.87541 7.87471 8.77861 7.875 8.65964V5.37546H4.125V8.65964ZM9.5 5.12546C9.70711 5.12546 9.875 5.29335 9.875 5.50046V7.50046C9.87475 7.70735 9.70695 7.87546 9.5 7.87546C9.29305 7.87546 9.12525 7.70735 9.125 7.50046V5.50046C9.125 5.29335 9.29289 5.12546 9.5 5.12546ZM2.5 5.12448C2.70695 5.12448 2.87475 5.29259 2.875 5.49948V7.49948C2.875 7.70659 2.70711 7.87448 2.5 7.87448C2.29289 7.87448 2.125 7.70659 2.125 7.49948V5.49948C2.12525 5.29259 2.29305 5.12448 2.5 5.12448ZM6 3.12546C5.09278 3.12546 4.33669 3.76946 4.16309 4.62546H7.83691C7.66331 3.76946 6.90722 3.12546 6 3.12546Z" fill="#010103"/>
</svg>
