<svg width="12" height="12" viewBox="0 0 12 12" fill="none" xmlns="http://www.w3.org/2000/svg">
<path d="M4.11621 2.67989C4.29304 2.46801 4.60827 2.43971 4.82031 2.61641C5.0321 2.79325 5.06046 3.1085 4.88379 3.32051L3.06738 5.5002H10C10.2761 5.5002 10.5 5.72406 10.5 6.0002C10.4999 6.27623 10.2761 6.5002 10 6.5002H3.06738L4.88379 8.67989C5.06038 8.89193 5.03215 9.20719 4.82031 9.38399C4.60831 9.56056 4.29303 9.53224 4.11621 9.32051L1.61621 6.32051C1.61084 6.31407 1.60656 6.30664 1.60156 6.3C1.59199 6.28731 1.58257 6.27454 1.57422 6.26094C1.56632 6.24805 1.56033 6.2343 1.55371 6.2209C1.54667 6.2067 1.5389 6.19286 1.5332 6.17793C1.52835 6.16517 1.52525 6.15191 1.52148 6.13887C1.50868 6.09469 1.50002 6.0485 1.5 6.0002C1.5 5.95055 1.50899 5.90289 1.52246 5.85762C1.52595 5.84588 1.52884 5.83397 1.5332 5.82246C1.53988 5.80491 1.54811 5.78823 1.55664 5.77168C1.56169 5.76186 1.56652 5.75193 1.57227 5.74239C1.58211 5.72608 1.59291 5.71053 1.60449 5.69551C1.60845 5.69037 1.61203 5.68491 1.61621 5.67989L4.11621 2.67989Z" fill="#010103"/>
</svg>
