<svg width="12" height="12" viewBox="0 0 12 12" fill="none" xmlns="http://www.w3.org/2000/svg">
<path d="M2.50148 4.81119C2.47657 4.53626 2.67964 4.29321 2.9546 4.26822C3.22943 4.24337 3.47243 4.44561 3.49757 4.72037L3.75343 7.54166L8.64796 2.64712C8.84319 2.45203 9.15974 2.45207 9.355 2.64712C9.55025 2.84236 9.55021 3.1589 9.355 3.35416L4.46046 8.24869L7.28175 8.50357C7.55666 8.52862 7.7588 8.77263 7.7339 9.04752C7.70876 9.32229 7.46578 9.52551 7.19093 9.50064L3.30714 9.14713L3.28371 9.14322C3.26599 9.14076 3.24839 9.13781 3.23097 9.13345L3.22023 9.13052C3.21308 9.12856 3.20576 9.12596 3.19875 9.12369C3.18289 9.11856 3.16725 9.11286 3.15187 9.10611C3.13672 9.09946 3.12224 9.09171 3.10793 9.08365C3.089 9.07297 3.07094 9.06085 3.05324 9.04752C3.03839 9.03636 3.02375 9.02507 3.01027 9.01236C3.00676 9.00905 3.00296 9.00603 2.99953 9.00259C2.99615 8.99922 2.99302 8.9953 2.98976 8.99185C2.97467 8.97587 2.96066 8.95894 2.94777 8.94107C2.94143 8.93231 2.93491 8.92377 2.92921 8.9147C2.91497 8.892 2.90164 8.8684 2.89113 8.84341C2.88568 8.83047 2.88274 8.81665 2.87843 8.80338C2.87416 8.7902 2.86991 8.77698 2.86671 8.76334C2.86338 8.7491 2.86097 8.73479 2.8589 8.72037C2.85766 8.71175 2.85579 8.70276 2.855 8.694L2.50148 4.81119Z" fill="#010103"/>
</svg>
