<svg width="12" height="12" viewBox="0 0 12 12" fill="none" xmlns="http://www.w3.org/2000/svg">
<path d="M5.91211 1.50797C5.96989 1.4977 6.02912 1.49781 6.08691 1.50797C6.10467 1.51108 6.12161 1.5167 6.13867 1.52164C6.15172 1.52541 6.16496 1.5285 6.17773 1.53336C6.19267 1.53905 6.20649 1.54682 6.2207 1.55386C6.23411 1.56049 6.24784 1.56647 6.26074 1.57437C6.27435 1.58273 6.2871 1.59214 6.2998 1.60172C6.30646 1.60672 6.31385 1.61098 6.32031 1.61636L9.32031 4.11636C9.53212 4.2932 9.56047 4.60845 9.38379 4.82047C9.20697 5.03223 8.8917 5.06055 8.67969 4.88394L6.5 3.06656V10.0002C6.49991 10.2762 6.27609 10.5002 6 10.5002C5.72391 10.5002 5.50009 10.2762 5.5 10.0002V3.06656L3.32031 4.88394C3.1083 5.06054 2.79303 5.03223 2.61621 4.82047C2.43953 4.60845 2.46789 4.2932 2.67969 4.11636L5.67969 1.61636C5.68594 1.61115 5.69278 1.60658 5.69922 1.60172C5.7119 1.59213 5.7247 1.58274 5.73828 1.57437C5.75115 1.56646 5.76494 1.5605 5.77832 1.55386C5.79251 1.5468 5.80637 1.53907 5.82129 1.53336C5.83404 1.52848 5.84732 1.52543 5.86035 1.52164C5.8774 1.51667 5.89436 1.51111 5.91211 1.50797Z" fill="#010103"/>
</svg>
