<svg width="12" height="12" viewBox="0 0 12 12" fill="none" xmlns="http://www.w3.org/2000/svg">
<path d="M5.99994 1.5C6.27608 1.5 6.49994 1.72386 6.49994 2V8.93164L8.67963 7.11621C8.89166 6.93952 9.2069 6.96784 9.38373 7.17969C9.56043 7.39173 9.53213 7.70696 9.32025 7.88379L6.32025 10.3838C6.31392 10.3891 6.30627 10.3925 6.29974 10.3975C6.28703 10.4071 6.2743 10.4164 6.26068 10.4248C6.24777 10.4327 6.23407 10.4387 6.22064 10.4453C6.20641 10.4524 6.19263 10.4601 6.17767 10.4658C6.16488 10.4707 6.15168 10.4738 6.13861 10.4775C6.12152 10.4825 6.10464 10.4881 6.08685 10.4912C6.02896 10.5014 5.96992 10.5015 5.91205 10.4912C5.89427 10.4881 5.87736 10.4825 5.86029 10.4775C5.84724 10.4737 5.834 10.4707 5.82123 10.4658C5.8063 10.4601 5.79246 10.4524 5.77826 10.4453C5.76486 10.4387 5.7511 10.4327 5.73822 10.4248C5.72463 10.4164 5.71184 10.4071 5.69916 10.3975C5.69286 10.3927 5.68574 10.3889 5.67963 10.3838L2.67963 7.88379C2.46779 7.70696 2.43949 7.39172 2.61615 7.17969C2.79297 6.96782 3.10821 6.93954 3.32025 7.11621L5.49994 8.93164V2C5.49994 1.72387 5.72382 1.50002 5.99994 1.5Z" fill="#010103"/>
</svg>
