<svg width="12" height="12" viewBox="0 0 12 12" fill="none" xmlns="http://www.w3.org/2000/svg">
<path d="M6 1C8.76142 1 11 3.23858 11 6C11 8.76142 8.76142 11 6 11C3.23858 11 1 8.76142 1 6C1 3.23858 3.23858 1 6 1ZM6 2C3.79086 2 2 3.79086 2 6C2 8.20914 3.79086 10 6 10C8.20914 10 10 8.20914 10 6C10 3.79086 8.20914 2 6 2ZM6 3.5C6.27614 3.5 6.5 3.72386 6.5 4V5.73242L7.77734 6.58398C8.00711 6.73716 8.06919 7.04758 7.91602 7.27734C7.76284 7.50711 7.45242 7.56919 7.22266 7.41602L5.72266 6.41602C5.58356 6.32328 5.5 6.16718 5.5 6V4C5.5 3.72386 5.72386 3.5 6 3.5Z" fill="#010103"/>
<path opacity="0.12" d="M9 2.5L6 1V6L10 8.5L10.5 5.5L9 2.5Z" fill="#010103"/>
</svg>
