<svg width="12" height="12" viewBox="0 0 12 12" fill="none" xmlns="http://www.w3.org/2000/svg">
<g clip-path="url(#clip0_2093_20512)">
<path d="M7.5 0.5C8.60457 0.5 9.5 1.39543 9.5 2.5C10.6046 2.5 11.5 3.39543 11.5 4.5V9.5C11.5 10.6046 10.6046 11.5 9.5 11.5H4.5C3.39543 11.5 2.5 10.6046 2.5 9.5C1.39543 9.5 0.5 8.60457 0.5 7.5V2.5C0.5 1.39543 1.39543 0.5 2.5 0.5H7.5ZM4.5 3.5C3.94772 3.5 3.5 3.94772 3.5 4.5V9.5C3.5 10.0523 3.94772 10.5 4.5 10.5H9.5C10.0523 10.5 10.5 10.0523 10.5 9.5V4.5C10.5 3.94772 10.0523 3.5 9.5 3.5H4.5ZM2.5 1.5C1.94772 1.5 1.5 1.94772 1.5 2.5V7.5C1.5 8.05228 1.94772 8.5 2.5 8.5V4.5C2.5 3.39543 3.39543 2.5 4.5 2.5H8.5C8.5 1.94772 8.05228 1.5 7.5 1.5H2.5Z" fill="#010103"/>
</g>
<defs>
<clipPath id="clip0_2093_20512">
<rect width="12" height="12" fill="white"/>
</clipPath>
</defs>
</svg>
