<svg width="12" height="12" viewBox="0 0 12 12" fill="none" xmlns="http://www.w3.org/2000/svg">
<path opacity="0.08" d="M6.65686 3L2.41422 7.24264L2.06067 9.71751L4.53554 9.36396L8.77818 5.12132L6.65686 3Z" fill="#010103"/>
<path d="M9.84595 2.66776C10.4316 3.25356 10.4317 4.20335 9.84595 4.78908L5.13168 9.50336C4.90232 9.73261 4.60471 9.88138 4.2837 9.92734L3.45851 10.0454C2.46861 10.1868 1.61986 9.33798 1.76118 8.34809L1.87926 7.52291C1.91946 7.24197 2.03837 6.97902 2.22108 6.76401L2.30325 6.67493L7.01753 1.96065C7.60331 1.37487 8.55306 1.37487 9.13885 1.96065L9.84595 2.66776ZM6.66397 3.72842L3.01036 7.38204L2.95857 7.44349C2.9117 7.50864 2.88028 7.58424 2.8688 7.66446L2.75072 8.48965C2.70378 8.81948 2.98712 9.10293 3.31695 9.05589L4.14214 8.93781C4.24903 8.92248 4.34817 8.87255 4.42457 8.79625L8.07819 5.14263L6.66397 3.72842ZM8.43174 2.66776C8.23648 2.4725 7.91989 2.4725 7.72463 2.66776L7.37108 3.02131L8.78529 4.43553L9.13885 4.08197C9.33405 3.88677 9.33394 3.57014 9.13885 3.37487L8.43174 2.66776Z" fill="#010103"/>
</svg>
