<svg width="12" height="12" viewBox="0 0 12 12" fill="none" xmlns="http://www.w3.org/2000/svg">
<path opacity="0.12" d="M4 6C4 3 5.5 1.5 5.5 1.5H6.5C6.5 1.5 8 3 8 6C8 9 6.5 10.5 6.5 10.5H5.5C5.5 10.5 4 9 4 6Z" fill="#010103"/>
<path d="M6 0.999573C8.76128 0.999573 10.9998 3.23835 11 5.99957C11 8.761 8.76142 10.9996 6 10.9996C3.23858 10.9996 1 8.761 1 5.99957C1.00023 3.23835 3.23872 0.999573 6 0.999573ZM4.7627 7.99957C4.88821 8.45644 5.04212 8.8406 5.19727 9.15094C5.36979 9.496 5.54133 9.75224 5.66602 9.91852C5.68535 9.9443 5.70482 9.96735 5.72168 9.98883C5.81367 9.99516 5.9064 9.99957 6 9.99957C6.09327 9.99957 6.18567 9.99511 6.27734 9.98883C6.29431 9.96722 6.3145 9.94449 6.33398 9.91852C6.45867 9.75224 6.63021 9.496 6.80273 9.15094C6.95788 8.8406 7.11179 8.45644 7.2373 7.99957H4.7627ZM8.27051 7.99957C8.11853 8.6392 7.91005 9.17258 7.69727 9.59821C7.69182 9.60909 7.68513 9.61969 7.67969 9.63043C8.42925 9.28305 9.05254 8.71058 9.46387 7.99957H8.27051ZM2.53613 7.99957C2.94731 8.71032 3.57013 9.28301 4.31934 9.63043C4.31396 9.61982 4.30811 9.60895 4.30273 9.59821C4.08995 9.17258 3.88147 8.6392 3.72949 7.99957H2.53613ZM2.12598 4.99957C2.04368 5.31918 2.00004 5.65428 2 5.99957C2 6.34472 2.04378 6.68008 2.12598 6.99957H3.55566C3.52076 6.68537 3.5 6.35182 3.5 5.99957C3.50002 5.64717 3.52071 5.3139 3.55566 4.99957H2.12598ZM8.44434 4.99957C8.47929 5.3139 8.49998 5.64717 8.5 5.99957C8.5 6.35182 8.47924 6.68537 8.44434 6.99957H9.87402C9.95622 6.68008 10 6.34472 10 5.99957C9.99996 5.65428 9.95632 5.31918 9.87402 4.99957H8.44434ZM4.56152 4.99957C4.52242 5.30975 4.50002 5.64307 4.5 5.99957C4.5 6.35592 4.52247 6.68951 4.56152 6.99957H7.43848C7.47753 6.68951 7.5 6.35592 7.5 5.99957C7.49998 5.64307 7.47758 5.30975 7.43848 4.99957H4.56152ZM4.31836 2.36969C3.56991 2.71697 2.94814 3.28958 2.53711 3.99957H3.72949C3.8815 3.36014 4.08998 2.82644 4.30273 2.40094C4.30797 2.39047 4.31312 2.38003 4.31836 2.36969ZM7.69727 2.40094C7.91002 2.82644 8.1185 3.36014 8.27051 3.99957H9.46289C9.05171 3.28933 8.42948 2.71694 7.68066 2.36969C7.68597 2.38016 7.69196 2.39034 7.69727 2.40094ZM6 1.99957C5.90642 1.99957 5.81365 2.00399 5.72168 2.01031C5.70476 2.03186 5.68544 2.05474 5.66602 2.08063C5.54136 2.24684 5.36983 2.50313 5.19727 2.84821C5.04215 3.15843 4.88822 3.54289 4.7627 3.99957H7.2373C7.11178 3.54289 6.95785 3.15843 6.80273 2.84821C6.63017 2.50313 6.45864 2.24684 6.33398 2.08063C6.31442 2.05455 6.29436 2.03199 6.27734 2.01031C6.18569 2.00404 6.09325 1.99957 6 1.99957Z" fill="#010103"/>
</svg>
