<svg width="12" height="12" viewBox="0 0 12 12" fill="none" xmlns="http://www.w3.org/2000/svg">
<path opacity="0.08" d="M10.5 6C10.5 6.59095 10.3836 7.17611 10.1575 7.72208C9.93131 8.26804 9.59984 8.76412 9.18198 9.18198C8.76412 9.59984 8.26804 9.93131 7.72208 10.1575C7.17611 10.3836 6.59095 10.5 6 10.5C5.40905 10.5 4.82389 10.3836 4.27792 10.1575C3.73196 9.93131 3.23588 9.59984 2.81802 9.18198C2.40016 8.76412 2.06869 8.26804 1.84254 7.72208C1.6164 7.17611 1.5 6.59095 1.5 6C1.5 5.40905 1.6164 4.82389 1.84254 4.27792C2.06869 3.73196 2.40016 3.23588 2.81802 2.81802C3.23588 2.40016 3.73196 2.06869 4.27793 1.84254C4.82389 1.6164 5.40905 1.5 6 1.5C6.59095 1.5 7.17611 1.6164 7.72208 1.84254C8.26804 2.06869 8.76412 2.40016 9.18198 2.81802C9.59984 3.23588 9.93131 3.73196 10.1575 4.27793C10.3836 4.82389 10.5 5.40905 10.5 6L10.5 6Z" stroke="#010103" stroke-linecap="round"/>
<path d="M4.45508 1.24532C5.45928 0.919039 6.54072 0.919039 7.54492 1.24532C7.80751 1.33067 7.95154 1.61259 7.86621 1.8752C7.78075 2.13754 7.49879 2.28069 7.23633 2.19551C6.43295 1.93448 5.56705 1.93448 4.76367 2.19551C3.96042 2.45654 3.26014 2.96537 2.76367 3.64864C2.26722 4.332 2 5.15554 2 6.0002C2.00004 6.84485 2.2672 7.66842 2.76367 8.35176C3.26015 9.03498 3.96045 9.54388 4.76367 9.80489C5.56701 10.0659 6.43299 10.0659 7.23633 9.80489C8.03955 9.54388 8.73985 9.03498 9.23633 8.35176C9.7328 7.66842 9.99996 6.84485 10 6.0002C10 5.72406 10.2239 5.5002 10.5 5.5002C10.7761 5.5002 11 5.72406 11 6.0002C11 7.05593 10.6654 8.08453 10.0449 8.93867C9.42429 9.79285 8.54909 10.4288 7.54492 10.7551C6.54076 11.0813 5.45924 11.0813 4.45508 10.7551C3.45091 10.4288 2.57571 9.79285 1.95508 8.93867C1.33458 8.08453 1.00004 7.05593 1 6.0002C1 4.94445 1.3346 3.91589 1.95508 3.06172C2.57571 2.2075 3.45089 1.57161 4.45508 1.24532Z" fill="#010103"/>
</svg>
