<svg width="12" height="12" viewBox="0 0 12 12" fill="none" xmlns="http://www.w3.org/2000/svg">
<path d="M6 1.5C8.48528 1.5 10.5 3.51472 10.5 6C10.5 8.48528 8.48528 10.5 6 10.5C3.51472 10.5 1.5 8.48528 1.5 6C1.5 3.51472 3.51472 1.5 6 1.5ZM6 2.40039C5.28799 2.40039 4.59202 2.61126 4 3.00684C3.40804 3.40238 2.94631 3.96433 2.67383 4.62207C2.40138 5.27981 2.32991 6.00389 2.46875 6.70215C2.60766 7.40048 2.95063 8.04243 3.4541 8.5459C3.95757 9.04936 4.59952 9.39234 5.29785 9.53125C5.9961 9.67009 6.7202 9.59861 7.37793 9.32617C8.03567 9.05369 8.59763 8.59196 8.99316 8C9.38874 7.40798 9.59961 6.71201 9.59961 6H6V2.40039Z" fill="#47AD7A"/>
</svg>
