<svg width="12" height="12" viewBox="0 0 12 12" fill="none" xmlns="http://www.w3.org/2000/svg">
<path d="M4.55417 0.957703C4.73591 0.749991 5.0524 0.728329 5.26023 0.909851L7.06785 2.49091C7.24373 2.64479 7.28951 2.9007 7.1782 3.10614L6.03171 5.21649C5.89999 5.45903 5.59659 5.54917 5.35398 5.41766C5.11131 5.28588 5.02103 4.98162 5.15281 4.73895L5.82566 3.49969C5.69509 3.50027 5.57588 3.51391 5.45945 3.53778C5.20294 3.59048 4.93806 3.69596 4.56394 3.86298C3.90651 4.1565 3.35686 4.64515 2.98972 5.25946C2.62273 5.87374 2.45571 6.58512 2.51121 7.29657C2.56686 8.00826 2.84181 8.68685 3.30027 9.23798C3.75871 9.78903 4.37826 10.1863 5.07371 10.3757C5.76922 10.565 6.50746 10.5368 7.18601 10.2946C7.86425 10.0524 8.45084 9.60841 8.86472 9.02411C9.27846 8.43975 9.50038 7.74249 9.50046 7.02899C9.50063 6.75299 9.72443 6.52899 10.0005 6.52899C10.2763 6.52924 10.5003 6.75314 10.5005 7.02899C10.5004 7.95005 10.2132 8.84838 9.68015 9.60126C9.14695 10.3541 8.393 10.925 7.52195 11.236C6.65076 11.547 5.70374 11.5835 4.81101 11.3405C3.91824 11.0974 3.12199 10.5862 2.53171 9.87665C1.94149 9.167 1.58596 8.29319 1.51414 7.37469C1.44242 6.45628 1.65831 5.53855 2.13132 4.74677C2.60443 3.95508 3.31132 3.32692 4.15574 2.94989C4.53206 2.78188 4.88479 2.63502 5.25828 2.55829C5.36208 2.537 5.46619 2.52216 5.57175 2.51239L4.60203 1.66278C4.39437 1.48109 4.37282 1.16553 4.55417 0.957703Z" fill="#010103"/>
</svg>
