<svg width="12" height="12" viewBox="0 0 12 12" fill="none" xmlns="http://www.w3.org/2000/svg">
<g clip-path="url(#clip0_3987_6458)">
<path d="M7.5 0.5C8.60457 0.5 9.5 1.39543 9.5 2.5V2.76953C10.0973 3.11546 10.5 3.76007 10.5 4.5V4.76953C11.0973 5.11546 11.5 5.76007 11.5 6.5V9.5C11.5 10.6046 10.6046 11.5 9.5 11.5H2.5C1.39543 11.5 0.5 10.6046 0.5 9.5V6.5C0.5 5.76007 0.902669 5.11546 1.5 4.76953V4.5C1.5 3.76007 1.90267 3.11546 2.5 2.76953V2.5C2.50001 1.39543 3.39543 0.5 4.5 0.5H7.5ZM2.5 5.5C1.94772 5.5 1.5 5.94772 1.5 6.5V9.5C1.5 10.0523 1.94772 10.5 2.5 10.5H9.5C10.0523 10.5 10.5 10.0523 10.5 9.5V6.5C10.5 5.94772 10.0523 5.5 9.5 5.5H2.5ZM3.5 3.5C2.94772 3.5 2.50001 3.94772 2.5 4.5H9.5C9.5 3.94772 9.05228 3.5 8.5 3.5H3.5ZM4.5 1.5C3.94772 1.5 3.50001 1.94772 3.5 2.5H8.5C8.5 1.94772 8.05228 1.5 7.5 1.5H4.5Z" fill="#010103"/>
</g>
<defs>
<clipPath id="clip0_3987_6458">
<rect width="12" height="12" fill="white"/>
</clipPath>
</defs>
</svg>
