<svg width="12" height="12" viewBox="0 0 12 12" fill="none" xmlns="http://www.w3.org/2000/svg">
<path d="M0.646423 6.14659C0.841685 5.95133 1.15819 5.95133 1.35345 6.14659L3.49994 8.29308L3.83392 7.95909C4.02919 7.76383 4.34569 7.76383 4.54095 7.95909C4.7362 8.15436 4.73621 8.47087 4.54095 8.66612L3.85345 9.35362C3.65819 9.54879 3.34166 9.54884 3.14642 9.35362L0.646423 6.85362C0.45119 6.65839 0.451247 6.34186 0.646423 6.14659ZM10.6464 4.14659C10.8417 3.95133 11.1582 3.95133 11.3535 4.14659C11.5487 4.34186 11.5487 4.65837 11.3535 4.85362L7.35345 8.85362C7.1582 9.0488 6.84166 9.04883 6.64642 8.85362L4.14642 6.35362C3.95119 6.15839 3.95124 5.84186 4.14642 5.64659C4.34169 5.45133 4.65819 5.45133 4.85345 5.64659L6.99994 7.79308L10.6464 4.14659ZM8.14642 3.64659C8.34169 3.45133 8.65819 3.45133 8.85345 3.64659C9.0487 3.84185 9.04871 4.15837 8.85345 4.35362L7.16595 6.04112C6.97069 6.23629 6.65416 6.23634 6.45892 6.04112C6.26369 5.84589 6.26375 5.52936 6.45892 5.33409L8.14642 3.64659Z" fill="#010103"/>
</svg>
