<svg width="28" height="28" viewBox="0 0 28 28" fill="none" xmlns="http://www.w3.org/2000/svg">
<path d="M0 4C0 1.79086 1.79086 0 4 0H14H20.3431C21.404 0 22.4214 0.421427 23.1716 1.17157L26.8284 4.82843C27.5786 5.57857 28 6.59599 28 7.65685V14V24C28 26.2091 26.2091 28 24 28H4C1.79086 28 0 26.2091 0 24V4Z" fill="#FAFAFA"/>
<path d="M4 0.5H20.3428C21.271 0.5 22.162 0.869013 22.8184 1.52539L26.4746 5.18164C27.131 5.83802 27.5 6.72897 27.5 7.65723V24C27.5 25.933 25.933 27.5 24 27.5H4C2.067 27.5 0.5 25.933 0.5 24V4C0.5 2.067 2.067 0.5 4 0.5Z" stroke="black" stroke-opacity="0.04"/>
<path d="M20 1V6C20 7.10457 20.8954 8 22 8H27" stroke="black" stroke-opacity="0.04"/>
<path d="M10.3142 18C9.83422 18 9.47755 17.89 9.24422 17.67C9.01755 17.45 8.90422 17.1067 8.90422 16.64V11.46H9.74422V16.62C9.74422 16.86 9.79755 17.0267 9.90422 17.12C10.0109 17.2133 10.1742 17.26 10.3942 17.26H11.1542V18H10.3142ZM8.12422 13.44V12.7H11.1542V13.44H8.12422ZM11.6575 18L13.6075 15.28L11.7575 12.7H12.7375L14.1275 14.7L15.4775 12.7H16.4775L14.6475 15.3L16.5675 18H15.5875L14.1275 15.86L12.6575 18H11.6575ZM19.2498 18C18.7698 18 18.4131 17.89 18.1798 17.67C17.9531 17.45 17.8398 17.1067 17.8398 16.64V11.46H18.6798V16.62C18.6798 16.86 18.7331 17.0267 18.8398 17.12C18.9464 17.2133 19.1098 17.26 19.3298 17.26H20.0898V18H19.2498ZM17.0598 13.44V12.7H20.0898V13.44H17.0598Z" fill="#616163"/>
</svg>
