<svg width="28" height="28" viewBox="0 0 28 28" fill="none" xmlns="http://www.w3.org/2000/svg">
<path d="M0 4C0 1.79086 1.79086 0 4 0H14H20.3431C21.404 0 22.4214 0.421427 23.1716 1.17157L26.8284 4.82843C27.5786 5.57857 28 6.59599 28 7.65685V14V24C28 26.2091 26.2091 28 24 28H4C1.79086 28 0 26.2091 0 24V4Z" fill="#E0F8FB"/>
<path d="M4 0.5H20.3428C21.271 0.5 22.162 0.869013 22.8184 1.52539L26.4746 5.18164C27.131 5.83802 27.5 6.72897 27.5 7.65723V24C27.5 25.933 25.933 27.5 24 27.5H4C2.067 27.5 0.5 25.933 0.5 24V4C0.5 2.067 2.067 0.5 4 0.5Z" stroke="black" stroke-opacity="0.04"/>
<path d="M20 1V6C20 7.10457 20.8954 8 22 8H27" stroke="black" stroke-opacity="0.04"/>
<path d="M9.01355 18.12C8.52022 18.12 8.09022 18.0067 7.72355 17.78C7.36355 17.5533 7.08355 17.2333 6.88355 16.82C6.68355 16.4 6.58355 15.91 6.58355 15.35C6.58355 14.79 6.68355 14.3033 6.88355 13.89C7.08355 13.4767 7.36355 13.1567 7.72355 12.93C8.09022 12.6967 8.52022 12.58 9.01355 12.58C9.42022 12.58 9.78022 12.6533 10.0936 12.8C10.4136 12.94 10.6736 13.1467 10.8736 13.42C11.0736 13.6933 11.2036 14.0267 11.2636 14.42L10.3836 14.48C10.3236 14.1267 10.1702 13.8567 9.92355 13.67C9.67689 13.4767 9.37355 13.38 9.01355 13.38C8.52689 13.38 8.14689 13.5567 7.87355 13.91C7.60022 14.2567 7.46355 14.7367 7.46355 15.35C7.46355 15.9633 7.60022 16.4467 7.87355 16.8C8.14689 17.1467 8.52689 17.32 9.01355 17.32C9.37355 17.32 9.67689 17.22 9.92355 17.02C10.1702 16.82 10.3236 16.52 10.3836 16.12L11.2636 16.18C11.2036 16.5733 11.0736 16.9167 10.8736 17.21C10.6736 17.4967 10.4136 17.72 10.0936 17.88C9.78022 18.04 9.42022 18.12 9.01355 18.12ZM14.2349 18.12C13.7615 18.12 13.3582 18.0433 13.0249 17.89C12.6982 17.7367 12.4415 17.5267 12.2549 17.26C12.0749 16.9867 11.9715 16.6767 11.9449 16.33L12.8249 16.27C12.8782 16.59 13.0149 16.8467 13.2349 17.04C13.4549 17.2267 13.7882 17.32 14.2349 17.32C14.5949 17.32 14.8815 17.2633 15.0949 17.15C15.3149 17.03 15.4249 16.84 15.4249 16.58C15.4249 16.44 15.3915 16.3233 15.3249 16.23C15.2582 16.1367 15.1282 16.0567 14.9349 15.99C14.7415 15.9167 14.4549 15.8467 14.0749 15.78C13.5682 15.6867 13.1682 15.5733 12.8749 15.44C12.5882 15.3 12.3815 15.13 12.2549 14.93C12.1349 14.7233 12.0749 14.48 12.0749 14.2C12.0749 13.7267 12.2482 13.34 12.5949 13.04C12.9415 12.7333 13.4349 12.58 14.0749 12.58C14.5082 12.58 14.8715 12.66 15.1649 12.82C15.4649 12.9733 15.6982 13.18 15.8649 13.44C16.0382 13.6933 16.1515 13.9733 16.2049 14.28L15.3249 14.34C15.2849 14.1533 15.2115 13.99 15.1049 13.85C14.9982 13.7033 14.8582 13.59 14.6849 13.51C14.5115 13.4233 14.3049 13.38 14.0649 13.38C13.6849 13.38 13.4049 13.4533 13.2249 13.6C13.0449 13.7467 12.9549 13.9333 12.9549 14.16C12.9549 14.3333 12.9949 14.4767 13.0749 14.59C13.1615 14.6967 13.2982 14.7867 13.4849 14.86C13.6715 14.9267 13.9215 14.9867 14.2349 15.04C14.7749 15.1333 15.1949 15.2467 15.4949 15.38C15.7949 15.5133 16.0049 15.6767 16.1249 15.87C16.2449 16.0633 16.3049 16.3 16.3049 16.58C16.3049 16.9067 16.2115 17.1867 16.0249 17.42C15.8449 17.6467 15.5982 17.82 15.2849 17.94C14.9782 18.06 14.6282 18.12 14.2349 18.12ZM18.6451 18L16.7151 12.7H17.6351L19.1751 17.14L20.7151 12.7H21.6351L19.7051 18H18.6451Z" fill="#11596D"/>
</svg>
