<svg width="28" height="28" viewBox="0 0 28 28" fill="none" xmlns="http://www.w3.org/2000/svg">
<path d="M0 4C0 1.79086 1.79086 0 4 0H14H20.3431C21.404 0 22.4214 0.421427 23.1716 1.17157L26.8284 4.82843C27.5786 5.57857 28 6.59599 28 7.65685V14V24C28 26.2091 26.2091 28 24 28H4C1.79086 28 0 26.2091 0 24V4Z" fill="#FAFAFA"/>
<path d="M4 0.5H20.3428C21.271 0.5 22.162 0.869013 22.8184 1.52539L26.4746 5.18164C27.131 5.83802 27.5 6.72897 27.5 7.65723V24C27.5 25.933 25.933 27.5 24 27.5H4C2.067 27.5 0.5 25.933 0.5 24V4C0.5 2.067 2.067 0.5 4 0.5Z" stroke="black" stroke-opacity="0.04"/>
<path d="M20 1V6C20 7.10457 20.8954 8 22 8H27" stroke="black" stroke-opacity="0.04"/>
<path d="M8.47676 18V12.7H9.21676L9.25676 14.04L9.17676 14.01C9.24342 13.5567 9.38676 13.2267 9.60676 13.02C9.83342 12.8067 10.1334 12.7 10.5068 12.7H11.0268V13.5H10.5168C10.2501 13.5 10.0268 13.55 9.84676 13.65C9.67342 13.7433 9.54009 13.8867 9.44676 14.08C9.36009 14.2667 9.31676 14.5067 9.31676 14.8V18H8.47676ZM13.2954 18.12C12.7488 18.12 12.3121 17.9933 11.9854 17.74C11.6654 17.4867 11.5054 17.1333 11.5054 16.68C11.5054 16.2267 11.6388 15.87 11.9054 15.61C12.1721 15.35 12.5954 15.1667 13.1754 15.06L15.0554 14.71C15.0554 14.2633 14.9488 13.93 14.7354 13.71C14.5288 13.49 14.2154 13.38 13.7954 13.38C13.4288 13.38 13.1388 13.4633 12.9254 13.63C12.7121 13.79 12.5654 14.0233 12.4854 14.33L11.5954 14.26C11.6954 13.76 11.9354 13.3567 12.3154 13.05C12.7021 12.7367 13.1954 12.58 13.7954 12.58C14.4754 12.58 14.9954 12.7733 15.3554 13.16C15.7154 13.54 15.8954 14.0667 15.8954 14.74V16.93C15.8954 17.05 15.9154 17.1367 15.9554 17.19C16.0021 17.2367 16.0754 17.26 16.1754 17.26H16.3854V18C16.3588 18.0067 16.3154 18.01 16.2554 18.01C16.1954 18.0167 16.1321 18.02 16.0654 18.02C15.8254 18.02 15.6288 17.9833 15.4754 17.91C15.3288 17.83 15.2221 17.71 15.1554 17.55C15.0888 17.3833 15.0554 17.1667 15.0554 16.9L15.1554 16.92C15.1088 17.1467 14.9954 17.3533 14.8154 17.54C14.6354 17.72 14.4121 17.8633 14.1454 17.97C13.8788 18.07 13.5954 18.12 13.2954 18.12ZM13.3754 17.38C13.7288 17.38 14.0288 17.3133 14.2754 17.18C14.5288 17.04 14.7221 16.8533 14.8554 16.62C14.9888 16.38 15.0554 16.1133 15.0554 15.82V15.44L13.3354 15.76C12.9754 15.8267 12.7254 15.93 12.5854 16.07C12.4521 16.2033 12.3854 16.38 12.3854 16.6C12.3854 16.8467 12.4721 17.04 12.6454 17.18C12.8254 17.3133 13.0688 17.38 13.3754 17.38ZM17.3342 18V12.7H18.0742L18.1142 14.04L18.0342 14.01C18.1008 13.5567 18.2442 13.2267 18.4642 13.02C18.6908 12.8067 18.9908 12.7 19.3642 12.7H19.8842V13.5H19.3742C19.1075 13.5 18.8842 13.55 18.7042 13.65C18.5308 13.7433 18.3975 13.8867 18.3042 14.08C18.2175 14.2667 18.1742 14.5067 18.1742 14.8V18H17.3342Z" fill="#616163"/>
</svg>
