<svg width="16" height="16" viewBox="0 0 16 16" fill="none" xmlns="http://www.w3.org/2000/svg">
<path d="M0 3C0 1.34315 1.34315 0 3 0H8H11.3288C12.1244 0 12.8875 0.316071 13.4501 0.87868L15.1213 2.54989C15.6839 3.1125 16 3.87556 16 4.67121V8V13C16 14.6569 14.6569 16 13 16H3C1.34315 16 0 14.6569 0 13V3Z" fill="#FAFAFA"/>
<path d="M3 0.5H11.3291C11.992 0.500083 12.6279 0.763655 13.0967 1.23242L14.7676 2.90332C15.2363 3.37209 15.4999 4.00797 15.5 4.6709V13C15.5 14.3807 14.3807 15.5 13 15.5H3C1.61929 15.5 0.5 14.3807 0.5 13V3C0.5 1.61929 1.61929 0.5 3 0.5Z" stroke="black" stroke-opacity="0.04"/>
<path d="M10 1V4C10 5.10457 10.8954 6 12 6H15" stroke="black" stroke-opacity="0.04"/>
</svg>
