<svg width="28" height="28" viewBox="0 0 28 28" fill="none" xmlns="http://www.w3.org/2000/svg">
<path d="M0 4C0 1.79086 1.79086 0 4 0H14H20.3431C21.404 0 22.4214 0.421427 23.1716 1.17157L26.8284 4.82843C27.5786 5.57857 28 6.59599 28 7.65685V14V24C28 26.2091 26.2091 28 24 28H4C1.79086 28 0 26.2091 0 24V4Z" fill="#F9F0EE"/>
<path d="M4 0.5H20.3428C21.271 0.5 22.162 0.869013 22.8184 1.52539L26.4746 5.18164C27.131 5.83802 27.5 6.72897 27.5 7.65723V24C27.5 25.933 25.933 27.5 24 27.5H4C2.067 27.5 0.5 25.933 0.5 24V4C0.5 2.067 2.067 0.5 4 0.5Z" stroke="black" stroke-opacity="0.04"/>
<path d="M20 1V6C20 7.10457 20.8954 8 22 8H27" stroke="black" stroke-opacity="0.04"/>
<path d="M10.892 19.62C10.512 19.62 10.1687 19.5567 9.86203 19.43C9.55536 19.3033 9.2987 19.1233 9.09203 18.89C8.88536 18.6567 8.74536 18.3867 8.67203 18.08L9.55203 18.02C9.63203 18.2667 9.77203 18.46 9.97203 18.6C10.1787 18.7467 10.4854 18.82 10.892 18.82C11.372 18.82 11.7387 18.7233 11.992 18.53C12.252 18.3367 12.382 18.0467 12.382 17.66V16.8C12.2554 17.08 12.052 17.3033 11.772 17.47C11.492 17.6367 11.1787 17.72 10.832 17.72C10.3854 17.72 9.98536 17.61 9.63203 17.39C9.28536 17.17 9.01203 16.8667 8.81203 16.48C8.6187 16.0933 8.52203 15.65 8.52203 15.15C8.52203 14.6433 8.6187 14.2 8.81203 13.82C9.00536 13.4333 9.27203 13.13 9.61203 12.91C9.9587 12.69 10.352 12.58 10.792 12.58C11.1654 12.58 11.4987 12.6667 11.792 12.84C12.092 13.0133 12.302 13.2467 12.422 13.54V12.7H13.222V17.64C13.222 18.0533 13.1287 18.4067 12.942 18.7C12.7554 19 12.4887 19.2267 12.142 19.38C11.7954 19.54 11.3787 19.62 10.892 19.62ZM10.872 16.92C11.3254 16.92 11.6887 16.7633 11.962 16.45C12.2354 16.13 12.3754 15.6967 12.382 15.15C12.3887 14.7833 12.3287 14.47 12.202 14.21C12.082 13.9433 11.9054 13.74 11.672 13.6C11.4454 13.4533 11.1787 13.38 10.872 13.38C10.4054 13.38 10.042 13.54 9.78203 13.86C9.5287 14.1733 9.40203 14.6033 9.40203 15.15C9.40203 15.6967 9.53203 16.13 9.79203 16.45C10.0587 16.7633 10.4187 16.92 10.872 16.92ZM14.673 18V12.7H15.513V18H14.673ZM14.653 11.87V10.89H15.533V11.87H14.653ZM17.2927 18V12.22C17.2927 11.8267 17.406 11.51 17.6327 11.27C17.8593 11.0233 18.2127 10.9 18.6927 10.9H19.5327V11.64H18.7527C18.546 11.64 18.3893 11.6967 18.2827 11.81C18.1827 11.9233 18.1327 12.08 18.1327 12.28V18H17.2927ZM16.5727 13.44V12.7H19.4627V13.44H16.5727Z" fill="#6B5452"/>
</svg>
