<svg width="28" height="28" viewBox="0 0 28 28" fill="none" xmlns="http://www.w3.org/2000/svg">
<path d="M0 4C0 1.79086 1.79086 0 4 0H14H20.3431C21.404 0 22.4214 0.421427 23.1716 1.17157L26.8284 4.82843C27.5786 5.57857 28 6.59599 28 7.65685V14V24C28 26.2091 26.2091 28 24 28H4C1.79086 28 0 26.2091 0 24V4Z" fill="#E6EBFF"/>
<path d="M4 0.5H20.3428C21.271 0.5 22.162 0.869013 22.8184 1.52539L26.4746 5.18164C27.131 5.83802 27.5 6.72897 27.5 7.65723V24C27.5 25.933 25.933 27.5 24 27.5H4C2.067 27.5 0.5 25.933 0.5 24V4C0.5 2.067 2.067 0.5 4 0.5Z" stroke="black" stroke-opacity="0.04"/>
<path d="M20 1V6C20 7.10457 20.8954 8 22 8H27" stroke="black" stroke-opacity="0.04"/>
<path d="M6.32832 19.5V12.7H7.10832L7.12832 13.84L7.00832 13.78C7.14165 13.3867 7.36165 13.09 7.66832 12.89C7.98165 12.6833 8.34165 12.58 8.74832 12.58C9.27499 12.58 9.70499 12.71 10.0383 12.97C10.3783 13.23 10.6283 13.57 10.7883 13.99C10.955 14.41 11.0383 14.8633 11.0383 15.35C11.0383 15.8367 10.955 16.29 10.7883 16.71C10.6283 17.13 10.3783 17.47 10.0383 17.73C9.70499 17.99 9.27499 18.12 8.74832 18.12C8.47499 18.12 8.21832 18.0733 7.97832 17.98C7.74499 17.8867 7.54499 17.7567 7.37832 17.59C7.21832 17.4233 7.10832 17.2267 7.04832 17L7.16832 16.86V19.5H6.32832ZM8.66832 17.32C9.12832 17.32 9.49165 17.1467 9.75832 16.8C10.025 16.4533 10.1583 15.97 10.1583 15.35C10.1583 14.73 10.025 14.2467 9.75832 13.9C9.49165 13.5533 9.12832 13.38 8.66832 13.38C8.36165 13.38 8.09499 13.4533 7.86832 13.6C7.64832 13.7467 7.47499 13.9667 7.34832 14.26C7.22832 14.5533 7.16832 14.9167 7.16832 15.35C7.16832 15.7833 7.22832 16.1467 7.34832 16.44C7.46832 16.7333 7.64165 16.9533 7.86832 17.1C8.09499 17.2467 8.36165 17.32 8.66832 17.32ZM14.1079 18.12C13.6346 18.12 13.2313 18.0433 12.8979 17.89C12.5713 17.7367 12.3146 17.5267 12.1279 17.26C11.9479 16.9867 11.8446 16.6767 11.8179 16.33L12.6979 16.27C12.7513 16.59 12.8879 16.8467 13.1079 17.04C13.3279 17.2267 13.6613 17.32 14.1079 17.32C14.4679 17.32 14.7546 17.2633 14.9679 17.15C15.1879 17.03 15.2979 16.84 15.2979 16.58C15.2979 16.44 15.2646 16.3233 15.1979 16.23C15.1313 16.1367 15.0013 16.0567 14.8079 15.99C14.6146 15.9167 14.3279 15.8467 13.9479 15.78C13.4413 15.6867 13.0413 15.5733 12.7479 15.44C12.4613 15.3 12.2546 15.13 12.1279 14.93C12.0079 14.7233 11.9479 14.48 11.9479 14.2C11.9479 13.7267 12.1213 13.34 12.4679 13.04C12.8146 12.7333 13.3079 12.58 13.9479 12.58C14.3813 12.58 14.7446 12.66 15.0379 12.82C15.3379 12.9733 15.5713 13.18 15.7379 13.44C15.9113 13.6933 16.0246 13.9733 16.0779 14.28L15.1979 14.34C15.1579 14.1533 15.0846 13.99 14.9779 13.85C14.8713 13.7033 14.7313 13.59 14.5579 13.51C14.3846 13.4233 14.1779 13.38 13.9379 13.38C13.5579 13.38 13.2779 13.4533 13.0979 13.6C12.9179 13.7467 12.8279 13.9333 12.8279 14.16C12.8279 14.3333 12.8679 14.4767 12.9479 14.59C13.0346 14.6967 13.1713 14.7867 13.3579 14.86C13.5446 14.9267 13.7946 14.9867 14.1079 15.04C14.6479 15.1333 15.0679 15.2467 15.3679 15.38C15.6679 15.5133 15.8779 15.6767 15.9979 15.87C16.1179 16.0633 16.1779 16.3 16.1779 16.58C16.1779 16.9067 16.0846 17.1867 15.8979 17.42C15.7179 17.6467 15.4713 17.82 15.1579 17.94C14.8513 18.06 14.5013 18.12 14.1079 18.12ZM19.2044 18.12C18.7444 18.12 18.3444 18.0067 18.0044 17.78C17.6711 17.5533 17.4144 17.2333 17.2344 16.82C17.0544 16.4067 16.9644 15.9167 16.9644 15.35C16.9644 14.7833 17.0544 14.2933 17.2344 13.88C17.4144 13.4667 17.6711 13.1467 18.0044 12.92C18.3444 12.6933 18.7444 12.58 19.2044 12.58C19.5577 12.58 19.8811 12.6567 20.1744 12.81C20.4677 12.9567 20.6877 13.1667 20.8344 13.44V10.9H21.6744V18H20.9144L20.8844 17.2C20.7377 17.4867 20.5144 17.7133 20.2144 17.88C19.9144 18.04 19.5777 18.12 19.2044 18.12ZM19.3744 17.32C19.6877 17.32 19.9511 17.24 20.1644 17.08C20.3844 16.92 20.5511 16.6933 20.6644 16.4C20.7777 16.1 20.8344 15.75 20.8344 15.35C20.8344 14.9367 20.7777 14.5833 20.6644 14.29C20.5511 13.9967 20.3844 13.7733 20.1644 13.62C19.9511 13.46 19.6877 13.38 19.3744 13.38C18.9077 13.38 18.5344 13.5567 18.2544 13.91C17.9811 14.2567 17.8444 14.7367 17.8444 15.35C17.8444 15.9567 17.9811 16.4367 18.2544 16.79C18.5344 17.1433 18.9077 17.32 19.3744 17.32Z" fill="#1C2E66"/>
</svg>
