<svg width="28" height="28" viewBox="0 0 28 28" fill="none" xmlns="http://www.w3.org/2000/svg">
<path d="M0 4C0 1.79086 1.79086 0 4 0H14H20.3431C21.404 0 22.4214 0.421427 23.1716 1.17157L26.8284 4.82843C27.5786 5.57857 28 6.59599 28 7.65685V14V24C28 26.2091 26.2091 28 24 28H4C1.79086 28 0 26.2091 0 24V4Z" fill="#E6E8FA"/>
<path d="M4 0.5H20.3428C21.271 0.5 22.162 0.869013 22.8184 1.52539L26.4746 5.18164C27.131 5.83802 27.5 6.72897 27.5 7.65723V24C27.5 25.933 25.933 27.5 24 27.5H4C2.067 27.5 0.5 25.933 0.5 24V4C0.5 2.067 2.067 0.5 4 0.5Z" stroke="black" stroke-opacity="0.04"/>
<path d="M20 1V6C20 7.10457 20.8954 8 22 8H27" stroke="black" stroke-opacity="0.04"/>
<path d="M7.65594 18V17.16L11.0059 13.44H7.75594V12.7H11.9259V13.54L8.57594 17.26H12.0059V18H7.65594ZM13.2277 18V12.7H14.0677V18H13.2277ZM13.2077 11.87V10.89H14.0877V11.87H13.2077ZM15.7668 19.5V12.7H16.5468L16.5668 13.84L16.4468 13.78C16.5801 13.3867 16.8001 13.09 17.1068 12.89C17.4201 12.6833 17.7801 12.58 18.1868 12.58C18.7135 12.58 19.1435 12.71 19.4768 12.97C19.8168 13.23 20.0668 13.57 20.2268 13.99C20.3935 14.41 20.4768 14.8633 20.4768 15.35C20.4768 15.8367 20.3935 16.29 20.2268 16.71C20.0668 17.13 19.8168 17.47 19.4768 17.73C19.1435 17.99 18.7135 18.12 18.1868 18.12C17.9135 18.12 17.6568 18.0733 17.4168 17.98C17.1835 17.8867 16.9835 17.7567 16.8168 17.59C16.6568 17.4233 16.5468 17.2267 16.4868 17L16.6068 16.86V19.5H15.7668ZM18.1068 17.32C18.5668 17.32 18.9301 17.1467 19.1968 16.8C19.4635 16.4533 19.5968 15.97 19.5968 15.35C19.5968 14.73 19.4635 14.2467 19.1968 13.9C18.9301 13.5533 18.5668 13.38 18.1068 13.38C17.8001 13.38 17.5335 13.4533 17.3068 13.6C17.0868 13.7467 16.9135 13.9667 16.7868 14.26C16.6668 14.5533 16.6068 14.9167 16.6068 15.35C16.6068 15.7833 16.6668 16.1467 16.7868 16.44C16.9068 16.7333 17.0801 16.9533 17.3068 17.1C17.5335 17.2467 17.8001 17.32 18.1068 17.32Z" fill="#222766"/>
</svg>
