<svg width="28" height="28" viewBox="0 0 28 28" fill="none" xmlns="http://www.w3.org/2000/svg">
<path d="M0 4C0 1.79086 1.79086 0 4 0H20.3431C21.404 0 22.4214 0.421427 23.1716 1.17157L26.8284 4.82843C27.5786 5.57857 28 6.59599 28 7.65685V24C28 26.2091 26.2091 28 24 28H4C1.79086 28 0 26.2091 0 24V4Z" fill="#FFE6E6"/>
<path d="M4 0.5H20.3428C21.271 0.5 22.162 0.869013 22.8184 1.52539L26.4746 5.18164C27.131 5.83802 27.5 6.72897 27.5 7.65723V24C27.5 25.933 25.933 27.5 24 27.5H4C2.067 27.5 0.5 25.933 0.5 24V4C0.5 2.067 2.067 0.5 4 0.5Z" stroke="black" stroke-opacity="0.04"/>
<path d="M20 1V6C20 7.10457 20.8954 8 22 8H27" stroke="black" stroke-opacity="0.04"/>
<path d="M7.0998 19.5V12.7H7.8798L7.8998 13.84L7.7798 13.78C7.91314 13.3867 8.13314 13.09 8.4398 12.89C8.75314 12.6833 9.11314 12.58 9.5198 12.58C10.0465 12.58 10.4765 12.71 10.8098 12.97C11.1498 13.23 11.3998 13.57 11.5598 13.99C11.7265 14.41 11.8098 14.8633 11.8098 15.35C11.8098 15.8367 11.7265 16.29 11.5598 16.71C11.3998 17.13 11.1498 17.47 10.8098 17.73C10.4765 17.99 10.0465 18.12 9.5198 18.12C9.24647 18.12 8.9898 18.0733 8.7498 17.98C8.51647 17.8867 8.31647 17.7567 8.1498 17.59C7.9898 17.4233 7.8798 17.2267 7.8198 17L7.9398 16.86V19.5H7.0998ZM9.4398 17.32C9.8998 17.32 10.2631 17.1467 10.5298 16.8C10.7965 16.4533 10.9298 15.97 10.9298 15.35C10.9298 14.73 10.7965 14.2467 10.5298 13.9C10.2631 13.5533 9.8998 13.38 9.4398 13.38C9.13314 13.38 8.86647 13.4533 8.6398 13.6C8.4198 13.7467 8.24647 13.9667 8.1198 14.26C7.9998 14.5533 7.9398 14.9167 7.9398 15.35C7.9398 15.7833 7.9998 16.1467 8.1198 16.44C8.2398 16.7333 8.41314 16.9533 8.6398 17.1C8.86647 17.2467 9.13314 17.32 9.4398 17.32ZM14.8294 18.12C14.3694 18.12 13.9694 18.0067 13.6294 17.78C13.2961 17.5533 13.0394 17.2333 12.8594 16.82C12.6794 16.4067 12.5894 15.9167 12.5894 15.35C12.5894 14.7833 12.6794 14.2933 12.8594 13.88C13.0394 13.4667 13.2961 13.1467 13.6294 12.92C13.9694 12.6933 14.3694 12.58 14.8294 12.58C15.1827 12.58 15.5061 12.6567 15.7994 12.81C16.0927 12.9567 16.3127 13.1667 16.4594 13.44V10.9H17.2994V18H16.5394L16.5094 17.2C16.3627 17.4867 16.1394 17.7133 15.8394 17.88C15.5394 18.04 15.2027 18.12 14.8294 18.12ZM14.9994 17.32C15.3127 17.32 15.5761 17.24 15.7894 17.08C16.0094 16.92 16.1761 16.6933 16.2894 16.4C16.4027 16.1 16.4594 15.75 16.4594 15.35C16.4594 14.9367 16.4027 14.5833 16.2894 14.29C16.1761 13.9967 16.0094 13.7733 15.7894 13.62C15.5761 13.46 15.3127 13.38 14.9994 13.38C14.5327 13.38 14.1594 13.5567 13.8794 13.91C13.6061 14.2567 13.4694 14.7367 13.4694 15.35C13.4694 15.9567 13.6061 16.4367 13.8794 16.79C14.1594 17.1433 14.5327 17.32 14.9994 17.32ZM19.0749 18V12.22C19.0749 11.8267 19.1882 11.51 19.4149 11.27C19.6415 11.0233 19.9949 10.9 20.4749 10.9H21.3149V11.64H20.5349C20.3282 11.64 20.1715 11.6967 20.0649 11.81C19.9649 11.9233 19.9149 12.08 19.9149 12.28V18H19.0749ZM18.3549 13.44V12.7H21.2449V13.44H18.3549Z" fill="#822B2C"/>
</svg>
