<svg width="28" height="28" viewBox="0 0 28 28" fill="none" xmlns="http://www.w3.org/2000/svg">
<path d="M0 4C0 1.79086 1.79086 0 4 0H14H20.3431C21.404 0 22.4214 0.421427 23.1716 1.17157L26.8284 4.82843C27.5786 5.57857 28 6.59599 28 7.65685V14V24C28 26.2091 26.2091 28 24 28H4C1.79086 28 0 26.2091 0 24V4Z" fill="#E6EBFF"/>
<path d="M4 0.5H20.3428C21.271 0.5 22.162 0.869013 22.8184 1.52539L26.4746 5.18164C27.131 5.83802 27.5 6.72897 27.5 7.65723V24C27.5 25.933 25.933 27.5 24 27.5H4C2.067 27.5 0.5 25.933 0.5 24V4C0.5 2.067 2.067 0.5 4 0.5Z" stroke="black" stroke-opacity="0.04"/>
<path d="M20 1V6C20 7.10457 20.8954 8 22 8H27" stroke="black" stroke-opacity="0.04"/>
<path d="M8.20832 18.12C7.74832 18.12 7.34832 18.0067 7.00832 17.78C6.67499 17.5533 6.41832 17.2333 6.23832 16.82C6.05832 16.4067 5.96832 15.9167 5.96832 15.35C5.96832 14.7833 6.05832 14.2933 6.23832 13.88C6.41832 13.4667 6.67499 13.1467 7.00832 12.92C7.34832 12.6933 7.74832 12.58 8.20832 12.58C8.56165 12.58 8.88499 12.6567 9.17832 12.81C9.47165 12.9567 9.69165 13.1667 9.83832 13.44V10.9H10.6783V18H9.91832L9.88832 17.2C9.74165 17.4867 9.51832 17.7133 9.21832 17.88C8.91832 18.04 8.58165 18.12 8.20832 18.12ZM8.37832 17.32C8.69165 17.32 8.95499 17.24 9.16832 17.08C9.38832 16.92 9.55499 16.6933 9.66832 16.4C9.78165 16.1 9.83832 15.75 9.83832 15.35C9.83832 14.9367 9.78165 14.5833 9.66832 14.29C9.55499 13.9967 9.38832 13.7733 9.16832 13.62C8.95499 13.46 8.69165 13.38 8.37832 13.38C7.91165 13.38 7.53832 13.5567 7.25832 13.91C6.98499 14.2567 6.84832 14.7367 6.84832 15.35C6.84832 15.9567 6.98499 16.4367 7.25832 16.79C7.53832 17.1433 7.91165 17.32 8.37832 17.32ZM14.2479 18.12C13.7613 18.12 13.3346 18.0067 12.9679 17.78C12.6013 17.5533 12.3179 17.2333 12.1179 16.82C11.9179 16.4 11.8179 15.91 11.8179 15.35C11.8179 14.7833 11.9179 14.2933 12.1179 13.88C12.3179 13.4667 12.6013 13.1467 12.9679 12.92C13.3346 12.6933 13.7613 12.58 14.2479 12.58C14.7346 12.58 15.1579 12.6933 15.5179 12.92C15.8846 13.1467 16.1679 13.4667 16.3679 13.88C16.5679 14.2933 16.6679 14.7833 16.6679 15.35C16.6679 15.91 16.5679 16.4 16.3679 16.82C16.1679 17.2333 15.8846 17.5533 15.5179 17.78C15.1579 18.0067 14.7346 18.12 14.2479 18.12ZM14.2479 17.32C14.7346 17.32 15.1113 17.1467 15.3779 16.8C15.6513 16.4467 15.7879 15.9633 15.7879 15.35C15.7879 14.7367 15.6513 14.2567 15.3779 13.91C15.1113 13.5567 14.7346 13.38 14.2479 13.38C13.7613 13.38 13.3813 13.5567 13.1079 13.91C12.8346 14.2567 12.6979 14.7367 12.6979 15.35C12.6979 15.9633 12.8346 16.4467 13.1079 16.8C13.3813 17.1467 13.7613 17.32 14.2479 17.32ZM19.8827 18.12C19.3894 18.12 18.9594 18.0067 18.5927 17.78C18.2327 17.5533 17.9527 17.2333 17.7527 16.82C17.5527 16.4 17.4527 15.91 17.4527 15.35C17.4527 14.79 17.5527 14.3033 17.7527 13.89C17.9527 13.4767 18.2327 13.1567 18.5927 12.93C18.9594 12.6967 19.3894 12.58 19.8827 12.58C20.2894 12.58 20.6494 12.6533 20.9627 12.8C21.2827 12.94 21.5427 13.1467 21.7427 13.42C21.9427 13.6933 22.0727 14.0267 22.1327 14.42L21.2527 14.48C21.1927 14.1267 21.0394 13.8567 20.7927 13.67C20.546 13.4767 20.2427 13.38 19.8827 13.38C19.396 13.38 19.016 13.5567 18.7427 13.91C18.4694 14.2567 18.3327 14.7367 18.3327 15.35C18.3327 15.9633 18.4694 16.4467 18.7427 16.8C19.016 17.1467 19.396 17.32 19.8827 17.32C20.2427 17.32 20.546 17.22 20.7927 17.02C21.0394 16.82 21.1927 16.52 21.2527 16.12L22.1327 16.18C22.0727 16.5733 21.9427 16.9167 21.7427 17.21C21.5427 17.4967 21.2827 17.72 20.9627 17.88C20.6494 18.04 20.2894 18.12 19.8827 18.12Z" fill="#1C2E66"/>
</svg>
