<svg width="16" height="16" viewBox="0 0 16 16" fill="none" xmlns="http://www.w3.org/2000/svg">
<path opacity="0.08" d="M7 13.5H11.5C12.6046 13.5 13.5 12.6046 13.5 11.5V7C13.5 6.17157 12.8284 5.5 12 5.5C11.1716 5.5 10.5 6.17157 10.5 7V8.5C10.5 9.60457 9.60457 10.5 8.5 10.5H7C6.17157 10.5 5.5 11.1716 5.5 12C5.5 12.8284 6.17157 13.5 7 13.5Z" fill="#010103"/>
<path d="M8.5 2C9.88071 2 11 3.11929 11 4.5V5H11.5C12.8807 5 14 6.11929 14 7.5V11.5C14 12.8807 12.8807 14 11.5 14H7.5C6.11929 14 5 12.8807 5 11.5V11H4.5C3.11929 11 2 9.88071 2 8.5V4.5C2 3.11929 3.11929 2 4.5 2H8.5ZM11 8.5C11 9.88071 9.88071 11 8.5 11H6V11.5C6 12.3284 6.67157 13 7.5 13H11.5C12.3284 13 13 12.3284 13 11.5V7.5C13 6.67157 12.3284 6 11.5 6H11V8.5ZM4.5 3C3.67157 3 3 3.67157 3 4.5V8.5C3 9.32843 3.67157 10 4.5 10H8.5C9.32843 10 10 9.32843 10 8.5V4.5C10 3.67157 9.32843 3 8.5 3H4.5ZM6.5 4C6.77614 4 7 4.22386 7 4.5V6H8.5C8.77614 6 9 6.22386 9 6.5C9 6.77614 8.77614 7 8.5 7H7V8.5C7 8.77614 6.77614 9 6.5 9C6.22386 9 6 8.77614 6 8.5V7H4.5C4.22386 7 4 6.77614 4 6.5C4 6.22386 4.22386 6 4.5 6H6V4.5C6 4.22386 6.22386 4 6.5 4Z" fill="#010103"/>
</svg>
