<svg width="16" height="16" viewBox="0 0 16 16" fill="none" xmlns="http://www.w3.org/2000/svg">
<path opacity="0.08" d="M14 8L10 6H9.5C7.567 6 6 7.567 6 9.5L8 14L10 9.5L14 8Z" fill="#010103"/>
<path d="M7.99976 1.5C8.22511 1.5 8.39793 1.61726 8.49585 1.69824C8.60576 1.78921 8.70603 1.90592 8.79565 2.0293C8.97677 2.27876 9.16212 2.62021 9.33569 3.02344C9.65019 3.75417 9.9486 4.73902 10.1277 5.87012C11.2594 6.04913 12.2442 6.34927 12.9753 6.66406C13.3787 6.83775 13.7209 7.02191 13.9705 7.20312C14.094 7.29285 14.2104 7.3939 14.3015 7.50391C14.3825 7.60177 14.4997 7.7746 14.4998 8L14.4949 8.08203C14.4714 8.26756 14.3724 8.41041 14.3015 8.49609C14.2105 8.60605 14.0939 8.70623 13.9705 8.7959C13.7208 8.97707 13.3788 9.16232 12.9753 9.33594C12.2442 9.6505 11.2593 9.94895 10.1277 10.1279C9.94871 11.2595 9.65024 12.2445 9.33569 12.9756C9.16208 13.3791 8.97683 13.7211 8.79565 13.9707C8.70599 14.0942 8.60581 14.2107 8.49585 14.3018C8.39796 14.3828 8.22529 14.5 7.99976 14.5C7.77434 14.4999 7.60153 14.3827 7.50366 14.3018C7.39365 14.2107 7.2926 14.0942 7.20288 13.9707C7.02166 13.7211 6.83751 13.3789 6.66382 12.9756C6.34903 12.2444 6.04888 11.2596 5.86987 10.1279C4.73883 9.94886 3.75392 9.65043 3.02319 9.33594C2.62001 9.16238 2.27851 8.977 2.02905 8.7959C1.90566 8.70627 1.78897 8.60599 1.698 8.49609C1.62711 8.4104 1.5281 8.2674 1.50464 8.08203L1.49976 8L1.50464 7.91797C1.52811 7.73274 1.62622 7.58956 1.69702 7.50391C1.78805 7.39384 1.90552 7.29387 2.02905 7.2041C2.27853 7.02287 2.61991 6.83778 3.02319 6.66406C3.75399 6.3493 4.7386 6.04924 5.86987 5.87012C6.04899 4.73885 6.34905 3.75423 6.66382 3.02344C6.83753 2.62016 7.02262 2.27877 7.20386 2.0293C7.29363 1.90576 7.39359 1.78829 7.50366 1.69727C7.60156 1.61634 7.77453 1.50006 7.99976 1.5ZM7.99878 2.63574C7.87817 2.8061 7.73247 3.06913 7.58179 3.41895C7.27084 4.14088 6.96395 5.17406 6.80737 6.37598C6.77808 6.60089 6.60065 6.77832 6.37573 6.80762C5.17381 6.96419 4.14064 7.27108 3.4187 7.58203C3.06888 7.73272 2.80586 7.87841 2.6355 7.99902C2.8058 8.11964 3.06848 8.26623 3.4187 8.41699C4.14065 8.72771 5.17386 9.03482 6.37573 9.19141C6.60059 9.2207 6.77801 9.39822 6.80737 9.62305C6.96383 10.8249 7.27092 11.858 7.58179 12.5801C7.73226 12.9295 7.87824 13.1928 7.99878 13.3633C8.11931 13.1929 8.26618 12.9309 8.41675 12.5811C8.72749 11.8589 9.03464 10.8253 9.19116 9.62305L9.20874 9.54102C9.26532 9.3561 9.42606 9.21708 9.6228 9.19141C10.8248 9.03491 11.8577 8.72769 12.5798 8.41699C12.93 8.26634 13.1926 8.11962 13.363 7.99902C13.1926 7.87849 12.9293 7.73251 12.5798 7.58203C11.8577 7.27116 10.8247 6.96408 9.6228 6.80762C9.39797 6.77826 9.22045 6.60084 9.19116 6.37598C9.03456 5.17405 8.72747 4.14089 8.41675 3.41895C8.26599 3.06872 8.11938 2.80604 7.99878 2.63574ZM2.99976 1.4502C3.27361 1.4502 3.43162 1.63255 3.46948 1.67773C3.52745 1.74697 3.5673 1.82042 3.59155 1.87012C3.64258 1.97479 3.68431 2.09645 3.7146 2.19336C3.72202 2.2171 3.72733 2.24149 3.73413 2.26465C3.75766 2.27157 3.78226 2.27762 3.8064 2.28516C3.90328 2.31543 4.02493 2.35718 4.12964 2.4082C4.17929 2.43243 4.25274 2.47231 4.32202 2.53027C4.36685 2.56782 4.54947 2.72584 4.54956 3C4.54956 3.27428 4.36686 3.43218 4.32202 3.46973C4.25269 3.52778 4.17934 3.56755 4.12964 3.5918C4.0249 3.64285 3.90333 3.68455 3.8064 3.71484C3.78231 3.72236 3.75762 3.72747 3.73413 3.73438C3.72723 3.75785 3.72211 3.78256 3.7146 3.80664C3.68431 3.90356 3.6426 4.02514 3.59155 4.12988C3.56731 4.17958 3.52753 4.25293 3.46948 4.32227C3.43193 4.3671 3.27403 4.5498 2.99976 4.5498C2.72559 4.54972 2.56757 4.36709 2.53003 4.32227C2.47206 4.25299 2.43218 4.17953 2.40796 4.12988C2.35694 4.02518 2.31519 3.90352 2.28491 3.80664C2.27738 3.7825 2.27132 3.7579 2.2644 3.73438C2.24124 3.72757 2.21685 3.72226 2.19312 3.71484C2.0962 3.68455 1.97455 3.64283 1.86987 3.5918C1.82018 3.56754 1.74672 3.5277 1.67749 3.46973C1.6323 3.43187 1.44995 3.27386 1.44995 3C1.45004 2.72586 1.63265 2.56783 1.67749 2.53027C1.7468 2.47224 1.82017 2.43245 1.86987 2.4082C1.97459 2.35715 2.09618 2.31545 2.19312 2.28516C2.21698 2.2777 2.24112 2.27149 2.2644 2.26465C2.27125 2.24137 2.27746 2.21722 2.28491 2.19336C2.31521 2.09643 2.35691 1.97483 2.40796 1.87012C2.43221 1.82042 2.472 1.74703 2.53003 1.67773C2.56761 1.63286 2.72564 1.45028 2.99976 1.4502Z" fill="#010103"/>
</svg>
