<svg width="16" height="16" viewBox="0 0 16 16" fill="none" xmlns="http://www.w3.org/2000/svg">
<path opacity="0.08" d="M2 4L8 7V14.5L2 11.5V4Z" fill="#010103"/>
<path opacity="0.08" d="M2 4L8 1.5L14 4L8 7L2 4Z" fill="#010103"/>
<path d="M7.23047 1.27898C7.72271 1.07392 8.27729 1.07392 8.76953 1.27898L13.2695 3.15398C14.0145 3.46458 14.4999 4.19256 14.5 4.99969V10.5729C14.4999 11.3302 14.0718 12.0222 13.3945 12.361L8.89453 14.611C8.33148 14.8925 7.66852 14.8925 7.10547 14.611L2.60547 12.361C1.92822 12.0222 1.50011 11.3302 1.5 10.5729V4.99969C1.50013 4.19256 1.98551 3.46458 2.73047 3.15398L7.23047 1.27898ZM2.5 10.5729C2.50011 10.9515 2.71411 11.2981 3.05273 11.4675L7.5 13.6911V7.32098L2.5 5.04852V10.5729ZM8.5 7.32098V13.6911L12.9473 11.4675C13.2859 11.2981 13.4999 10.9515 13.5 10.5729V5.04852L8.5 7.32098ZM8.38477 2.20184C8.13868 2.09933 7.86132 2.09933 7.61523 2.20184L3.11523 4.07684C3.06033 4.09973 3.00886 4.12843 2.95996 4.15984L8 6.44988L13.0391 4.15984C12.9904 4.12862 12.9394 4.09962 12.8848 4.07684L8.38477 2.20184Z" fill="#010103"/>
</svg>
