<svg width="16" height="16" viewBox="0 0 16 16" fill="none" xmlns="http://www.w3.org/2000/svg">
<path opacity="0.08" d="M8.04434 3H7.95567C6.3233 3 5 4.3233 5 5.95566C5 5.98015 5.01985 6 5.04434 6H10.9557C10.9802 6 11 5.98015 11 5.95567C11 4.3233 9.6767 3 8.04434 3Z" fill="#010103"/>
<path d="M9.57617 2.23535C9.72249 2.00125 10.0305 1.92998 10.2646 2.07617C10.4985 2.22257 10.57 2.5306 10.4238 2.76465L10.1348 3.22656C10.9648 3.86655 11.5 4.87082 11.5 6V11.1816C11.4998 11.9094 10.9095 12.4999 10.1816 12.5H10V13.5C9.99976 13.7759 9.77594 13.9999 9.5 14C9.224 14 9.00024 13.7759 9 13.5V12.5H7V13.5C6.99976 13.7759 6.77594 13.9999 6.5 14C6.224 14 6.00024 13.7759 6 13.5V12.5H5.81836C5.09049 12.5 4.50024 11.9095 4.5 11.1816V6C4.5 4.87103 5.03448 3.86656 5.86426 3.22656L5.57617 2.76465C5.42999 2.53054 5.50133 2.22252 5.73535 2.07617C5.9695 1.92996 6.27751 2.00124 6.42383 2.23535L6.73633 2.73535C7.12834 2.5835 7.55437 2.5 8 2.5C8.44534 2.50002 8.8709 2.58367 9.2627 2.73535L9.57617 2.23535ZM5.5 11.1816C5.50024 11.3572 5.64278 11.5 5.81836 11.5H10.1816C10.3572 11.4999 10.4998 11.3571 10.5 11.1816V6.5H5.5V11.1816ZM3.5 6C3.77609 6.00007 4 6.2239 4 6.5V9.5C3.99976 9.7759 3.77594 9.99993 3.5 10C3.224 10 3.00024 9.77594 3 9.5V6.5C3 6.22386 3.22386 6 3.5 6ZM12.5 6C12.7761 6.00007 13 6.2239 13 6.5V9.5C12.9998 9.7759 12.7759 9.99993 12.5 10C12.224 10 12.0002 9.77594 12 9.5V6.5C12 6.22386 12.2239 6 12.5 6ZM8 3.5C6.79037 3.5 5.78127 4.35866 5.5498 5.5H10.4502C10.2188 4.35868 9.2096 3.50006 8 3.5Z" fill="#010103"/>
</svg>
