<svg width="16" height="16" viewBox="0 0 16 16" fill="none" xmlns="http://www.w3.org/2000/svg">
<path d="M7.97424 4.50052C8.18753 4.48967 8.38398 4.61582 8.4635 4.814L9.98401 8.61575L11.0319 5.82376L11.0651 5.75247C11.1544 5.59545 11.3237 5.49643 11.5084 5.49954C11.72 5.50346 11.9071 5.64068 11.9742 5.84134L12.86 8.49954H14.4996C14.7756 8.49954 14.9994 8.72361 14.9996 8.99954C14.9996 9.27568 14.7758 9.49954 14.4996 9.49954H12.4996C12.2846 9.49938 12.093 9.3618 12.025 9.15775L11.4713 7.49661L10.4674 10.1753C10.3949 10.3683 10.2116 10.4971 10.0055 10.4995C9.79922 10.5016 9.61239 10.3766 9.53577 10.1851L8.07776 6.54153L6.4801 12.1372C6.41976 12.3478 6.22941 12.4948 6.01038 12.4995C5.7914 12.5041 5.5943 12.3656 5.52502 12.1577L4.63928 9.49954H1.99963C1.72367 9.49934 1.49963 9.27556 1.49963 8.99954C1.49988 8.72374 1.72382 8.49975 1.99963 8.49954H4.99963C5.21467 8.49954 5.40603 8.63746 5.47424 8.84134L5.96252 10.3072L7.51917 4.86185L7.54651 4.78763C7.62386 4.62232 7.78776 4.51019 7.97424 4.50052Z" fill="#010103"/>
</svg>
