<svg width="16" height="16" viewBox="0 0 16 16" fill="none" xmlns="http://www.w3.org/2000/svg">
<path opacity="0.08" d="M3.04924 3.9986C3.51775 8.72414 7.27586 12.4823 12.0014 12.9508C12.551 13.0053 13 12.5523 13 12V10.744C13 10.3024 12.7103 9.9131 12.2873 9.7862L11.0721 9.42163C10.7197 9.31592 10.3378 9.41222 10.0776 9.67235L9.94731 9.80269C9.64552 10.1045 9.1821 10.1866 8.81641 9.96657C7.67681 9.28074 6.71926 8.32319 6.03343 7.18359C5.81336 6.8179 5.89552 6.35448 6.19731 6.05269L6.32765 5.92235C6.58778 5.66222 6.68408 5.28026 6.57837 4.9279L6.2138 3.71265C6.0869 3.28967 5.69758 3 5.25597 3H4C3.44772 3 2.99475 3.44901 3.04924 3.9986Z" fill="#010103"/>
<path d="M5.2561 2.50041C5.91841 2.50052 6.50231 2.93535 6.69263 3.56974L7.05786 4.78459C7.21619 5.313 7.07196 5.8867 6.68188 6.27678L6.55103 6.40666C6.39266 6.56512 6.37392 6.77957 6.46216 6.92619C7.10588 7.99565 8.00496 8.89484 9.07446 9.53849C9.22107 9.62648 9.43566 9.60786 9.59399 9.44963L9.72388 9.31877C10.1141 8.92858 10.6875 8.78425 11.2161 8.94279L12.4309 9.30803C13.0652 9.49848 13.5002 10.0823 13.5002 10.7445V12.0004C13.5 12.8138 12.829 13.5353 11.9524 13.4487C6.98986 12.9566 3.04421 9.01073 2.552 4.04826C2.46511 3.17141 3.18664 2.50041 4.00024 2.50041H5.2561ZM4.00024 3.50041C3.70932 3.50041 3.52511 3.72735 3.54712 3.94963C3.9923 8.43784 7.56276 12.0085 12.051 12.4535C12.2731 12.4753 12.5 12.291 12.5002 12.0004V10.7445C12.5002 10.5239 12.3551 10.3286 12.1438 10.2651L10.929 9.9008C10.7528 9.84794 10.562 9.89671 10.4319 10.0268L10.301 10.1567C9.85601 10.6016 9.14342 10.7465 8.55884 10.3949C7.34959 9.66715 6.33357 8.65102 5.60571 7.44181C5.25386 6.85716 5.39899 6.14474 5.84399 5.69963L5.97388 5.56877C6.10383 5.43881 6.1525 5.24776 6.09985 5.0717L5.7356 3.85685C5.67217 3.64544 5.4768 3.50052 5.2561 3.50041H4.00024Z" fill="#010103"/>
</svg>
