<svg width="16" height="16" viewBox="0 0 16 16" fill="none" xmlns="http://www.w3.org/2000/svg">
<path d="M7.99994 3.5C8.27608 3.5 8.49994 3.72386 8.49994 4V10.9316L10.6796 9.11621C10.8917 8.93952 11.2069 8.96784 11.3837 9.17969C11.5604 9.39173 11.5321 9.70696 11.3203 9.88379L8.32025 12.3838C8.31392 12.3891 8.30627 12.3925 8.29974 12.3975C8.28703 12.4071 8.2743 12.4164 8.26068 12.4248C8.24777 12.4327 8.23407 12.4387 8.22064 12.4453C8.20641 12.4524 8.19263 12.4601 8.17767 12.4658C8.16488 12.4707 8.15168 12.4738 8.13861 12.4775C8.12152 12.4825 8.10464 12.4881 8.08685 12.4912C8.02896 12.5014 7.96992 12.5015 7.91205 12.4912C7.89427 12.4881 7.87736 12.4825 7.86029 12.4775C7.84724 12.4737 7.834 12.4707 7.82123 12.4658C7.8063 12.4601 7.79246 12.4524 7.77826 12.4453C7.76486 12.4387 7.7511 12.4327 7.73822 12.4248C7.72463 12.4164 7.71184 12.4071 7.69916 12.3975C7.69286 12.3927 7.68574 12.3889 7.67963 12.3838L4.67963 9.88379C4.46779 9.70696 4.43949 9.39172 4.61615 9.17969C4.79297 8.96782 5.10821 8.93954 5.32025 9.11621L7.49994 10.9316V4C7.49994 3.72387 7.72382 3.50002 7.99994 3.5Z" fill="#010103"/>
</svg>
