<svg width="16" height="16" viewBox="0 0 16 16" fill="none" xmlns="http://www.w3.org/2000/svg">
<path d="M9.19043 4.50195C9.46523 4.47706 9.70821 4.68031 9.7334 4.95508C9.75828 5.23 9.55616 5.47401 9.28125 5.49902L6.45996 5.75391L11.3545 10.6484C11.5497 10.8437 11.5497 11.1612 11.3545 11.3564C11.1593 11.5514 10.8426 11.5514 10.6475 11.3564L5.75293 6.46094L5.49805 9.28223C5.47303 9.557 5.22979 9.75999 4.95508 9.73535C4.68023 9.71036 4.47722 9.46722 4.50195 9.19238L4.85547 5.30859L4.8584 5.28613C4.86058 5.27005 4.86344 5.25413 4.86719 5.23828L4.87109 5.2207L4.88965 5.16504C4.89129 5.161 4.89376 5.15732 4.89551 5.15332C4.90651 5.12819 4.9188 5.1038 4.93359 5.08105C4.93728 5.07539 4.94137 5.06999 4.94531 5.06445C4.9554 5.05025 4.96606 5.03648 4.97754 5.02344L4.99902 5C5.00456 4.99447 5.01088 4.98959 5.0166 4.98438C5.02841 4.97362 5.0409 4.9637 5.05371 4.9541C5.065 4.94562 5.07608 4.93708 5.08789 4.92969C5.11112 4.91517 5.13553 4.90221 5.16113 4.8916C5.16904 4.88832 5.17751 4.88664 5.18555 4.88379C5.20311 4.87755 5.22083 4.87147 5.23926 4.86719C5.25637 4.86321 5.27364 4.86055 5.29102 4.8584C5.29651 4.85772 5.30207 4.85695 5.30762 4.85645L9.19043 4.50195Z" fill="#010103"/>
</svg>
