<svg width="16" height="16" viewBox="0 0 16 16" fill="none" xmlns="http://www.w3.org/2000/svg">
<path d="M10.6945 4.85536L10.7198 4.85927C10.7336 4.86123 10.7472 4.86396 10.7609 4.86708L10.7823 4.87099C10.7934 4.87404 10.8038 4.87893 10.8146 4.88271C10.8254 4.88649 10.8363 4.88988 10.8468 4.89442C10.8697 4.9043 10.8913 4.91654 10.9122 4.92958C10.9216 4.93539 10.9306 4.94165 10.9396 4.94814C10.9575 4.96101 10.9743 4.97505 10.9904 4.99013C10.9941 4.99364 10.9994 4.99624 11.0031 4.99989C11.0071 5.004 11.0099 5.00936 11.0138 5.01357C11.0288 5.02967 11.043 5.04635 11.0558 5.06435C11.0603 5.07063 11.0653 5.07646 11.0695 5.0829C11.0835 5.10476 11.095 5.12819 11.1056 5.15224C11.1105 5.16344 11.1142 5.17495 11.1183 5.18642C11.1252 5.20585 11.1314 5.22551 11.1359 5.24599C11.1384 5.25734 11.14 5.2687 11.1417 5.28017C11.1431 5.28928 11.1458 5.29824 11.1466 5.30751L11.5001 9.1913C11.525 9.46618 11.3219 9.70928 11.047 9.73427C10.7723 9.75898 10.5293 9.55668 10.504 9.28212L10.2472 6.46181L5.35364 11.3544C5.15837 11.5496 4.84188 11.5496 4.64661 11.3544C4.45162 11.1591 4.45143 10.8425 4.64661 10.6474L9.54114 5.75282L6.71985 5.49794C6.44507 5.47276 6.24281 5.22977 6.2677 4.95497C6.2927 4.68005 6.53573 4.47697 6.81067 4.50185L10.6945 4.85536Z" fill="#010103"/>
</svg>
