<svg width="16" height="16" viewBox="0 0 16 16" fill="none" xmlns="http://www.w3.org/2000/svg">
<path d="M4.50189 6.81076C4.47713 6.53593 4.68013 6.29376 4.95502 6.26877C5.22978 6.24412 5.47298 6.44614 5.49799 6.72092L5.75385 9.54025L10.6484 4.64767C10.8437 4.45245 11.1601 4.45243 11.3554 4.64767C11.5504 4.84295 11.5506 5.15956 11.3554 5.35471L6.46088 10.2492L9.28217 10.5041C9.55678 10.5294 9.7591 10.7724 9.73431 11.0471C9.70932 11.322 9.46624 11.525 9.19135 11.5002L5.30756 11.1467L5.28217 11.1428C5.26742 11.1407 5.25277 11.1384 5.23822 11.135L5.21967 11.1311C5.2087 11.1281 5.19808 11.1241 5.18744 11.1203C5.17546 11.1161 5.16397 11.1108 5.15228 11.1057C5.1273 11.0947 5.10264 11.0833 5.08002 11.0686C5.07436 11.0649 5.06895 11.0608 5.06342 11.0569C5.04922 11.0468 5.03544 11.0361 5.0224 11.0246L4.99896 11.0031C4.99394 10.9981 4.99006 10.9917 4.98529 10.9865C4.98046 10.9813 4.97525 10.9764 4.97064 10.9709L4.93549 10.924C4.93434 10.9223 4.9327 10.9209 4.93158 10.9192C4.91578 10.8945 4.90191 10.8684 4.89056 10.841C4.8882 10.8353 4.88685 10.8292 4.8847 10.8235C4.8765 10.8014 4.87024 10.7785 4.86517 10.7551C4.86285 10.7444 4.86092 10.7337 4.85931 10.7229C4.85792 10.7135 4.85628 10.7041 4.85541 10.6945L4.50189 6.81076Z" fill="#010103"/>
</svg>
