<svg width="16" height="16" viewBox="0 0 16 16" fill="none" xmlns="http://www.w3.org/2000/svg">
<path d="M8 2C11.0376 2 13.5 4.46243 13.5 7.5V9.75C13.5 10.7165 12.7165 11.5 11.75 11.5C11.0692 11.5 10.4807 11.1105 10.1914 10.543C9.64378 11.1301 8.86623 11.5 8 11.5C6.34315 11.5 5 10.1569 5 8.5V7.5C5 5.84315 6.34315 4.5 8 4.5C8.76924 4.5 9.46902 4.79156 10 5.26758V5C10 4.72386 10.2239 4.5 10.5 4.5C10.7761 4.5 11 4.72386 11 5V9.75C11 10.1642 11.3358 10.5 11.75 10.5C12.1642 10.5 12.5 10.1642 12.5 9.75V7.5C12.5 5.01472 10.4853 3 8 3C5.51472 3 3.5 5.01472 3.5 7.5V8.5C3.5 10.9853 5.51472 13 8 13C8.27614 13 8.5 13.2239 8.5 13.5C8.5 13.7761 8.27614 14 8 14C4.96243 14 2.5 11.5376 2.5 8.5V7.5C2.5 4.46243 4.96243 2 8 2ZM8 5.5C6.89543 5.5 6 6.39543 6 7.5V8.5C6 9.60457 6.89543 10.5 8 10.5C9.10457 10.5 10 9.60457 10 8.5V7.5C10 6.39543 9.10457 5.5 8 5.5Z" fill="#010103"/>
</svg>
