<svg width="56" height="16" viewBox="0 0 56 16" fill="none" xmlns="http://www.w3.org/2000/svg">
<g clip-path="url(#clip0_251_18624)">
<path d="M5.25 2C5.52614 2 5.75 2.22386 5.75 2.5V13.5C5.75 13.7761 5.52614 14 5.25 14C4.97386 14 4.75 13.7761 4.75 13.5V2.5C4.75 2.22386 4.97386 2 5.25 2ZM10.75 3C11.0261 3 11.25 3.22386 11.25 3.5V12.5C11.25 12.7761 11.0261 13 10.75 13C10.4739 13 10.25 12.7761 10.25 12.5V3.5C10.25 3.22386 10.4739 3 10.75 3ZM8 4C8.27614 4 8.5 4.22386 8.5 4.5V11.5C8.5 11.7761 8.27614 12 8 12C7.72386 12 7.5 11.7761 7.5 11.5V4.5C7.5 4.22386 7.72386 4 8 4ZM2.5 5C2.77614 5 3 5.22386 3 5.5V10.5C3 10.7761 2.77614 11 2.5 11C2.22386 11 2 10.7761 2 10.5V5.5C2 5.22386 2.22386 5 2.5 5ZM13.5 5C13.7761 5 14 5.22386 14 5.5V10.5C14 10.7761 13.7761 11 13.5 11C13.2239 11 13 10.7761 13 10.5V5.5C13 5.22386 13.2239 5 13.5 5Z" fill="#010103"/>
<path d="M43.25 3C43.5261 3 43.75 3.22386 43.75 3.5V12.5C43.75 12.7761 43.5261 13 43.25 13C42.9739 13 42.75 12.7761 42.75 12.5V3.5C42.75 3.22386 42.9739 3 43.25 3ZM51.5 3C51.7761 3 52 3.22386 52 3.5V12.5C52 12.7761 51.7761 13 51.5 13C51.2239 13 51 12.7761 51 12.5V3.5C51 3.22386 51.2239 3 51.5 3ZM40.5 4C40.7761 4 41 4.22386 41 4.5V11.5C41 11.7761 40.7761 12 40.5 12C40.2239 12 40 11.7761 40 11.5V4.5C40 4.22386 40.2239 4 40.5 4ZM48.75 4C49.0261 4 49.25 4.22386 49.25 4.5V11.5C49.25 11.7761 49.0261 12 48.75 12C48.4739 12 48.25 11.7761 48.25 11.5V4.5C48.25 4.22386 48.4739 4 48.75 4ZM46 5C46.2761 5 46.5 5.22386 46.5 5.5V10.5C46.5 10.7761 46.2761 11 46 11C45.7239 11 45.5 10.7761 45.5 10.5V5.5C45.5 5.22386 45.7239 5 46 5Z" fill="#010103"/>
</g>
<defs>
<clipPath id="clip0_251_18624">
<rect width="56" height="16" fill="white"/>
</clipPath>
</defs>
</svg>
