<svg width="16" height="16" viewBox="0 0 16 16" fill="none" xmlns="http://www.w3.org/2000/svg">
<path opacity="0.08" d="M5 10V8H11V10C11 11.6569 9.65685 13 8 13C6.34315 13 5 11.6569 5 10Z" fill="#010103"/>
<path d="M10 3.0002C10.2761 3.0002 10.5 3.22406 10.5 3.5002C10.5 4.04366 10.3781 4.47117 10.1758 4.79414C10.927 5.19543 11.4464 5.96879 11.4932 6.86836C11.7953 6.69636 11.9999 6.37272 12 6.0002V5.5002C12 5.22406 12.2239 5.0002 12.5 5.0002C12.7761 5.0002 13 5.22406 13 5.5002V6.0002C12.9999 6.93173 12.3621 7.7115 11.5 7.93379V8.5002H13C13.2761 8.5002 13.5 8.72406 13.5 9.0002C13.4999 9.27625 13.2761 9.5002 13 9.5002H11.5V9.56563C12.3623 9.78787 13 10.5685 13 11.5002V12.5002C12.9999 12.7762 12.7761 13.0002 12.5 13.0002C12.2239 13.0002 12.0001 12.7762 12 12.5002V11.5002C12 11.1084 11.7744 10.7697 11.4463 10.6057C11.1593 12.2499 9.72635 13.5002 8 13.5002C6.27359 13.5002 4.83963 12.25 4.55273 10.6057C4.22506 10.7699 4 11.1087 4 11.5002V12.5002C3.99989 12.7762 3.77608 13.0002 3.5 13.0002C3.22392 13.0002 3.00011 12.7762 3 12.5002V11.5002C3 10.5685 3.63771 9.78787 4.5 9.56563V9.5002H3C2.72392 9.5002 2.50011 9.27625 2.5 9.0002C2.5 8.72406 2.72386 8.5002 3 8.5002H4.5V8.0002H3.5C3.22392 8.0002 3.00011 7.77625 3 7.5002V5.5002C3 5.22406 3.22386 5.0002 3.5 5.0002C3.77614 5.0002 4 5.22406 4 5.5002V7.0002H4.5C4.5 6.04453 5.03622 5.21388 5.82422 4.79317C5.797 4.74696 5.77126 4.70078 5.74902 4.6545C5.55696 4.25437 5.50003 3.79891 5.5 3.5002C5.5 3.22406 5.72386 3.0002 6 3.0002C6.27614 3.0002 6.5 3.22406 6.5 3.5002C6.50003 3.70134 6.5427 3.99625 6.65039 4.2209C6.75269 4.43393 6.86268 4.5002 7 4.5002H9C9.03251 4.5002 9.14764 4.47937 9.25781 4.36055C9.36112 4.24898 9.49996 4.00596 9.5 3.5002C9.5 3.22406 9.72386 3.0002 10 3.0002ZM5.5 10.0002C5.50011 11.3808 6.61935 12.5002 8 12.5002C9.38065 12.5002 10.4999 11.3808 10.5 10.0002V8.5002H5.5V10.0002ZM7 5.5002C6.17157 5.5002 5.5 6.17177 5.5 7.0002V7.5002H10.5V7.0002C10.5 6.17177 9.82843 5.5002 9 5.5002H7Z" fill="#010103"/>
</svg>
