<svg width="16" height="16" viewBox="0 0 16 16" fill="none" xmlns="http://www.w3.org/2000/svg">
<path opacity="0.08" d="M11.75 2.5H4.25C3.2835 2.5 2.5 3.2835 2.5 4.25C2.5 5.2165 3.2835 6 4.25 6H11.75C12.7165 6 13.5 5.2165 13.5 4.25C13.5 3.2835 12.7165 2.5 11.75 2.5Z" fill="#010103"/>
<path d="M11 1C11.2761 1 11.5 1.22386 11.5 1.5V2.04297C12.9187 2.28111 14 3.51359 14 5V11C14 12.6569 12.6569 14 11 14H5C3.39489 14 2.08421 12.7394 2.00391 11.1543L2 11V5C2 3.51348 3.08111 2.27902 4.5 2.04102V1.5C4.5 1.22386 4.72386 1 5 1C5.27614 1 5.5 1.22386 5.5 1.5V2H10.5V1.5C10.5 1.22386 10.7239 1 11 1ZM3 6.5V11L3.01074 11.2041C3.113 12.2128 3.96435 13 5 13H11C12.1046 13 13 12.1046 13 11V6.5H3ZM5.5 3.5C5.5 3.77614 5.27614 4 5 4C4.72386 4 4.5 3.77614 4.5 3.5V3.06543C3.63768 3.28765 3 4.06829 3 5V5.5H13V5C13 4.06818 12.3625 3.2865 11.5 3.06445V3.5C11.5 3.77614 11.2761 4 11 4C10.7239 4 10.5 3.77614 10.5 3.5V3H5.5V3.5Z" fill="#010103"/>
</svg>
