<svg width="16" height="16" viewBox="0 0 16 16" fill="none" xmlns="http://www.w3.org/2000/svg">
<path opacity="0.08" d="M2 12.5C2 11.6716 2.67157 11 3.5 11C4.32843 11 5 11.6716 5 12.5C5 13.3284 4.32843 14 3.5 14C2.67157 14 2 13.3284 2 12.5Z" fill="#010103"/>
<path opacity="0.08" d="M11 12.5C11 11.6716 11.6716 11 12.5 11C13.3284 11 14 11.6716 14 12.5C14 13.3284 13.3284 14 12.5 14C11.6716 14 11 13.3284 11 12.5Z" fill="#010103"/>
<path opacity="0.08" d="M6.5 3.5C6.5 2.67157 7.17157 2 8 2C8.82843 2 9.5 2.67157 9.5 3.5C9.5 4.32843 8.82843 5 8 5C7.17157 5 6.5 4.32843 6.5 3.5Z" fill="#010103"/>
<path d="M8.00024 1.49969C9.1046 1.49983 10.0001 2.39535 10.0002 3.49969C10.0002 4.43129 9.36241 5.21194 8.50024 5.43427V6.5495C9.6412 6.78117 10.5001 7.7904 10.5002 8.99969C10.5002 9.34579 10.4291 9.67555 10.302 9.97528L11.4231 10.8161C11.7341 10.6168 12.1034 10.4997 12.5002 10.4997C13.6046 10.4998 14.5001 11.3953 14.5002 12.4997C14.5002 13.6042 13.6047 14.4996 12.5002 14.4997C11.3957 14.4997 10.5002 13.6043 10.5002 12.4997C10.5003 12.1574 10.5859 11.8351 10.7375 11.5534L9.73267 10.7995C9.28322 11.2324 8.67349 11.4996 8.00024 11.4997C7.32677 11.4997 6.71636 11.2325 6.26685 10.7995L5.26196 11.5524C5.4139 11.8343 5.50019 12.157 5.50024 12.4997C5.50024 13.6042 4.6047 14.4996 3.50024 14.4997C2.39567 14.4997 1.50024 13.6043 1.50024 12.4997C1.50041 11.3953 2.39578 10.4997 3.50024 10.4997C3.89713 10.4997 4.26637 10.6167 4.57739 10.8161L5.69751 9.97528C5.57041 9.67559 5.50024 9.34573 5.50024 8.99969C5.50039 7.79023 6.35905 6.78099 7.50024 6.5495V5.43427C6.63785 5.21209 6.00024 4.43146 6.00024 3.49969C6.00041 2.39527 6.89578 1.49969 8.00024 1.49969ZM3.50024 11.4997C2.94806 11.4997 2.50041 11.9476 2.50024 12.4997C2.50024 13.052 2.94796 13.4997 3.50024 13.4997C4.05242 13.4996 4.50024 13.0519 4.50024 12.4997C4.50008 11.9476 4.05231 11.4998 3.50024 11.4997ZM12.5002 11.4997C11.9481 11.4997 11.5004 11.9476 11.5002 12.4997C11.5002 13.052 11.948 13.4997 12.5002 13.4997C13.0524 13.4996 13.5002 13.0519 13.5002 12.4997C13.5001 11.9476 13.0523 11.4998 12.5002 11.4997ZM8.00024 7.49969C7.17192 7.49969 6.50041 8.17141 6.50024 8.99969C6.50024 9.82812 7.17182 10.4997 8.00024 10.4997C8.82856 10.4996 9.50024 9.82804 9.50024 8.99969C9.50008 8.17149 8.82846 7.49983 8.00024 7.49969ZM8.00024 2.49969C7.44806 2.49969 7.00041 2.94755 7.00024 3.49969C7.00024 4.05198 7.44796 4.49969 8.00024 4.49969C8.55242 4.49956 9.00024 4.0519 9.00024 3.49969C9.00008 2.94763 8.55231 2.49983 8.00024 2.49969Z" fill="#010103"/>
</svg>
