<svg width="16" height="16" viewBox="0 0 16 16" fill="none" xmlns="http://www.w3.org/2000/svg">
<path d="M3 2.5C3.27614 2.5 3.5 2.72386 3.5 3V12.5H13C13.2761 12.5 13.5 12.7239 13.5 13C13.5 13.2761 13.2761 13.5 13 13.5H3C2.72386 13.5 2.5 13.2761 2.5 13V3C2.5 2.72386 2.72386 2.5 3 2.5ZM5.5 7.5C5.77614 7.5 6 7.72386 6 8V11C6 11.2761 5.77614 11.5 5.5 11.5C5.22386 11.5 5 11.2761 5 11V8C5 7.72386 5.22386 7.5 5.5 7.5ZM8.5 3.5C8.77614 3.5 9 3.72386 9 4V11C9 11.2761 8.77614 11.5 8.5 11.5C8.22386 11.5 8 11.2761 8 11V4C8 3.72386 8.22386 3.5 8.5 3.5ZM11.5 8.5C11.7761 8.5 12 8.72386 12 9V11C12 11.2761 11.7761 11.5 11.5 11.5C11.2239 11.5 11 11.2761 11 11V9C11 8.72386 11.2239 8.5 11.5 8.5Z" fill="#010103"/>
</svg>
