<svg width="16" height="16" viewBox="0 0 16 16" fill="none" xmlns="http://www.w3.org/2000/svg">
<path opacity="0.08" d="M10.5 2V3.2C10.5 7.50782 7.00782 11 2.7 11L2.11787 8.50515C2.04057 8.17386 2.04905 7.82834 2.1425 7.50124L2.83071 5.09251C2.94101 4.70646 3.16495 4.36254 3.47339 4.10551L5.44373 2.46356C5.80316 2.16403 6.25623 2 6.7241 2H10.5Z" fill="#010103"/>
<path d="M8 1.5C11.5899 1.5 14.5 4.41015 14.5 8C14.5 11.5899 11.5899 14.5 8 14.5C4.41015 14.5 1.5 11.5899 1.5 8C1.5 4.41015 4.41015 1.5 8 1.5ZM8 2.5C4.96243 2.5 2.5 4.96243 2.5 8C2.5 11.0376 4.96243 13.5 8 13.5C11.0376 13.5 13.5 11.0376 13.5 8C13.5 4.96243 11.0376 2.5 8 2.5ZM9.64648 6.64648C9.84175 6.45122 10.1583 6.45122 10.3535 6.64648C10.5488 6.84175 10.5488 7.15825 10.3535 7.35352L7.85352 9.85352C7.65825 10.0488 7.34175 10.0488 7.14648 9.85352L5.64648 8.35352C5.45122 8.15825 5.45122 7.84175 5.64648 7.64648C5.84175 7.45122 6.15825 7.45122 6.35352 7.64648L7.5 8.79297L9.64648 6.64648Z" fill="#010103"/>
</svg>
