<svg width="16" height="16" viewBox="0 0 16 16" fill="none" xmlns="http://www.w3.org/2000/svg">
<path d="M7.99966 1.4997C11.5894 1.4997 14.4995 4.40999 14.4997 7.9997C14.4997 11.5896 11.5895 14.4997 7.99966 14.4997C4.40997 14.4995 1.49966 11.5894 1.49966 7.9997C1.49982 4.4101 4.41007 1.49988 7.99966 1.4997ZM7.99966 2.4997C4.96235 2.49988 2.49982 4.96238 2.49966 7.9997C2.49966 11.0372 4.96225 13.4995 7.99966 13.4997C11.0372 13.4997 13.4997 11.0373 13.4997 7.9997C13.4995 4.96227 11.0371 2.4997 7.99966 2.4997ZM7.99966 4.4997C8.27571 4.4997 8.4995 4.7237 8.49966 4.9997V7.7165L10.7575 9.07099C10.994 9.21304 11.0701 9.51985 10.9284 9.75654C10.7863 9.99333 10.4796 10.0705 10.2428 9.92841L7.74283 8.42841C7.59229 8.33804 7.49966 8.17529 7.49966 7.9997V4.9997C7.49983 4.7237 7.72362 4.4997 7.99966 4.4997Z" fill="#010103"/>
<path opacity="0.08" d="M12 3.5L8 2V8L13 11L14 7.5L12 3.5Z" fill="#010103"/>
</svg>
