<svg width="16" height="16" viewBox="0 0 16 16" fill="none" xmlns="http://www.w3.org/2000/svg">
<path opacity="0.08" d="M6.40502 3.52408L8.64706 3L10.9147 4.32513C10.9675 4.35601 11 4.41263 11 4.47384V5.9848C11 9.85919 7.85919 13 3.9848 13C3.95637 13 3.92861 12.9915 3.90511 12.9755L2.01168 11.6879C1.39071 11.2657 1.0586 10.5312 1.15175 9.78602L1.35504 8.15966C1.4446 7.44323 1.91334 6.83068 2.58147 6.55699L3.43875 6.20581C3.76775 6.07104 4.05487 5.85101 4.27055 5.56838L5.27032 4.25827C5.5519 3.88929 5.95305 3.62972 6.40502 3.52408Z" fill="#010103"/>
<path d="M8 2.5C10.4499 2.5 12.4472 4.40336 12.6768 6.82031C14.2801 7.05576 15.4999 8.4613 15.5 10.1426C15.5 11.987 14.0321 13.4999 12.2002 13.5H4.5C2.28143 13.5 0.500074 11.6677 0.5 9.42871C0.5 7.47976 1.84828 5.84098 3.66113 5.44727C4.36718 3.72187 6.03872 2.5 8 2.5ZM8 3.5C6.38601 3.5 5.00489 4.55955 4.50195 6.04883C4.4413 6.2285 4.28357 6.35892 4.0957 6.38477C2.63786 6.58552 1.5 7.86526 1.5 9.42871C1.50007 11.1345 2.85267 12.5 4.5 12.5H12.2002C13.4609 12.4999 14.5 11.4539 14.5 10.1426C14.4999 8.83139 13.4608 7.78624 12.2002 7.78613C11.9242 7.78613 11.7004 7.56208 11.7002 7.28613C11.7002 5.18577 10.034 3.5 8 3.5Z" fill="#010103"/>
</svg>
