<svg width="16" height="16" viewBox="0 0 16 16" fill="none" xmlns="http://www.w3.org/2000/svg">
<path d="M8.5 2C9.88071 2 11 3.11929 11 4.5V5H11.5C12.8807 5 14 6.11929 14 7.5V11.5C14 12.8807 12.8807 14 11.5 14H7.5C6.11929 14 5 12.8807 5 11.5V11H4.5C3.11929 11 2 9.88071 2 8.5V4.5C2 3.11929 3.11929 2 4.5 2H8.5ZM7.5 6C6.67157 6 6 6.67157 6 7.5V11.5C6 12.3284 6.67157 13 7.5 13H11.5C12.3284 13 13 12.3284 13 11.5V7.5C13 6.67157 12.3284 6 11.5 6H7.5ZM4.5 3C3.67157 3 3 3.67157 3 4.5V8.5C3 9.32843 3.67157 10 4.5 10H5V7.5C5 6.11929 6.11929 5 7.5 5H10V4.5C10 3.67157 9.32843 3 8.5 3H4.5Z" fill="#010103"/>
</svg>
