<svg width="16" height="16" viewBox="0 0 16 16" fill="none" xmlns="http://www.w3.org/2000/svg">
<path opacity="0.08" d="M10.5 2V3.2C10.5 7.50782 7.00782 11 2.7 11L2.11787 8.50515C2.04057 8.17386 2.04905 7.82834 2.1425 7.50124L2.83071 5.09251C2.94101 4.70646 3.16495 4.36254 3.47339 4.10551L5.44373 2.46356C5.80316 2.16403 6.25623 2 6.7241 2H10.5Z" fill="#010103"/>
<path d="M7.99988 1.50046C11.5897 1.50046 14.4999 4.41061 14.4999 8.00046C14.4996 11.5901 11.5896 14.5005 7.99988 14.5005C4.41024 14.5004 1.50013 11.5901 1.49988 8.00046C1.49988 4.41065 4.41008 1.50052 7.99988 1.50046ZM7.99988 2.50046C4.96237 2.50052 2.49988 4.96293 2.49988 8.00046C2.50013 11.0378 4.96252 13.5004 7.99988 13.5005C11.0373 13.5005 13.4996 11.0378 13.4999 8.00046C13.4999 4.96289 11.0374 2.50046 7.99988 2.50046ZM9.0575 6.23386C9.25276 6.03869 9.5693 6.03863 9.76453 6.23386C9.95954 6.4291 9.95962 6.74569 9.76453 6.94089L8.70691 7.99753L9.77136 9.06198C9.96658 9.2572 9.9665 9.57374 9.77136 9.76901C9.5761 9.96427 9.25959 9.96427 9.06433 9.76901L7.99988 8.70456L6.93542 9.76901C6.74016 9.96418 6.42362 9.96424 6.22839 9.76901C6.03344 9.57376 6.03331 9.25716 6.22839 9.06198L7.29285 7.99753L6.23621 6.94089C6.04094 6.74563 6.04094 6.42912 6.23621 6.23386C6.43148 6.03872 6.74802 6.03863 6.94324 6.23386L7.99988 7.2905L9.0575 6.23386Z" fill="#010103"/>
</svg>
