<svg width="16" height="16" viewBox="0 0 16 16" fill="none" xmlns="http://www.w3.org/2000/svg">
<path d="M11.1006 13.0098C11.3286 13.0563 11.5 13.2583 11.5 13.5C11.5 13.7417 11.3286 13.9437 11.1006 13.9902L11 14H5C4.72386 14 4.5 13.7761 4.5 13.5C4.5 13.2239 4.72386 13 5 13H11L11.1006 13.0098ZM8 2.5C8.27605 2.5001 8.49999 2.72393 8.5 3V9.43262L10.6797 7.61621C10.8917 7.43963 11.207 7.46785 11.3838 7.67969C11.5604 7.89169 11.532 8.20697 11.3203 8.38379L8.32031 10.8838C8.31403 10.889 8.30629 10.8926 8.2998 10.8975C8.28713 10.907 8.27432 10.9164 8.26074 10.9248C8.24787 10.9327 8.23408 10.9387 8.2207 10.9453C8.20652 10.9524 8.19264 10.9601 8.17773 10.9658C8.16499 10.9707 8.1517 10.9738 8.13867 10.9775C8.12163 10.9825 8.10465 10.9881 8.08691 10.9912C8.02907 11.0014 7.96994 11.0015 7.91211 10.9912C7.89438 10.9881 7.87738 10.9825 7.86035 10.9775C7.84734 10.9738 7.83403 10.9707 7.82129 10.9658C7.80639 10.9601 7.79249 10.9524 7.77832 10.9453C7.76496 10.9387 7.75114 10.9327 7.73828 10.9248L7.67969 10.8838L4.67969 8.38379C4.46781 8.20696 4.43951 7.89173 4.61621 7.67969C4.79306 7.46791 5.10831 7.43954 5.32031 7.61621L7.5 9.43262V3C7.50001 2.72386 7.72386 2.5 8 2.5Z" fill="#010103"/>
</svg>
