<svg width="16" height="16" viewBox="0 0 16 16" fill="none" xmlns="http://www.w3.org/2000/svg">
<path opacity="0.08" d="M10.191 2.57927C10.5815 2.18877 11.2145 2.1888 11.605 2.57927L13.0191 3.99334C13.4096 4.38386 13.4096 5.01687 13.0191 5.4074L11.9586 6.46795C11.7145 6.71202 11.3188 6.71202 11.0748 6.46795L9.13043 4.52361C8.88638 4.27953 8.88636 3.88389 9.13043 3.63982L10.191 2.57927Z" fill="#010103"/>
<path d="M13.373 3.6398C13.9588 4.22558 13.9588 5.17533 13.373 5.76112L7.22314 11.911C7.01374 12.1204 6.74702 12.2631 6.45665 12.3212L4.68888 12.6747C3.63932 12.8846 2.71399 11.9593 2.92388 10.9097L3.27743 9.14197C3.3355 8.8516 3.47822 8.58488 3.68761 8.37548L9.8375 2.22558C10.4233 1.6398 11.373 1.6398 11.9588 2.22558L13.373 3.6398ZM8.77684 4.70046L4.39471 9.08259C4.32493 9.15238 4.27734 9.2413 4.25799 9.33808L3.90443 11.1059C3.83449 11.4557 4.14293 11.7641 4.49277 11.6942L6.26054 11.3406C6.35732 11.3213 6.44624 11.2737 6.51603 11.2039L10.8982 6.82178L8.77684 4.70046ZM11.2517 2.93269C11.0565 2.73743 10.7399 2.73743 10.5446 2.93269L9.48395 3.99335L11.6053 6.11467L12.6659 5.05401C12.8612 4.85875 12.8612 4.54217 12.6659 4.34691L11.2517 2.93269Z" fill="#010103"/>
</svg>
