<svg width="16" height="16" viewBox="0 0 16 16" fill="none" xmlns="http://www.w3.org/2000/svg">
<path opacity="0.08" d="M14 11V6.5H11C7.13401 6.5 4 9.63401 4 13.5H11.5C12.8807 13.5 14 12.3807 14 11Z" fill="#010103"/>
<path d="M11.5 2C13.1569 2 14.5 3.34315 14.5 5V11C14.5 12.6569 13.1569 14 11.5 14H4.5C2.89489 14 1.58421 12.7394 1.50391 11.1543L1.5 11V5C1.5 3.34315 2.84315 2 4.5 2H11.5ZM4.5 3C3.39543 3 2.5 3.89543 2.5 5V11L2.51074 11.2041C2.613 12.2128 3.46435 13 4.5 13H11.5C12.6046 13 13.5 12.1046 13.5 11V5C13.5 3.89543 12.6046 3 11.5 3H4.5ZM10.6797 5.11621C10.8917 4.93951 11.207 4.96781 11.3838 5.17969C11.5605 5.39173 11.5322 5.70696 11.3203 5.88379L8.32031 8.38379C8.13489 8.53831 7.86511 8.53831 7.67969 8.38379L4.67969 5.88379C4.46781 5.70696 4.43951 5.39173 4.61621 5.17969C4.79304 4.96781 5.10827 4.93951 5.32031 5.11621L8 7.34863L10.6797 5.11621Z" fill="#010103"/>
</svg>
