<svg width="16" height="16" viewBox="0 0 16 16" fill="none" xmlns="http://www.w3.org/2000/svg">
<path d="M7.88156 3L8.1091 3.00977C9.23125 3.11136 10.16 3.95888 10.3484 5.08887L10.7878 7.73145C10.9121 8.47797 10.6915 9.23742 10.1931 9.7998L10.0896 9.91016L7.17258 12.8271C7.062 12.9377 6.91191 12.9999 6.75558 13C6.37192 12.9998 6.0903 12.6389 6.18332 12.2666L6.99973 9H4.77023L4.59933 8.99023C3.75887 8.89528 3.14793 8.10996 3.29074 7.25293L3.79074 4.25293L3.81906 4.12012C3.98978 3.46604 4.58298 3.0002 5.27023 3H7.88156ZM10.4997 2.5C12.1565 2.50011 13.4997 3.84321 13.4997 5.5V7C13.4997 7.93103 12.9907 8.7431 12.238 9.17285C12.0168 9.29906 11.7599 9.41773 11.5368 9.52246C11.7976 8.9144 11.8859 8.23687 11.7741 7.56641L11.3347 4.9248C11.161 3.88257 10.5369 3.01331 9.68234 2.5H10.4997Z" fill="#010103"/>
</svg>
