<svg width="16" height="16" viewBox="0 0 16 16" fill="none" xmlns="http://www.w3.org/2000/svg">
<circle opacity="0.08" cx="7" cy="5" r="2" fill="#010103"/>
<circle opacity="0.08" cx="10" cy="11" r="2" fill="#010103"/>
<path d="M10 8.5C11.2095 8.5 12.2186 9.35886 12.4502 10.5H13.5C13.7761 10.5 14 10.7239 14 11C14 11.2761 13.7761 11.5 13.5 11.5H12.4502C12.2186 12.6411 11.2095 13.5 10 13.5C8.79051 13.5 7.78142 12.6411 7.5498 11.5H2.5C2.22386 11.5 2 11.2761 2 11C2 10.7239 2.22386 10.5 2.5 10.5H7.5498C7.78142 9.35886 8.79051 8.5 10 8.5ZM10 9.5C9.17157 9.5 8.5 10.1716 8.5 11C8.5 11.8284 9.17157 12.5 10 12.5C10.8284 12.5 11.5 11.8284 11.5 11C11.5 10.1716 10.8284 9.5 10 9.5ZM7 2.5C8.20949 2.5 9.21858 3.35886 9.4502 4.5H13.5C13.7761 4.5 14 4.72386 14 5C14 5.27614 13.7761 5.5 13.5 5.5H9.4502C9.21858 6.64114 8.20949 7.5 7 7.5C5.79051 7.5 4.78142 6.64114 4.5498 5.5H2.5C2.22386 5.5 2 5.27614 2 5C2 4.72386 2.22386 4.5 2.5 4.5H4.5498C4.78142 3.35886 5.79051 2.5 7 2.5ZM7 3.5C6.17157 3.5 5.5 4.17157 5.5 5C5.5 5.82843 6.17157 6.5 7 6.5C7.82843 6.5 8.5 5.82843 8.5 5C8.5 4.17157 7.82843 3.5 7 3.5Z" fill="#010103"/>
</svg>
