<svg width="16" height="16" viewBox="0 0 16 16" fill="none" xmlns="http://www.w3.org/2000/svg">
<path opacity="0.12" d="M5.25 8C5.25 4 7.3125 2 7.3125 2H8.6875C8.6875 2 10.75 4 10.75 8C10.75 12 8.6875 14 8.6875 14H7.3125C7.3125 14 5.25 12 5.25 8Z" fill="#010103"/>
<path d="M8.00034 1.49976C11.59 1.49994 14.5002 4.41013 14.5003 7.99976C14.5003 11.5895 11.59 14.4996 8.00034 14.4998C4.41049 14.4998 1.50034 11.5896 1.50034 7.99976C1.50047 4.41002 4.41057 1.49976 8.00034 1.49976ZM6.13022 10.4998C6.30844 11.2139 6.5455 11.8059 6.78061 12.2761C7.01568 12.7463 7.24967 13.0962 7.42123 13.325C7.46657 13.3854 7.50989 13.4357 7.54526 13.4792C7.69527 13.4915 7.84715 13.4998 8.00034 13.4998C8.15297 13.4997 8.30397 13.4915 8.45346 13.4792C8.48895 13.4356 8.5329 13.3857 8.57846 13.325C8.75004 13.0962 8.98396 12.7464 9.21909 12.2761C9.45423 11.8058 9.69221 11.2141 9.87045 10.4998H6.13022ZM3.10092 10.4998C3.73167 11.7334 4.81369 12.6977 6.13022 13.1736C6.05055 13.0354 5.96733 12.8859 5.88608 12.7234C5.59361 12.1384 5.30416 11.3969 5.10287 10.4998H3.10092ZM10.8968 10.4998C10.6955 11.3969 10.4061 12.1384 10.1136 12.7234C10.0324 12.8858 9.95006 13.0355 9.87045 13.1736C11.1867 12.6976 12.2681 11.7332 12.8988 10.4998H10.8968ZM2.70932 6.49976C2.57433 6.97676 2.50036 7.47953 2.50034 7.99976C2.50034 8.51981 2.57346 9.02289 2.70834 9.49976H4.92709C4.86744 9.03323 4.83334 8.53304 4.83334 7.99976C4.83335 7.46634 4.86838 6.96639 4.92807 6.49976H2.70932ZM11.0726 6.49976C11.1323 6.96636 11.1663 7.46637 11.1664 7.99976C11.1664 8.53305 11.1323 9.03322 11.0726 9.49976H13.2914C13.4263 9.02287 13.5003 8.51984 13.5003 7.99976C13.5003 7.4795 13.4254 6.97678 13.2904 6.49976H11.0726ZM5.93686 6.49976C5.87193 6.96103 5.83335 7.46093 5.83334 7.99976C5.83334 8.53849 5.87196 9.03855 5.93686 9.49976H10.0628C10.1277 9.03853 10.1664 8.53851 10.1664 7.99976C10.1663 7.46091 10.1278 6.96104 10.0628 6.49976H5.93686ZM6.12924 2.82593C4.81331 3.30181 3.73259 4.26667 3.1019 5.49976H5.10287C5.30418 4.60273 5.59363 3.86102 5.88608 3.27612C5.96728 3.11372 6.04962 2.96403 6.12924 2.82593ZM9.87045 2.8269C9.94994 2.96481 10.0325 3.114 10.1136 3.27612C10.4061 3.86101 10.6955 4.60276 10.8968 5.49976H12.8978C12.2671 4.26675 11.1863 3.30278 9.87045 2.8269ZM8.00034 2.49976C7.84686 2.49976 7.69458 2.50696 7.54428 2.51929C7.50886 2.56289 7.46667 2.614 7.42123 2.67456C7.24968 2.9033 7.0157 3.25324 6.78061 3.72339C6.54552 4.19357 6.30845 4.78569 6.13022 5.49976H9.87045C9.69221 4.78561 9.45419 4.19361 9.21909 3.72339C8.98402 3.2533 8.75 2.90328 8.57846 2.67456C8.53285 2.61377 8.48994 2.56298 8.45444 2.51929C8.30467 2.50704 8.15326 2.49977 8.00034 2.49976Z" fill="#010103"/>
</svg>
