<svg width="16" height="16" viewBox="0 0 16 16" fill="none" xmlns="http://www.w3.org/2000/svg">
<path opacity="0.08" d="M11 3.5C11 2.67157 11.6716 2 12.5 2C13.3284 2 14 2.67157 14 3.5V5.5C14 6.32843 13.3284 7 12.5 7C11.6716 7 11 6.32843 11 5.5V3.5Z" fill="#010103"/>
<path opacity="0.08" d="M2 10.5C2 9.67157 2.67157 9 3.5 9C4.32843 9 5 9.67157 5 10.5V12.5C5 13.3284 4.32843 14 3.5 14C2.67157 14 2 13.3284 2 12.5V10.5Z" fill="#010103"/>
<path d="M4.00024 8.49969C4.82846 8.49983 5.50008 9.17149 5.50024 9.99969V12.9997C5.50024 13.828 4.82856 14.4996 4.00024 14.4997H3.00024C2.17182 14.4997 1.50024 13.8281 1.50024 12.9997V9.99969C1.50041 9.17141 2.17192 8.49969 3.00024 8.49969H4.00024ZM12.5002 8.49969C13.6046 8.49983 14.5001 9.39535 14.5002 10.4997V12.4997C14.5002 13.6042 13.6047 14.4996 12.5002 14.4997H8.50024C7.39567 14.4997 6.50024 13.6043 6.50024 12.4997V10.4997C6.50041 9.39527 7.39578 8.49969 8.50024 8.49969H12.5002ZM3.00024 9.49969C2.7242 9.49969 2.50041 9.72369 2.50024 9.99969V12.9997C2.50024 13.2758 2.7241 13.4997 3.00024 13.4997H4.00024C4.27627 13.4996 4.50024 13.2758 4.50024 12.9997V9.99969C4.50008 9.72377 4.27617 9.49983 4.00024 9.49969H3.00024ZM8.50024 9.49969C7.94806 9.49969 7.50041 9.94755 7.50024 10.4997V12.4997C7.50024 13.052 7.94796 13.4997 8.50024 13.4997H12.5002C13.0524 13.4996 13.5002 13.0519 13.5002 12.4997V10.4997C13.5001 9.94763 13.0523 9.49983 12.5002 9.49969H8.50024ZM7.50024 1.49969C8.6046 1.49983 9.50008 2.39535 9.50024 3.49969V5.49969C9.50024 6.60418 8.6047 7.49956 7.50024 7.49969H3.50024C2.39567 7.49969 1.50024 6.60426 1.50024 5.49969V3.49969C1.50041 2.39527 2.39578 1.49969 3.50024 1.49969H7.50024ZM13.0002 1.49969C13.8285 1.49983 14.5001 2.17149 14.5002 2.99969V5.99969C14.5002 6.82804 13.8286 7.49956 13.0002 7.49969H12.0002C11.1718 7.49969 10.5002 6.82812 10.5002 5.99969V2.99969C10.5004 2.17141 11.1719 1.49969 12.0002 1.49969H13.0002ZM3.50024 2.49969C2.94806 2.49969 2.50041 2.94755 2.50024 3.49969V5.49969C2.50024 6.05198 2.94796 6.49969 3.50024 6.49969H7.50024C8.05242 6.49956 8.50024 6.0519 8.50024 5.49969V3.49969C8.50008 2.94763 8.05231 2.49983 7.50024 2.49969H3.50024ZM12.0002 2.49969C11.7242 2.49969 11.5004 2.72369 11.5002 2.99969V5.99969C11.5002 6.27584 11.7241 6.49969 12.0002 6.49969H13.0002C13.2763 6.49956 13.5002 6.27576 13.5002 5.99969V2.99969C13.5001 2.72377 13.2762 2.49983 13.0002 2.49969H12.0002Z" fill="#010103"/>
</svg>
