<svg width="16" height="16" viewBox="0 0 16 16" fill="none" xmlns="http://www.w3.org/2000/svg">
<path d="M9 2.40039C9.33137 2.40039 9.59961 2.66863 9.59961 3V13C9.59961 13.3314 9.33137 13.5996 9 13.5996C8.66863 13.5996 8.40039 13.3314 8.40039 13V8.59961H2.59961V13C2.59961 13.3314 2.33137 13.5996 2 13.5996C1.66863 13.5996 1.40039 13.3314 1.40039 13V3C1.40039 2.66863 1.66863 2.40039 2 2.40039C2.33137 2.40039 2.59961 2.66863 2.59961 3V7.40039H8.40039V3C8.40039 2.66863 8.66863 2.40039 9 2.40039ZM12.5 6.5C13.4694 6.5 14.0242 7.0753 14.2725 7.43555C14.4588 7.70605 14.5 8.00888 14.5 8.24707C14.5 8.64535 14.3774 9.03375 14.1494 9.36035L11.959 12.5H14C14.2761 12.5 14.5 12.7239 14.5 13C14.5 13.2761 14.2761 13.5 14 13.5H11C10.8138 13.5 10.6428 13.3965 10.5566 13.2314C10.4705 13.0663 10.4833 12.8666 10.5898 12.7139L13.3301 8.78809C13.4407 8.6294 13.5 8.44053 13.5 8.24707C13.5 8.112 13.4747 8.04 13.4492 8.00293C13.3037 7.79179 13.0161 7.5 12.5 7.5C12.109 7.5 11.856 7.66436 11.6914 7.83203C11.6067 7.91841 11.5464 8.00585 11.5078 8.07031C11.4888 8.10216 11.4752 8.12745 11.4678 8.14258C11.4642 8.14995 11.4627 8.15537 11.4619 8.15723V8.15527L11.4629 8.1543V8.15332C11.3586 8.40867 11.0671 8.53168 10.8115 8.42773C10.5558 8.32373 10.4333 8.03208 10.5371 7.77637L10.9902 7.95996L10.5371 7.77539L10.5381 7.77441L10.541 7.76562C10.5428 7.76135 10.5452 7.75604 10.5479 7.75C10.5533 7.73779 10.5602 7.72187 10.5693 7.70312C10.5877 7.66552 10.6144 7.6152 10.6494 7.55664C10.719 7.44032 10.8259 7.28643 10.9775 7.13184C11.2861 6.8174 11.7834 6.5 12.5 6.5Z" fill="#010103"/>
</svg>
