<svg width="16" height="16" viewBox="0 0 16 16" fill="none" xmlns="http://www.w3.org/2000/svg">
<path d="M9 2.40039C9.33137 2.40039 9.59961 2.66863 9.59961 3V13C9.59961 13.3314 9.33137 13.5996 9 13.5996C8.66863 13.5996 8.40039 13.3314 8.40039 13V8.59961H2.59961V13C2.59961 13.3314 2.33137 13.5996 2 13.5996C1.66863 13.5996 1.40039 13.3314 1.40039 13V3C1.40039 2.66863 1.66863 2.40039 2 2.40039C2.33137 2.40039 2.59961 2.66863 2.59961 3V7.40039H8.40039V3C8.40039 2.66863 8.66863 2.40039 9 2.40039ZM12.5 5.5C13.6046 5.5 14.5 6.39543 14.5 7.5V7.71094C14.4999 8.42785 14.1523 9.08935 13.585 9.5C14.1523 9.91065 14.4999 10.5721 14.5 11.2891V11.5C14.5 12.6046 13.6046 13.5 12.5 13.5H12.4004C11.351 13.5 10.5 12.649 10.5 11.5996C10.5002 11.3236 10.724 11.0996 11 11.0996C11.276 11.0996 11.4998 11.3236 11.5 11.5996C11.5 12.0967 11.9033 12.5 12.4004 12.5H12.5C13.0523 12.5 13.5 12.0523 13.5 11.5V11.2891C13.4999 10.819 13.2277 10.3913 12.8018 10.1924L12.2881 9.95312C12.1123 9.8709 12 9.69412 12 9.5C12 9.30588 12.1123 9.1291 12.2881 9.04688L12.8018 8.80762C13.2277 8.6087 13.4999 8.18102 13.5 7.71094V7.5C13.5 6.94772 13.0523 6.5 12.5 6.5H12.4004C11.9033 6.5 11.5 6.9034 11.5 7.40039C11.4998 7.67635 11.276 7.90039 11 7.90039C10.724 7.90039 10.5002 7.67635 10.5 7.40039C10.5 6.35098 11.3511 5.5 12.4004 5.5H12.5Z" fill="#010103"/>
</svg>
