<svg width="16" height="16" viewBox="0 0 16 16" fill="none" xmlns="http://www.w3.org/2000/svg">
<path opacity="0.08" d="M6 10L3.5 12L2.5 10.5L2 8L3 4.5L6 2H9.5L12.5 4L14 6.5V9.5L12 12.5L8 14L5.5 13.5L4 12L6.5 10L8 11L10 10L10.5 7.5L9.5 5.5H7L5.5 7.5L6 10Z" fill="#010103"/>
<path d="M8 1.5C11.5899 1.5 14.5 4.41015 14.5 8C14.5 11.5899 11.5899 14.5 8 14.5C4.41015 14.5 1.5 11.5899 1.5 8C1.5 4.41015 4.41015 1.5 8 1.5ZM9.85449 10.5615C9.33277 10.9399 8.69377 11.167 8 11.167C7.30595 11.167 6.66637 10.9402 6.14453 10.5615L4.48047 12.2256C5.43429 13.0209 6.66101 13.5 8 13.5C9.33872 13.5 10.5648 13.0206 11.5186 12.2256L9.85449 10.5615ZM3.77344 4.48047C2.97837 5.43422 2.5 6.66123 2.5 8C2.5 9.3385 2.97865 10.5649 3.77344 11.5186L5.4375 9.85449C5.05933 9.33285 4.83301 8.69356 4.83301 8C4.83301 7.30615 5.05905 6.66628 5.4375 6.14453L3.77344 4.48047ZM10.5615 6.14453C10.9402 6.66637 11.167 7.30595 11.167 8C11.167 8.69377 10.9399 9.33277 10.5615 9.85449L12.2256 11.5186C13.0206 10.5648 13.5 9.33872 13.5 8C13.5 6.66101 13.0209 5.43429 12.2256 4.48047L10.5615 6.14453ZM8 5.83301C6.80338 5.83301 5.83301 6.80338 5.83301 8C5.83301 9.19662 6.80338 10.167 8 10.167C9.19662 10.167 10.167 9.19662 10.167 8C10.167 6.80338 9.19662 5.83301 8 5.83301ZM8 2.5C6.66123 2.5 5.43422 2.97837 4.48047 3.77344L6.14453 5.4375C6.66628 5.05905 7.30615 4.83301 8 4.83301C8.69356 4.83301 9.33285 5.05933 9.85449 5.4375L11.5186 3.77344C10.5649 2.97865 9.3385 2.5 8 2.5Z" fill="#010103"/>
</svg>
