<svg width="16" height="16" viewBox="0 0 16 16" fill="none" xmlns="http://www.w3.org/2000/svg">
<path opacity="0.08" d="M5.27924 9H3.61726C3.02125 9 2.55756 9.51807 2.62338 10.1104L2.7529 11.2761C2.89357 12.5422 3.96373 13.5 5.23761 13.5H10.7624C12.0363 13.5 13.1064 12.5422 13.2471 11.2761L13.3766 10.1104C13.4424 9.51807 12.9787 9 12.3827 9H10.7208C10.2903 9 9.91153 9.28395 9.65618 9.63045C9.35383 10.0407 8.83 10.5 8 10.5C7.17 10.5 6.64617 10.0407 6.34382 9.63045C6.08847 9.28395 5.70967 9 5.27924 9Z" fill="#87888A"/>
<path d="M10.0104 2C11.4073 2 12.62 2.96414 12.9342 4.3252L13.8912 8.47266C13.9673 8.80223 13.9872 9.14235 13.9498 9.47852L13.7438 11.3311C13.5749 12.8502 12.2908 13.9999 10.7623 14H5.23694C3.70857 13.9997 2.42427 12.8501 2.25549 11.3311L2.04944 9.47852C2.0121 9.1424 2.03201 8.80218 2.10803 8.47266L3.06506 4.3252C3.37919 2.96437 4.59136 2.00038 5.98792 2H10.0104ZM3.24963 11.2207C3.36214 12.2334 4.21812 12.9997 5.23694 13H10.7623C11.7813 12.9999 12.6371 12.2334 12.7496 11.2207L12.941 9.5H10.7203C10.5142 9.5002 10.2661 9.64472 10.0582 9.92676C9.69959 10.4133 9.04306 11 7.99963 11C6.9563 10.9999 6.2996 10.4133 5.94104 9.92676C5.75905 9.67993 5.54639 9.5384 5.35803 9.50684L5.27893 9.5H3.05823L3.24963 11.2207ZM5.98792 3C5.05711 3.00038 4.24919 3.64286 4.03967 4.5498L3.12854 8.5H5.27893L5.40002 8.50488C5.99635 8.55291 6.46201 8.94907 6.74573 9.33398C6.99178 9.66787 7.38339 9.99987 7.99963 10C8.61598 10 9.00743 9.66787 9.25354 9.33398C9.55612 8.92341 10.066 8.50018 10.7203 8.5H12.8707L11.9596 4.5498C11.75 3.64263 10.9415 3 10.0104 3H5.98792Z" fill="#010103"/>
</svg>
