<svg width="16" height="16" viewBox="0 0 16 16" fill="none" xmlns="http://www.w3.org/2000/svg">
<path opacity="0.08" d="M5.25629 3C5.69776 3.00014 6.08645 3.29001 6.21332 3.71289L6.57855 4.92773C6.68423 5.28001 6.58755 5.66175 6.32758 5.92188L6.19769 6.05273C5.8959 6.35452 5.81356 6.81791 6.03363 7.18359C6.71946 8.32316 7.67726 9.28098 8.81683 9.9668C9.18245 10.1866 9.64602 10.1044 9.94769 9.80273L10.0776 9.67188C10.3376 9.41197 10.7195 9.31633 11.0717 9.42188L12.2875 9.78613C12.7104 9.91308 13.0004 10.3026 13.0004 10.7441V12C13.0004 12.5523 12.551 13.0056 12.0014 12.9512C7.276 12.4827 3.51795 8.72437 3.04926 3.99902C2.99477 3.44943 3.44814 3 4.00043 3H5.25629Z" fill="#010103"/>
<path d="M5.25549 2.4996C5.91774 2.4996 6.50153 2.93471 6.69202 3.56894L7.05725 4.78378C7.21579 5.31231 7.07144 5.88578 6.68127 6.27597L6.55042 6.40585C6.39214 6.56416 6.37361 6.77875 6.46155 6.92538C7.10519 7.99487 8.00441 8.89397 9.07385 9.53769C9.22049 9.62593 9.43491 9.60725 9.59338 9.44882L9.72327 9.31796C10.1133 8.9279 10.687 8.78366 11.2155 8.94198L12.4303 9.30722C13.0646 9.49752 13.4995 10.0815 13.4996 10.7437V11.9996C13.4996 12.8132 12.8286 13.5347 11.9518 13.4478C6.98929 12.9557 3.0434 9.00999 2.55139 4.04745C2.46479 3.17094 3.18631 2.4998 3.99963 2.4996H5.25549ZM3.99963 3.4996C3.7091 3.49978 3.52479 3.72677 3.54651 3.94882C3.9915 8.4371 7.56219 12.0076 12.0504 12.4527C12.2727 12.4747 12.4996 12.2905 12.4996 11.9996V10.7437C12.4995 10.5231 12.3546 10.3277 12.1432 10.2642L10.9283 9.89999C10.7523 9.84735 10.5612 9.89602 10.4313 10.026L10.3004 10.1558C9.85531 10.6009 9.14291 10.746 8.55823 10.3941C7.34903 9.66628 6.33288 8.65025 5.6051 7.44101C5.25358 6.8564 5.39843 6.14381 5.84338 5.69882L5.97327 5.56796C6.10332 5.43789 6.1521 5.24706 6.09924 5.07089L5.73499 3.85604C5.67139 3.64481 5.47614 3.4996 5.25549 3.4996H3.99963ZM12.6461 2.64608C12.8413 2.45096 13.1579 2.45121 13.3531 2.64608C13.5484 2.84134 13.5484 3.15785 13.3531 3.35312L11.2067 5.4996H12.9996C13.2756 5.4996 13.4994 5.72364 13.4996 5.9996C13.4996 6.27574 13.2758 6.4996 12.9996 6.4996H9.99963C9.96688 6.49958 9.93422 6.49626 9.90198 6.48983C9.88617 6.48669 9.87131 6.48076 9.85608 6.47616C9.84013 6.47135 9.82373 6.46795 9.80823 6.46151C9.78736 6.45283 9.76798 6.44157 9.74866 6.43026C9.7404 6.42543 9.7313 6.42194 9.72327 6.41659C9.64104 6.36186 9.57593 6.28338 9.53772 6.19101C9.52845 6.16855 9.52307 6.145 9.51721 6.12167C9.50739 6.08256 9.49963 6.04176 9.49963 5.9996V2.9996C9.49985 2.72376 9.72379 2.4998 9.99963 2.4996C10.2756 2.4996 10.4994 2.72364 10.4996 2.9996V4.79257L12.6461 2.64608Z" fill="#010103"/>
</svg>
