<svg width="16" height="16" viewBox="0 0 16 16" fill="none" xmlns="http://www.w3.org/2000/svg">
<path opacity="0.08" d="M12.4194 3.58058C13.591 4.75215 13.5755 6.66709 12.3849 7.85771C11.7336 8.50903 10.8655 8.80867 10.021 8.7547C9.66723 8.7321 9.30295 8.81837 9.05231 9.06901L8.47065 9.65066C8.36241 9.7589 8.23077 9.84085 8.08586 9.89019L7.48528 10.0947C7.19159 10.1947 6.96095 10.4253 6.86096 10.719L6.65647 11.3196C6.60713 11.4645 6.52518 11.5961 6.41694 11.7044L5.84 12.2813C5.62714 12.4942 5.32973 12.5998 5.03029 12.5689L4.3893 12.5028C3.91818 12.4542 3.54576 12.0818 3.49717 11.6107L3.43106 10.9697C3.40018 10.6703 3.50582 10.3729 3.71867 10.16L6.93099 6.94769C7.18163 6.69705 7.2679 6.33276 7.24529 5.97902C7.19132 5.13446 7.49096 4.26639 8.14228 3.61507C9.33291 2.42445 11.2478 2.40901 12.4194 3.58058Z" fill="#010103"/>
<path d="M7.78876 3.26178C9.1692 1.88133 11.4009 1.85456 12.7731 3.22662C14.1453 4.59881 14.1185 6.83051 12.738 8.211C12.2373 8.71165 11.6249 9.03463 10.9821 9.17682C10.5337 9.27595 10.1187 9.35943 9.73212 9.49225C9.3524 9.62277 9.0386 9.78928 8.79852 10.0294L8.65985 10.169C8.60577 10.223 8.53885 10.2635 8.46649 10.2881L7.41376 10.6465L7.05438 11.7003C7.02974 11.7726 6.98928 11.8395 6.93524 11.8936L5.85712 12.9708C5.7508 13.0771 5.60238 13.1296 5.45282 13.1143L3.52997 12.9171C3.2945 12.8928 3.10809 12.7062 3.08368 12.4708L2.88544 10.5469C2.87024 10.3975 2.92274 10.2489 3.02899 10.1426L5.9704 7.20123C6.21051 6.96113 6.37698 6.64742 6.50751 6.26764C6.64029 5.8812 6.72384 5.46685 6.82294 5.01862C6.96509 4.3757 7.28802 3.76257 7.78876 3.26178ZM12.0661 3.93365C11.0951 2.96282 9.4965 2.9681 8.49579 3.96881C8.13314 4.33151 7.90155 4.77291 7.7995 5.23444C7.70739 5.65109 7.60988 6.13746 7.4538 6.59186C7.29532 7.0531 7.06384 7.52185 6.67743 7.90826L3.90399 10.6817L4.0368 11.9639L5.31805 12.0958L6.14618 11.2676L6.54657 10.0919C6.59661 9.94537 6.71159 9.82937 6.85809 9.77936L8.03387 9.37994L8.09149 9.32233C8.4779 8.93592 8.94666 8.70444 9.4079 8.54596C9.86222 8.38989 10.3487 8.29333 10.7653 8.20123C11.2269 8.09919 11.6682 7.86664 12.0309 7.50397C13.0317 6.50321 13.0371 4.90461 12.0661 3.93365ZM9.59052 4.99518C9.98104 4.60465 10.615 4.60465 11.0056 4.99518C11.3957 5.38572 11.3959 6.01884 11.0056 6.40924C10.615 6.79977 9.98104 6.79977 9.59052 6.40924C9.20026 6.01885 9.20047 5.3857 9.59052 4.99518Z" fill="#010103"/>
</svg>
