<svg xmlns="http://www.w3.org/2000/svg" xmlns:xlink="http://www.w3.org/1999/xlink" preserveAspectRatio="xMidYMid meet" width="32" height="32" viewBox="0 0 32 32" style="width:100%;height:100%"><defs><animate repeatCount="indefinite" dur="1.7017017s" begin="0s" xlink:href="#_R_G_L_1_G_D_0_P_0" fill="freeze" attributeName="d" attributeType="XML" from="M1 11.85 C1.17,11.85 1.34,11.81 1.5,11.72 C2.34,11.28 4.06,10.43 5.51,10.12 C6.05,10 6.5,9.55 6.5,9 C6.5,9 6.5,2 6.5,2 C6.5,1.44 6.05,1 5.51,1.12 C4.06,1.44 2.34,2.28 1.5,2.72 C1.34,2.81 1.17,2.85 1,2.85 " to="M1 11.85 C1.17,11.85 0.97,11.75 0.88,11.65 C0.61,11.17 1.09,10.55 0.95,10.03 C0.95,9.92 0.99,9.45 0.99,8.9 C0.99,8.9 0.99,1.9 0.99,1.9 C0.99,1.35 0.93,0.96 0.95,1.03 C1.13,1.46 0.71,2.24 0.84,2.74 C0.84,2.82 1.17,2.85 1,2.85 " keyTimes="0;0.1960784;1" values="M1 11.85 C1.17,11.85 1.34,11.81 1.5,11.72 C2.34,11.28 4.06,10.43 5.51,10.12 C6.05,10 6.5,9.55 6.5,9 C6.5,9 6.5,2 6.5,2 C6.5,1.44 6.05,1 5.51,1.12 C4.06,1.44 2.34,2.28 1.5,2.72 C1.34,2.81 1.17,2.85 1,2.85 ;M1 11.85 C1.17,11.85 0.97,11.75 0.88,11.65 C0.61,11.17 1.09,10.55 0.95,10.03 C0.95,9.92 0.99,9.45 0.99,8.9 C0.99,8.9 0.99,1.9 0.99,1.9 C0.99,1.35 0.93,0.96 0.95,1.03 C1.13,1.46 0.71,2.24 0.84,2.74 C0.84,2.82 1.17,2.85 1,2.85 ;M1 11.85 C1.17,11.85 0.97,11.75 0.88,11.65 C0.61,11.17 1.09,10.55 0.95,10.03 C0.95,9.92 0.99,9.45 0.99,8.9 C0.99,8.9 0.99,1.9 0.99,1.9 C0.99,1.35 0.93,0.96 0.95,1.03 C1.13,1.46 0.71,2.24 0.84,2.74 C0.84,2.82 1.17,2.85 1,2.85 " keySplines="0.333 0 0.833 0.833;0 0 0 0" calcMode="spline"/><animate repeatCount="indefinite" dur="1.7017017s" begin="0s" xlink:href="#_R_G_L_1_G_M" fill="freeze" attributeName="opacity" from="1" to="0" keyTimes="0;0.2156863;0.2156863;1" values="1;1;0;0" keySplines="0 0 0 0;0 0 0 0;0 0 0 0" calcMode="spline"/><animate repeatCount="indefinite" dur="1.7017017s" begin="0s" xlink:href="#_R_G_L_0_G_D_0_P_0" fill="freeze" attributeName="d" attributeType="XML" from="M0.96 11.85 C0.78,11.85 1.4,11.8 1.4,11.73 C1.59,11.26 0.78,10.56 0.74,10.11 C1.05,9.81 0.94,9.53 0.94,8.98 C0.94,8.98 0.94,1.97 0.94,1.97 C0.94,1.42 1.02,0.91 0.74,1.11 C0.75,1.46 1.42,2.36 1.34,2.73 C1.33,2.8 0.78,2.85 0.96,2.85 " to="M0.96 11.85 C0.78,11.85 0.61,11.81 0.46,11.72 C-0.38,11.28 -2.11,10.43 -3.55,10.12 C-4.09,10 -4.54,9.55 -4.54,9 C-4.54,9 -4.54,2 -4.54,2 C-4.54,1.44 -4.09,1 -3.55,1.12 C-2.11,1.44 -0.38,2.28 0.46,2.72 C0.61,2.81 0.78,2.85 0.96,2.85 " keyTimes="0;0.2156863;0.3921569;1" values="M0.96 11.85 C0.78,11.85 1.4,11.8 1.4,11.73 C1.59,11.26 0.78,10.56 0.74,10.11 C1.05,9.81 0.94,9.53 0.94,8.98 C0.94,8.98 0.94,1.97 0.94,1.97 C0.94,1.42 1.02,0.91 0.74,1.11 C0.75,1.46 1.42,2.36 1.34,2.73 C1.33,2.8 0.78,2.85 0.96,2.85 ;M0.96 11.85 C0.78,11.85 1.4,11.8 1.4,11.73 C1.59,11.26 0.78,10.56 0.74,10.11 C1.05,9.81 0.94,9.53 0.94,8.98 C0.94,8.98 0.94,1.97 0.94,1.97 C0.94,1.42 1.02,0.91 0.74,1.11 C0.75,1.46 1.42,2.36 1.34,2.73 C1.33,2.8 0.78,2.85 0.96,2.85 ;M0.96 11.85 C0.78,11.85 0.61,11.81 0.46,11.72 C-0.38,11.28 -2.11,10.43 -3.55,10.12 C-4.09,10 -4.54,9.55 -4.54,9 C-4.54,9 -4.54,2 -4.54,2 C-4.54,1.44 -4.09,1 -3.55,1.12 C-2.11,1.44 -0.38,2.28 0.46,2.72 C0.61,2.81 0.78,2.85 0.96,2.85 ;M0.96 11.85 C0.78,11.85 0.61,11.81 0.46,11.72 C-0.38,11.28 -2.11,10.43 -3.55,10.12 C-4.09,10 -4.54,9.55 -4.54,9 C-4.54,9 -4.54,2 -4.54,2 C-4.54,1.44 -4.09,1 -3.55,1.12 C-2.11,1.44 -0.38,2.28 0.46,2.72 C0.61,2.81 0.78,2.85 0.96,2.85 " keySplines="0.167 0.167 0.833 0.833;0.167 0.167 0.833 0.833;0 0 0 0" calcMode="spline"/><animate repeatCount="indefinite" dur="1.7017017s" begin="0s" xlink:href="#_R_G_L_0_G_M" fill="freeze" attributeName="opacity" from="0" to="0" keyTimes="0;0.2156863;0.2156882;0.3921569;0.3921569;1" values="0;0;1;1;0;0" keySplines="0 0 0 0;0 0 0 0;0 0 0 0;0 0 0 0;0 0 0 0" calcMode="spline"/><animate attributeType="XML" attributeName="opacity" dur="2s" from="0" to="1" xlink:href="#time_group"/></defs><g id="_R_G"><g id="_R_G_L_3_G" transform=" translate(16, 15.926) scale(2.5, 2.5) translate(-6.5, -6.444)"><path id="_R_G_L_3_G_D_0_P_0" stroke="#616163" stroke-linecap="round" stroke-linejoin="round" fill="none" stroke-width="1" stroke-opacity="1" d=" M12 9 C12,9 12,2 12,2 C12,1.44 11.55,1 11.01,1.12 C9.57,1.43 7.84,2.28 7,2.72 C6.69,2.89 6.31,2.89 6,2.72 C5.16,2.28 3.43,1.43 1.99,1.12 C1.45,1 1,1.44 1,2 C1,2 1,9 1,9 C1,9.55 1.45,10 1.99,10.12 C3.43,10.43 5.16,11.28 6,11.72 C6.31,11.89 6.69,11.89 7,11.72 C7.84,11.28 9.57,10.43 11.01,10.12 C11.55,10 12,9.55 12,9z "/></g><g id="_R_G_L_2_G" transform=" translate(15.928, 17.936) scale(1, 0.89388) translate(0.072, -1.936)"><path id="_R_G_L_2_G_D_0_P_0" fill="#f0f0f0" fill-opacity="1" fill-rule="nonzero" d=" M-0.07 -9.49 C-0.07,-9.49 -0.07,13.36 -0.07,13.36 "/><path id="_R_G_L_2_G_D_1_P_0" stroke="#616163" stroke-linecap="round" stroke-linejoin="round" fill="none" stroke-width="3" stroke-opacity="1" d=" M-0.07 -9.49 C-0.07,-9.49 -0.07,13.36 -0.07,13.36 "/></g><g id="_R_G_L_1_G_M"><g id="_R_G_L_1_G" transform=" translate(22.875, 15.875) scale(2.5, 2.5) translate(-3.75, -6.424)"><path id="_R_G_L_1_G_D_0_P_0" stroke="#616163" stroke-linecap="round" stroke-linejoin="round" fill="none" stroke-width="1" stroke-opacity="1" d=" M1 11.85 C1.17,11.85 1.34,11.81 1.5,11.72 C2.34,11.28 4.06,10.43 5.51,10.12 C6.05,10 6.5,9.55 6.5,9 C6.5,9 6.5,2 6.5,2 C6.5,1.44 6.05,1 5.51,1.12 C4.06,1.44 2.34,2.28 1.5,2.72 C1.34,2.81 1.17,2.85 1,2.85 "/></g></g><g id="_R_G_L_0_G_M"><g id="_R_G_L_0_G" transform=" translate(22.985, 15.875) scale(2.5, 2.5) translate(-3.75, -6.424)"><path id="_R_G_L_0_G_D_0_P_0" stroke="#616163" stroke-linecap="round" stroke-linejoin="round" fill="none" stroke-width="1" stroke-opacity="1" d=" M0.96 11.85 C0.78,11.85 1.4,11.8 1.4,11.73 C1.59,11.26 0.78,10.56 0.74,10.11 C1.05,9.81 0.94,9.53 0.94,8.98 C0.94,8.98 0.94,1.97 0.94,1.97 C0.94,1.42 1.02,0.91 0.74,1.11 C0.75,1.46 1.42,2.36 1.34,2.73 C1.33,2.8 0.78,2.85 0.96,2.85 "/></g></g></g><g id="time_group"/></svg>