<svg width="16" height="16" viewBox="0 0 16 16" fill="none" xmlns="http://www.w3.org/2000/svg">
<path opacity="0.08" d="M14 9.5V6.5H9C5.96243 6.5 3.5 8.96243 3.5 12H4.5L5 13.5L8 12H11.5C12.8807 12 14 10.8807 14 9.5Z" fill="#010103"/>
<path d="M12.5 2.5C13.6046 2.5 14.5 3.39543 14.5 4.5V10.5C14.5 11.6046 13.6046 12.5 12.5 12.5H8.26562C8.17871 12.5 8.09306 12.5224 8.01758 12.5654L5.84668 13.8066C5.02379 14.2765 4 13.6821 4 12.7344C3.99997 12.6049 3.89505 12.5 3.76562 12.5H3.5C2.39543 12.5 1.5 11.6046 1.5 10.5V4.5C1.5 3.39543 2.39543 2.5 3.5 2.5H12.5ZM3.5 3.5C2.94772 3.5 2.5 3.94772 2.5 4.5V10.5C2.5 11.0523 2.94772 11.5 3.5 11.5H3.76562C4.44734 11.5 4.99997 12.0527 5 12.7344C5 12.9144 5.1943 13.0268 5.35059 12.9375L7.52148 11.6973C7.74807 11.5678 8.00468 11.5 8.26562 11.5H12.5C13.0523 11.5 13.5 11.0523 13.5 10.5V4.5C13.5 3.94772 13.0523 3.5 12.5 3.5H3.5Z" fill="#010103"/>
<path d="M4.5 6.5H9.5" stroke="#010103" stroke-linecap="round"/>
<path d="M4.5 8.5H11.5" stroke="#010103" stroke-linecap="round"/>
</svg>
