<svg width="16" height="16" viewBox="0 0 16 16" fill="none" xmlns="http://www.w3.org/2000/svg">
<path opacity="0.08" d="M13.5 8C13.5 8.72227 13.3577 9.43747 13.0813 10.1048C12.8049 10.772 12.3998 11.3784 11.8891 11.8891C11.3784 12.3998 10.772 12.8049 10.1048 13.0813C9.43747 13.3577 8.72227 13.5 8 13.5C7.27773 13.5 6.56253 13.3577 5.89524 13.0813C5.22795 12.8049 4.62163 12.3998 4.11091 11.8891C3.60019 11.3784 3.19506 10.772 2.91866 10.1048C2.64226 9.43747 2.5 8.72227 2.5 8C2.5 7.27773 2.64226 6.56253 2.91866 5.89524C3.19506 5.22795 3.60019 4.62163 4.11091 4.11091C4.62164 3.60019 5.22795 3.19506 5.89524 2.91866C6.56253 2.64226 7.27773 2.5 8 2.5C8.72227 2.5 9.43747 2.64226 10.1048 2.91866C10.7721 3.19506 11.3784 3.60019 11.8891 4.11091C12.3998 4.62164 12.8049 5.22795 13.0813 5.89524C13.3577 6.56253 13.5 7.27773 13.5 8L13.5 8Z" stroke="#010103" stroke-linecap="round"/>
<path d="M6.14551 2.29416C7.35057 1.90261 8.64943 1.90261 9.85449 2.29416C10.1168 2.37969 10.2601 2.66158 10.1748 2.92404C10.0893 3.18639 9.8074 3.33058 9.54492 3.24533C8.54072 2.91905 7.45928 2.91905 6.45508 3.24533C5.45089 3.57163 4.57571 4.20752 3.95508 5.06174C3.3346 5.91591 3 6.94446 3 8.00021C3.00004 9.05595 3.33458 10.0846 3.95508 10.9387C4.57571 11.7929 5.45091 12.4288 6.45508 12.7551C7.45924 13.0813 8.54076 13.0813 9.54492 12.7551C10.5491 12.4288 11.4243 11.7929 12.0449 10.9387C12.6654 10.0846 13 9.05595 13 8.00021C13 7.72407 13.2239 7.50021 13.5 7.50021C13.7761 7.50021 14 7.72407 14 8.00021C14 9.26705 13.599 10.5016 12.8545 11.5266C12.1098 12.5515 11.0593 13.3147 9.85449 13.7063C8.64947 14.0978 7.35053 14.0978 6.14551 13.7063C4.94068 13.3147 3.89018 12.5515 3.14551 11.5266C2.40097 10.5016 2.00004 9.26705 2 8.00021C2 6.73336 2.40099 5.49882 3.14551 4.47385C3.89017 3.4489 4.94066 2.68576 6.14551 2.29416Z" fill="#010103"/>
</svg>
