<svg width="16" height="16" viewBox="0 0 16 16" fill="none" xmlns="http://www.w3.org/2000/svg">
<path d="M8 2C11.3137 2 14 4.68629 14 8C14 11.3137 11.3137 14 8 14C4.68629 14 2 11.3137 2 8C2 4.68629 4.68629 2 8 2ZM8 3C7.88841 3 7.77774 3.00452 7.66797 3.01172C7.64352 3.01335 7.61913 3.01559 7.59473 3.01758C6.85725 3.07675 6.16517 3.29518 5.55273 3.63965C5.54066 3.64643 5.52862 3.65328 5.5166 3.66016C5.31452 3.77604 5.12156 3.90582 4.93848 4.04785C4.92782 4.05611 4.91683 4.06393 4.90625 4.07227C4.73313 4.20882 4.56955 4.35679 4.41602 4.51465C4.39338 4.53793 4.37081 4.56125 4.34863 4.58496C4.03259 4.92273 3.76308 5.30433 3.5498 5.71973C3.54151 5.73592 3.53351 5.75227 3.52539 5.76855C3.31493 6.18975 3.16182 6.64448 3.07715 7.12305C3.07477 7.13638 3.07258 7.14974 3.07031 7.16309C3.03322 7.38316 3.01124 7.60807 3.00391 7.83691C3.00309 7.86198 3.00239 7.88703 3.00195 7.91211C3.00145 7.94135 3 7.97064 3 8C3 8.06575 3.00237 8.13116 3.00488 8.19629C3.00562 8.21515 3.0049 8.23407 3.00586 8.25293C3.01134 8.36299 3.02169 8.472 3.03418 8.58008C3.03665 8.60125 3.03925 8.6224 3.04199 8.64355C3.16861 9.62877 3.58158 10.5239 4.19531 11.2432C4.20743 11.2574 4.22014 11.2711 4.23242 11.2852C4.38108 11.4555 4.54073 11.6158 4.71094 11.7646C4.72589 11.7777 4.74076 11.7908 4.75586 11.8037C5.39317 12.3478 6.16853 12.734 7.02246 12.9033L7.02441 12.9043C7.02596 12.9046 7.02775 12.904 7.0293 12.9043C7.13684 12.9255 7.24557 12.9429 7.35547 12.957C7.37502 12.9596 7.3945 12.9625 7.41406 12.9648C7.52373 12.9776 7.63437 12.9876 7.74609 12.9932C7.76235 12.994 7.77866 12.9935 7.79492 12.9941C7.86296 12.9969 7.93128 13 8 13C8.02904 13 8.05799 12.9976 8.08691 12.9971C8.112 12.9966 8.13704 12.9959 8.16211 12.9951C8.39101 12.9878 8.61581 12.9658 8.83594 12.9287C8.84929 12.9264 8.86264 12.9242 8.87598 12.9219C9.35468 12.8373 9.80915 12.6841 10.2305 12.4736C10.2468 12.4655 10.2631 12.4575 10.2793 12.4492C10.4853 12.3435 10.6829 12.2241 10.8711 12.0918C10.8776 12.0872 10.8841 12.0827 10.8906 12.0781C11.0748 11.9473 11.2495 11.8044 11.4141 11.6504C11.44 11.6262 11.4658 11.6019 11.4912 11.5771C11.6467 11.4254 11.792 11.2636 11.9268 11.0928C11.9375 11.0791 11.9484 11.0655 11.959 11.0518C12.0982 10.8714 12.2249 10.6812 12.3389 10.4824C12.3457 10.4704 12.3526 10.4584 12.3594 10.4463C12.7039 9.83369 12.9224 9.14197 12.9814 8.4043C12.9834 8.37989 12.9857 8.35551 12.9873 8.33105C12.9945 8.22159 13 8.11128 13 8C13 5.23858 10.7614 3 8 3ZM8 4.19141C10.1034 4.19141 11.8086 5.89658 11.8086 8H8V4.19141Z" fill="#D14C4D"/>
</svg>
