<svg width="16" height="16" viewBox="0 0 16 16" fill="none" xmlns="http://www.w3.org/2000/svg">
<path opacity="0.08" d="M8.20914 11.3425L11.9125 11.4524C12.5821 11.4722 13.0815 10.841 12.9081 10.194L11.5737 5.2137L11.4084 5.25798C8.83234 5.94823 7.30359 8.59611 7.99384 11.1722C8.02013 11.2703 8.10763 11.3395 8.20914 11.3425Z" fill="#010103"/>
<path d="M9.51639 2.21616C10.3676 1.59727 11.575 2.02471 11.8474 3.04135L13.6824 9.88803C13.9544 10.9045 13.1224 11.8783 12.076 11.7679L10.5183 11.6019L10.5486 11.7171C10.763 12.5173 10.2882 13.3396 9.48807 13.554C8.68794 13.7684 7.8656 13.2936 7.65115 12.4935L7.32205 11.264L7.09549 11.2415C6.76574 11.2067 6.47391 11.0392 6.27322 10.7923L5.20193 11.0794C4.40181 11.2938 3.57855 10.819 3.36404 10.0189L2.84647 8.08627C2.63237 7.28622 3.10795 6.46373 3.90799 6.24936L4.97928 5.96225C5.02964 5.6481 5.19845 5.35753 5.46658 5.16245L9.51639 2.21616ZM8.61697 12.2347C8.68847 12.5013 8.96262 12.6596 9.22928 12.5882C9.49598 12.5168 9.6542 12.2426 9.58279 11.9759L9.45291 11.4886L8.38748 11.3773L8.61697 12.2347ZM10.8816 3.30014C10.7908 2.96123 10.388 2.81838 10.1043 3.02475L6.05545 5.97104C5.97916 6.02654 5.94412 6.12405 5.96854 6.21518L7.00369 10.0785C7.02811 10.1696 7.10714 10.2365 7.20096 10.2464L7.76834 10.306L9.90018 10.5326L12.1805 10.7728C12.5292 10.8097 12.807 10.4856 12.7166 10.1468L10.8816 3.30014ZM4.16678 7.21518C3.90012 7.28663 3.74195 7.56082 3.81326 7.82748L4.33084 9.7601C4.40251 10.0266 4.67657 10.185 4.94315 10.1136L5.90897 9.85483L5.1326 6.95639L4.16678 7.21518Z" fill="#010103"/>
</svg>
