<svg width="16" height="16" viewBox="0 0 16 16" fill="none" xmlns="http://www.w3.org/2000/svg">
<path opacity="0.08" d="M6.5 7L4 7C3.44772 7 3 6.55228 3 6V5.91421C3 5.649 3.10536 5.39464 3.29289 5.20711L5.70711 2.79289C5.89464 2.60536 6.149 2.5 6.41421 2.5H6.5C7.05228 2.5 7.5 2.94772 7.5 3.5L7.5 6C7.5 6.55228 7.05228 7 6.5 7Z" fill="#010103"/>
<path opacity="0.08" d="M13.2686 8.95625L12.9045 8.59218C12.6145 8.30219 12.1444 8.30219 11.8544 8.59218C11.5644 8.88216 11.5644 9.35232 11.8544 9.64231L12.2185 10.0064C12.5085 10.2964 12.9786 10.2964 13.2686 10.0064C13.5586 9.7164 13.5586 9.24624 13.2686 8.95625Z" fill="#010103"/>
<path d="M10 2C11.6569 2 13 3.34315 13 5V11C13 12.6569 11.6569 14 10 14H6C4.34315 14 3 12.6569 3 11V6.5H3.00195C3.01123 5.7172 3.32468 4.96829 3.87891 4.41406L5.41406 2.87891C5.97658 2.31639 6.73964 2.0001 7.53516 2H10ZM8 6C8 6.82843 7.32843 7.5 6.5 7.5H4V11C4 12.1046 4.89543 13 6 13H10C11.1046 13 12 12.1046 12 11V5C12 3.89543 11.1046 3 10 3H8V6ZM7 3.07422C6.67071 3.16581 6.36698 3.34005 6.12109 3.58594L4.58594 5.12109C4.21925 5.48778 4.01115 5.98243 4.00195 6.5H6.5C6.77614 6.5 7 6.27614 7 6V3.07422Z" fill="#010103"/>
</svg>
