<svg width="16" height="16" viewBox="0 0 16 16" fill="none" xmlns="http://www.w3.org/2000/svg">
<path opacity="0.08" d="M6.5 7L4 7C3.44772 7 3 6.55228 3 6V5.91421C3 5.649 3.10536 5.39464 3.29289 5.20711L5.70711 2.79289C5.89464 2.60536 6.149 2.5 6.41421 2.5H6.5C7.05228 2.5 7.5 2.94772 7.5 3.5L7.5 6C7.5 6.55228 7.05228 7 6.5 7Z" fill="#010103"/>
<path d="M12.5 10C12.7761 10 13 10.2239 13 10.5V11.9951H14.5C14.7761 11.9951 15 12.219 15 12.4951C14.9999 12.7712 14.7761 12.9951 14.5 12.9951H13V14.5C13 14.7761 12.7761 15 12.5 15C12.2239 15 12 14.7761 12 14.5V12.9951H10.5C10.2239 12.9951 10.0001 12.7712 10 12.4951C10 12.219 10.2239 11.9951 10.5 11.9951H12V10.5C12 10.2239 12.2239 10 12.5 10ZM10 2C11.6569 2 13 3.34315 13 5V8H12V5C12 3.89543 11.1046 3 10 3H8V6C8 6.82843 7.32843 7.5 6.5 7.5H4V11C4 12.1046 4.89543 13 6 13H8V14H6C4.34315 14 3 12.6569 3 11V6.12109C3.00006 5.59074 3.21092 5.08205 3.58594 4.70703L5.70703 2.58594C6.08205 2.21092 6.59074 2.00006 7.12109 2H10ZM7 3.00781C6.77948 3.03478 6.57276 3.13427 6.41406 3.29297L4.29297 5.41406C4.10549 5.60155 4.00006 5.85596 4 6.12109V6.5H6.5C6.77614 6.5 7 6.27614 7 6V3.00781Z" fill="#010103"/>
</svg>
