<svg width="16" height="16" viewBox="0 0 16 16" fill="none" xmlns="http://www.w3.org/2000/svg">
<path d="M3.9997 9.20612C4.61508 9.20612 4.97393 9.52789 5.1413 9.74226C5.2645 9.90008 5.29365 10.0846 5.29365 10.2296C5.29353 10.4666 5.21294 10.6965 5.06513 10.8819L3.61005 12.7061H4.9997C5.16214 12.7061 5.29365 12.8376 5.29365 13.0001C5.29363 13.1625 5.16213 13.294 4.9997 13.294H2.9997C2.88699 13.2939 2.7841 13.2295 2.73505 13.128C2.68612 13.0263 2.6999 12.9048 2.77021 12.8165L4.60517 10.5157C4.66994 10.4345 4.70564 10.3334 4.70576 10.2296C4.70576 10.1554 4.68923 10.1198 4.67744 10.1046C4.58465 9.98574 4.3814 9.79401 3.9997 9.79401C3.71324 9.7941 3.53071 9.9011 3.41865 10.001C3.36097 10.0525 3.31989 10.1037 3.29462 10.1407C3.28226 10.1588 3.27393 10.1733 3.26923 10.1817C3.26711 10.1855 3.26586 10.1885 3.26533 10.1895V10.1885L3.2663 10.1876V10.1866C3.19775 10.3337 3.0229 10.3976 2.87568 10.3292C2.72866 10.2606 2.66479 10.0857 2.7331 9.93855V9.93757L2.73408 9.93562C2.7345 9.93472 2.73546 9.93376 2.73603 9.93269C2.73729 9.9301 2.73907 9.92654 2.74091 9.92292C2.74463 9.91562 2.74939 9.90566 2.75556 9.8946C2.768 9.87234 2.78592 9.84283 2.80927 9.80866C2.85605 9.74025 2.92727 9.65061 3.02704 9.56159C3.23027 9.3804 3.54812 9.20621 3.9997 9.20612ZM12.9997 11.4005C13.3311 11.4005 13.5993 11.6687 13.5993 12.0001C13.5993 12.3314 13.3311 12.5997 12.9997 12.5997H7.9997C7.6685 12.5995 7.40012 12.3313 7.40009 12.0001C7.40009 11.6688 7.66848 11.4006 7.9997 11.4005H12.9997ZM12.9997 7.40046C13.3311 7.40046 13.5993 7.6687 13.5993 8.00007C13.5993 8.33142 13.3311 8.59968 12.9997 8.59968H7.9997C7.6685 8.5995 7.40012 8.33131 7.40009 8.00007C7.40009 7.66881 7.66848 7.40064 7.9997 7.40046H12.9997ZM4.33271 2.68952C4.44194 2.63078 4.57383 2.63386 4.68037 2.69733C4.78702 2.76104 4.85224 2.87584 4.85224 3.00007V6.50007C4.85221 6.69497 4.69461 6.85261 4.4997 6.85261C4.30494 6.85243 4.14719 6.69486 4.14716 6.50007V3.58991L3.16669 4.11823C2.99514 4.21032 2.78149 4.14617 2.68915 3.97468C2.59704 3.8032 2.6614 3.58957 2.83271 3.49714L4.33271 2.68952ZM12.9997 3.40046C13.3311 3.40046 13.5993 3.6687 13.5993 4.00007C13.5993 4.33142 13.3311 4.59968 12.9997 4.59968H7.9997C7.6685 4.5995 7.40012 4.33131 7.40009 4.00007C7.40009 3.66881 7.66848 3.40064 7.9997 3.40046H12.9997Z" fill="#010103"/>
</svg>
