<svg width="16" height="16" viewBox="0 0 16 16" fill="none" xmlns="http://www.w3.org/2000/svg">
<path d="M8 9.5C9.51602 9.5 10.9516 9.6247 12.0244 9.95996C13.0598 10.2836 14 10.8924 14 12C14 13.1076 13.0598 13.7164 12.0244 14.04C10.9516 14.3753 9.51602 14.5 8 14.5C7.65315 14.5 7.31196 14.4934 6.97949 14.4795C6.70361 14.4679 6.48845 14.2349 6.5 13.959C6.51157 13.6832 6.7448 13.4691 7.02051 13.4805C7.33775 13.4938 7.66549 13.5 8 13.5C9.48389 13.5 10.7984 13.3747 11.7256 13.085C12.6901 12.7835 13 12.3924 13 12C13 11.6076 12.6901 11.2165 11.7256 10.915C10.7984 10.6253 9.48389 10.5 8 10.5C7.66549 10.5 7.33775 10.5062 7.02051 10.5195C6.7448 10.5309 6.51157 10.3168 6.5 10.041C6.48845 9.76514 6.70361 9.53208 6.97949 9.52051C7.31196 9.50656 7.65315 9.5 8 9.5ZM8 2.5C9.65685 2.5 11 3.84315 11 5.5C11 7.15685 9.65685 8.5 8 8.5C6.34315 8.5 5 7.15685 5 5.5C5 3.84315 6.34315 2.5 8 2.5ZM8 3.5C6.89543 3.5 6 4.39543 6 5.5C6 6.60457 6.89543 7.5 8 7.5C9.10457 7.5 10 6.60457 10 5.5C10 4.39543 9.10457 3.5 8 3.5Z" fill="#010103"/>
<path d="M2 12H6M6 12L4 10M6 12L4 14" stroke="#010103" stroke-linecap="round" stroke-linejoin="round"/>
</svg>
