<svg width="16" height="16" viewBox="0 0 16 16" fill="none" xmlns="http://www.w3.org/2000/svg">
<path d="M11.1545 2.0036C12.7395 2.08402 14.0001 3.39481 14.0002 4.99969V10.9997C14.0002 12.6565 12.657 13.9996 11.0002 13.9997H5.00024C3.39514 13.9997 2.08446 12.7391 2.00415 11.154L2.00024 10.9997V4.99969C2.00041 3.34298 3.34349 1.99969 5.00024 1.99969H11.0002L11.1545 2.0036ZM5.00024 2.99969C3.89578 2.99969 3.00041 3.89527 3.00024 4.99969V10.9997L3.01099 11.2038C3.11325 12.2125 3.96459 12.9997 5.00024 12.9997H11.0002C12.1047 12.9996 13.0002 12.1042 13.0002 10.9997V4.99969C13.0001 3.96425 12.2128 3.11279 11.2043 3.01044L11.0002 2.99969H5.00024ZM5.50024 7.49969C5.77617 7.49983 6.00008 7.72377 6.00024 7.99969V10.9997C6.00024 11.2758 5.77627 11.4996 5.50024 11.4997C5.2241 11.4997 5.00024 11.2758 5.00024 10.9997V7.99969C5.00041 7.72369 5.2242 7.49969 5.50024 7.49969ZM8.00024 4.49969C8.27617 4.49983 8.50008 4.72377 8.50024 4.99969V10.9997C8.50024 11.2758 8.27627 11.4996 8.00024 11.4997C7.7241 11.4997 7.50024 11.2758 7.50024 10.9997V4.99969C7.50041 4.72369 7.7242 4.49969 8.00024 4.49969ZM10.5002 5.49969C10.7762 5.49983 11.0001 5.72377 11.0002 5.99969V10.9997C11.0002 11.2758 10.7763 11.4996 10.5002 11.4997C10.2241 11.4997 10.0002 11.2758 10.0002 10.9997V5.99969C10.0004 5.72369 10.2242 5.4997 10.5002 5.49969Z" fill="#010103"/>
</svg>
