<svg width="16" height="16" viewBox="0 0 16 16" fill="none" xmlns="http://www.w3.org/2000/svg">
<path d="M6.19794 1.38635C6.37977 1.17853 6.69617 1.15764 6.90399 1.33947L9.31415 3.44689C9.49006 3.60088 9.53508 3.85666 9.42352 4.06213L7.89618 6.8756C7.7644 7.11827 7.46013 7.20856 7.21747 7.07678C6.97496 6.94493 6.88553 6.64066 7.01727 6.39807L8.0788 4.44201C7.78447 4.41206 7.53755 4.42868 7.29852 4.47814C6.96348 4.54753 6.62233 4.68549 6.15399 4.89611C5.30916 5.27613 4.60216 5.90794 4.12958 6.70471C3.65706 7.50148 3.4417 8.42469 3.51337 9.34826C3.58509 10.2719 3.94006 11.1515 4.52997 11.8658C5.11979 12.58 5.91606 13.0944 6.80927 13.3395C7.70262 13.5845 8.65042 13.5483 9.52216 13.235C10.3938 12.9216 11.1475 12.3462 11.6804 11.5885C12.2131 10.8308 12.4996 9.92689 12.4997 9.0006C12.4997 8.72456 12.7237 8.50077 12.9997 8.5006C13.2758 8.5006 13.4997 8.72446 13.4997 9.0006C13.4996 10.1328 13.1499 11.2375 12.4987 12.1637C11.8475 13.0897 10.9263 13.7923 9.86102 14.1754C8.79551 14.5584 7.63657 14.6038 6.54462 14.3043C5.4528 14.0047 4.47942 13.3755 3.75848 12.5026C3.03751 11.6295 2.60395 10.5543 2.5163 9.42541C2.42875 8.29664 2.69171 7.16775 3.26923 6.19396C3.84685 5.22025 4.71132 4.44842 5.74384 3.984C6.21408 3.77252 6.6437 3.59335 7.09637 3.49963C7.31771 3.45384 7.54033 3.42885 7.77313 3.42736L6.24579 2.0924C6.03809 1.91067 6.01644 1.59418 6.19794 1.38635Z" fill="#010103"/>
</svg>
