<svg width="16" height="16" viewBox="0 0 16 16" fill="none" xmlns="http://www.w3.org/2000/svg">
<path opacity="0.08" d="M11 2.5H5C3.61929 2.5 2.5 3.61929 2.5 5V5.5H13.5V5C13.5 3.61929 12.3807 2.5 11 2.5Z" fill="#010103"/>
<path d="M12.2496 9C14.0445 9 15.4996 10.4551 15.4996 12.25C15.4996 14.0449 14.0445 15.5 12.2496 15.5C10.4549 15.4998 8.99957 14.0448 8.99957 12.25C8.99957 10.4552 10.4549 9.00024 12.2496 9ZM12.2496 10C11.0071 10.0002 9.99957 11.0075 9.99957 12.25C9.99957 13.4925 11.0071 14.4998 12.2496 14.5C13.4922 14.5 14.4996 13.4926 14.4996 12.25C14.4996 11.0074 13.4922 10 12.2496 10ZM10.9996 2C12.6564 2 13.9996 3.34315 13.9996 5V8H12.9996V6H2.99957V11C2.99957 12.1044 3.89521 12.9998 4.99957 13H7.99957V14H4.99957C3.34292 13.9998 1.99957 12.6567 1.99957 11V5C1.99957 3.34329 3.34292 2.00024 4.99957 2H10.9996ZM11.9996 11C12.2757 11 12.4996 11.2239 12.4996 11.5V12.1904L13.2232 12.5527C13.4702 12.6762 13.5703 12.9766 13.4468 13.2236C13.3233 13.4705 13.0229 13.5707 12.7759 13.4473L11.7759 12.9473C11.6068 12.8625 11.4996 12.6893 11.4996 12.5V11.5C11.4996 11.224 11.7236 11.0002 11.9996 11ZM4.99957 3C3.89521 3.00024 2.99957 3.89558 2.99957 5H12.9996C12.9996 3.89543 12.1041 3 10.9996 3H4.99957Z" fill="#010103"/>
</svg>
