<svg width="16" height="16" viewBox="0 0 16 16" fill="none" xmlns="http://www.w3.org/2000/svg">
<path opacity="0.08" d="M9 3V4C9 7.03757 6.53757 9.5 3.5 9.5L3.12574 6.88018C3.04569 6.31983 3.20683 5.75181 3.5692 5.31697L4.90031 3.71963C5.28029 3.26365 5.84319 3 6.43675 3H9Z" fill="#010103"/>
<path d="M7 2.5C9.48528 2.5 11.5 4.51472 11.5 7C11.5 8.06246 11.1304 9.0378 10.5146 9.80762L13.8535 13.1465C14.0488 13.3417 14.0488 13.6583 13.8535 13.8535C13.6583 14.0488 13.3417 14.0488 13.1465 13.8535L9.80762 10.5146C9.0378 11.1304 8.06246 11.5 7 11.5C4.51472 11.5 2.5 9.48528 2.5 7C2.5 4.51472 4.51472 2.5 7 2.5ZM7 3.5C5.067 3.5 3.5 5.067 3.5 7C3.5 8.933 5.067 10.5 7 10.5C8.933 10.5 10.5 8.933 10.5 7C10.5 5.067 8.933 3.5 7 3.5Z" fill="#010103"/>
</svg>
