<svg width="16" height="16" viewBox="0 0 16 16" fill="none" xmlns="http://www.w3.org/2000/svg">
<path opacity="0.08" d="M9 2C9.27614 2 9.5 2.22386 9.5 2.5V3.1709C9.50006 3.61628 10.0385 3.83932 10.3535 3.52441L10.8281 3.0498C11.0234 2.85459 11.3399 2.85459 11.5352 3.0498L12.9502 4.46484C13.1454 4.6601 13.1454 4.97662 12.9502 5.17188L12.4756 5.64648C12.1607 5.96145 12.3837 6.49994 12.8291 6.5H13.5C13.7761 6.5 14 6.72386 14 7V9C14 9.27614 13.7761 9.5 13.5 9.5H12.8291C12.3837 9.50006 12.1607 10.0385 12.4756 10.3535L12.9502 10.8281C13.1454 11.0234 13.1454 11.3399 12.9502 11.5352L11.5352 12.9502C11.3399 13.1454 11.0234 13.1454 10.8281 12.9502L10.3535 12.4756C10.0385 12.1607 9.50006 12.3837 9.5 12.8291V13.5C9.5 13.7761 9.27614 14 9 14H7C6.72386 14 6.5 13.7761 6.5 13.5V12.8291C6.49994 12.3837 5.96145 12.1607 5.64648 12.4756L5.17188 12.9502C4.97662 13.1454 4.6601 13.1454 4.46484 12.9502L3.0498 11.5352C2.85459 11.3399 2.85459 11.0234 3.0498 10.8281L3.52441 10.3535C3.83932 10.0385 3.61628 9.50006 3.1709 9.5H2.5C2.22386 9.5 2 9.27614 2 9V7C2 6.72386 2.22386 6.5 2.5 6.5H3.1709C3.61628 6.49994 3.83932 5.96145 3.52441 5.64648L3.0498 5.17188C2.85459 4.97662 2.85459 4.6601 3.0498 4.46484L4.46484 3.0498C4.6601 2.85459 4.97662 2.85459 5.17188 3.0498L5.64648 3.52441C5.96145 3.83932 6.49994 3.61628 6.5 3.1709V2.5C6.5 2.22386 6.72386 2 7 2H9ZM8 6C6.89543 6 6 6.89543 6 8C6 9.10457 6.89543 10 8 10C9.10457 10 10 9.10457 10 8C10 6.89543 9.10457 6 8 6Z" fill="#010103"/>
<path d="M9.10254 1.50488C9.60667 1.55621 10 1.98232 10 2.5V3.1709L10.4746 2.69629C10.8651 2.30582 11.4982 2.30581 11.8887 2.69629L13.3037 4.11133C13.6942 4.50184 13.6942 5.13488 13.3037 5.52539L12.8291 6H13.5C14.0523 6 14.5 6.44772 14.5 7V9C14.5 9.55228 14.0523 10 13.5 10H12.8291L13.3037 10.4746C13.6942 10.8651 13.6942 11.4982 13.3037 11.8887L11.8887 13.3037C11.4982 13.6942 10.8651 13.6942 10.4746 13.3037L10 12.8291V13.5C10 14.0523 9.55229 14.5 9 14.5H7C6.44772 14.5 6 14.0523 6 13.5V12.8291L5.52539 13.3037C5.13488 13.6942 4.50184 13.6942 4.11133 13.3037L2.69629 11.8887C2.30582 11.4982 2.30582 10.8651 2.69629 10.4746L3.1709 10H2.5C1.98232 10 1.55621 9.60667 1.50488 9.10254L1.5 9V7C1.5 6.44772 1.94772 6 2.5 6H3.1709L2.69629 5.52539C2.30582 5.13488 2.30581 4.50184 2.69629 4.11133L4.11133 2.69629C4.50184 2.30582 5.13488 2.30582 5.52539 2.69629L6 3.1709V2.5C6 1.94772 6.44772 1.5 7 1.5H9L9.10254 1.50488ZM7 3.1709C6.99994 4.06173 5.92292 4.50782 5.29297 3.87793L4.81836 3.40332L3.40332 4.81836L3.87793 5.29297C4.50782 5.92292 4.06173 6.99994 3.1709 7H2.5V9H3.1709C4.06173 9.00006 4.50782 10.0771 3.87793 10.707L3.40332 11.1816L4.81836 12.5967L5.29297 12.1221C5.92292 11.4922 6.99994 11.9383 7 12.8291V13.5H9V12.8291C9.00006 11.9383 10.0771 11.4922 10.707 12.1221L11.1816 12.5967L12.5967 11.1816L12.1221 10.707C11.4922 10.0771 11.9383 9.00006 12.8291 9H13.5V7H12.8291C11.9383 6.99994 11.4922 5.92292 12.1221 5.29297L12.5967 4.81836L11.1816 3.40332L10.707 3.87793C10.0771 4.50782 9.00006 4.06173 9 3.1709V2.5H7V3.1709ZM8 5.5C9.38071 5.5 10.5 6.61929 10.5 8C10.5 9.38071 9.38071 10.5 8 10.5C6.61929 10.5 5.5 9.38071 5.5 8C5.5 6.61929 6.61929 5.5 8 5.5ZM8 6.5C7.17157 6.5 6.5 7.17157 6.5 8C6.5 8.82843 7.17157 9.5 8 9.5C8.82843 9.5 9.5 8.82843 9.5 8C9.5 7.17157 8.82843 6.5 8 6.5Z" fill="#010103"/>
</svg>
