<svg width="16" height="16" viewBox="0 0 16 16" fill="none" xmlns="http://www.w3.org/2000/svg">
<path opacity="0.08" d="M7 6.5C7 5.11929 8.11929 4 9.5 4C10.8807 4 12 5.11929 12 6.5V9.5C12 10.8807 10.8807 12 9.5 12C8.11929 12 7 10.8807 7 9.5V6.5Z" fill="#010103"/>
<path d="M11.1543 2.00391C12.7394 2.08421 14 3.39489 14 5V11C14 12.6569 12.6569 14 11 14H5C3.39489 14 2.08421 12.7394 2.00391 11.1543L2 11V5C2 3.34315 3.34315 2 5 2H11L11.1543 2.00391ZM5 3C3.89543 3 3 3.89543 3 5V11L3.01074 11.2041C3.113 12.2128 3.96435 13 5 13H11C12.1046 13 13 12.1046 13 11V5C13 3.96435 12.2128 3.113 11.2041 3.01074L11 3H5ZM10.5 4C11.3284 4 12 4.67157 12 5.5V10.5C12 11.3284 11.3284 12 10.5 12H8.5C7.67157 12 7 11.3284 7 10.5V5.5C7 4.67157 7.67157 4 8.5 4H10.5ZM8.5 5C8.22386 5 8 5.22386 8 5.5V10.5C8 10.7761 8.22386 11 8.5 11H10.5C10.7761 11 11 10.7761 11 10.5V5.5C11 5.22386 10.7761 5 10.5 5H8.5Z" fill="#010103"/>
</svg>
