<svg width="16" height="16" viewBox="0 0 16 16" fill="none" xmlns="http://www.w3.org/2000/svg">
<path opacity="0.08" d="M5.91119 2.91078C5.64648 3.55488 5.50011 4.26013 5.50006 4.99965C5.50006 8.03722 7.96249 10.4996 11.0001 10.4996C11.7393 10.4996 12.444 10.353 13.088 10.0885C12.2655 12.09 10.2981 13.4996 8.00006 13.4996C4.9625 13.4996 2.50006 11.0372 2.50006 7.99965C2.5002 5.70169 3.90965 3.73316 5.91119 2.91078Z" fill="#010103"/>
<path d="M5.72076 2.44759C5.90725 2.37102 6.12211 2.41448 6.26471 2.55696C6.40727 2.69954 6.45062 2.91439 6.37408 3.10091C6.13372 3.68579 6.00015 4.3265 6.00006 4.99934C6.00006 7.76077 8.23864 9.99934 11.0001 9.99934L11.251 9.99348C11.8319 9.96465 12.3858 9.8355 12.8975 9.62532C13.084 9.54877 13.2989 9.59223 13.4415 9.7347C13.584 9.87727 13.6274 10.0921 13.5508 10.2786C12.6821 12.3926 10.6409 13.902 8.23444 13.9945L8.00006 13.9993C4.68635 13.9993 2.00006 11.3131 2.00006 7.99934C2.00034 5.49187 3.53843 3.34434 5.72076 2.44759ZM5.09674 3.93001C3.82758 4.83698 3.00028 6.32163 3.00006 7.99934C3.00006 10.7608 5.23864 12.9993 8.00006 12.9993L8.38776 12.9847C9.9053 12.8682 11.2311 12.0724 12.0674 10.9017C11.8168 10.9469 11.5612 10.9786 11.3008 10.9915L11.0001 10.9993C7.68635 10.9993 5.00006 8.31305 5.00006 4.99934C5.0001 4.63456 5.03413 4.27711 5.09674 3.93001ZM12.0684 3.0052C12.2253 3.02688 12.3643 3.12206 12.4405 3.26399C12.5273 3.42652 12.5183 3.62432 12.4161 3.77766L10.9346 6.00032H12.0001C12.2762 6.00036 12.5001 6.2242 12.5001 6.50032C12.4999 6.77629 12.2761 7.00028 12.0001 7.00032H10.0001C9.81595 7.00032 9.64676 6.89878 9.55963 6.73665C9.47266 6.57413 9.48188 6.37638 9.58405 6.22298L11.0655 4.00032H10.0001C9.72402 4.00032 9.50023 3.77632 9.50006 3.50032C9.50006 3.22418 9.72392 3.00032 10.0001 3.00032H12.0001L12.0684 3.0052Z" fill="#010103"/>
</svg>
