<svg width="16" height="16" viewBox="0 0 16 16" fill="none" xmlns="http://www.w3.org/2000/svg">
<path opacity="0.08" d="M7.5 10.5858V6H7.27273C4.63682 6 2.5 8.13682 2.5 10.7727C2.5 10.8982 2.60175 11 2.72727 11H5.08579C5.351 11 5.60536 11.1054 5.79289 11.2929C6.42286 11.9229 7.5 11.4767 7.5 10.5858Z" fill="#010103"/>
<path d="M7.14648 2.6465C7.28948 2.50351 7.50458 2.46071 7.69141 2.5381C7.87819 2.61551 8 2.79782 8 3.00002V13C7.99999 13.2022 7.87819 13.3845 7.69141 13.4619C7.50458 13.5393 7.28948 13.4965 7.14648 13.3535L5.43945 11.6465C5.34573 11.5528 5.21848 11.5001 5.08594 11.5H3.5C2.72334 11.5 2.08462 10.9097 2.00781 10.1533L2 10V6.00002C2 5.17159 2.67157 4.50002 3.5 4.50002H5.08594C5.21849 4.49997 5.34572 4.44726 5.43945 4.35353L7.14648 2.6465ZM12.1465 3.6465C12.3417 3.45124 12.6583 3.45124 12.8535 3.6465C13.9685 4.76149 14.5 6.40078 14.5 8.00002C14.5 9.59925 13.9685 11.2385 12.8535 12.3535C12.6583 12.5488 12.3417 12.5488 12.1465 12.3535C11.9512 12.1583 11.9512 11.8418 12.1465 11.6465C13.0315 10.7615 13.5 9.40077 13.5 8.00002C13.5 6.59926 13.0315 5.23854 12.1465 4.35353C11.9512 4.15827 11.9512 3.84176 12.1465 3.6465ZM6.14648 5.06056C5.86522 5.34183 5.48371 5.49997 5.08594 5.50002H3.5C3.22386 5.50002 3 5.72387 3 6.00002V10L3.00977 10.1006C3.0563 10.3286 3.25829 10.5 3.5 10.5H5.08594C5.4837 10.5001 5.86522 10.6582 6.14648 10.9395L7 11.793V4.20705L6.14648 5.06056ZM10.1465 5.6465C10.3417 5.45124 10.6583 5.45124 10.8535 5.6465C11.4685 6.26149 11.75 7.15078 11.75 8.00002C11.75 8.84925 11.4685 9.73855 10.8535 10.3535C10.6583 10.5488 10.3417 10.5488 10.1465 10.3535C9.95123 10.1583 9.95123 9.84176 10.1465 9.6465C10.5315 9.26149 10.75 8.65077 10.75 8.00002C10.75 7.34926 10.5315 6.73854 10.1465 6.35353C9.95123 6.15827 9.95123 5.84176 10.1465 5.6465Z" fill="#010103"/>
</svg>
