<svg width="16" height="16" viewBox="0 0 16 16" fill="none" xmlns="http://www.w3.org/2000/svg">
<path d="M7.99512 2.7509C8.81321 2.77277 9.49604 2.97758 10.041 3.41008C10.5819 3.83941 10.934 4.45207 11.1748 5.1884C11.2604 5.45068 11.1176 5.73233 10.8555 5.81828C10.5931 5.904 10.3104 5.76133 10.2246 5.49895C10.0207 4.87534 9.75519 4.46021 9.41895 4.19328C9.08691 3.9299 8.63258 3.76867 7.96875 3.7509C7.38101 3.73523 6.79715 3.91092 6.39062 4.2509C6.00252 4.57565 5.74146 5.0765 5.81152 5.81926C5.8802 6.54627 6.49256 6.98184 7.46582 7.23332C8.41333 7.47807 9.45655 7.47839 9.97949 7.49992H12.5C12.7761 7.49992 13 7.72381 13 7.99992C13 8.27607 12.7761 8.49992 12.5 8.49992H10.5859C10.6088 8.52708 10.6323 8.55426 10.6543 8.58293C10.9452 8.9621 11.1327 9.44727 11.1865 10.0488C11.2817 11.1134 10.8859 11.9438 10.251 12.4911C9.63198 13.0246 8.80982 13.2702 8.05078 13.2489C7.26233 13.2267 6.5688 13.0073 6.00781 12.5732C5.44783 12.1397 5.05685 11.5213 4.82227 10.7646C4.74052 10.5008 4.88858 10.2203 5.15234 10.1386C5.41582 10.0571 5.69541 10.2044 5.77734 10.4677C5.96436 11.0711 6.25399 11.4994 6.61914 11.7822C6.98335 12.064 7.46153 12.2315 8.07812 12.2489C8.61897 12.2642 9.18965 12.0849 9.59766 11.7333C9.98961 11.3955 10.2569 10.88 10.1904 10.1376C10.1511 9.6979 10.0213 9.39982 9.86133 9.19133C9.70013 8.98127 9.48498 8.83286 9.23145 8.72746C8.83602 8.56311 8.38341 8.51744 7.97949 8.50481L7.5957 8.49992H3.5C3.22386 8.49992 3 8.27607 3 7.99992C3.00004 7.72381 3.22388 7.49992 3.5 7.49992H5.69336C5.23052 7.13639 4.88298 6.62799 4.81543 5.91399C4.71497 4.85029 5.10251 4.02466 5.74805 3.4843C6.37546 2.95937 7.21177 2.73003 7.99512 2.7509Z" fill="#010103"/>
</svg>
