<svg width="16" height="16" viewBox="0 0 16 16" fill="none" xmlns="http://www.w3.org/2000/svg">
<path d="M14.1008 3.01044C14.3285 3.05708 14.5001 3.25825 14.5002 3.49969V12.4997C14.5002 12.7413 14.3287 12.9433 14.1008 12.9899L14.0002 12.9997H2.00024C1.7241 12.9997 1.50024 12.7758 1.50024 12.4997V3.49969C1.50041 3.22369 1.7242 2.99969 2.00024 2.99969H14.0002C14.0347 2.99971 14.0683 3.00378 14.1008 3.01044ZM2.50024 8.49969V11.9997H7.50024V8.49969H2.50024ZM8.50024 8.49969V11.9997H13.5002V8.49969H8.50024ZM2.50024 7.49969H7.50024V3.99969H2.50024V7.49969ZM8.50024 7.49969H13.5002V3.99969H8.50024V7.49969Z" fill="#010103"/>
</svg>
