<svg width="16" height="16" viewBox="0 0 16 16" fill="none" xmlns="http://www.w3.org/2000/svg">
<path d="M11.5 3.5C11.7761 3.5 12 3.72386 12 4V5.12012C11.9999 5.39621 11.7761 5.62012 11.5 5.62012C11.2239 5.62012 11.0001 5.39621 11 5.12012V4.5H8.5V11.5H9.16699C9.44299 11.5002 9.66699 11.724 9.66699 12C9.66699 12.276 9.44299 12.4998 9.16699 12.5H6.83301C6.55702 12.4998 6.33301 12.276 6.33301 12C6.33301 11.724 6.55702 11.5002 6.83301 11.5H7.5V4.5H5V5.12012C4.99994 5.39621 4.7761 5.62012 4.5 5.62012C4.2239 5.62012 4.00006 5.39621 4 5.12012V4C4 3.72386 4.22386 3.5 4.5 3.5H11.5Z" fill="#010103"/>
</svg>
