<svg width="16" height="16" viewBox="0 0 16 16" fill="none" xmlns="http://www.w3.org/2000/svg">
<path d="M13.0002 1.5C13.2762 1.50013 13.5002 1.72394 13.5002 2C13.5002 2.27606 13.2762 2.49987 13.0002 2.5H12.0002V13.5H13.0002C13.2762 13.5001 13.5002 13.7239 13.5002 14C13.5002 14.2761 13.2762 14.4999 13.0002 14.5H10.0002C9.72407 14.5 9.50021 14.2761 9.50021 14C9.50021 13.7239 9.72407 13.5 10.0002 13.5H11.0002V2.5H10.0002C9.72407 2.5 9.50021 2.27614 9.50021 2C9.50021 1.72386 9.72407 1.5 10.0002 1.5H13.0002ZM6.00021 3.5C6.19878 3.50008 6.37863 3.61787 6.45822 3.7998L8.72287 8.97559L9.95822 11.7998C10.0687 12.0527 9.9532 12.3473 9.70041 12.458C9.44748 12.5686 9.15289 12.4531 9.04221 12.2002L7.93771 9.67676H4.06271L2.95822 12.2002C2.84759 12.4531 2.55293 12.5684 2.30002 12.458C2.04708 12.3473 1.93164 12.0528 2.04221 11.7998L3.27756 8.97559L5.54221 3.7998L5.57639 3.73438C5.66687 3.59 5.82643 3.5 6.00021 3.5ZM4.50021 8.67676H7.50021L6.00021 5.24707L4.50021 8.67676Z" fill="#010103"/>
</svg>
