<svg width="16" height="16" viewBox="0 0 16 16" fill="none" xmlns="http://www.w3.org/2000/svg">
<path d="M6.5 2C8.53045 2 10.2464 3.34489 10.8066 5.19238C12.6547 5.75223 14 7.46912 14 9.5C14 11.9853 11.9853 14 9.5 14C7.46912 14 5.75223 12.6547 5.19238 10.8066C3.34489 10.2464 2 8.53045 2 6.5C2 4.01472 4.01472 2 6.5 2ZM11 6.5C11 8.98528 8.98528 11 6.5 11C6.44473 11 6.38975 10.9971 6.33496 10.9951C6.89573 12.1801 8.10195 13 9.5 13C11.433 13 13 11.433 13 9.5C13 8.10195 12.1801 6.89573 10.9951 6.33496C10.9971 6.38975 11 6.44473 11 6.5ZM6.5 3C4.567 3 3 4.567 3 6.5C3 7.89759 3.81953 9.10305 5.00391 9.66406C5.00195 9.6096 5 9.55493 5 9.5C5 7.01472 7.01472 5 9.5 5C9.55493 5 9.6096 5.00195 9.66406 5.00391C9.10305 3.81953 7.89759 3 6.5 3Z" fill="#010103"/>
</svg>
