<svg width="16" height="16" viewBox="0 0 16 16" fill="none" xmlns="http://www.w3.org/2000/svg">
<path opacity="0.08" d="M1.5 12C1.5 10.5 3.77273 10 6.5 10C9.22727 10 11.5 10.5 11.5 12C11.5 13.5 9.22727 14 6.5 14C3.77273 14 1.5 13.5 1.5 12Z" fill="#010103"/>
<path d="M6.5 9.5C7.88165 9.5 9.19778 9.6253 10.1855 9.96484C11.1578 10.2991 12 10.9199 12 12C12 13.0801 11.1578 13.7009 10.1855 14.0352C9.19778 14.3747 7.88165 14.5 6.5 14.5C5.11835 14.5 3.80222 14.3747 2.81445 14.0352C1.84217 13.7009 1 13.0801 1 12C1 10.9199 1.84217 10.2991 2.81445 9.96484C3.80222 9.6253 5.11835 9.5 6.5 9.5ZM6.5 10.5C5.15438 10.5 3.97007 10.6247 3.13965 10.9102C2.29395 11.2009 2 11.5802 2 12C2 12.4198 2.29395 12.7991 3.13965 13.0898C3.97007 13.3753 5.15438 13.5 6.5 13.5C7.84562 13.5 9.02993 13.3753 9.86035 13.0898C10.706 12.7991 11 12.4198 11 12C11 11.5802 10.706 11.2009 9.86035 10.9102C9.02993 10.6247 7.84562 10.5 6.5 10.5ZM10.3486 8.23047C11.4633 8.2485 12.512 8.35616 13.3193 8.6084C14.1729 8.87516 15 9.39302 15 10.3643C14.9997 11.3351 14.1728 11.8524 13.3193 12.1191C13.215 12.1517 13.1062 12.1801 12.9941 12.208C12.9972 12.1391 13 12.0698 13 12C13 11.6787 12.9854 11.4088 12.959 11.1816C12.9798 11.1755 13.0011 11.1714 13.0215 11.165C13.8035 10.9206 13.9997 10.6201 14 10.3643C14 10.1083 13.8041 9.8071 13.0215 9.5625C12.4523 9.38463 11.6968 9.28318 10.832 9.24512C10.7264 8.83916 10.5694 8.49992 10.3486 8.23047ZM6.5 2.5C8.15685 2.5 9.5 3.84315 9.5 5.5C9.5 7.15685 8.15685 8.5 6.5 8.5C4.84315 8.5 3.5 7.15685 3.5 5.5C3.5 3.84315 4.84315 2.5 6.5 2.5ZM11 2.5C12.4056 2.50024 13.5449 3.64023 13.5449 5.0459C13.5447 6.45136 12.4055 7.59058 11 7.59082C10.6536 7.59076 10.3235 7.5209 10.0225 7.39551C10.1796 7.10416 10.3006 6.79102 10.3818 6.46191C10.5712 6.54467 10.7802 6.59076 11 6.59082C11.8532 6.59058 12.5447 5.89908 12.5449 5.0459C12.5449 4.19252 11.8533 3.50024 11 3.5C10.6695 3.50009 10.3636 3.60443 10.1123 3.78125C9.96741 3.47726 9.78574 3.19424 9.57227 2.93848C9.97947 2.66195 10.4708 2.50009 11 2.5ZM6.5 3.5C5.39543 3.5 4.5 4.39543 4.5 5.5C4.5 6.60457 5.39543 7.5 6.5 7.5C7.60457 7.5 8.5 6.60457 8.5 5.5C8.5 4.39543 7.60457 3.5 6.5 3.5Z" fill="#010103"/>
</svg>
