<svg width="16" height="16" viewBox="0 0 16 16" fill="none" xmlns="http://www.w3.org/2000/svg">
<path opacity="0.08" d="M13 4H12.5C7.80558 4 4 7.80558 4 12.5L8 14L11.5 13L14 9L13 4Z" fill="#010103"/>
<path d="M7.99957 1.49954C11.5893 1.49954 14.4993 4.4099 14.4996 7.99954C14.4996 11.5894 11.5894 14.4995 7.99957 14.4995C4.40992 14.4993 1.49957 11.5893 1.49957 7.99954C1.49982 4.41004 4.41007 1.49977 7.99957 1.49954ZM7.99957 2.49954C4.96235 2.49977 2.49982 4.96233 2.49957 7.99954C2.49957 11.037 4.9622 13.4993 7.99957 13.4995C11.0371 13.4995 13.4996 11.0371 13.4996 7.99954C13.4993 4.96219 11.037 2.49954 7.99957 2.49954ZM7.99957 9.99954C8.41363 9.99954 8.74933 10.3355 8.74957 10.7495C8.74957 11.1638 8.41379 11.4995 7.99957 11.4995C7.58556 11.4993 7.24957 11.1636 7.24957 10.7495C7.24982 10.3357 7.58571 9.99977 7.99957 9.99954ZM7.99957 4.49954C8.27556 4.49954 8.49933 4.72361 8.49957 4.99954V8.99954C8.49957 9.27568 8.27572 9.49954 7.99957 9.49954C7.72363 9.49931 7.49957 9.27554 7.49957 8.99954V4.99954C7.49982 4.72375 7.72378 4.49977 7.99957 4.49954Z" fill="#010103"/>
</svg>
