<svg width="12" height="12" viewBox="0 0 12 12" fill="none" xmlns="http://www.w3.org/2000/svg">
<path d="M7.17992 2.61653C7.39197 2.43983 7.7072 2.46813 7.88403 2.68001L10.384 5.68001C10.3894 5.6865 10.3937 5.69383 10.3987 5.70052C10.4077 5.71251 10.4161 5.72483 10.4241 5.73763C10.4317 5.75 10.4381 5.76286 10.4446 5.77571C10.4522 5.79078 10.46 5.80571 10.4661 5.82161C10.4723 5.83789 10.4763 5.8547 10.4807 5.87141C10.4838 5.88308 10.4872 5.89459 10.4895 5.90657C10.4931 5.92533 10.494 5.94422 10.4954 5.96321C10.4963 5.97545 10.5002 5.98785 10.5002 6.00032C10.5002 6.01255 10.4962 6.02444 10.4954 6.03645C10.494 6.05545 10.493 6.07433 10.4895 6.09309C10.4874 6.10437 10.4846 6.1153 10.4817 6.1263C10.477 6.14413 10.4717 6.16169 10.4651 6.17903C10.4599 6.19246 10.4538 6.20525 10.4475 6.21809C10.4396 6.23443 10.431 6.25037 10.4211 6.26595C10.415 6.27569 10.4084 6.28499 10.4016 6.29427C10.3954 6.30271 10.3908 6.3125 10.384 6.32063L7.88403 9.32063C7.70727 9.53234 7.39194 9.56051 7.17992 9.38411C6.96807 9.2073 6.93981 8.89205 7.11645 8.68001L8.93188 6.50032H2.00024C1.72419 6.50032 1.50039 6.27634 1.50024 6.00032C1.50024 5.72418 1.72409 5.50032 2.00024 5.50032H8.93188L7.11645 3.32063C6.93975 3.1086 6.96806 2.79336 7.17992 2.61653Z" fill="#010103"/>
</svg>
