<svg width="12" height="12" viewBox="0 0 12 12" fill="none" xmlns="http://www.w3.org/2000/svg">
<path d="M8.69485 2.8559L8.71732 2.8598C8.73241 2.86188 8.74735 2.86416 8.76224 2.86761L8.78177 2.87152C8.79436 2.87499 8.80671 2.87982 8.81888 2.88422C8.82701 2.88715 8.83529 2.88963 8.84329 2.89301C8.86396 2.90172 8.88374 2.91199 8.90286 2.92328C8.91849 2.93252 8.93302 2.94344 8.94778 2.95453C8.96229 2.9654 8.97656 2.97636 8.98978 2.98871C8.99381 2.99248 8.99854 2.99552 9.00247 2.99945C9.00684 3.00382 9.01001 3.00961 9.01419 3.0141C9.02665 3.02751 9.03841 3.04137 9.04935 3.05609C9.05707 3.06647 9.06499 3.07652 9.07181 3.08734C9.08495 3.10823 9.09698 3.12993 9.10696 3.15277C9.11348 3.16767 9.1176 3.18332 9.12259 3.19867C9.12688 3.21186 9.1311 3.22505 9.13431 3.23871C9.13765 3.25296 9.14004 3.26723 9.14212 3.28168C9.14338 3.29039 9.1462 3.29919 9.147 3.30804L9.50052 7.19086C9.52542 7.46573 9.32229 7.70876 9.04739 7.73383C8.77247 7.7587 8.52847 7.55658 8.50345 7.28168L8.24759 4.46039L3.35403 9.35492C3.15882 9.55011 2.84229 9.55 2.647 9.35492C2.45173 9.15967 2.45173 8.84314 2.647 8.64789L7.54056 3.75336L4.72025 3.49847C4.44532 3.47344 4.2432 3.22943 4.2681 2.95453C4.29333 2.67984 4.53628 2.47751 4.81107 2.50238L8.69485 2.8559Z" fill="#010103"/>
</svg>
