<svg width="12" height="12" viewBox="0 0 12 12" fill="none" xmlns="http://www.w3.org/2000/svg">
<path fill-rule="evenodd" clip-rule="evenodd" d="M5.9997 1.5C6.27585 1.5 6.4997 1.72386 6.4997 2V8.93164L8.67939 7.11621C8.89143 6.93952 9.20666 6.96784 9.38349 7.17969C9.5602 7.39173 9.53189 7.70696 9.32002 7.88379L6.32002 10.3838C6.31368 10.3891 6.30603 10.3925 6.29951 10.3975C6.28679 10.4071 6.27407 10.4164 6.26045 10.4248C6.24753 10.4327 6.23383 10.4387 6.22041 10.4453C6.20618 10.4524 6.1924 10.4601 6.17744 10.4658C6.16465 10.4707 6.15145 10.4738 6.13838 10.4775C6.12129 10.4825 6.10441 10.4881 6.08662 10.4912C6.02873 10.5014 5.96969 10.5015 5.91181 10.4912C5.89404 10.4881 5.87713 10.4825 5.86006 10.4775C5.847 10.4737 5.83377 10.4707 5.82099 10.4658C5.80606 10.4601 5.79223 10.4524 5.77803 10.4453C5.76463 10.4387 5.75087 10.4327 5.73799 10.4248C5.7244 10.4164 5.71161 10.4071 5.69892 10.3975C5.69263 10.3927 5.68551 10.3889 5.67939 10.3838L2.67939 7.88379C2.46756 7.70696 2.43925 7.39172 2.61592 7.17969C2.79273 6.96782 3.10798 6.93954 3.32002 7.11621L5.4997 8.93164V2C5.4997 1.72387 5.72358 1.50002 5.9997 1.5Z" fill="#010103"/>
</svg>
