<svg width="12" height="12" viewBox="0 0 12 12" fill="none" xmlns="http://www.w3.org/2000/svg">
<path d="M7.19101 2.50256C7.46588 2.47773 7.70899 2.68076 7.73398 2.95569C7.7587 3.23051 7.55567 3.47365 7.28085 3.49866L4.46152 3.75452L9.3541 8.64905C9.54935 8.84432 9.54935 9.16081 9.3541 9.35608C9.15882 9.55107 8.84222 9.55126 8.64706 9.35608L3.75253 4.46057L3.49765 7.28284C3.47247 7.5576 3.22947 7.75986 2.95468 7.73499C2.67976 7.70999 2.47668 7.46696 2.50156 7.19202L2.85507 3.30823L2.85898 3.28186C2.86097 3.26807 2.86365 3.25446 2.86679 3.24084L2.8707 3.22034C2.87383 3.20897 2.87852 3.19815 2.88242 3.18713C2.8865 3.17556 2.89113 3.16426 2.89609 3.15295C2.91923 3.10025 2.95096 3.05259 2.98984 3.01135C2.9932 3.00779 2.99612 3.00312 2.9996 2.99963C3.00387 2.99538 3.0089 2.99198 3.01328 2.98792C3.02938 2.97296 3.04608 2.95867 3.06406 2.94592C3.07034 2.94146 3.07617 2.93639 3.08261 2.93225C3.10722 2.91646 3.13339 2.90258 3.16074 2.89124C3.1674 2.88847 3.17449 2.88686 3.18124 2.8844C3.2021 2.87679 3.22363 2.87067 3.2457 2.86584C3.25703 2.86337 3.26843 2.86167 3.27988 2.85999C3.28894 2.85865 3.298 2.85692 3.30722 2.85608L7.19101 2.50256Z" fill="#010103"/>
</svg>
