<svg width="12" height="12" viewBox="0 0 12 12" fill="none" xmlns="http://www.w3.org/2000/svg">
<path d="M6 1.12459C8.41611 1.12459 10.3748 3.08353 10.375 5.49959V7.49959C10.375 8.25898 9.75939 8.87459 9 8.87459C8.45223 8.87459 7.98083 8.55395 7.75977 8.09041C7.32516 8.57099 6.69898 8.87459 6 8.87459C4.68832 8.87459 3.625 7.81126 3.625 6.49959V5.49959C3.62522 4.1881 4.68846 3.12459 6 3.12459C6.62938 3.12459 7.20001 3.37148 7.625 3.77107V3.49959C7.62522 3.29267 7.79303 3.12459 8 3.12459C8.20697 3.12459 8.37478 3.29267 8.375 3.49959V7.49959C8.375 7.84477 8.65482 8.12459 9 8.12459C9.34518 8.12459 9.625 7.84477 9.625 7.49959V5.49959C9.62478 3.49775 8.00189 1.87459 6 1.87459C3.99811 1.87459 2.37522 3.49775 2.375 5.49959V6.49959C2.375 8.50162 3.99797 10.1246 6 10.1246C6.20697 10.1246 6.37478 10.2927 6.375 10.4996C6.375 10.7067 6.20711 10.8746 6 10.8746C3.58375 10.8746 1.625 8.91583 1.625 6.49959V5.49959C1.62522 3.08353 3.58389 1.12459 6 1.12459ZM6 3.87459C5.10267 3.87459 4.37522 4.60231 4.375 5.49959V6.49959C4.375 7.39705 5.10254 8.12459 6 8.12459C6.89746 8.12459 7.625 7.39705 7.625 6.49959V5.49959C7.62478 4.60231 6.89733 3.87459 6 3.87459Z" fill="#010103"/>
</svg>
