<svg width="12" height="12" viewBox="0 0 12 12" fill="none" xmlns="http://www.w3.org/2000/svg">
<path d="M7.08937 1.125C7.85592 1.125 8.57016 1.51585 8.9839 2.16113L10.6665 4.78613C11.1407 5.52603 11.1407 6.47397 10.6665 7.21387L8.9839 9.83887C8.57016 10.4842 7.85592 10.875 7.08937 10.875H4.90968C4.14323 10.8748 3.42879 10.4841 3.01515 9.83887L1.33253 7.21387C0.858555 6.47408 0.858555 5.52592 1.33253 4.78613L3.01515 2.16113C3.42879 1.51585 4.14323 1.12516 4.90968 1.125H7.08937Z" fill="#D14C4D"/>
<path d="M6.12541 7.5498C6.51182 7.55003 6.82561 7.86354 6.82561 8.25C6.82561 8.63646 6.51182 8.94997 6.12541 8.9502C5.73881 8.9502 5.42522 8.6366 5.42522 8.25C5.42522 7.8634 5.73881 7.5498 6.12541 7.5498ZM6.12541 3.25C6.40136 3.25022 6.62541 3.47399 6.62541 3.75V6.25C6.62541 6.52601 6.40136 6.74978 6.12541 6.75C5.84927 6.75 5.62541 6.52614 5.62541 6.25V3.75C5.62541 3.47386 5.84927 3.25 6.12541 3.25Z" fill="white"/>
</svg>
