<svg width="12" height="12" viewBox="0 0 12 12" fill="none" xmlns="http://www.w3.org/2000/svg">
<path d="M9.10027 10.0098C9.32824 10.0563 9.49969 10.2583 9.49969 10.5C9.49969 10.7417 9.32824 10.9437 9.10027 10.9902L8.99969 11H2.99969C2.72369 10.9998 2.49969 10.776 2.49969 10.5C2.49969 10.224 2.72369 10.0002 2.99969 10H8.99969L9.10027 10.0098ZM5.99969 1.5C6.27582 1.5 6.49968 1.72386 6.49969 2V7.45898L8.18719 6.10938C8.40277 5.93691 8.71778 5.972 8.89031 6.1875C9.06281 6.40313 9.02782 6.71812 8.81219 6.89062L6.31219 8.89062L6.29266 8.90234C6.28152 8.91046 6.27028 8.91859 6.25848 8.92578L6.23992 8.93848C6.23163 8.94297 6.22201 8.94519 6.21355 8.94922C6.20259 8.95446 6.19175 8.96041 6.18035 8.96484C6.16059 8.97251 6.1402 8.97833 6.1198 8.9834C6.10733 8.98648 6.09455 8.98909 6.08172 8.99121C6.05844 8.99509 6.03494 8.99748 6.01141 8.99805C6.00761 8.99822 6.00351 9 5.99969 9C5.99388 8.99994 5.98787 8.99825 5.98211 8.99805C5.96054 8.99729 5.939 8.99475 5.91766 8.99121C5.90925 8.98983 5.90053 8.98912 5.89227 8.9873C5.86317 8.98092 5.83415 8.97259 5.80633 8.96094C5.80374 8.95982 5.80109 8.95817 5.79852 8.95703C5.77526 8.94678 5.75296 8.93389 5.73113 8.91992C5.72365 8.91513 5.71587 8.91045 5.70867 8.90527C5.70172 8.9003 5.69392 8.89601 5.68719 8.89062L3.18719 6.89062C2.97177 6.71813 2.93674 6.40307 3.10906 6.1875C3.28152 5.97193 3.59656 5.93704 3.81219 6.10938L5.49969 7.45898V2C5.4997 1.72398 5.7237 1.50018 5.99969 1.5Z" fill="#010103"/>
</svg>
