<svg width="12" height="12" viewBox="0 0 12 12" fill="none" xmlns="http://www.w3.org/2000/svg">
<path opacity="0.12" d="M10.5 9V5.5H8C5.23858 5.5 3 7.73858 3 10.5H9C9.82843 10.5 10.5 9.82843 10.5 9Z" fill="#010103"/>
<path d="M9.5 1C10.6046 1 11.5 1.89543 11.5 3V9C11.5 10.1046 10.6046 11 9.5 11H2.5C1.39543 11 0.5 10.1046 0.5 9V3C0.5 1.89543 1.39543 1 2.5 1H9.5ZM2.5 2C1.94772 2 1.5 2.44772 1.5 3V9C1.5 9.55229 1.94772 10 2.5 10H9.5C10.0523 10 10.5 9.55228 10.5 9V3C10.5 2.44772 10.0523 2 9.5 2H2.5ZM8.1875 3.60938C8.40313 3.43687 8.71812 3.47187 8.89062 3.6875C9.06313 3.90313 9.02813 4.21812 8.8125 4.39062L6.3125 6.39062C6.12989 6.53671 5.87011 6.53671 5.6875 6.39062L3.1875 4.39062C2.97187 4.21812 2.93687 3.90313 3.10938 3.6875C3.28188 3.47187 3.59687 3.43687 3.8125 3.60938L6 5.35938L8.1875 3.60938Z" fill="#010103"/>
</svg>
