<svg width="12" height="12" viewBox="0 0 12 12" fill="none" xmlns="http://www.w3.org/2000/svg">
<path d="M5.99952 2.50017C7.91665 2.50016 9.77897 3.626 10.939 5.76189C11.0196 5.91055 11.0196 6.08979 10.939 6.23845C9.77896 8.37416 7.91657 9.50015 5.99952 9.50017C4.08253 9.49999 2.21997 8.3742 1.06007 6.23845C0.979562 6.08991 0.979643 5.91046 1.06007 5.76189C2.21997 3.62614 4.08253 2.50037 5.99952 2.50017ZM5.99952 3.50017C4.56864 3.50036 3.08864 4.30081 2.07667 6.00017C3.08864 7.69955 4.56863 8.5 5.99952 8.50017C7.43034 8.50016 8.90932 7.69919 9.92139 6.00017C8.90931 4.30095 7.43041 3.50016 5.99952 3.50017ZM5.99952 4.18767C7.00054 4.18767 7.81202 4.99915 7.81202 6.00017C7.81193 7.00111 7.00048 7.81267 5.99952 7.81267C4.99878 7.81241 4.18711 7.00095 4.18702 6.00017C4.18702 4.99931 4.99872 4.18793 5.99952 4.18767ZM5.99952 5.18767C5.55101 5.18793 5.18702 5.5516 5.18702 6.00017C5.18711 6.44866 5.55106 6.81241 5.99952 6.81267C6.44819 6.81267 6.81193 6.44882 6.81202 6.00017C6.81202 5.55144 6.44825 5.18767 5.99952 5.18767Z" fill="#010103"/>
</svg>
