<svg width="12" height="12" viewBox="0 0 12 12" fill="none" xmlns="http://www.w3.org/2000/svg">
<path d="M6.00024 1.5C6.27627 1.50013 6.50024 1.72394 6.50024 2V5.5H10.0002C10.2763 5.50013 10.5002 5.72394 10.5002 6C10.5002 6.27606 10.2763 6.49987 10.0002 6.5H6.50024V10C6.50024 10.2761 6.27627 10.4999 6.00024 10.5C5.7241 10.5 5.50024 10.2761 5.50024 10V6.5H2.00024C1.7241 6.5 1.50024 6.27614 1.50024 6C1.50024 5.72386 1.7241 5.5 2.00024 5.5H5.50024V2C5.50024 1.72386 5.7241 1.5 6.00024 1.5Z" fill="#010103"/>
</svg>
