<svg width="12" height="12" viewBox="0 0 12 12" fill="none" xmlns="http://www.w3.org/2000/svg">
<g clip-path="url(#clip0_2093_20500)">
<path d="M4.48571 11.5C3.77661 11.5 3.25611 10.8334 3.4281 10.1455L4.08923 7.5L2.50036 7.5C1.26457 7.49989 0.32454 6.3899 0.527707 5.1709L1.02771 2.1709C1.18854 1.20673 2.02286 0.500087 3.00036 0.499999L8.22986 0.5C9.88671 0.5 11.2299 1.84315 11.2299 3.5L11.2299 5C11.2299 6.38071 10.1106 7.5 8.72985 7.5L8.72985 7.49219C8.58797 7.77378 8.40182 8.03507 8.17321 8.26367L5.25622 11.1807C5.05187 11.385 4.77471 11.4999 4.48571 11.5ZM9.03454 6.46973C9.71695 6.32899 10.2299 5.72408 10.2299 5L10.2299 3.5C10.2299 2.39543 9.33442 1.5 8.22986 1.5L7.84411 1.5C8.21392 1.91214 8.47509 2.42744 8.57165 3.00684L9.01111 5.64844C9.05688 5.92306 9.06429 6.19931 9.03454 6.46973ZM4.48571 10.5C4.50949 10.4999 4.53237 10.4905 4.54919 10.4736L7.46618 7.55664C7.92285 7.09998 8.13087 6.45051 8.02478 5.81348L7.58435 3.1709C7.42347 2.20671 6.58924 1.5 5.61169 1.5L3.00036 1.5C2.5116 1.50009 2.09439 1.85381 2.01404 2.33594L1.51403 5.33594C1.41269 5.94527 1.88263 6.49989 2.50036 6.5L4.72986 6.5C4.88382 6.5 5.02963 6.57102 5.12439 6.69238C5.21893 6.81364 5.25243 6.9719 5.21521 7.12109L4.39782 10.3887C4.38402 10.4453 4.42736 10.5 4.48571 10.5Z" fill="#010103"/>
</g>
<defs>
<clipPath id="clip0_2093_20500">
<rect width="12" height="12" fill="white"/>
</clipPath>
</defs>
</svg>
