<svg width="12" height="12" viewBox="0 0 12 12" fill="none" xmlns="http://www.w3.org/2000/svg">
<g clip-path="url(#clip0_2093_20490)">
<path d="M7.24414 0.5C7.95325 0.5 8.47374 1.16656 8.30176 1.85449L7.64062 4.5H9.22949C10.4653 4.50011 11.4053 5.6101 11.2021 6.8291L10.7021 9.8291C10.5413 10.7933 9.707 11.4999 8.72949 11.5H3.5C1.84315 11.5 0.5 10.1569 0.5 8.5V7C0.5 5.61929 1.61929 4.5 3 4.5V4.50781C3.14188 4.22622 3.32804 3.96493 3.55664 3.73633L6.47363 0.819336C6.67799 0.614981 6.95515 0.500062 7.24414 0.5ZM2.69531 5.53027C2.01291 5.67101 1.5 6.27592 1.5 7V8.5C1.5 9.60457 2.39543 10.5 3.5 10.5H3.88574C3.51593 10.0879 3.25477 9.57256 3.1582 8.99316L2.71875 6.35156C2.67298 6.07694 2.66557 5.80069 2.69531 5.53027ZM7.24414 1.5C7.22036 1.50006 7.19748 1.50955 7.18066 1.52637L4.26367 4.44336C3.80701 4.90002 3.59899 5.54949 3.70508 6.18652L4.14551 8.8291C4.30639 9.79329 5.14061 10.5 6.11816 10.5H8.72949C9.21825 10.4999 9.63547 10.1462 9.71582 9.66406L10.2158 6.66406C10.3172 6.05473 9.84722 5.50011 9.22949 5.5H7C6.84603 5.5 6.70022 5.42898 6.60547 5.30762C6.51092 5.18636 6.47742 5.0281 6.51465 4.87891L7.33203 1.61133C7.34583 1.55473 7.30249 1.5 7.24414 1.5Z" fill="#010103"/>
</g>
<defs>
<clipPath id="clip0_2093_20490">
<rect width="12" height="12" fill="white"/>
</clipPath>
</defs>
</svg>
