<svg width="12" height="12" viewBox="0 0 12 12" fill="none" xmlns="http://www.w3.org/2000/svg">
<path opacity="0.08" d="M1.875 9C1.875 7.875 3.75 7.5 6 7.5C8.25 7.5 10.125 7.875 10.125 9C10.125 10.125 8.25 10.5 6 10.5C3.75 10.5 1.875 10.125 1.875 9Z" fill="#010103"/>
<path d="M6 7C7.14102 7 8.23284 7.09345 9.05566 7.35059C9.84106 7.59606 10.625 8.07994 10.625 9C10.625 9.92006 9.84106 10.4039 9.05566 10.6494C8.23284 10.9065 7.14102 11 6 11C4.85898 11 3.76716 10.9065 2.94434 10.6494C2.15894 10.4039 1.375 9.92006 1.375 9C1.375 8.07994 2.15894 7.59606 2.94434 7.35059C3.76716 7.09345 4.85898 7 6 7ZM6 8C4.89111 8 3.92033 8.09408 3.24316 8.30566C2.52861 8.52896 2.375 8.79513 2.375 9C2.375 9.20487 2.52861 9.47104 3.24316 9.69434C3.92033 9.90592 4.89111 10 6 10C7.10889 10 8.07967 9.90592 8.75684 9.69434C9.47139 9.47104 9.625 9.20487 9.625 9C9.625 8.79513 9.47139 8.52896 8.75684 8.30566C8.07967 8.09408 7.10889 8 6 8ZM6 1.75C7.31168 1.75 8.375 2.81332 8.375 4.125C8.375 5.43668 7.31168 6.5 6 6.5C4.68832 6.5 3.625 5.43668 3.625 4.125C3.625 2.81332 4.68832 1.75 6 1.75ZM6 2.75C5.24061 2.75 4.625 3.36561 4.625 4.125C4.625 4.88439 5.24061 5.5 6 5.5C6.75939 5.5 7.375 4.88439 7.375 4.125C7.375 3.36561 6.75939 2.75 6 2.75Z" fill="#010103"/>
</svg>
