<svg width="16" height="16" viewBox="0 0 16 16" fill="none" xmlns="http://www.w3.org/2000/svg">
<path d="M8.51172 9.51172C8.78771 9.51832 9.00648 9.74747 9 10.0234C8.99339 10.2994 8.76423 10.5182 8.48828 10.5117C8.32783 10.5079 8.16478 10.5059 8 10.5059C6.65438 10.5059 5.47007 10.6306 4.63965 10.916C3.79396 11.2067 3.5 11.5861 3.5 12.0059C3.50001 12.4256 3.79396 12.805 4.63965 13.0957C5.47007 13.3812 6.65438 13.5059 8 13.5059C8.27614 13.5059 8.5 13.7297 8.5 14.0059C8.49999 14.282 8.27614 14.5059 8 14.5059C6.61835 14.5059 5.30222 14.3806 4.31445 14.041C3.34217 13.7067 2.50001 13.0859 2.5 12.0059C2.5 10.9258 3.34217 10.305 4.31445 9.9707C5.30222 9.63116 6.61835 9.50586 8 9.50586C8.17223 9.50586 8.34296 9.50769 8.51172 9.51172ZM8 2.5C9.65685 2.5 11 3.84315 11 5.5C11 7.15685 9.65685 8.5 8 8.5C6.34315 8.5 5 7.15685 5 5.5C5 3.84315 6.34315 2.5 8 2.5ZM8 3.5C6.89543 3.5 6 4.39543 6 5.5C6 6.60457 6.89543 7.5 8 7.5C9.10457 7.5 10 6.60457 10 5.5C10 4.39543 9.10457 3.5 8 3.5Z" fill="#010103"/>
<circle cx="12.25" cy="12.25" r="2.75" stroke="black" stroke-linecap="round"/>
<path d="M13.25 11.75L12 13L11.25 12.25" stroke="black" stroke-linecap="round" stroke-linejoin="round"/>
</svg>
