<svg width="16" height="16" viewBox="0 0 16 16" fill="none" xmlns="http://www.w3.org/2000/svg">
<rect opacity="0.08" x="2.5" y="5" width="11" height="6" rx="1.5" fill="#010103"/>
<path d="M12 13C12.2761 13 12.5 13.2239 12.5 13.5C12.5 13.7761 12.2761 14 12 14H4C3.72386 14 3.5 13.7761 3.5 13.5C3.5 13.2239 3.72386 13 4 13H12ZM12 4.5C13.1046 4.5 14 5.39543 14 6.5V9.5C14 10.6046 13.1046 11.5 12 11.5H4C2.89543 11.5 2 10.6046 2 9.5V6.5C2 5.39543 2.89543 4.5 4 4.5H12ZM4 5.5C3.44772 5.5 3 5.94772 3 6.5V9.5C3 10.0523 3.44772 10.5 4 10.5H12C12.5523 10.5 13 10.0523 13 9.5V6.5C13 5.94772 12.5523 5.5 12 5.5H4ZM12 2C12.2761 2 12.5 2.22386 12.5 2.5C12.5 2.77614 12.2761 3 12 3H4C3.72386 3 3.5 2.77614 3.5 2.5C3.5 2.22386 3.72386 2 4 2H12Z" fill="#010103"/>
</svg>
