<svg width="16" height="16" viewBox="0 0 16 16" fill="none" xmlns="http://www.w3.org/2000/svg">
<path opacity="0.08" d="M11 9V8.17442C11 8.07809 10.9219 8 10.8256 8C8.16049 8 6 10.1605 6 12.8256V13.3081C6 13.4141 6.08587 13.5 6.19183 13.5H8C9 13.5 8 14 10 14C11.2428 14 12.3649 12.6928 12.804 11.7186C12.998 11.2881 12.7777 10.8333 12.4 10.55L11.4 9.8C11.1482 9.61115 11 9.31476 11 9Z" fill="#010103"/>
<path d="M10.2726 4.50006C11.0086 4.50009 11.7306 4.75481 12.2657 5.06256C12.5347 5.21729 12.7757 5.39614 12.9562 5.58209C13.0463 5.67496 13.1311 5.77937 13.1954 5.89264C13.2576 6.00205 13.3184 6.15104 13.3185 6.3233C13.3185 6.51459 13.2092 6.68979 13.0372 6.7735C13.0359 6.77418 13.0326 6.77527 13.0284 6.7774C13.0201 6.78172 13.0058 6.78884 12.9874 6.79889C12.9506 6.81903 12.896 6.85067 12.8292 6.89264C12.694 6.97768 12.5148 7.10361 12.338 7.26569C11.9742 7.59922 11.6818 8.02675 11.6818 8.52936C11.6818 9.07461 11.9103 9.46351 12.2062 9.74225C12.5135 10.0315 12.8876 10.1931 13.1183 10.2491C13.3657 10.3093 13.5286 10.5463 13.4962 10.7989C13.4141 11.4367 13.1757 12.3306 12.6915 13.0801C12.2009 13.8396 11.4187 14.5 10.2726 14.5001C9.65972 14.5 9.26898 14.3992 8.93274 14.3057C8.61451 14.2173 8.37916 14.1475 8.00012 14.1475C7.62105 14.1475 7.38572 14.2173 7.0675 14.3057C6.73125 14.3992 6.34054 14.5 5.72766 14.5001C4.47113 14.5001 3.67115 13.3988 3.21008 12.2833C2.72968 11.1207 2.50013 9.68586 2.50012 8.52936C2.50017 6.13084 4.01127 4.50006 5.72766 4.50006C6.29742 4.50016 6.83786 4.71828 7.23743 4.89557C7.45567 4.99241 7.61461 5.06947 7.76868 5.1319C7.84085 5.16113 7.89749 5.18127 7.94153 5.19342C7.98686 5.20589 8.00381 5.20611 8.00012 5.20612C7.99341 5.20612 8.02668 5.20621 8.15149 5.14557C8.20898 5.11763 8.2725 5.08448 8.35168 5.04205C8.42801 5.00115 8.51635 4.9532 8.61243 4.90533C9.008 4.7083 9.54097 4.50011 10.2726 4.50006ZM10.2726 5.50006C9.74787 5.50011 9.37157 5.64501 9.05872 5.80084C8.97784 5.84113 8.90128 5.88116 8.82336 5.92291C8.74838 5.96309 8.66749 6.00682 8.58899 6.04498C8.4415 6.11665 8.23406 6.20608 8.00012 6.20612C7.7807 6.20612 7.55943 6.12579 7.39368 6.05865C7.22124 5.9888 7.01035 5.88913 6.83118 5.80963C6.43567 5.63416 6.06664 5.50016 5.72766 5.50006C4.71682 5.50006 3.50017 6.51625 3.50012 8.52936C3.50013 9.57871 3.71193 10.8802 4.13391 11.9014C4.57526 12.9693 5.13953 13.5001 5.72766 13.5001C6.21027 13.5 6.50144 13.4248 6.79993 13.3419C7.11666 13.2538 7.4702 13.1475 8.00012 13.1475C8.53003 13.1475 8.88358 13.2538 9.20032 13.3419C9.49879 13.4248 9.78997 13.5 10.2726 13.5001C10.9713 13.5 11.4778 13.1159 11.8517 12.5372C12.145 12.083 12.3323 11.5394 12.4347 11.0674C12.1388 10.939 11.8115 10.7446 11.5206 10.4708C11.0593 10.0363 10.6818 9.39546 10.6818 8.52936C10.6818 7.6203 11.208 6.9448 11.6622 6.52838C11.8202 6.38363 11.9791 6.26546 12.1173 6.16901C12.0247 6.09269 11.9073 6.0101 11.7677 5.92975C11.3444 5.68619 10.7929 5.50009 10.2726 5.50006ZM9.58606 1.71002C9.85851 1.75502 10.0432 2.01277 9.99817 2.28522C9.94701 2.59483 9.73052 3.06729 9.42395 3.4444C9.12413 3.81302 8.60168 4.25066 7.91809 4.13776C7.64607 4.09259 7.46234 3.83563 7.50696 3.56354C7.58694 3.07926 7.79112 2.58526 8.13 2.22272C8.48096 1.8475 8.984 1.61072 9.58606 1.71002Z" fill="#010103"/>
</svg>
