<svg width="16" height="16" viewBox="0 0 16 16" fill="none" xmlns="http://www.w3.org/2000/svg">
<path d="M7.91208 3.50797C7.96986 3.4977 8.02909 3.49781 8.08688 3.50797C8.10464 3.51108 8.12158 3.5167 8.13864 3.52164C8.15169 3.52541 8.16493 3.5285 8.1777 3.53336C8.19264 3.53905 8.20646 3.54682 8.22067 3.55386C8.23408 3.56049 8.24781 3.56647 8.26071 3.57437C8.27432 3.58273 8.28707 3.59214 8.29977 3.60172C8.30643 3.60672 8.31382 3.61098 8.32028 3.61636L11.3203 6.11636C11.5321 6.2932 11.5604 6.60845 11.3838 6.82047C11.2069 7.03223 10.8917 7.06055 10.6797 6.88394L8.49997 5.06656V12.0002C8.49988 12.2762 8.27606 12.5002 7.99997 12.5002C7.72388 12.5002 7.50006 12.2762 7.49997 12.0002V5.06656L5.32028 6.88394C5.10827 7.06054 4.793 7.03223 4.61618 6.82047C4.4395 6.60845 4.46785 6.2932 4.67966 6.11636L7.67966 3.61636C7.68591 3.61115 7.69275 3.60658 7.69919 3.60172C7.71187 3.59213 7.72467 3.58274 7.73825 3.57437C7.75112 3.56646 7.76491 3.5605 7.77829 3.55386C7.79248 3.5468 7.80634 3.53907 7.82126 3.53336C7.83401 3.52848 7.84729 3.52543 7.86032 3.52164C7.87737 3.51667 7.89433 3.51111 7.91208 3.50797Z" fill="#010103"/>
</svg>
