<svg width="16" height="16" viewBox="0 0 16 16" fill="none" xmlns="http://www.w3.org/2000/svg">
<path d="M11.1461 10.6938L11.1422 10.7192C11.1402 10.733 11.1375 10.7466 11.1344 10.7602L11.1305 10.7817C11.1274 10.7928 11.1225 10.8032 11.1188 10.8139C11.115 10.8247 11.1116 10.8356 11.1071 10.8462C11.0972 10.8691 11.0849 10.8906 11.0719 10.9116C11.0661 10.9209 11.0598 10.9299 11.0533 10.9389C11.0405 10.9569 11.0264 10.9737 11.0114 10.9897C11.0078 10.9935 11.0052 10.9988 11.0016 11.0024C10.9975 11.0065 10.9921 11.0092 10.9879 11.0132C10.9718 11.0282 10.9551 11.0424 10.9371 11.0551C10.9308 11.0596 10.925 11.0647 10.9186 11.0688C10.8967 11.0829 10.8733 11.0944 10.8492 11.1049C10.838 11.1099 10.8265 11.1136 10.8151 11.1176C10.7956 11.1245 10.776 11.1307 10.7555 11.1352C10.7441 11.1377 10.7328 11.1394 10.7213 11.1411C10.7122 11.1424 10.7032 11.1451 10.694 11.146L6.81018 11.4995C6.5353 11.5243 6.2922 11.3213 6.26721 11.0464C6.2425 10.7717 6.4448 10.5286 6.71936 10.5034L9.53967 10.2466L4.64709 5.353C4.45184 5.15772 4.45184 4.84124 4.64709 4.64597C4.84237 4.45098 5.15897 4.45079 5.35413 4.64597L10.2487 9.5405L10.5035 6.71921C10.5287 6.44443 10.7717 6.24217 11.0465 6.26706C11.3214 6.29206 11.5245 6.53509 11.4996 6.81003L11.1461 10.6938Z" fill="#010103"/>
</svg>
