<svg width="16" height="16" viewBox="0 0 16 16" fill="none" xmlns="http://www.w3.org/2000/svg">
<path d="M6.11621 4.67989C6.29304 4.46801 6.60827 4.43971 6.82031 4.61641C7.0321 4.79325 7.06046 5.1085 6.88379 5.32051L5.06738 7.5002H12C12.2761 7.5002 12.5 7.72406 12.5 8.0002C12.4999 8.27623 12.2761 8.5002 12 8.5002H5.06738L6.88379 10.6799C7.06038 10.8919 7.03215 11.2072 6.82031 11.384C6.60831 11.5606 6.29303 11.5322 6.11621 11.3205L3.61621 8.32051C3.61084 8.31407 3.60656 8.30664 3.60156 8.3C3.59199 8.28731 3.58257 8.27454 3.57422 8.26094C3.56632 8.24805 3.56033 8.2343 3.55371 8.2209C3.54667 8.2067 3.5389 8.19286 3.5332 8.17793C3.52835 8.16517 3.52525 8.15191 3.52148 8.13887C3.50868 8.09469 3.50002 8.0485 3.5 8.0002C3.5 7.95055 3.50899 7.90289 3.52246 7.85762C3.52595 7.84588 3.52884 7.83397 3.5332 7.82246C3.53988 7.80491 3.54811 7.78823 3.55664 7.77168C3.56169 7.76186 3.56652 7.75193 3.57227 7.74239C3.58211 7.72608 3.59291 7.71053 3.60449 7.69551C3.60845 7.69037 3.61203 7.68491 3.61621 7.67989L6.11621 4.67989Z" fill="#010103"/>
</svg>
