<svg width="16" height="16" viewBox="0 0 16 16" fill="none" xmlns="http://www.w3.org/2000/svg">
<path d="M9.17993 4.61627C9.39197 4.43968 9.70724 4.46791 9.88403 4.67975L12.384 7.67975C12.3907 7.6877 12.3956 7.69689 12.4016 7.70514C12.4084 7.7144 12.415 7.72373 12.4211 7.73346C12.431 7.74902 12.4395 7.76499 12.4475 7.78131C12.4538 7.79414 12.4599 7.80696 12.4651 7.82037C12.4718 7.8377 12.477 7.85528 12.4817 7.87311C12.4846 7.8841 12.4874 7.89504 12.4895 7.90631C12.4931 7.92507 12.4939 7.94396 12.4954 7.96295C12.4963 7.97528 12.5002 7.9875 12.5002 8.00006C12.5002 8.01229 12.4962 8.02418 12.4954 8.03619C12.494 8.05519 12.493 8.07406 12.4895 8.09283C12.4874 8.10411 12.4846 8.11504 12.4817 8.12604C12.477 8.14388 12.4717 8.16143 12.4651 8.17877C12.4599 8.19221 12.4538 8.20498 12.4475 8.21783C12.4396 8.23418 12.431 8.2501 12.4211 8.26569C12.415 8.27544 12.4084 8.28473 12.4016 8.29401C12.3954 8.30248 12.3908 8.31222 12.384 8.32037L9.88403 11.3204C9.70725 11.5322 9.39197 11.5604 9.17993 11.3839C8.96805 11.207 8.93975 10.8918 9.11646 10.6797L10.9319 8.50006H4.00024C3.72411 8.50006 3.50025 8.2762 3.50024 8.00006C3.50024 7.72392 3.7241 7.50006 4.00024 7.50006H10.9319L9.11646 5.32037C8.93976 5.10833 8.96806 4.7931 9.17993 4.61627Z" fill="#010103"/>
</svg>
