<svg width="16" height="16" viewBox="0 0 16 16" fill="none" xmlns="http://www.w3.org/2000/svg">
<path opacity="0.08" d="M9.5 7.5V10C9.5 10.8284 8.82843 11.5 8 11.5C7.17157 11.5 6.5 10.8284 6.5 10V7.5C6.5 6.67157 7.17157 6 8 6C8.82843 6 9.5 6.67157 9.5 7.5Z" fill="#010103"/>
<path d="M6.99988 1.99965C8.65661 1.99965 9.99969 3.34296 9.99988 4.99965V9.99965C9.99988 11.1042 9.10445 11.9996 7.99988 11.9996C6.89541 11.9995 5.99988 11.1041 5.99988 9.99965V5.49965C6.00007 5.22374 6.22395 4.99977 6.49988 4.99965C6.7759 4.99965 6.99969 5.22367 6.99988 5.49965V9.99965C6.99988 10.5519 7.44769 10.9995 7.99988 10.9996C8.55216 10.9996 8.99988 10.5519 8.99988 9.99965V4.99965C8.99969 3.89524 8.10433 2.99965 6.99988 2.99965C5.89552 2.99977 5.00007 3.89531 4.99988 4.99965V9.99965C4.99988 11.6564 6.34314 12.9995 7.99988 12.9996C9.65672 12.9996 10.9999 11.6565 10.9999 9.99965V5.49965C11.0001 5.22374 11.224 4.99977 11.4999 4.99965C11.7758 4.99971 11.9997 5.22371 11.9999 5.49965V9.99965C11.9999 12.2088 10.209 13.9996 7.99988 13.9996C5.79085 13.9995 3.99988 12.2087 3.99988 9.99965L3.99988 4.99965C4.00007 3.34303 5.34324 1.99977 6.99988 1.99965Z" fill="#010103"/>
</svg>
