<svg width="16" height="16" viewBox="0 0 16 16" fill="none" xmlns="http://www.w3.org/2000/svg">
<path d="M7.99988 1.99977C8.75516 1.99977 9.37784 2.55856 9.4823 3.28493C10.9573 3.87396 11.9998 5.3146 11.9999 6.99977V8.90407L12.6903 10.6287C12.9527 11.2854 12.4688 11.9996 11.7616 11.9998H9.49988C9.49988 12.8282 8.8283 13.4998 7.99988 13.4998C7.17151 13.4997 6.49988 12.8282 6.49988 11.9998H4.23816C3.53104 11.9995 3.04712 11.2853 3.30945 10.6287L3.99988 8.90407V6.99977C3.99997 5.315 5.04205 3.87423 6.51648 3.28493C6.62086 2.55851 7.2446 1.99984 7.99988 1.99977ZM7.49988 11.9998C7.49988 12.2759 7.72379 12.4997 7.99988 12.4998C8.27602 12.4998 8.49988 12.2759 8.49988 11.9998H7.49988ZM7.99988 3.99977C6.34316 3.99984 5 5.34306 4.99988 6.99977V8.99977C4.99988 9.06332 4.98733 9.1263 4.96375 9.18532L4.23816 10.9998H11.7616L11.036 9.18532C11.0124 9.12633 10.9999 9.06329 10.9999 8.99977V6.99977C10.9998 5.34302 9.65666 3.99977 7.99988 3.99977Z" fill="#010103"/>
<path opacity="0.08" d="M11.5 6H11C7.96244 6 5.5 8.46243 5.5 11.5H12.5L11.5 8.5L11.5 6Z" fill="#010103"/>
</svg>
