<svg width="16" height="16" viewBox="0 0 16 16" fill="none" xmlns="http://www.w3.org/2000/svg">
<path d="M8.5 3.09961C10.0001 3.09961 11.1504 4.3801 11.1504 5.875C11.1504 6.60382 10.8749 7.27995 10.4209 7.7832C11.1673 8.28199 11.6504 9.15762 11.6504 10.125C11.6504 11.6199 10.5001 12.9004 9 12.9004H5.5C4.82831 12.9004 4.34961 12.3335 4.34961 11.7188V4.28125C4.34961 3.66655 4.82831 3.09961 5.5 3.09961H8.5ZM5.65039 11.5996H9C9.70902 11.5996 10.3496 10.9773 10.3496 10.125C10.3496 9.27269 9.70902 8.65039 9 8.65039H5.65039V11.5996ZM5.65039 7.34961H8.5C9.20902 7.34961 9.84961 6.72731 9.84961 5.875C9.84961 5.02269 9.20902 4.40039 8.5 4.40039H5.65039V7.34961Z" fill="#010103"/>
</svg>
