<svg width="16" height="16" viewBox="0 0 16 16" fill="none" xmlns="http://www.w3.org/2000/svg">
<path d="M10.5 1.5C11.6046 1.5 12.5 2.39543 12.5 3.5V12.7148C12.4998 13.6266 11.3789 14.0627 10.7627 13.3906L8.36816 10.7783C8.17004 10.5625 7.82996 10.5625 7.63184 10.7783L5.2373 13.3906C4.62108 14.0627 3.5002 13.6266 3.5 12.7148V3.5C3.5 2.39543 4.39543 1.5 5.5 1.5H10.5ZM5.5 2.5C4.94772 2.5 4.5 2.94772 4.5 3.5V12.7148L6.89453 10.1025C7.489 9.45426 8.511 9.45426 9.10547 10.1025L11.5 12.7148V3.5C11.5 2.94772 11.0523 2.5 10.5 2.5H5.5Z" fill="#010103"/>
<path opacity="0.08" d="M10 2H6C4.89543 2 4 2.89543 4 4V8C7.31371 8 10 5.31371 10 2Z" fill="#010103"/>
</svg>
