<svg width="16" height="16" viewBox="0 0 16 16" fill="none" xmlns="http://www.w3.org/2000/svg">
<path d="M3 11C3.55228 11 4 11.4477 4 12C4 12.5523 3.55228 13 3 13C2.44772 13 2 12.5523 2 12C2 11.4477 2.44772 11 3 11ZM13 11.4004C13.3314 11.4004 13.5996 11.6686 13.5996 12C13.5996 12.3314 13.3314 12.5996 13 12.5996H7C6.66863 12.5996 6.40039 12.3314 6.40039 12C6.40039 11.6686 6.66863 11.4004 7 11.4004H13ZM3 7C3.55228 7 4 7.44772 4 8C4 8.55228 3.55228 9 3 9C2.44772 9 2 8.55228 2 8C2 7.44772 2.44772 7 3 7ZM13 7.40039C13.3314 7.40039 13.5996 7.66863 13.5996 8C13.5996 8.33137 13.3314 8.59961 13 8.59961H7C6.66863 8.59961 6.40039 8.33137 6.40039 8C6.40039 7.66863 6.66863 7.40039 7 7.40039H13ZM3 3C3.55228 3 4 3.44772 4 4C4 4.55228 3.55228 5 3 5C2.44772 5 2 4.55228 2 4C2 3.44772 2.44772 3 3 3ZM13 3.40039C13.3314 3.40039 13.5996 3.66863 13.5996 4C13.5996 4.33137 13.3314 4.59961 13 4.59961H7C6.66863 4.59961 6.40039 4.33137 6.40039 4C6.40039 3.66863 6.66863 3.40039 7 3.40039H13Z" fill="#010103"/>
</svg>
