<svg width="16" height="16" viewBox="0 0 16 16" fill="none" xmlns="http://www.w3.org/2000/svg">
<path opacity="0.08" d="M8 8V2C8.5 1.66667 11.1634 2.66339 12.5 4C14.9 6.4 13.8333 9.66667 13 11L8 8Z" fill="#010103"/>
<path d="M8 1.5C11.5899 1.5 14.5 4.41015 14.5 8C14.5 11.5899 11.5899 14.5 8 14.5C4.41015 14.5 1.5 11.5899 1.5 8C1.5 4.41015 4.41015 1.5 8 1.5ZM7.5 2.52344C4.69679 2.77609 2.5 5.13101 2.5 8C2.5 11.0376 4.96243 13.5 8 13.5C9.82308 13.5 11.4378 12.6121 12.4385 11.2461L7.74316 8.42871C7.59256 8.33835 7.5 8.17563 7.5 8V2.52344ZM8.5 7.7168L12.9551 10.3896C13.3042 9.667 13.5 8.85637 13.5 8C13.5 5.13101 11.3032 2.77609 8.5 2.52344V7.7168Z" fill="#010103"/>
</svg>
