<svg width="16" height="16" viewBox="0 0 16 16" fill="none" xmlns="http://www.w3.org/2000/svg">
<path d="M12.5714 6.33336C12.8081 6.33336 13 6.52523 13 6.76193V12.5714C13 12.8081 12.8081 13 12.5714 13H6.76193C6.52523 13 6.33336 12.8081 6.33336 12.5714V9.66664H8L9.30085 10.9675C9.43584 11.1025 9.66664 11.0069 9.66664 10.816V6.33336H12.5714ZM9.23807 3C9.47477 3 9.66664 3.19188 9.66664 3.42857V6.33336H6.76193C6.52523 6.33336 6.33336 6.52523 6.33336 6.76193V9.66664H3.42857C3.19188 9.66664 3 9.47477 3 9.23807V3.42857C3 3.19188 3.19188 3 3.42857 3H9.23807Z" fill="#262728"/>
</svg>
