<svg width="16" height="16" viewBox="0 0 16 16" fill="none" xmlns="http://www.w3.org/2000/svg">
<path d="M6.61652 4.67931C6.79338 4.46781 7.10871 4.43931 7.32062 4.61583C7.53236 4.79255 7.56044 5.10789 7.38409 5.31993L5.1507 7.99962L7.38409 10.6793C7.56069 10.8912 7.53216 11.2065 7.32062 11.3834C7.10858 11.5601 6.79334 11.5318 6.61652 11.3199L4.11652 8.31993C3.96212 8.13451 3.96204 7.86468 4.11652 7.67931L6.61652 4.67931ZM11.1165 4.67931C11.2934 4.46782 11.6087 4.4393 11.8206 4.61583C12.0324 4.79254 12.0604 5.10789 11.8841 5.31993L9.6507 7.99962L11.8841 10.6793C12.0607 10.8912 12.0321 11.2065 11.8206 11.3834C11.6086 11.5601 11.2933 11.5318 11.1165 11.3199L8.61652 8.31993C8.46211 8.13451 8.46204 7.86468 8.61652 7.67931L11.1165 4.67931Z" fill="#010103"/>
</svg>
