<svg width="16" height="16" viewBox="0 0 16 16" fill="none" xmlns="http://www.w3.org/2000/svg">
<path d="M9.42886 2C10.4206 2.00005 11.3486 2.49023 11.9074 3.30957L13.9533 6.30957C14.6483 7.329 14.6483 8.671 13.9533 9.69043L11.9074 12.6904C11.3486 13.5098 10.4206 13.9999 9.42886 14H6.57144C5.57963 14 4.65179 13.5098 4.09293 12.6904L2.04703 9.69043C1.35194 8.67096 1.35194 7.32904 2.04703 6.30957L4.09293 3.30957C4.65179 2.49023 5.57963 2 6.57144 2H9.42886Z" fill="#D14C4D"/>
<path d="M8.00021 9.7998C8.38671 9.79992 8.70041 10.1135 8.70041 10.5C8.70041 10.8865 8.38671 11.2001 8.00021 11.2002C7.61361 11.2002 7.30002 10.8866 7.30002 10.5C7.30002 10.1134 7.61361 9.7998 8.00021 9.7998ZM8.00021 4.5C8.27626 4.50012 8.50021 4.72393 8.50021 5V8.5C8.50021 8.77607 8.27626 8.99988 8.00021 9C7.72407 9 7.50021 8.77614 7.50021 8.5V5C7.50021 4.72386 7.72407 4.5 8.00021 4.5Z" fill="white"/>
</svg>
