<svg width="16" height="16" viewBox="0 0 16 16" fill="none" xmlns="http://www.w3.org/2000/svg">
<path d="M10.4735 4.81686C10.6688 4.6216 10.9853 4.6216 11.1805 4.81686C11.3755 5.01215 11.3757 5.32873 11.1805 5.5239L8.70496 7.9985L11.1805 10.4731C11.3758 10.6683 11.3757 10.9849 11.1805 11.1801C10.9853 11.3754 10.6688 11.3754 10.4735 11.1801L7.99792 8.70456L5.52332 11.1801C5.32805 11.3754 5.01155 11.3754 4.81628 11.1801C4.62123 10.9849 4.62109 10.6683 4.81628 10.4731L7.29089 7.9985L4.81628 5.5239C4.62114 5.32875 4.62137 5.01215 4.81628 4.81686C5.01155 4.6216 5.32805 4.6216 5.52332 4.81686L7.99792 7.29147L10.4735 4.81686Z" fill="#010103"/>
</svg>
