<svg width="16" height="16" viewBox="0 0 16 16" fill="none" xmlns="http://www.w3.org/2000/svg">
<path opacity="0.08" d="M2.5 2.5C4.5 2.5 8 4.5 8 4.5C8 4.5 11.5 2.5 13.5 2.5V11.5C11.5 11.5 8 13.5 8 13.5C8 13.5 4.5 11.5 2.5 11.5V2.5Z" fill="#010103"/>
<path d="M12.403 2.13469C13.319 1.93427 13.9996 2.69852 13.9996 3.49992V10.4999C13.9996 11.339 13.3307 11.9547 12.6168 12.1113C11.2445 12.4119 9.56738 13.2318 8.73303 13.6708C8.27402 13.9122 7.72522 13.9123 7.26624 13.6708C6.43172 13.2318 4.75467 12.4118 3.38245 12.1113C2.66873 11.9546 1.99963 11.3389 1.99963 10.4999V3.49992C1.99968 2.69862 2.68041 1.93453 3.59631 2.13469C5.11307 2.46694 6.8956 3.34597 7.73206 3.78606C7.89943 3.87399 8.09981 3.87391 8.26721 3.78606C9.10349 3.34605 10.8861 2.46703 12.403 2.13469ZM3.38245 3.11125C3.28189 3.08942 3.19818 3.11665 3.13049 3.17863C3.05747 3.24563 2.99965 3.35906 2.99963 3.49992V10.4999C2.99963 10.7651 3.23171 11.0545 3.59631 11.1347C4.98502 11.4389 6.59549 12.2036 7.49963 12.6679V4.7675C7.42037 4.74089 7.34148 4.71041 7.26624 4.67082C6.43172 4.23176 4.75466 3.41184 3.38245 3.11125ZM12.6168 3.11125C11.2445 3.41193 9.56738 4.23183 8.73303 4.67082C8.65767 4.71045 8.57903 4.74089 8.49963 4.7675V12.6679C9.40361 12.2036 11.014 11.439 12.403 11.1347C12.7678 11.0546 12.9996 10.7652 12.9996 10.4999V3.49992C12.9996 3.35896 12.9419 3.24561 12.8688 3.17863C12.8011 3.11673 12.7174 3.08931 12.6168 3.11125Z" fill="#010103"/>
</svg>
