<svg width="16" height="16" viewBox="0 0 16 16" fill="none" xmlns="http://www.w3.org/2000/svg">
<path d="M11 13C11.2761 13 11.5 13.2239 11.5 13.5C11.5 13.7761 11.2761 14 11 14H5C4.72386 14 4.5 13.7761 4.5 13.5C4.5 13.2239 4.72386 13 5 13H11ZM8 2.5C8.27612 2.50002 8.49999 2.72388 8.5 3V9.43262L10.6797 7.61621C10.8917 7.43956 11.207 7.46786 11.3838 7.67969C11.5604 7.89172 11.5321 8.20697 11.3203 8.38379L8.32031 10.8838C8.314 10.889 8.3063 10.8926 8.2998 10.8975C8.2871 10.9071 8.27435 10.9164 8.26074 10.9248C8.24784 10.9327 8.23411 10.9387 8.2207 10.9453C8.20649 10.9524 8.19267 10.9601 8.17773 10.9658C8.16496 10.9707 8.15172 10.9738 8.13867 10.9775C8.1216 10.9825 8.10468 10.9881 8.08691 10.9912C8.02905 11.0014 7.96996 11.0015 7.91211 10.9912C7.89436 10.9881 7.8774 10.9825 7.86035 10.9775C7.84732 10.9737 7.83404 10.9707 7.82129 10.9658C7.80638 10.9601 7.79251 10.9524 7.77832 10.9453C7.76494 10.9387 7.75115 10.9327 7.73828 10.9248L7.67969 10.8838L4.67969 8.38379C4.46786 8.20696 4.43954 7.89172 4.61621 7.67969C4.79303 7.46785 5.10828 7.43956 5.32031 7.61621L7.5 9.43262V3C7.50001 2.72388 7.72389 2.50003 8 2.5Z" fill="#010103"/>
</svg>
