<svg width="16" height="16" viewBox="0 0 16 16" fill="none" xmlns="http://www.w3.org/2000/svg">
<rect opacity="0.08" x="2" y="2" width="12" height="12" rx="6" fill="#010103"/>
<path d="M8 1.5C11.5899 1.5 14.5 4.41015 14.5 8C14.5 11.5899 11.5899 14.5 8 14.5C4.41015 14.5 1.5 11.5899 1.5 8C1.5 4.41015 4.41015 1.5 8 1.5ZM8 2.5C4.96243 2.5 2.5 4.96243 2.5 8C2.5 11.0376 4.96243 13.5 8 13.5C11.0376 13.5 13.5 11.0376 13.5 8C13.5 4.96243 11.0376 2.5 8 2.5ZM11.1211 9.01465C11.3889 9.0816 11.5522 9.35327 11.4854 9.62109V9.62207H11.4844V9.62402C11.4841 9.62492 11.4837 9.62586 11.4834 9.62695C11.4828 9.62933 11.4823 9.63248 11.4814 9.63574C11.4796 9.64258 11.4767 9.65164 11.4736 9.66211C11.4675 9.6833 11.459 9.71252 11.4473 9.74707C11.4239 9.81602 11.3877 9.90974 11.3369 10.0205C11.2355 10.2417 11.0706 10.5353 10.8135 10.8291C10.2878 11.4298 9.40412 12 8 12C6.59588 12 5.71219 11.4298 5.18652 10.8291C4.9294 10.5353 4.76449 10.2417 4.66309 10.0205C4.61232 9.90974 4.57614 9.81602 4.55273 9.74707C4.54101 9.71252 4.53255 9.6833 4.52637 9.66211C4.52331 9.65164 4.5204 9.64258 4.51855 9.63574C4.51767 9.63248 4.51722 9.62933 4.5166 9.62695C4.51632 9.62586 4.51585 9.62492 4.51562 9.62402V9.62207H4.51465V9.62109C4.44782 9.35327 4.61109 9.0816 4.87891 9.01465C5.1455 8.94813 5.41587 9.10936 5.48438 9.375C5.48455 9.37566 5.48515 9.37876 5.48633 9.38281C5.4887 9.39093 5.49334 9.40516 5.5 9.4248C5.5137 9.46518 5.53624 9.52801 5.57129 9.60449C5.64176 9.75822 5.75817 9.96482 5.93848 10.1709C6.28782 10.5701 6.90417 11 8 11C9.09583 11 9.71218 10.5701 10.0615 10.1709C10.2418 9.96482 10.3582 9.75822 10.4287 9.60449C10.4638 9.52801 10.4863 9.46518 10.5 9.4248C10.5067 9.40516 10.5113 9.39093 10.5137 9.38281C10.5149 9.37876 10.5154 9.37566 10.5156 9.375C10.5841 9.10936 10.8545 8.94813 11.1211 9.01465ZM10 5C10.5523 5 11 5.67157 11 6.5C11 7.32843 10.5523 8 10 8C9.44772 8 9 7.32843 9 6.5C9 5.67157 9.44772 5 10 5ZM7.08203 5.50684C7.35436 5.55222 7.53846 5.8097 7.49316 6.08203L7 6L7.49316 6.08301L7.49219 6.08594C7.49192 6.08749 7.49158 6.08975 7.49121 6.0918C7.49049 6.0958 7.4894 6.10068 7.48828 6.10645C7.48595 6.11843 7.48279 6.1344 7.47852 6.15332C7.46998 6.19103 7.45783 6.24258 7.43945 6.30273C7.4032 6.42132 7.34193 6.58431 7.24414 6.75195C7.0477 7.08864 6.66023 7.5 6 7.5C5.33977 7.5 4.9523 7.08864 4.75586 6.75195C4.65807 6.58431 4.5968 6.42132 4.56055 6.30273C4.54217 6.24258 4.53002 6.19103 4.52148 6.15332C4.51721 6.1344 4.51405 6.11843 4.51172 6.10645C4.5106 6.10068 4.50951 6.0958 4.50879 6.0918C4.50842 6.08975 4.50808 6.08749 4.50781 6.08594L4.50684 6.08398V6.08301C4.5068 6.0828 4.5068 6.0822 5 6L4.50684 6.08203C4.46154 5.8097 4.64564 5.55222 4.91797 5.50684C5.18934 5.46169 5.44548 5.64428 5.49219 5.91504L5.49316 5.91602C5.4937 5.91878 5.49426 5.92453 5.49609 5.93262C5.49992 5.94955 5.50738 5.97635 5.51758 6.00977C5.53862 6.07863 5.57121 6.16584 5.61914 6.24805C5.71439 6.41134 5.82697 6.5 6 6.5C6.17303 6.5 6.28561 6.41134 6.38086 6.24805C6.42879 6.16584 6.46138 6.07863 6.48242 6.00977C6.49262 5.97635 6.50008 5.94955 6.50391 5.93262C6.50573 5.92453 6.5063 5.91878 6.50684 5.91602V5.91504C6.55347 5.64419 6.8106 5.46169 7.08203 5.50684Z" fill="#010103"/>
</svg>
