<svg width="16" height="16" viewBox="0 0 16 16" fill="none" xmlns="http://www.w3.org/2000/svg">
<path d="M12.9995 3.49955C13.2755 3.49955 13.4993 3.72362 13.4995 3.99955V7.49955C13.4995 8.5352 12.7123 9.38655 11.7036 9.48881L11.4995 9.49955H4.06693L5.88333 11.6792C6.06004 11.8913 6.03173 12.2065 5.81985 12.3833C5.60781 12.56 5.29257 12.5317 5.11575 12.3199L2.61575 9.31987C2.61019 9.31317 2.60627 9.30529 2.6011 9.29838C2.59209 9.28636 2.58363 9.2741 2.57571 9.26127C2.56684 9.24686 2.55858 9.23237 2.5513 9.21733C2.54596 9.20633 2.54021 9.19555 2.53568 9.18412C2.52759 9.16369 2.52143 9.14275 2.51614 9.12162C2.51379 9.11222 2.51112 9.1029 2.50931 9.0933C2.50577 9.07458 2.50484 9.05561 2.50345 9.03666C2.50256 9.02451 2.49954 9.01194 2.49954 8.99955C2.49955 8.98702 2.50253 8.97475 2.50345 8.96244C2.50487 8.9435 2.50573 8.92452 2.50931 8.9058C2.51114 8.89621 2.51377 8.88687 2.51614 8.87748C2.52146 8.85638 2.52756 8.83539 2.53568 8.81498C2.53698 8.81172 2.53821 8.80844 2.53958 8.80522L2.56595 8.75248C2.56898 8.74716 2.57247 8.74209 2.57571 8.73686C2.58303 8.72508 2.59091 8.71377 2.59915 8.70268C2.60481 8.69505 2.60961 8.68661 2.61575 8.67924L5.11575 5.67924C5.29245 5.46756 5.60783 5.43952 5.81985 5.61576C6.03171 5.79258 6.05999 6.10782 5.88333 6.31987L4.06693 8.49955H11.4995L11.6021 8.49467C12.1062 8.44334 12.4995 8.01723 12.4995 7.49955V3.99955C12.4998 3.72376 12.7238 3.49979 12.9995 3.49955Z" fill="#010103"/>
</svg>
