<svg width="16" height="16" viewBox="0 0 16 16" fill="none" xmlns="http://www.w3.org/2000/svg">
<path d="M12.9996 3.49955C13.2756 3.49955 13.4993 3.72362 13.4996 3.99955V7.49955C13.4996 8.60412 12.6041 9.49955 11.4996 9.49955H4.06696L5.88336 11.6792C6.06007 11.8913 6.03176 12.2065 5.81989 12.3833C5.60784 12.56 5.2926 12.5317 5.11578 12.3199L2.61578 9.31987C2.61022 9.31317 2.6063 9.30529 2.60114 9.29838C2.59142 9.28542 2.58223 9.27224 2.57379 9.25834C2.56564 9.24489 2.5581 9.23133 2.55133 9.21733C2.54599 9.20633 2.54024 9.19555 2.53571 9.18412C2.52762 9.16369 2.52146 9.14275 2.51617 9.12162C2.51382 9.11222 2.51115 9.1029 2.50934 9.0933C2.5058 9.07458 2.50487 9.05561 2.50348 9.03666C2.50259 9.02451 2.49957 9.01194 2.49957 8.99955C2.49958 8.98702 2.50256 8.97475 2.50348 8.96244C2.5049 8.9435 2.50576 8.92452 2.50934 8.9058C2.51117 8.89621 2.5138 8.88687 2.51617 8.87748C2.52149 8.85638 2.52759 8.83539 2.53571 8.81498C2.54167 8.80002 2.54986 8.78623 2.55719 8.77201C2.56323 8.76026 2.56871 8.74821 2.57574 8.73686C2.58306 8.72508 2.59094 8.71377 2.59918 8.70268C2.60484 8.69505 2.60964 8.68661 2.61578 8.67924L5.11578 5.67924C5.29248 5.46756 5.60786 5.43952 5.81989 5.61576C6.03175 5.79258 6.06002 6.10782 5.88336 6.31987L4.06696 8.49955H11.4996C12.0519 8.49955 12.4996 8.05184 12.4996 7.49955V3.99955C12.4998 3.72376 12.7238 3.49979 12.9996 3.49955Z" fill="#010103"/>
</svg>
