<svg width="16" height="16" viewBox="0 0 16 16" fill="none" xmlns="http://www.w3.org/2000/svg">
<path d="M7 1.99991C7.27611 1.99991 7.49995 2.22381 7.5 2.49991C7.5 2.77605 7.27614 2.99991 7 2.99991H5C3.89546 2.99991 3.00005 3.89538 3 4.99991V10.9999C3 12.1045 3.89543 12.9999 5 12.9999H11C12.1046 12.9999 13 12.1045 13 10.9999V8.99991C13 8.72381 13.2239 8.49991 13.5 8.49991C13.7761 8.49991 14 8.72381 14 8.99991V10.9999C14 12.6568 12.6569 13.9999 11 13.9999H5C3.34315 13.9999 2 12.6568 2 10.9999V4.99991C2.00005 3.3431 3.34318 1.99991 5 1.99991H7ZM13.2979 2.20206C13.3305 2.20204 13.3633 2.20449 13.3955 2.21085C13.4063 2.21296 13.4163 2.21782 13.4268 2.22061C13.4478 2.22622 13.4689 2.23174 13.4893 2.24014C13.5032 2.24591 13.516 2.25369 13.5293 2.26065C13.573 2.28355 13.6147 2.31184 13.6514 2.34854C13.749 2.44621 13.7979 2.57404 13.7979 2.70206V5.53018C13.7979 5.80632 13.574 6.03018 13.2979 6.03018C13.0218 6.03005 12.7979 5.80624 12.7979 5.53018V3.90909L9.05566 7.65128C8.8604 7.84654 8.54389 7.84654 8.34863 7.65128C8.15342 7.45601 8.15339 7.13949 8.34863 6.94424L12.0908 3.20206H10.4697C10.1936 3.20206 9.96981 2.97813 9.96973 2.70206C9.96973 2.42591 10.1936 2.20206 10.4697 2.20206H13.2979Z" fill="#010103"/>
</svg>
