<svg width="16" height="16" viewBox="0 0 16 16" fill="none" xmlns="http://www.w3.org/2000/svg">
<path d="M11.6049 4.59886C12.5694 5.22649 13.4442 6.11779 14.1537 7.26781C14.4303 7.71669 14.4303 8.28377 14.1537 8.73265C12.6234 11.2128 10.3338 12.4999 8.0004 12.5002C6.43086 12.5001 4.88273 11.9154 3.57071 10.7795L4.38126 10.1555C5.49044 11.0585 6.75417 11.5001 8.0004 11.5002C9.94197 11.4999 11.9291 10.4331 13.3022 8.20824C13.3804 8.08111 13.3804 7.91935 13.3022 7.79222C12.589 6.63645 11.7081 5.79574 10.7563 5.25218L11.6049 4.59886ZM9.43594 6.26781C9.93317 6.68052 10.2504 7.30354 10.2504 8.00023C10.2503 9.24249 9.24258 10.2498 8.0004 10.2502C7.09487 10.2501 6.31526 9.71391 5.9584 8.94261L6.78848 8.30394C6.92445 8.84713 7.4152 9.25002 8.0004 9.25023C8.69029 9.24978 9.25027 8.6902 9.2504 8.00023C9.2504 7.52981 8.98987 7.1198 8.60587 6.90648L9.43594 6.26781ZM8.0004 3.50023C8.82837 3.50033 9.65015 3.66469 10.435 3.9846L9.48965 4.71214C8.99775 4.57074 8.4975 4.5003 8.0004 4.50023C6.05871 4.50041 4.07174 5.5672 2.69864 7.79222C2.62033 7.91946 2.62019 8.08106 2.69864 8.20824C2.9496 8.61491 3.22125 8.9829 3.50919 9.31273L2.71622 9.9221C2.40628 9.5621 2.11448 9.16603 1.84708 8.73265C1.57026 8.28371 1.57038 7.7168 1.84708 7.26781C3.37745 4.78757 5.66687 3.50041 8.0004 3.50023ZM8.13126 5.75609L5.79337 7.55492C6.00006 6.52569 6.91039 5.75044 8.0004 5.75023C8.04424 5.75026 8.08804 5.7536 8.13126 5.75609Z" fill="#010103"/>
<path d="M14.1953 2.60352C14.4142 2.43532 14.7282 2.4765 14.8965 2.69531C15.0647 2.91418 15.0235 3.22817 14.8047 3.39648L1.80469 13.3965C1.58582 13.5647 1.27183 13.5235 1.10352 13.3047C0.935317 13.0858 0.976498 12.7718 1.19531 12.6035L14.1953 2.60352Z" fill="black"/>
</svg>
