<svg width="16" height="16" viewBox="0 0 16 16" fill="none" xmlns="http://www.w3.org/2000/svg">
<path d="M8.00012 3.50023C10.3339 3.50026 12.623 4.78722 14.1534 7.26781C14.4302 7.71684 14.4303 8.28367 14.1534 8.73265C12.623 11.2132 10.3338 12.5002 8.00012 12.5002C5.6664 12.5002 3.37728 11.2131 1.8468 8.73265C1.56991 8.28362 1.56994 7.71685 1.8468 7.26781C3.37728 4.78717 5.66633 3.50024 8.00012 3.50023ZM8.00012 4.50023C6.05818 4.50024 4.07158 5.56678 2.69836 7.79222C2.61989 7.91951 2.61984 8.08097 2.69836 8.20824C4.07157 10.4335 6.05824 11.5002 8.00012 11.5002C9.94199 11.5002 11.9287 10.4336 13.3019 8.20824C13.3804 8.08101 13.3803 7.91949 13.3019 7.79222C11.9287 5.5668 9.94203 4.50026 8.00012 4.50023ZM8.00012 5.75023C9.2427 5.7503 10.2501 6.75763 10.2501 8.00023C10.25 9.24272 9.24262 10.2502 8.00012 10.2502C6.75756 10.2502 5.75025 9.24276 5.75012 8.00023C5.75012 6.75759 6.75748 5.75023 8.00012 5.75023ZM8.00012 6.75023C7.30977 6.75023 6.75012 7.30987 6.75012 8.00023C6.75025 8.69048 7.30984 9.25023 8.00012 9.25023C8.69034 9.25016 9.24999 8.69043 9.25012 8.00023C9.25012 7.30992 8.69042 6.7503 8.00012 6.75023Z" fill="#010103"/>
</svg>
