<svg width="16" height="16" viewBox="0 0 16 16" fill="none" xmlns="http://www.w3.org/2000/svg">
<path opacity="0.08" d="M4 7.40502V4.18252C4 3.79911 4.21919 3.44825 4.58152 3.32286C5.02118 3.1707 5.65498 3 6.28571 3C7.42359 3 8.57641 4.11111 9.71429 4.11111C9.97488 4.11111 10.236 4.08197 10.4837 4.03704C11.2097 3.90538 12 4.41277 12 5.15053V8.37303C12 8.75645 11.7808 9.10731 11.4185 9.2327C10.9788 9.38486 10.345 9.55556 9.71429 9.55556C8.57641 9.55556 7.42359 8.44444 6.28571 8.44444C6.02512 8.44444 5.764 8.47358 5.51627 8.51851C4.79035 8.65017 4 8.14279 4 7.40502Z" fill="#010103"/>
<path d="M6.28656 2.5C6.99222 2.50028 7.67414 2.84156 8.2182 3.10547C8.81883 3.3968 9.28277 3.61119 9.71429 3.61133C10.2095 3.61126 10.7254 3.48844 11.1303 3.35742C11.3297 3.2929 11.4965 3.22855 11.6118 3.18066C11.6688 3.15696 11.7134 3.13723 11.7426 3.12402C11.7568 3.1176 11.7682 3.1125 11.7748 3.10938C11.7778 3.10792 11.7804 3.10606 11.7817 3.10547H11.7827L11.8422 3.08105C11.9828 3.03431 12.1387 3.05199 12.2661 3.13184C12.4117 3.22331 12.5004 3.38364 12.5004 3.55566V9C12.5004 9.16776 12.4163 9.32301 12.2797 9.41504L12.2182 9.4502L12.2123 9.45312C12.2093 9.45457 12.2047 9.45661 12.1996 9.45898C12.1891 9.46395 12.1735 9.471 12.1547 9.47949C12.117 9.49656 12.063 9.52079 11.9955 9.54883C11.8602 9.60504 11.6674 9.67963 11.4379 9.75391C10.9847 9.90056 10.3565 10.0556 9.71429 10.0557C9.00865 10.0555 8.32676 9.71413 7.78265 9.4502C7.18206 9.15887 6.71804 8.94462 6.28656 8.94434C5.79143 8.94434 5.27548 9.06723 4.87054 9.19824C4.72814 9.24433 4.60253 9.29104 4.50043 9.33105V13C4.50043 13.276 4.27637 13.4998 4.00043 13.5C3.72428 13.5 3.50043 13.2761 3.50043 13V3.55566C3.50043 3.36396 3.6101 3.18899 3.78265 3.10547H3.78363L3.78461 3.10449C3.78556 3.10402 3.78718 3.10318 3.78851 3.10254C3.79159 3.10108 3.7962 3.09903 3.80121 3.09668C3.81185 3.0917 3.82739 3.08464 3.84613 3.07617C3.88394 3.05908 3.93788 3.03485 4.00531 3.00684C4.1407 2.95061 4.33348 2.87601 4.56293 2.80176C5.01626 2.65511 5.64433 2.5 6.28656 2.5ZM6.28656 3.5C5.79143 3.5 5.27548 3.6229 4.87054 3.75391C4.72814 3.79999 4.60253 3.8467 4.50043 3.88672V8.26758C4.52077 8.26079 4.54194 8.25289 4.56293 8.24609C5.01626 8.09945 5.64434 7.94434 6.28656 7.94434C6.9922 7.94461 7.67415 8.2859 8.2182 8.5498C8.81883 8.84114 9.28277 9.05553 9.71429 9.05566C10.2095 9.05559 10.7254 8.93278 11.1303 8.80176C11.2729 8.75561 11.3983 8.70801 11.5004 8.66797V4.28613C11.4799 4.29297 11.4591 4.30172 11.4379 4.30859C10.9847 4.45527 10.3567 4.61126 9.71429 4.61133C9.00867 4.61119 8.32675 4.26979 7.78265 4.00586C7.18206 3.71454 6.71804 3.50028 6.28656 3.5Z" fill="#010103"/>
</svg>
