<svg width="16" height="16" viewBox="0 0 16 16" fill="none" xmlns="http://www.w3.org/2000/svg">
<path opacity="0.08" d="M9 3.5C9 2.67157 9.67157 2 10.5 2H12.5C13.3284 2 14 2.67157 14 3.5V5.5C14 6.32843 13.3284 7 12.5 7H10.5C9.67157 7 9 6.32843 9 5.5V3.5Z" fill="#010103"/>
<path opacity="0.08" d="M2 10.5C2 9.67157 2.67157 9 3.5 9H5.5C6.32843 9 7 9.67157 7 10.5V12.5C7 13.3284 6.32843 14 5.5 14H3.5C2.67157 14 2 13.3284 2 12.5V10.5Z" fill="#010103"/>
<path d="M5.50024 8.49969C6.6046 8.49983 7.50008 9.39535 7.50024 10.4997V12.4997C7.50024 13.6042 6.6047 14.4996 5.50024 14.4997H3.50024C2.39567 14.4997 1.50024 13.6043 1.50024 12.4997V10.4997C1.50041 9.39527 2.39578 8.49969 3.50024 8.49969H5.50024ZM12.5002 8.49969C13.6046 8.49983 14.5001 9.39535 14.5002 10.4997V12.4997C14.5002 13.6042 13.6047 14.4996 12.5002 14.4997H10.5002C9.39567 14.4997 8.50024 13.6043 8.50024 12.4997V10.4997C8.50041 9.39527 9.39578 8.49969 10.5002 8.49969H12.5002ZM3.50024 9.49969C2.94806 9.49969 2.50041 9.94755 2.50024 10.4997V12.4997C2.50024 13.052 2.94796 13.4997 3.50024 13.4997H5.50024C6.05242 13.4996 6.50024 13.0519 6.50024 12.4997V10.4997C6.50008 9.94763 6.05231 9.49983 5.50024 9.49969H3.50024ZM10.5002 9.49969C9.94806 9.49969 9.50041 9.94755 9.50024 10.4997V12.4997C9.50024 13.052 9.94796 13.4997 10.5002 13.4997H12.5002C13.0524 13.4996 13.5002 13.0519 13.5002 12.4997V10.4997C13.5001 9.94763 13.0523 9.49983 12.5002 9.49969H10.5002ZM5.50024 1.49969C6.6046 1.49983 7.50008 2.39535 7.50024 3.49969V5.49969C7.50024 6.60418 6.6047 7.49956 5.50024 7.49969H3.50024C2.39567 7.49969 1.50024 6.60426 1.50024 5.49969V3.49969C1.50041 2.39527 2.39578 1.49969 3.50024 1.49969H5.50024ZM12.5002 1.49969C13.6046 1.49983 14.5001 2.39535 14.5002 3.49969V5.49969C14.5002 6.60418 13.6047 7.49956 12.5002 7.49969H10.5002C9.39567 7.49969 8.50024 6.60426 8.50024 5.49969V3.49969C8.50041 2.39527 9.39578 1.49969 10.5002 1.49969H12.5002ZM3.50024 2.49969C2.94806 2.49969 2.50041 2.94755 2.50024 3.49969V5.49969C2.50024 6.05198 2.94796 6.49969 3.50024 6.49969H5.50024C6.05242 6.49956 6.50024 6.0519 6.50024 5.49969V3.49969C6.50008 2.94763 6.05231 2.49983 5.50024 2.49969H3.50024ZM10.5002 2.49969C9.94806 2.49969 9.50041 2.94755 9.50024 3.49969V5.49969C9.50024 6.05198 9.94796 6.49969 10.5002 6.49969H12.5002C13.0524 6.49956 13.5002 6.0519 13.5002 5.49969V3.49969C13.5001 2.94763 13.0523 2.49983 12.5002 2.49969H10.5002Z" fill="#010103"/>
</svg>
