<svg width="16" height="16" viewBox="0 0 16 16" fill="none" xmlns="http://www.w3.org/2000/svg">
<path d="M9 2.40039C9.33137 2.40039 9.59961 2.66863 9.59961 3V13C9.59961 13.3314 9.33137 13.5996 9 13.5996C8.66863 13.5996 8.40039 13.3314 8.40039 13V8.59961H2.59961V13C2.59961 13.3314 2.33137 13.5996 2 13.5996C1.66863 13.5996 1.40039 13.3314 1.40039 13V3C1.40039 2.66863 1.66863 2.40039 2 2.40039C2.33137 2.40039 2.59961 2.66863 2.59961 3V7.40039H8.40039V3C8.40039 2.66863 8.66863 2.40039 9 2.40039ZM13.6914 5.98535C13.8767 5.87422 14.1078 5.87106 14.2959 5.97754C14.484 6.08405 14.5996 6.28386 14.5996 6.5V13C14.5996 13.3314 14.3314 13.5996 14 13.5996C13.6686 13.5996 13.4004 13.3314 13.4004 13V7.55957L11.8086 8.51465C11.5245 8.68502 11.1558 8.59269 10.9854 8.30859C10.815 8.02447 10.9073 7.65581 11.1914 7.48535L13.6914 5.98535Z" fill="#010103"/>
</svg>
