<svg width="16" height="16" viewBox="0 0 16 16" fill="none" xmlns="http://www.w3.org/2000/svg">
<path d="M8 2C11.3137 2 14 4.68629 14 8C14 11.3137 11.3137 14 8 14C4.68629 14 2 11.3137 2 8C2 4.68629 4.68629 2 8 2ZM8 3C5.23858 3 3 5.23858 3 8C3 10.7614 5.23858 13 8 13C10.7614 13 13 10.7614 13 8C13 5.23858 10.7614 3 8 3ZM8 4.19141C10.1034 4.19141 11.8086 5.89658 11.8086 8C11.8086 10.1034 10.1034 11.8086 8 11.8086C5.89658 11.8086 4.19141 10.1034 4.19141 8C4.19141 5.89658 5.89658 4.19141 8 4.19141Z" fill="#47AD7A"/>
</svg>
