<svg width="16" height="16" viewBox="0 0 16 16" fill="none" xmlns="http://www.w3.org/2000/svg">
<path d="M7.99988 1.4997C11.5896 1.4997 14.4997 4.40999 14.4999 7.9997C14.4999 11.5896 11.5897 14.4997 7.99988 14.4997C6.0748 14.4997 4.3446 13.6617 3.15515 12.3327C2.97142 12.1269 2.9886 11.8107 3.19421 11.6267C3.39991 11.4429 3.71617 11.4613 3.90027 11.6667C4.90804 12.7925 6.37119 13.4997 7.99988 13.4997C11.0374 13.4997 13.4999 11.0373 13.4999 7.9997C13.4997 4.96227 11.0373 2.4997 7.99988 2.4997C4.96247 2.49977 2.50004 4.96232 2.49988 7.9997C2.49988 8.09496 2.5029 8.18989 2.50769 8.28388L3.14636 7.64619C3.34156 7.45108 3.65814 7.45116 3.85339 7.64619C4.04863 7.84142 4.04857 8.15795 3.85339 8.35322L2.35339 9.85322C2.15813 10.0485 1.84162 10.0485 1.64636 9.85322L0.146362 8.35322C-0.04869 8.15794 -0.0488299 7.84138 0.146362 7.64619C0.341562 7.45108 0.658144 7.45116 0.853394 7.64619L1.50671 8.29951C1.50221 8.2002 1.49988 8.10004 1.49988 7.9997C1.50004 4.41003 4.41019 1.49977 7.99988 1.4997ZM7.99988 4.4997C8.27583 4.49981 8.49972 4.72377 8.49988 4.9997V7.7165L10.7577 9.07099C10.9942 9.21303 11.0703 9.51987 10.9286 9.75654C10.7865 9.99333 10.4798 10.0704 10.243 9.92841L7.74304 8.42841C7.59242 8.33806 7.49988 8.17534 7.49988 7.9997V4.9997C7.50004 4.7237 7.72383 4.4997 7.99988 4.4997Z" fill="#010103"/>
<path opacity="0.08" d="M12 3.5L8 2V8L13 11L14 7.5L12 3.5Z" fill="#010103"/>
</svg>
