<svg width="16" height="16" viewBox="0 0 16 16" fill="none" xmlns="http://www.w3.org/2000/svg">
<path opacity="0.08" d="M6.5 10C6.5 9.17157 7.17157 8.5 8 8.5C8.82843 8.5 9.5 9.17157 9.5 10L9.5 12C9.5 12.8284 8.82843 13.5 8 13.5C7.17157 13.5 6.5 12.8284 6.5 12L6.5 10Z" fill="#010103"/>
<path d="M7.19446 2.42012C7.68581 2.10744 8.31444 2.10744 8.80579 2.42012L13.3058 5.2834C13.7382 5.55875 14.0001 6.03635 14.0001 6.54903V12.5002C14 13.3285 13.3284 14.0001 12.5001 14.0002H3.50012C2.67176 14.0002 2.00023 13.3285 2.00012 12.5002V6.54903C2.00016 6.03628 2.2619 5.55873 2.69446 5.2834L7.19446 2.42012ZM8.26868 3.26387C8.10489 3.15964 7.89535 3.15964 7.73157 3.26387L3.23157 6.12715C3.08739 6.21891 3.00016 6.37813 3.00012 6.54903V12.5002C3.00023 12.7762 3.22405 13.0002 3.50012 13.0002H6.00012V9.5002C6.00012 8.67177 6.6717 8.0002 7.50012 8.0002H8.50012C9.32849 8.00027 10.0001 8.67181 10.0001 9.5002V13.0002H12.5001C12.7761 13.0001 13 12.7762 13.0001 12.5002V6.54903C13.0001 6.3782 12.9128 6.21893 12.7687 6.12715L8.26868 3.26387ZM7.50012 9.0002C7.22398 9.0002 7.00012 9.22406 7.00012 9.5002V13.0002H9.00012V9.5002C9.00012 9.2241 8.77621 9.00027 8.50012 9.0002H7.50012Z" fill="#010103"/>
</svg>
