<svg width="16" height="16" viewBox="0 0 16 16" fill="none" xmlns="http://www.w3.org/2000/svg">
<path opacity="0.08" d="M13 4H12.5C7.80558 4 4 7.80558 4 12.5L8 14L11.5 13L14 9L13 4Z" fill="#010103"/>
<path d="M7.99969 1.4997C11.5894 1.4997 14.4995 4.40999 14.4997 7.9997C14.4997 11.5896 11.5895 14.4997 7.99969 14.4997C4.41 14.4995 1.49969 11.5894 1.49969 7.9997C1.49985 4.4101 4.4101 1.49988 7.99969 1.4997ZM7.99969 2.4997C4.96238 2.49988 2.49985 4.96238 2.49969 7.9997C2.49969 11.0372 4.96228 13.4995 7.99969 13.4997C11.0373 13.4997 13.4997 11.0373 13.4997 7.9997C13.4995 4.96227 11.0372 2.4997 7.99969 2.4997ZM7.99969 6.9997C8.27574 6.9997 8.49954 7.2237 8.49969 7.4997V10.9997C8.49969 11.2758 8.27584 11.4997 7.99969 11.4997C7.72371 11.4995 7.49969 11.2757 7.49969 10.9997V7.4997C7.49985 7.22381 7.7238 6.99988 7.99969 6.9997ZM7.99969 4.46455C8.41391 4.46455 8.74969 4.80033 8.74969 5.21455V5.25361C8.74944 5.66761 8.41375 6.00361 7.99969 6.00361C7.58564 6.00361 7.24995 5.66761 7.24969 5.25361V5.21455C7.24969 4.80033 7.58548 4.46455 7.99969 4.46455Z" fill="#010103"/>
</svg>
