<svg width="16" height="16" viewBox="0 0 16 16" fill="none" xmlns="http://www.w3.org/2000/svg">
<path opacity="0.08" d="M13.2929 5.20711L12.2071 6.29289C11.8166 6.68342 11.1834 6.68342 10.7929 6.29289L9.70711 5.20711C9.31658 4.81658 9.31658 4.18342 9.70711 3.79289L10.7929 2.70711C11.1834 2.31658 11.8166 2.31658 12.2071 2.70711L13.2929 3.79289C13.6834 4.18342 13.6834 4.81658 13.2929 5.20711Z" fill="#010103"/>
<path opacity="0.08" d="M2 10.5C2 9.67157 2.67157 9 3.5 9H5.5C6.32843 9 7 9.67157 7 10.5V12.5C7 13.3284 6.32843 14 5.5 14H3.5C2.67157 14 2 13.3284 2 12.5V10.5Z" fill="#010103"/>
<path d="M4.50024 8.49996C6.15697 8.50009 7.50022 9.84321 7.50024 11.5C7.50024 13.1567 6.15699 14.4998 4.50024 14.5C2.84339 14.5 1.50024 13.1568 1.50024 11.5C1.50027 9.84313 2.8434 8.49996 4.50024 8.49996ZM12.5002 8.49996C13.6047 8.50009 14.5002 9.39549 14.5002 10.5V12.5C14.5002 13.6045 13.6047 14.4998 12.5002 14.5H10.5002C9.39567 14.5 8.50024 13.6045 8.50024 12.5V10.5C8.50027 9.39541 9.39569 8.49996 10.5002 8.49996H12.5002ZM4.50024 9.49996C3.39569 9.49996 2.50027 10.3954 2.50024 11.5C2.50024 12.6045 3.39567 13.5 4.50024 13.5C5.6047 13.4998 6.50024 12.6045 6.50024 11.5C6.50022 10.3955 5.60469 9.50009 4.50024 9.49996ZM10.5002 9.49996C9.94797 9.49996 9.50027 9.94769 9.50024 10.5V12.5C9.50024 13.0522 9.94796 13.5 10.5002 13.5H12.5002C13.0524 13.4998 13.5002 13.0522 13.5002 12.5V10.5C13.5002 9.94778 13.0524 9.50009 12.5002 9.49996H10.5002ZM5.50024 1.49996C6.60469 1.50009 7.50022 2.39549 7.50024 3.49996V5.49996C7.50024 6.60445 6.6047 7.49983 5.50024 7.49996H3.50024C2.39567 7.49996 1.50024 6.60453 1.50024 5.49996V3.49996C1.50027 2.39541 2.39569 1.49996 3.50024 1.49996H5.50024ZM10.7932 1.99996C11.1837 1.60963 11.8168 1.60954 12.2073 1.99996L14.0002 3.79293C14.3906 4.18341 14.3905 4.8165 14.0002 5.20699L12.2073 6.99996C11.8168 7.3904 11.1837 7.39033 10.7932 6.99996L9.00024 5.20699C8.60977 4.81648 8.60977 4.18345 9.00024 3.79293L10.7932 1.99996ZM3.50024 2.49996C2.94797 2.49996 2.50027 2.9477 2.50024 3.49996V5.49996C2.50024 6.05225 2.94796 6.49996 3.50024 6.49996H5.50024C6.05242 6.49983 6.50024 6.05217 6.50024 5.49996V3.49996C6.50022 2.94778 6.0524 2.50009 5.50024 2.49996H3.50024ZM9.70728 4.49996L11.5002 6.29293L13.2932 4.49996L11.5002 2.70699L9.70728 4.49996Z" fill="#010103"/>
</svg>
