<svg width="16" height="16" viewBox="0 0 16 16" fill="none" xmlns="http://www.w3.org/2000/svg">
<path d="M11 3.5C11.2761 3.5 11.5 3.72386 11.5 4C11.5 4.27614 11.2761 4.5 11 4.5H9.45508L7.58008 11.5H8.85742C9.13344 11.5002 9.35742 11.724 9.35742 12C9.35742 12.276 9.13344 12.4998 8.85742 12.5H5C4.72386 12.5 4.5 12.2761 4.5 12C4.5 11.7239 4.72386 11.5 5 11.5H6.54492L8.41992 4.5H7.14258C6.86656 4.49985 6.64258 4.27605 6.64258 4C6.64258 3.72395 6.86656 3.50015 7.14258 3.5H11Z" fill="#010103"/>
</svg>
