<svg width="16" height="16" viewBox="0 0 16 16" fill="none" xmlns="http://www.w3.org/2000/svg">
<path d="M11.5001 3.5C13.1569 3.50005 14.5001 4.84317 14.5001 6.5V9.5C14.5001 11.1568 13.1569 12.5 11.5001 12.5H5.75009C5.12072 12.5 4.5282 12.2036 4.15048 11.7002L2.27548 9.2002C1.74215 8.48908 1.74215 7.51092 2.27548 6.7998L4.15048 4.2998C4.5282 3.79641 5.12072 3.5 5.75009 3.5H11.5001ZM5.75009 4.5C5.43535 4.5 5.13914 4.64861 4.95029 4.90039L3.07529 7.40039C2.80878 7.75588 2.80878 8.24412 3.07529 8.59961L4.95029 11.0996C5.13914 11.3514 5.43535 11.5 5.75009 11.5H11.5001C12.6046 11.5 13.5001 10.6045 13.5001 9.5V6.5C13.5001 5.39546 12.6046 4.50005 11.5001 4.5H5.75009ZM6.25009 7C6.80234 7.00005 7.25009 7.44774 7.25009 8C7.25009 8.55226 6.80234 8.99995 6.25009 9C5.69781 9 5.25009 8.55228 5.25009 8C5.25009 7.44772 5.69781 7 6.25009 7Z" fill="#010103"/>
</svg>
