<svg width="16" height="16" viewBox="0 0 16 16" fill="none" xmlns="http://www.w3.org/2000/svg">
<path d="M11.5001 3.5C13.1569 3.50005 14.5001 4.84317 14.5001 6.5V9.5C14.5001 11.1568 13.1569 12.5 11.5001 12.5H5.75006C5.12069 12.5 4.52817 12.2036 4.15045 11.7002L2.27545 9.2002C1.74212 8.48908 1.74212 7.51092 2.27545 6.7998L4.15045 4.2998C4.52817 3.79641 5.12069 3.5 5.75006 3.5H11.5001ZM5.75006 4.5C5.43532 4.5 5.13911 4.64861 4.95026 4.90039L3.07526 7.40039C2.80875 7.75588 2.80875 8.24412 3.07526 8.59961L4.95026 11.0996C5.13911 11.3514 5.43532 11.5 5.75006 11.5H11.5001C12.6046 11.5 13.5001 10.6045 13.5001 9.5V6.5C13.5001 5.39546 12.6046 4.50005 11.5001 4.5H5.75006ZM6.25006 7C6.80231 7.00005 7.25006 7.44774 7.25006 8C7.25006 8.55226 6.80231 8.99995 6.25006 9C5.69778 9 5.25006 8.55228 5.25006 8C5.25006 7.44772 5.69778 7 6.25006 7Z" fill="#010103"/>
</svg>
