<svg width="16" height="16" viewBox="0 0 16 16" fill="none" xmlns="http://www.w3.org/2000/svg">
<path d="M8.08923 1.7162C8.21373 1.53638 8.44102 1.45763 8.64978 1.52284C8.85818 1.58826 9.00036 1.7819 9.00037 2.00038V6.00038H11.9935C12.1791 6.00059 12.3496 6.10364 12.4359 6.26796C12.522 6.43249 12.5102 6.63178 12.4047 6.78456L7.9115 13.2846C7.78728 13.4642 7.56049 13.5425 7.35193 13.4779C7.14319 13.4128 7.00053 13.219 7.00037 13.0004V9.00038H4.00037C3.81477 9.00037 3.64445 8.89697 3.55798 8.7328C3.47175 8.56821 3.48363 8.36905 3.58923 8.2162L8.08923 1.7162ZM4.95447 8.00038H7.50037C7.77632 8.0006 8.00037 8.22438 8.00037 8.50038V11.3978L11.0404 7.00038H8.50037C8.22438 7.00035 8.00058 6.77632 8.00037 6.50038V3.59999L4.95447 8.00038Z" fill="#010103"/>
</svg>
