<svg width="16" height="16" viewBox="0 0 16 16" fill="none" xmlns="http://www.w3.org/2000/svg">
<path opacity="0.08" d="M4.17774 4.53185L5.55577 2.99533C5.84416 2.67377 6.2289 2.45422 6.65245 2.36951L7.91701 2.1166C8.29745 2.04051 8.69181 2.07672 9.05203 2.22081L11 3C11 6.58985 8.08982 9.5 4.49997 9.5L3.80919 7.76954C3.71503 7.53367 3.66666 7.28203 3.66666 7.02806V5.86719C3.66666 5.3743 3.84866 4.89878 4.17774 4.53185Z" fill="#010103"/>
<path d="M8 1.5C10.753 1.5 12.9999 3.69484 13 6.4209C13 8.21571 12.024 9.7822 10.5742 10.6406C10.4704 10.7021 10.4287 10.7918 10.4287 10.8584V12.0713C10.4287 13.4126 9.34126 14.5 8 14.5C6.65874 14.5 5.57129 13.4126 5.57129 12.0713V10.8584C5.57126 10.7918 5.52963 10.7021 5.42578 10.6406C3.97595 9.7822 3 8.21571 3 6.4209C3.00008 3.69484 5.24701 1.5 8 1.5ZM6.63672 12.5C6.81875 13.0796 7.36033 13.5 8 13.5C8.63967 13.5 9.18125 13.0796 9.36328 12.5H6.63672ZM8 2.5C5.78253 2.5 4.00008 4.26374 4 6.4209C4 7.84237 4.77192 9.09142 5.93555 9.78027C6.29552 9.99338 6.57126 10.386 6.57129 10.8584V11.5H9.42871V10.8584C9.42874 10.386 9.70448 9.99338 10.0645 9.78027C11.2281 9.09142 12 7.84237 12 6.4209C11.9999 4.26374 10.2175 2.5 8 2.5Z" fill="#010103"/>
</svg>
