<svg width="16" height="16" viewBox="0 0 16 16" fill="none" xmlns="http://www.w3.org/2000/svg">
<path d="M8 2C11.3136 2.0001 13.9999 4.68644 14 8C13.9999 11.3136 11.3136 13.9999 8 14C4.68644 13.9999 2.0001 11.3136 2 8C2.0001 4.68644 4.68644 2.0001 8 2ZM8 3C5.23872 3.0001 3.0001 5.23872 3 8C3.0001 10.7613 5.23872 12.9999 8 13C10.7613 12.9999 12.9999 10.7613 13 8C12.9999 5.23872 10.7613 3.0001 8 3ZM8 4.19141C10.1033 4.19151 11.8085 5.89673 11.8086 8C11.8085 10.1033 10.1033 11.8085 8 11.8086V4.19141Z" fill="#D17F3A"/>
</svg>
