<svg width="16" height="16" viewBox="0 0 16 16" fill="none" xmlns="http://www.w3.org/2000/svg">
<path d="M12.3997 6.69989C12.6758 6.69989 12.8996 6.9238 12.8997 7.19989H12.3997L12.8997 7.20087V7.2204C12.8995 7.23098 12.8993 7.24561 12.8987 7.26337C12.8974 7.29909 12.8947 7.34898 12.8899 7.41083C12.8802 7.53475 12.8604 7.70821 12.8225 7.91473C12.7471 8.32594 12.5962 8.88124 12.2883 9.4411C11.9789 10.0038 11.5093 10.5745 10.803 11.0026C10.1991 11.3686 9.44195 11.6153 8.50024 11.6804V13.4997H10.3997C10.6757 13.4997 10.8995 13.7237 10.8997 13.9997C10.8997 14.2758 10.6758 14.4997 10.3997 14.4997H5.59985C5.32378 14.4996 5.09985 14.2758 5.09985 13.9997C5.10002 13.7237 5.32388 13.4998 5.59985 13.4997H7.50024V11.6804C6.55832 11.6153 5.80048 11.3687 5.19653 11.0026C4.49049 10.5746 4.02158 10.0036 3.71216 9.4411C3.40428 8.88128 3.25238 8.32591 3.177 7.91473C3.13916 7.70825 3.11935 7.53473 3.10962 7.41083C3.10476 7.34899 3.10214 7.29908 3.10083 7.26337C3.10018 7.24561 3.10004 7.23098 3.09985 7.2204V7.20087C3.10004 7.20056 3.10981 7.19989 3.59985 7.19989H3.09985C3.09991 6.92385 3.32382 6.69997 3.59985 6.69989C3.87531 6.69989 4.09874 6.92274 4.09985 7.19794C4.09986 7.19837 4.09982 7.2006 4.09985 7.20282C4.09994 7.20735 4.10043 7.2153 4.10083 7.22626C4.10167 7.24905 4.10298 7.28547 4.10669 7.3327C4.11414 7.42744 4.12956 7.56682 4.1604 7.73505C4.22252 8.07373 4.34623 8.51877 4.58813 8.95868C4.8286 9.3959 5.1842 9.82531 5.71509 10.1472C6.24519 10.4684 6.97861 10.6999 8.00024 10.6999C9.02171 10.6998 9.75437 10.4684 10.2844 10.1472C10.8155 9.82529 11.1709 9.39598 11.4114 8.95868C11.6533 8.51872 11.777 8.07378 11.8391 7.73505C11.87 7.56681 11.8854 7.42745 11.8928 7.3327C11.8965 7.28546 11.8978 7.24905 11.8987 7.22626C11.8991 7.2153 11.8996 7.20735 11.8997 7.20282C11.8997 7.2006 11.8997 7.19837 11.8997 7.19794C11.9008 6.92286 12.1244 6.70007 12.3997 6.69989ZM8.2561 1.51239C9.51644 1.6406 10.5001 2.70556 10.5002 3.99969V7.19989C10.5001 8.58044 9.38078 9.69976 8.00024 9.69989C6.61959 9.69989 5.50034 8.58052 5.50024 7.19989V3.99969C5.50042 2.61913 6.61964 1.4997 8.00024 1.49969L8.2561 1.51239ZM8.00024 2.49969C7.17192 2.4997 6.50042 3.17141 6.50024 3.99969V7.19989C6.50034 8.02823 7.17188 8.69989 8.00024 8.69989C8.8285 8.69976 9.50014 8.02815 9.50024 7.19989V3.99969C9.50007 3.17149 8.82846 2.49982 8.00024 2.49969Z" fill="#010103"/>
</svg>
