<svg width="16" height="16" viewBox="0 0 16 16" fill="none" xmlns="http://www.w3.org/2000/svg">
<path d="M12.3999 6.70043C12.6758 6.70068 12.8999 6.92449 12.8999 7.20043H12.3999L12.8999 7.20141V7.22094C12.8997 7.2315 12.8996 7.24629 12.899 7.26391C12.8976 7.29961 12.895 7.34968 12.8902 7.41137C12.8804 7.53526 12.8606 7.70893 12.8228 7.91528C12.7474 8.3264 12.5964 8.88197 12.2886 9.44164C11.9792 10.0041 11.5093 10.5751 10.8033 11.0032C10.1995 11.369 9.44184 11.6158 8.50052 11.6809V13.5002H10.3999C10.6758 13.5005 10.8998 13.7244 10.8999 14.0002C10.8998 14.2761 10.6758 14.5 10.3999 14.5002H5.60013C5.32427 14.5 5.10026 14.2761 5.10013 14.0002C5.1003 13.7244 5.3243 13.5005 5.60013 13.5002H7.50052V11.6809C6.5589 11.6158 5.80063 11.369 5.19681 11.0032C4.82883 10.7801 4.52605 10.5169 4.27591 10.2375L5.07083 9.62524C5.25048 9.81624 5.46288 9.99462 5.71536 10.1477C6.24538 10.4688 6.97926 10.7004 8.00052 10.7004C9.02154 10.7003 9.75475 10.4688 10.2847 10.1477C10.8154 9.82593 11.1712 9.39632 11.4117 8.95922C11.6535 8.51944 11.7772 8.07424 11.8394 7.73559C11.8702 7.56754 11.8856 7.42797 11.8931 7.33324C11.8968 7.28618 11.8981 7.24961 11.899 7.2268C11.8994 7.21604 11.8998 7.20793 11.8999 7.20336C11.9 7.20141 11.8999 7.19922 11.8999 7.19848C11.901 6.9235 12.1248 6.70078 12.3999 6.70043ZM10.5005 7.20043C10.5003 8.58072 9.38077 9.70005 8.00052 9.70043C7.24273 9.70034 6.56537 9.36098 6.10696 8.82836L6.90091 8.21801C7.17483 8.51378 7.56566 8.70034 8.00052 8.70043C8.82848 8.70005 9.50029 8.02843 9.50052 7.20043V6.21899L10.5005 5.44946V7.20043ZM3.60013 6.70043C3.87537 6.70068 4.09902 6.92344 4.10013 7.19848C4.10012 7.19922 4.1001 7.20141 4.10013 7.20336C4.10022 7.20793 4.10071 7.21603 4.1011 7.2268C4.10194 7.24961 4.10327 7.28617 4.10696 7.33324C4.11442 7.42798 4.12987 7.56751 4.16068 7.73559C4.2064 7.98478 4.2855 8.29167 4.42044 8.61156L3.60696 9.23754C3.36893 8.74874 3.2435 8.27637 3.17728 7.91528C3.13946 7.70893 3.11964 7.53526 3.10989 7.41137C3.10505 7.34967 3.10242 7.29961 3.1011 7.26391C3.10046 7.24628 3.10031 7.2315 3.10013 7.22094V7.20141C3.1044 7.20108 3.14883 7.20043 3.60013 7.20043H3.10013C3.10019 6.92449 3.32423 6.70068 3.60013 6.70043ZM8.25638 1.51293C9.49588 1.63925 10.466 2.67151 10.4976 3.93676L9.50052 4.70434V4.00024C9.50035 3.17219 8.82852 2.50061 8.00052 2.50024C7.17234 2.5004 6.50069 3.17206 6.50052 4.00024V7.01196L5.55911 7.73559C5.52146 7.56313 5.50055 7.38417 5.50052 7.20043V4.00024C5.50069 2.61977 6.62005 1.5004 8.00052 1.50024L8.25638 1.51293Z" fill="#010103"/>
<path d="M14.1953 2.60353C14.4142 2.43534 14.7282 2.47652 14.8965 2.69533C15.0647 2.9142 15.0235 3.22819 14.8047 3.3965L1.80472 13.3965C1.58586 13.5647 1.27187 13.5235 1.10355 13.3047C0.935348 13.0858 0.976529 12.7719 1.19534 12.6035L14.1953 2.60353Z" fill="#010103"/>
</svg>
