<svg width="16" height="16" viewBox="0 0 16 16" fill="none" xmlns="http://www.w3.org/2000/svg">
<path d="M9 3.00031H5C3.89543 3.00031 3 3.89574 3 5.00031V11.0003L3.01074 11.2044C3.11314 12.2129 3.96445 13.0003 5 13.0003H11C12.1045 13.0003 12.9998 12.1047 13 11.0003V7.00031H14V11.0003C13.9998 12.657 12.6568 14.0003 11 14.0003H5C3.395 14.0003 2.08437 12.7396 2.00391 11.1546L2 11.0003V5.00031C2 3.34345 3.34315 2.00031 5 2.00031H9V3.00031ZM11.3887 2.50031C11.7792 2.10978 12.4132 2.10978 12.8037 2.50031L13.5107 3.20734C13.9009 3.59784 13.901 4.23096 13.5107 4.6214L10.4355 7.69659C10.296 7.83606 10.1182 7.93129 9.9248 7.97003L9.04102 8.14679C8.34135 8.28671 7.72443 7.66969 7.86426 6.97003L8.04102 6.08624C8.07973 5.89266 8.17486 5.71412 8.31445 5.57452L11.3887 2.50031ZM9.02148 6.28253L8.84473 7.16632L9.72852 6.98956L11.7549 4.96222L11.0479 4.25519L9.02148 6.28253ZM11.7549 3.54816L12.4619 4.25519L12.8037 3.91437L12.0967 3.20734L11.7549 3.54816Z" fill="#010103"/>
<path opacity="0.08" d="M2.5 6.5V13.5H12.4825C12.4922 13.5 12.5 13.4922 12.5 13.4825C12.5 9.62619 9.37381 6.5 5.51746 6.5H2.5Z" fill="#010103"/>
</svg>
