<svg width="16" height="16" viewBox="0 0 16 16" fill="none" xmlns="http://www.w3.org/2000/svg">
<path d="M11.0005 2C12.6571 2.00025 14.0005 3.3433 14.0005 5V11C14.0005 12.6567 12.6571 13.9997 11.0005 14H5.00049C3.34363 14 2.00049 12.6569 2.00049 11V5C2.00049 3.34315 3.34363 2 5.00049 2H11.0005ZM5.00049 3C3.89592 3 3.00049 3.89543 3.00049 5V11C3.00049 12.1046 3.89592 13 5.00049 13H11.0005C12.1048 12.9997 13.0005 12.1044 13.0005 11V5C13.0005 3.89559 12.1048 3.00025 11.0005 3H5.00049ZM9.64697 5.64648C9.84225 5.45146 10.1588 5.4513 10.354 5.64648C10.549 5.84169 10.549 6.15831 10.354 6.35352L6.354 10.3535C6.15882 10.5487 5.84225 10.5485 5.64697 10.3535C5.45171 10.1583 5.45171 9.84175 5.64697 9.64648L9.64697 5.64648Z" fill="#010103"/>
</svg>
