<svg width="16" height="16" viewBox="0 0 16 16" fill="none" xmlns="http://www.w3.org/2000/svg">
<path d="M3.5 9.5C4.05228 9.5 4.5 9.94772 4.5 10.5V12.5C4.5 13.0523 4.05228 13.5 3.5 13.5H2.5C1.94772 13.5 1.5 13.0523 1.5 12.5V10.5C1.5 9.94772 1.94772 9.5 2.5 9.5H3.5ZM8.5 6C9.05228 6 9.5 6.44772 9.5 7V12.5C9.5 13.0523 9.05228 13.5 8.5 13.5H7.5C6.94772 13.5 6.5 13.0523 6.5 12.5V7C6.5 6.44772 6.94772 6 7.5 6H8.5Z" fill="#010103"/>
<path opacity="0.4" d="M13.5 2.5C14.0523 2.5 14.5 2.94772 14.5 3.5V12.5C14.5 13.0523 14.0523 13.5 13.5 13.5H12.5C11.9477 13.5 11.5 13.0523 11.5 12.5V3.5C11.5 2.94772 11.9477 2.5 12.5 2.5H13.5Z" fill="#010103"/>
</svg>
