<svg width="16" height="16" viewBox="0 0 16 16" fill="none" xmlns="http://www.w3.org/2000/svg">
<path opacity="0.08" d="M6.5 7L4 7C3.44772 7 3 6.55228 3 6V5.91421C3 5.649 3.10536 5.39464 3.29289 5.20711L5.70711 2.79289C5.89464 2.60536 6.149 2.5 6.41421 2.5H6.5C7.05228 2.5 7.5 2.94772 7.5 3.5L7.5 6C7.5 6.55228 7.05228 7 6.5 7Z" fill="#010103"/>
<path opacity="0.08" d="M13.2686 8.95625L12.9045 8.59218C12.6145 8.30219 12.1444 8.30219 11.8544 8.59218C11.5644 8.88216 11.5644 9.35232 11.8544 9.64231L12.2185 10.0064C12.5085 10.2964 12.9786 10.2964 13.2686 10.0064C13.5586 9.7164 13.5586 9.24624 13.2686 8.95625Z" fill="#010103"/>
<path d="M10 2C11.6569 2 13 3.34315 13 5V6.5H12V5C12 3.89543 11.1046 3 10 3H8V6C8 6.82843 7.32843 7.5 6.5 7.5H4V11C4 12.1046 4.89543 13 6 13H7V14H6C4.34315 14 3 12.6569 3 11V6.12109C3.00006 5.59074 3.21092 5.08205 3.58594 4.70703L5.70703 2.58594C6.08205 2.21092 6.59074 2.00006 7.12109 2H10ZM7 3.00781C6.77948 3.03478 6.57276 3.13427 6.41406 3.29297L4.29297 5.41406C4.10549 5.60155 4.00006 5.85596 4 6.12109V6.5H6.5C6.77614 6.5 7 6.27614 7 6V3.00781Z" fill="#010103"/>
<path d="M13.7937 8.77421C14.1842 9.16474 14.1842 9.7979 13.7937 10.1884L10.7187 13.2634C10.5791 13.403 10.4013 13.4981 10.2077 13.5368L9.32384 13.7136C8.62414 13.8535 8.00724 13.2366 8.14717 12.5369L8.32395 11.6531C8.36267 11.4595 8.45781 11.2817 8.5974 11.1421L11.6723 8.06711C12.0629 7.67658 12.696 7.67659 13.0866 8.06711L13.7937 8.77421ZM11.3188 9.83487L9.30451 11.8492L9.12773 12.733L10.0116 12.5563L12.0259 10.542L11.3188 9.83487ZM12.0259 9.12777L12.733 9.83487L13.0866 9.48132L12.3795 8.77421L12.0259 9.12777Z" fill="#010103"/>
</svg>
