<svg width="16" height="16" viewBox="0 0 16 16" fill="none" xmlns="http://www.w3.org/2000/svg">
<path opacity="0.08" d="M12 13.5L13.5 12V9V6C9.35786 6 6 9.35786 6 13.5H9H12Z" fill="#010103"/>
<path d="M11 2C12.6569 2 14 3.34315 14 5V11C14 12.6569 12.6569 14 11 14H5C3.34315 14 2 12.6569 2 11V5C2 3.34315 3.34315 2 5 2H11ZM5 3C3.89543 3 3 3.89543 3 5V11C3 12.1046 3.89543 13 5 13H11C12.1046 13 13 12.1046 13 11V5C13 3.89543 12.1046 3 11 3H5ZM8.5 9C8.77614 9 9 9.22386 9 9.5C9 9.77614 8.77614 10 8.5 10H5.5C5.22386 10 5 9.77614 5 9.5C5 9.22386 5.22386 9 5.5 9H8.5ZM10.5 6C10.7761 6 11 6.22386 11 6.5C11 6.77614 10.7761 7 10.5 7H5.5C5.22386 7 5 6.77614 5 6.5C5 6.22386 5.22386 6 5.5 6H10.5Z" fill="#010103"/>
</svg>
