<svg width="16" height="16" viewBox="0 0 16 16" fill="none" xmlns="http://www.w3.org/2000/svg">
<path opacity="0.08" d="M5.25562 3C5.69722 3 6.08673 3.28991 6.21362 3.71289L6.57788 4.92773C6.68354 5.27994 6.58774 5.66175 6.32788 5.92188L6.19702 6.05273C5.89542 6.35447 5.81307 6.81801 6.03296 7.18359C6.71878 8.32318 7.67659 9.28097 8.81616 9.9668C9.18178 10.1868 9.64523 10.1044 9.94702 9.80273L10.0779 9.67188C10.338 9.41202 10.7198 9.31621 11.072 9.42188L12.2869 9.78613C12.7098 9.91303 12.9998 10.3025 12.9998 10.7441V12C12.9998 12.5522 12.5511 13.0054 12.0017 12.9512C7.27632 12.4827 3.51827 8.72435 3.04956 3.99902C2.99508 3.44951 3.44757 3.00012 3.99976 3H5.25562Z" fill="#010103"/>
<path d="M5.25537 2.50025C5.91778 2.50025 6.50155 2.93511 6.69189 3.56958L7.05713 4.78443C7.21562 5.31294 7.07131 5.88645 6.68115 6.27662L6.55029 6.4065C6.39221 6.56493 6.37327 6.7795 6.46143 6.92603C7.10511 7.99559 8.0042 8.89461 9.07373 9.53833C9.22026 9.62652 9.43482 9.60756 9.59326 9.44947L9.72314 9.31861C10.1132 8.92851 10.6869 8.78427 11.2153 8.94263L12.4302 9.30787C13.0647 9.49821 13.4995 10.082 13.4995 10.7444V12.0002C13.4994 12.8137 12.8284 13.5354 11.9517 13.4485C6.98927 12.9563 3.04336 9.01053 2.55127 4.0481C2.46439 3.17142 3.18611 2.50051 3.99951 2.50025H5.25537ZM3.99951 3.50025C3.70886 3.5005 3.52439 3.72731 3.54639 3.94947C3.99146 8.43763 7.56216 12.0082 12.0503 12.4534C12.2725 12.4754 12.4994 12.291 12.4995 12.0002V10.7444C12.4995 10.5236 12.3546 10.3283 12.1431 10.2649L10.9282 9.90064C10.7521 9.84797 10.5611 9.89664 10.4312 10.0266L10.3003 10.1565C9.85516 10.6013 9.14263 10.7466 8.55811 10.3948C7.34883 9.66692 6.3328 8.65096 5.60498 7.44165C5.25323 6.85713 5.39849 6.14459 5.84326 5.69947L5.97314 5.56861C6.10319 5.43856 6.15193 5.24769 6.09912 5.07154L5.73486 3.85669C5.67142 3.6452 5.47618 3.50025 5.25537 3.50025H3.99951ZM13.0005 2.50025C13.0329 2.50028 13.0653 2.50276 13.0972 2.50904C13.1129 2.51214 13.1279 2.51816 13.1431 2.52271C13.159 2.52747 13.1754 2.53097 13.1909 2.53736C13.2108 2.54558 13.229 2.557 13.2476 2.56763C13.2567 2.57289 13.267 2.57639 13.2759 2.58228C13.3316 2.61917 13.3794 2.66728 13.4165 2.7229C13.4219 2.73093 13.4253 2.74004 13.4302 2.74829C13.4414 2.7675 13.4518 2.78714 13.4604 2.80787C13.4656 2.8203 13.469 2.83322 13.4731 2.84595C13.489 2.8947 13.5005 2.9462 13.5005 3.00025V6.00025C13.5004 6.27612 13.2763 6.49999 13.0005 6.50025C12.7244 6.50025 12.5006 6.27627 12.5005 6.00025V4.20728L10.354 6.35376C10.1589 6.54891 9.84226 6.54866 9.64697 6.35376C9.45171 6.1585 9.45171 5.84199 9.64697 5.64673L11.7935 3.50025H10.0005C9.72443 3.50025 9.50062 3.27627 9.50049 3.00025C9.50049 2.72411 9.72435 2.50025 10.0005 2.50025H13.0005Z" fill="#010103"/>
</svg>
