<svg width="16" height="16" viewBox="0 0 16 16" fill="none" xmlns="http://www.w3.org/2000/svg">
<g clip-path="url(#clip0_5023_11256)">
<path opacity="0.08" fill-rule="evenodd" clip-rule="evenodd" d="M7.89998 3.82161C8.29052 3.4312 8.92356 3.43112 9.31405 3.82161L12.8414 7.34895C13.2319 7.73944 13.2318 8.37248 12.8414 8.76302L12.5064 9.09798C12.3626 9.24179 12.1298 9.24182 11.9859 9.09798L7.56502 4.67708C7.42118 4.53324 7.42121 4.30043 7.56502 4.15657L7.89998 3.82161Z" fill="#010103"/>
<path fill-rule="evenodd" clip-rule="evenodd" d="M13.9605 7.59637C14.1555 7.79162 14.1556 8.1083 13.9605 8.30348L12.5463 9.71769C12.3512 9.91286 12.0345 9.91267 11.8392 9.71769L11.1321 9.01059L9.68268 10.46C10.3256 11.4306 10.2194 12.7516 9.36434 13.6068L9.30565 13.6655C8.94775 14.0234 8.36683 14.0232 8.00882 13.6655L5.82881 11.4855L3.70749 13.6068C3.51231 13.802 3.19566 13.8018 3.00038 13.6068C2.80512 13.4115 2.80512 13.0949 3.00038 12.8997L5.1217 10.7784L2.93754 8.59419C2.5819 8.23855 2.5819 7.6613 2.93754 7.30566L2.97483 7.26837C3.83017 6.41313 5.15092 6.30668 6.12159 6.95003L7.59657 5.47505L6.88947 4.76795C6.6942 4.57268 6.6942 4.2561 6.88947 4.06084L8.30368 2.64662C8.49895 2.45147 8.81556 2.4514 9.01079 2.64662L13.9605 7.59637ZM6.53591 7.94993C6.53178 7.95406 6.52634 7.95702 6.5221 7.96097C6.5179 7.9655 6.51477 7.97107 6.51036 7.97548C6.31518 8.17048 5.99849 8.17041 5.80326 7.97548C5.226 7.39822 4.29642 7.39087 3.70887 7.95131L8.65723 12.8997C9.24282 12.314 9.24271 11.3641 8.65723 10.7784C8.4863 10.6074 8.46467 10.3434 8.59301 10.1493L8.65723 10.0712L10.425 8.30348L8.30368 6.18216L6.53591 7.94993ZM7.95013 4.41439L12.1928 8.65703L12.8999 7.94993L8.65723 3.70728L7.95013 4.41439Z" fill="#010103"/>
</g>
<defs>
<clipPath id="clip0_5023_11256">
<rect width="16" height="16" fill="white"/>
</clipPath>
</defs>
</svg>
