<svg width="16" height="16" viewBox="0 0 16 16" fill="none" xmlns="http://www.w3.org/2000/svg">
<path opacity="0.08" d="M7.7926 3.20675C8.18299 2.81638 8.81611 2.81665 9.20667 3.20675L12.7926 6.79269C13.1831 7.1832 13.1831 7.81622 12.7926 8.20675L12.7067 8.29269C12.3161 8.6831 11.6831 8.68318 11.2926 8.29269L7.70667 4.70675C7.3166 4.31623 7.31641 3.68308 7.70667 3.29269L7.7926 3.20675Z" fill="#010103"/>
<path fill-rule="evenodd" clip-rule="evenodd" d="M7.22793 2.4393C7.81372 1.85357 8.76321 1.85363 9.34903 2.4393L13.5639 6.65316C14.1495 7.23887 14.1495 8.18852 13.5639 8.77426L13.2895 9.04867C12.7037 9.63427 11.7542 9.63424 11.1684 9.04867L11.0229 8.90316L9.40957 10.5155L9.42032 10.5252C10.2749 11.3797 10.2748 12.7664 9.42032 13.6209C8.91289 14.1278 8.0898 14.1279 7.58243 13.6209L5.33438 11.3729L3.93008 12.7782C3.73481 12.9734 3.41832 12.9734 3.22305 12.7782C3.02778 12.5829 3.02778 12.2664 3.22305 12.0711L4.62735 10.6659L2.38028 8.41879C1.87326 7.91149 1.87322 7.08909 2.38028 6.58187C3.23489 5.72747 4.62141 5.72739 5.47598 6.58187L5.48575 6.59164L7.09903 4.97933L6.95352 4.8348C6.36779 4.24914 6.36797 3.29949 6.95352 2.71371L7.22793 2.4393ZM5.84024 7.65219C5.64496 7.84742 5.32749 7.84743 5.13223 7.65219L4.76895 7.2889C4.30494 6.82494 3.55236 6.82505 3.08828 7.2889C2.97151 7.40561 2.97077 7.5949 3.08731 7.71176L8.28946 12.9139C8.40642 13.0305 8.59644 13.0297 8.71328 12.9129C9.17699 12.4489 9.17723 11.6962 8.71328 11.2323L8.34903 10.869C8.25534 10.7753 8.20259 10.648 8.20254 10.5155C8.20261 10.3831 8.25546 10.2556 8.34903 10.162L10.3158 8.19613L7.80606 5.68637L5.84024 7.65219ZM8.642 3.14633C8.44672 2.95112 8.13022 2.95109 7.93496 3.14633L7.66055 3.42074C7.46558 3.61602 7.46538 3.93262 7.66055 4.12777L11.8754 8.34164C12.0707 8.53675 12.3872 8.53678 12.5824 8.34164L12.8568 8.06722C13.0519 7.87198 13.052 7.55538 12.8568 7.36019L8.642 3.14633Z" fill="#010103"/>
</svg>
