<svg width="16" height="16" viewBox="0 0 16 16" fill="none" xmlns="http://www.w3.org/2000/svg">
<path d="M7.99963 3.5C8.27578 3.5 8.49963 3.72386 8.49963 4V7.5H11.9996C12.2758 7.5 12.4996 7.72386 12.4996 8C12.4996 8.27614 12.2758 8.5 11.9996 8.5H8.49963V12C8.49963 12.2761 8.27578 12.5 7.99963 12.5C7.72365 12.4998 7.49963 12.276 7.49963 12V8.5H3.99963C3.72366 8.4998 3.49963 8.27602 3.49963 8C3.49963 7.72398 3.72366 7.5002 3.99963 7.5H7.49963V4C7.49963 3.72397 7.72365 3.50018 7.99963 3.5Z" fill="#010103"/>
</svg>
