<svg width="16" height="16" viewBox="0 0 16 16" fill="none" xmlns="http://www.w3.org/2000/svg">
<path opacity="0.08" d="M1.66995 7.32904C5.3427 4.31887 10.6574 4.31887 14.3301 7.32904C14.757 7.67909 14.7545 8.31647 14.3643 8.70697L13.4756 9.59565C13.1634 9.90757 12.6836 9.97766 12.295 9.7685L11.1778 9.16693C10.854 8.99259 10.6516 8.65476 10.6514 8.28705V8.10248C10.6514 7.67569 10.382 7.28943 9.9678 7.18647C8.67712 6.86564 7.32294 6.86565 6.03226 7.18647C5.61807 7.28943 5.34866 7.67569 5.34866 8.10248V8.28705C5.34849 8.65476 5.14607 8.9926 4.8223 9.16693L3.70511 9.7685C3.31646 9.97768 2.83667 9.90756 2.52444 9.59565L1.63577 8.70697C1.24549 8.31647 1.243 7.67909 1.66995 7.32904Z" fill="#010103"/>
<path d="M1.35248 6.9417C5.20953 3.78047 10.7903 3.78047 14.6474 6.9417C15.3289 7.50028 15.293 8.48553 14.7177 9.06084L13.829 9.94853C13.3606 10.4168 12.6407 10.5223 12.0576 10.2083L10.9404 9.60771C10.4545 9.34608 10.1513 8.83823 10.1513 8.28642V8.10185C10.1511 7.87814 10.0134 7.71361 9.8476 7.67216C8.63618 7.37104 7.36468 7.3711 6.15326 7.67216C5.98725 7.71343 5.84874 7.87794 5.84857 8.10185V8.28642C5.84857 8.83823 5.54535 9.34608 5.05951 9.60771L3.94232 10.2083C3.35913 10.5223 2.63922 10.4168 2.17084 9.94853L1.28217 9.06084C0.706946 8.48554 0.671098 7.50027 1.35248 6.9417ZM14.0136 7.71513C10.5253 4.85613 5.47568 4.85637 1.98724 7.71513C1.81452 7.85673 1.78356 8.14809 1.9892 8.35381L2.87787 9.2415C3.034 9.39756 3.27431 9.43308 3.46869 9.32841L4.5849 8.72685C4.74685 8.63965 4.8476 8.47036 4.8476 8.28642L4.84857 8.10185C4.84875 7.47253 5.24992 6.86606 5.91205 6.70146C7.28167 6.36108 8.7182 6.3611 10.0878 6.70146C10.75 6.86606 11.1511 7.47253 11.1513 8.10185L11.1523 8.28642C11.1523 8.47036 11.253 8.63965 11.415 8.72685L12.5312 9.32841C12.7255 9.43307 12.9659 9.39751 13.122 9.2415L14.0107 8.35381C14.2163 8.14812 14.1863 7.85677 14.0136 7.71513Z" fill="#010103"/>
</svg>
