<svg width="16" height="16" viewBox="0 0 16 16" fill="none" xmlns="http://www.w3.org/2000/svg">
<path d="M7.00024 3.50032C7.27627 3.50046 7.50024 3.72426 7.50024 4.00032C7.50007 4.27624 7.27617 4.50019 7.00024 4.50032H4.50024C3.94796 4.50032 3.50024 4.94804 3.50024 5.50032V7.50032C3.50042 8.05246 3.94807 8.50032 4.50024 8.50032H11.9319L10.1165 6.32064C9.93976 6.1086 9.96807 5.79336 10.1799 5.61653C10.392 5.43983 10.7072 5.46814 10.884 5.68001L13.384 8.68001C13.3894 8.6865 13.3937 8.69383 13.3987 8.70052C13.4077 8.71251 13.4161 8.72483 13.4241 8.73763C13.4317 8.75 13.4381 8.76286 13.4446 8.77571C13.4523 8.79105 13.4599 8.80639 13.4661 8.82259C13.4715 8.83703 13.4756 8.85175 13.4797 8.86653C13.4835 8.88006 13.4869 8.89359 13.4895 8.90755C13.4928 8.92536 13.494 8.94324 13.4954 8.96126C13.4964 8.97413 13.5002 8.9872 13.5002 9.00032C13.5002 9.01256 13.4962 9.02444 13.4954 9.03646C13.494 9.05545 13.4931 9.07433 13.4895 9.0931C13.4874 9.10437 13.4846 9.11531 13.4817 9.1263C13.477 9.14414 13.4717 9.1617 13.4651 9.17903C13.4599 9.19247 13.4538 9.20525 13.4475 9.2181C13.4396 9.23444 13.431 9.25037 13.4211 9.26595C13.415 9.27569 13.4084 9.28499 13.4016 9.29427C13.3954 9.30271 13.3908 9.31251 13.384 9.32064L10.884 12.3206C10.7073 12.5323 10.3919 12.5605 10.1799 12.3841C9.96808 12.2073 9.93982 11.8921 10.1165 11.68L11.9319 9.50032H4.50024C3.39578 9.50032 2.50042 8.60475 2.50024 7.50032V5.50032C2.50024 4.39575 3.39567 3.50032 4.50024 3.50032H7.00024Z" fill="#010103"/>
</svg>
