<svg width="16" height="16" viewBox="0 0 16 16" fill="none" xmlns="http://www.w3.org/2000/svg">
<path d="M11.1543 2.00391C12.7394 2.08421 14 3.39489 14 5V11C14 12.6569 12.6569 14 11 14H5C3.39489 14 2.08421 12.7394 2.00391 11.1543L2 11V5C2 3.34315 3.34315 2 5 2H11L11.1543 2.00391ZM5 3C3.89543 3 3 3.89543 3 5V11L3.01074 11.2041C3.113 12.2128 3.96435 13 5 13H11C12.1046 13 13 12.1046 13 11V8.5H8.20703L9.35352 9.64648C9.54878 9.84175 9.54878 10.1583 9.35352 10.3535C9.15825 10.5488 8.84175 10.5488 8.64648 10.3535L6.64648 8.35352C6.6123 8.31933 6.58569 8.28055 6.56348 8.24023C6.53909 8.19602 6.51889 8.14875 6.50879 8.09766C6.496 8.03302 6.49587 7.96599 6.50879 7.90137C6.51898 7.85033 6.53903 7.80293 6.56348 7.75879C6.58563 7.71875 6.61251 7.68046 6.64648 7.64648L8.64648 5.64648C8.84175 5.45122 9.15825 5.45122 9.35352 5.64648C9.54878 5.84175 9.54878 6.15825 9.35352 6.35352L8.20703 7.5H13V5C13 3.96435 12.2128 3.113 11.2041 3.01074L11 3H5Z" fill="#010103"/>
</svg>
