<svg width="16" height="16" viewBox="0 0 16 16" fill="none" xmlns="http://www.w3.org/2000/svg">
<path opacity="0.08" d="M10 2.5H11C12.3807 2.5 13.5 3.61929 13.5 5V11C13.5 12.3807 12.3807 13.5 11 13.5H10V2.5Z" fill="#010103"/>
<path d="M11 2C12.6569 2 14 3.34315 14 5V11C14 12.6569 12.6569 14 11 14H5C3.34315 14 2 12.6569 2 11V5C2 3.34315 3.34315 2 5 2H11ZM10.5 13H11C12.1046 13 13 12.1046 13 11V5C13 3.89543 12.1046 3 11 3H10.5V13ZM5 3C3.89543 3 3 3.89543 3 5V11C3 12.1046 3.89543 13 5 13H9.5V3H5Z" fill="#010103"/>
</svg>
