<svg width="16" height="16" viewBox="0 0 16 16" fill="none" xmlns="http://www.w3.org/2000/svg">
<path d="M6.40039 8.32129C6.56454 8.32129 6.72727 8.35468 6.87793 8.41895C7.02856 8.48321 7.16399 8.57736 7.27637 8.69531C7.38871 8.81324 7.4756 8.95228 7.53125 9.10449C7.58688 9.2567 7.61078 9.4186 7.60059 9.58008V12.7412C7.61077 12.9027 7.58687 13.0646 7.53125 13.2168C7.47559 13.369 7.38871 13.5081 7.27637 13.626C7.16398 13.7439 7.02857 13.8381 6.87793 13.9023C6.72727 13.9666 6.56454 14 6.40039 14C6.23642 14 6.07433 13.9665 5.92383 13.9023C5.77317 13.8381 5.63681 13.7439 5.52441 13.626C5.41218 13.5081 5.32513 13.3689 5.26953 13.2168C5.21391 13.0646 5.19099 12.9027 5.20117 12.7412V9.58008C5.19098 9.41863 5.21393 9.25667 5.26953 9.10449C5.32512 8.95239 5.4122 8.8132 5.52441 8.69531C5.63681 8.57734 5.77317 8.48321 5.92383 8.41895C6.07434 8.35476 6.23641 8.32134 6.40039 8.32129ZM9.60156 11.5557C9.83928 11.5557 10.0719 11.6256 10.2695 11.7559C10.467 11.886 10.621 12.0708 10.7119 12.2871C10.8028 12.5036 10.8265 12.7419 10.7803 12.9717C10.7339 13.2016 10.6193 13.4133 10.4512 13.5791C10.2831 13.7447 10.069 13.8576 9.83594 13.9033C9.60282 13.949 9.36119 13.9256 9.1416 13.8359C8.92205 13.7463 8.7346 13.5942 8.60254 13.3994C8.47053 13.2046 8.39948 12.9755 8.39941 12.7412V11.5557H9.60156ZM4.40234 8.39551V9.58008C4.41257 9.74151 4.38858 9.90348 4.33301 10.0557C4.27735 10.2079 4.19052 10.3478 4.07812 10.4658C3.96577 10.5837 3.83026 10.6779 3.67969 10.7422C3.52903 10.8065 3.3663 10.8398 3.20215 10.8398C3.03804 10.8398 2.87523 10.8064 2.72461 10.7422C2.57407 10.6779 2.43849 10.5837 2.32617 10.4658C2.21378 10.3478 2.12695 10.2079 2.07129 10.0557C2.01574 9.9035 1.99271 9.74149 2.00293 9.58008C2.00299 9.26661 2.12917 8.96623 2.35352 8.74414C2.5779 8.52205 2.88227 8.39673 3.2002 8.39551H4.40234ZM12.7959 8.39551C13.1146 8.39551 13.4201 8.52006 13.6455 8.74219C13.8709 8.96441 13.998 9.26582 13.998 9.58008C13.998 9.89351 13.8717 10.1949 13.6475 10.417C13.4233 10.6388 13.1193 10.7641 12.8018 10.7656H9.60254C9.2839 10.7655 8.97825 10.6402 8.75293 10.418C8.52768 10.1957 8.40137 9.8943 8.40137 9.58008C8.40143 9.26583 8.52759 8.96441 8.75293 8.74219C8.97825 8.52 9.2839 8.39561 9.60254 8.39551H12.7959ZM9.59961 2C9.76376 2 9.92649 2.03339 10.0771 2.09766C10.2278 2.16192 10.3632 2.25608 10.4756 2.37402C10.5879 2.49194 10.6748 2.63101 10.7305 2.7832C10.7861 2.93538 10.81 3.09734 10.7998 3.25879V6.41992C10.81 6.5814 10.7861 6.7433 10.7305 6.89551C10.6748 7.04771 10.5879 7.18676 10.4756 7.30469C10.3632 7.42262 10.2278 7.51679 10.0771 7.58105C9.92649 7.64532 9.76376 7.67871 9.59961 7.67871C9.43563 7.67867 9.27356 7.64523 9.12305 7.58105C8.97239 7.51679 8.83603 7.42266 8.72363 7.30469C8.61141 7.18679 8.52435 7.04763 8.46875 6.89551C8.41314 6.74332 8.3902 6.58138 8.40039 6.41992V3.25879C8.39021 3.09734 8.41313 2.93539 8.46875 2.7832C8.52436 2.63106 8.61139 2.49193 8.72363 2.37402C8.83603 2.25605 8.97239 2.16192 9.12305 2.09766C9.27355 2.03349 9.43564 2.00004 9.59961 2ZM6.39746 5.23438C6.71623 5.23438 7.02264 5.35976 7.24805 5.58203C7.4732 5.80427 7.59961 6.10577 7.59961 6.41992C7.59955 6.7341 7.47328 7.03561 7.24805 7.25781C7.02264 7.48009 6.71623 7.60449 6.39746 7.60449H3.20215C2.88338 7.60449 2.57697 7.48009 2.35156 7.25781C2.12635 7.03561 2.00006 6.73408 2 6.41992C2 6.10579 2.12644 5.80426 2.35156 5.58203C2.57686 5.35986 2.88354 5.23449 3.20215 5.23438H6.39746ZM12.7979 5.23438C13.1166 5.23438 13.423 5.35976 13.6484 5.58203C13.8736 5.80426 14 6.10579 14 6.41992C13.9999 6.73408 13.8737 7.03561 13.6484 7.25781C13.423 7.48009 13.1166 7.60449 12.7979 7.60449H11.5957V6.41992C11.5957 6.10566 11.7229 5.80429 11.9482 5.58203C12.1736 5.35981 12.4792 5.23443 12.7979 5.23438ZM6.40527 2.00586C6.56886 2.00588 6.73064 2.03867 6.88086 2.10254C7.03114 2.16644 7.16695 2.2596 7.2793 2.37695C7.39165 2.49433 7.47815 2.6335 7.53418 2.78516C7.57622 2.89896 7.6001 3.01814 7.60547 3.13867V4.44434H6.40332C6.08455 4.44434 5.77814 4.31993 5.55273 4.09766C5.32733 3.87538 5.20117 3.57313 5.20117 3.25879H5.20508C5.19569 3.09786 5.21947 2.93663 5.27539 2.78516C5.33142 2.6335 5.4189 2.49433 5.53125 2.37695C5.64345 2.25979 5.77868 2.16641 5.92871 2.10254C6.07901 2.03863 6.24159 2.00586 6.40527 2.00586Z" fill="#010103"/>
</svg>
