<svg width="16" height="16" viewBox="0 0 16 16" fill="none" xmlns="http://www.w3.org/2000/svg">
<path opacity="0.08" d="M10.5 8.5V3.5C10.5 2.39543 9.60457 1.5 8.5 1.5H3.5C2.39543 1.5 1.5 2.39543 1.5 3.5V8.5C1.5 9.60457 2.39543 10.5 3.5 10.5H8.5C9.60457 10.5 10.5 9.60457 10.5 8.5Z" fill="#010103"/>
<path d="M8.98047 1C10.0957 1.00025 10.9997 1.90429 11 3.01953V5H12.5C13.8807 5 15 6.11929 15 7.5V12.5C15 13.8807 13.8807 15 12.5 15H7.5C6.11929 15 5 13.8807 5 12.5V11H3.01953C1.90429 10.9997 1.00025 10.0957 1 8.98047V3.01953C1.00025 1.90429 1.90429 1.00025 3.01953 1H8.98047ZM11 8.98047C10.9997 10.0957 10.0957 10.9997 8.98047 11H6V12.5C6 13.3284 6.67157 14 7.5 14H12.5C13.3284 14 14 13.3284 14 12.5V7.5C14 6.67157 13.3284 6 12.5 6H11V8.98047ZM3.01953 2C2.45657 2.00025 2.00025 2.45657 2 3.01953V8.98047C2.00025 9.54343 2.45657 9.99975 3.01953 10H8.98047C9.54343 9.99975 9.99975 9.54343 10 8.98047V3.01953C9.99975 2.45657 9.54343 2.00025 8.98047 2H3.01953Z" fill="#010103"/>
</svg>
