<svg width="16" height="16" viewBox="0 0 16 16" fill="none" xmlns="http://www.w3.org/2000/svg">
<path d="M9.24414 2.5C9.95325 2.5 10.4737 3.16656 10.3018 3.85449L9.64062 6.5H11.2295C12.4653 6.50011 13.4053 7.6101 13.2021 8.8291L12.7021 11.8291C12.5413 12.7933 11.707 13.4999 10.7295 13.5H5.5C3.84315 13.5 2.5 12.1569 2.5 10.5V9C2.5 7.61929 3.61929 6.5 5 6.5V6.50781C5.14188 6.22622 5.32804 5.96493 5.55664 5.73633L8.47363 2.81934C8.67799 2.61498 8.95515 2.50006 9.24414 2.5ZM4.69531 7.53027C4.01291 7.67101 3.5 8.27592 3.5 9V10.5C3.5 11.6046 4.39543 12.5 5.5 12.5H5.88574C5.51593 12.0879 5.25477 11.5726 5.1582 10.9932L4.71875 8.35156C4.67298 8.07694 4.66557 7.80069 4.69531 7.53027ZM9.24414 3.5C9.22036 3.50006 9.19748 3.50955 9.18066 3.52637L6.26367 6.44336C5.80701 6.90002 5.59899 7.54949 5.70508 8.18652L6.14551 10.8291C6.30639 11.7933 7.14061 12.5 8.11816 12.5H10.7295C11.2183 12.4999 11.6355 12.1462 11.7158 11.6641L12.2158 8.66406C12.3172 8.05473 11.8472 7.50011 11.2295 7.5H9C8.84603 7.5 8.70022 7.42898 8.60547 7.30762C8.51092 7.18636 8.47742 7.0281 8.51465 6.87891L9.33203 3.61133C9.34583 3.55473 9.30249 3.5 9.24414 3.5Z" fill="#010103"/>
</svg>
