<svg width="16" height="16" viewBox="0 0 16 16" fill="none" xmlns="http://www.w3.org/2000/svg">
<path d="M4.46289 6.47656C4.2019 7.08481 4.1138 7.76287 4.22559 8.43359L4.66504 11.0752C4.83873 12.1174 5.46292 12.9867 6.31738 13.5H5.5C3.84315 13.5 2.5 12.1569 2.5 10.5V9C2.5 8.06891 3.00895 7.25688 3.76172 6.82715C3.983 6.70084 4.23973 6.58134 4.46289 6.47656ZM9.24414 3C9.62796 3 9.9095 3.36104 9.81641 3.7334L9 7H11.2295L11.4004 7.00977C12.241 7.10458 12.8518 7.88994 12.709 8.74707L12.209 11.7471L12.1807 11.8799C12.0099 12.534 11.4169 12.9999 10.7295 13H8.11816L7.89062 12.9902C6.76847 12.8886 5.83973 12.0411 5.65137 10.9111L5.21191 8.26855C5.08762 7.52203 5.30819 6.76258 5.80664 6.2002L5.91016 6.08984L8.82715 3.17285C8.93773 3.06227 9.08775 3.00006 9.24414 3Z" fill="#010103"/>
</svg>
