<svg width="16" height="16" viewBox="0 0 16 16" fill="none" xmlns="http://www.w3.org/2000/svg">
<path d="M6.48572 13.5C5.77661 13.5 5.25612 12.8334 5.4281 12.1455L6.08923 9.5L4.50037 9.5C3.26458 9.49989 2.32454 8.3899 2.52771 7.1709L3.02771 4.1709C3.18855 3.20673 4.02286 2.50009 5.00037 2.5L10.2299 2.5C11.8867 2.5 13.2299 3.84315 13.2299 5.5L13.2299 7C13.2299 8.38071 12.1106 9.5 10.7299 9.5L10.7299 9.49219C10.588 9.77378 10.4018 10.0351 10.1732 10.2637L7.25623 13.1807C7.05187 13.385 6.77471 13.4999 6.48572 13.5ZM11.0345 8.46973C11.7169 8.32899 12.2299 7.72408 12.2299 7L12.2299 5.5C12.2299 4.39543 11.3344 3.5 10.2299 3.5L9.84412 3.5C10.2139 3.91214 10.4751 4.42744 10.5717 5.00684L11.0111 7.64844C11.0569 7.92306 11.0643 8.19931 11.0345 8.46973ZM6.48572 12.5C6.5095 12.4999 6.53238 12.4905 6.54919 12.4736L9.46619 9.55664C9.92285 9.09998 10.1309 8.45051 10.0248 7.81348L9.58435 5.1709C9.42347 4.20671 8.58925 3.5 7.6117 3.5L5.00037 3.5C4.51161 3.50009 4.09439 3.85381 4.01404 4.33594L3.51404 7.33594C3.4127 7.94527 3.88263 8.49989 4.50037 8.5L6.72986 8.5C6.88383 8.5 7.02964 8.57102 7.12439 8.69238C7.21894 8.81364 7.25243 8.9719 7.21521 9.12109L6.39783 12.3887C6.38403 12.4453 6.42736 12.5 6.48572 12.5Z" fill="#010103"/>
</svg>
