<svg width="16" height="16" viewBox="0 0 16 16" fill="none" xmlns="http://www.w3.org/2000/svg">
<path opacity="0.08" d="M11.25 9H4.75C3.50736 9 2.5 10.0074 2.5 11.25C2.5 12.4926 3.50736 13.5 4.75 13.5H11.25C12.4926 13.5 13.5 12.4926 13.5 11.25C13.5 10.0074 12.4926 9 11.25 9Z" fill="#010103"/>
<path d="M11.25 8.5C12.7688 8.5 14 9.73122 14 11.25C14 12.7688 12.7688 14 11.25 14H4.75C3.23122 14 2 12.7688 2 11.25C2 9.73122 3.23122 8.5 4.75 8.5H11.25ZM4.75 9.5C3.7835 9.5 3 10.2835 3 11.25C3 12.2165 3.7835 13 4.75 13H11.25C12.2165 13 13 12.2165 13 11.25C13 10.2835 12.2165 9.5 11.25 9.5H4.75ZM11.25 10C11.9404 10 12.5 10.5596 12.5 11.25C12.5 11.9404 11.9404 12.5 11.25 12.5C10.5596 12.5 10 11.9404 10 11.25C10 10.5596 10.5596 10 11.25 10ZM11.25 2C12.7688 2 14 3.23122 14 4.75C14 6.26878 12.7688 7.5 11.25 7.5H4.75C3.23122 7.5 2 6.26878 2 4.75C2 3.23122 3.23122 2 4.75 2H11.25ZM4.75 3C3.7835 3 3 3.7835 3 4.75C3 5.7165 3.7835 6.5 4.75 6.5H11.25C12.2165 6.5 13 5.7165 13 4.75C13 3.7835 12.2165 3 11.25 3H4.75ZM4.75 3.5C5.44036 3.5 6 4.05964 6 4.75C6 5.44036 5.44036 6 4.75 6C4.05964 6 3.5 5.44036 3.5 4.75C3.5 4.05964 4.05964 3.5 4.75 3.5Z" fill="#010103"/>
</svg>
