<svg width="16" height="16" viewBox="0 0 16 16" fill="none" xmlns="http://www.w3.org/2000/svg">
<path opacity="0.08" d="M5.67845 4.10777L5.5 5H10.5L10.3216 4.10777C10.1346 3.17292 9.31375 2.5 8.36039 2.5H7.63961C6.68625 2.5 5.86542 3.17292 5.67845 4.10777Z" fill="#010103"/>
<path d="M9.18066 2C9.89549 2.00022 10.5112 2.50507 10.6514 3.20605L10.9102 4.5H13.5996C13.8758 4.5 14.0996 4.72386 14.0996 5C14.0996 5.27614 13.8758 5.5 13.5996 5.5H12.9443L12.2041 11.792C12.056 13.051 10.9893 13.9999 9.72168 14H6.27832C5.01068 13.9999 3.94401 13.051 3.7959 11.792L3.05566 5.5H2.5C2.22386 5.5 2 5.27614 2 5C2 4.72386 2.22386 4.5 2.5 4.5H5.08984L5.34863 3.20605C5.48883 2.50507 6.10451 2.00022 6.81934 2H9.18066ZM4.06152 5.5L4.78906 11.6748C4.87793 12.4302 5.51777 12.9999 6.27832 13H9.72168C10.4822 12.9999 11.1221 12.4302 11.2109 11.6748L11.9385 5.5H4.06152ZM6.81934 3C6.5812 3.00022 6.37581 3.16878 6.3291 3.40234L6.10938 4.5H9.89062L9.6709 3.40234C9.62419 3.16878 9.41881 3.00022 9.18066 3H6.81934Z" fill="#010103"/>
</svg>
