<svg width="16" height="16" viewBox="0 0 16 16" fill="none" xmlns="http://www.w3.org/2000/svg">
<path d="M13.4785 3.00023C13.7111 2.98999 13.9267 3.14458 13.9854 3.37914L14.4854 5.37914C14.5521 5.64689 14.3889 5.91864 14.1211 5.98558C13.8534 6.05232 13.5817 5.88899 13.5147 5.62132L13.3125 4.81273L10.4317 9.75218C10.3292 9.92757 10.1308 10.0239 9.92972 9.99535C9.72847 9.96666 9.56406 9.8185 9.51468 9.62132L8.84183 6.93285L6.4473 11.7239C6.35686 11.9045 6.16641 12.0135 5.96487 11.9993C5.76323 11.9849 5.58942 11.8502 5.52542 11.6584L4.82718 9.56371L2.40042 12.8C2.2348 13.0207 1.92106 13.0659 1.70023 12.9006C1.47947 12.7351 1.43438 12.4213 1.59964 12.2004L4.59964 8.20042L4.64554 8.14769C4.75818 8.03438 4.91964 7.98103 5.08011 8.00706C5.26366 8.03687 5.41584 8.16561 5.47464 8.34203L6.0928 10.1965L8.55276 5.2766C8.64634 5.08945 8.84673 4.98033 9.05472 5.00316C9.26266 5.02604 9.43465 5.17618 9.48538 5.37914L10.1866 8.18675L12.4698 4.27269L11.6211 4.48558C11.3534 4.55233 11.0817 4.38899 11.0147 4.12132C10.9479 3.85353 11.1112 3.58187 11.3789 3.51488L13.3789 3.01488L13.4785 3.00023Z" fill="#010103"/>
</svg>
