<svg width="16" height="16" viewBox="0 0 16 16" fill="none" xmlns="http://www.w3.org/2000/svg">
<path d="M2 1.5002C2.27613 1.50021 2.5 1.72407 2.5 2.0002V10.4992L4.59961 7.70039L4.64551 7.64766C4.75815 7.53435 4.91961 7.48099 5.08008 7.50703C5.2636 7.53686 5.41581 7.6656 5.47461 7.842L6.09277 9.69649L8.55273 4.77657C8.64313 4.59578 8.83355 4.48697 9.03516 4.50117C9.23686 4.51553 9.41066 4.65016 9.47461 4.842L10.1309 6.81075L12.5713 2.74336C12.7133 2.50667 13.0201 2.42965 13.2568 2.57149C13.4934 2.71353 13.5705 3.02032 13.4287 3.25703L10.4287 8.25703C10.3282 8.42438 10.1393 8.51855 9.94531 8.49727C9.75133 8.47593 9.58717 8.34351 9.52539 8.1584L8.90723 6.30391L6.44727 11.2238C6.35685 11.4045 6.16638 11.5134 5.96484 11.4992C5.76319 11.4849 5.58939 11.3502 5.52539 11.1584L4.82715 9.06367L2.5 12.1672V13.5002H14C14.2761 13.5002 14.5 13.7241 14.5 14.0002C14.4999 14.2762 14.276 14.5002 14 14.5002H2C1.72392 14.5002 1.50011 14.2762 1.5 14.0002V2.0002C1.5 1.72406 1.72386 1.5002 2 1.5002Z" fill="#010103"/>
</svg>
