<svg width="16" height="16" viewBox="0 0 16 16" fill="none" xmlns="http://www.w3.org/2000/svg">
<path opacity="0.08" d="M8 13.5H11.5C12.6046 13.5 13.5 12.6046 13.5 11.5V4.5C13.5 3.39543 12.6046 2.5 11.5 2.5H8V13.5Z" fill="#010103"/>
<path d="M11.1543 2.00391C12.7394 2.08421 14 3.39489 14 5V11C14 12.6569 12.6569 14 11 14H5C3.39489 14 2.08421 12.7394 2.00391 11.1543L2 11V5C2 3.34315 3.34315 2 5 2H11L11.1543 2.00391ZM8.5 13H11C12.1046 13 13 12.1046 13 11V5C13 3.96435 12.2128 3.113 11.2041 3.01074L11 3H8.5V13ZM5 3C3.89543 3 3 3.89543 3 5V11L3.01074 11.2041C3.113 12.2128 3.96435 13 5 13H7.5V3H5Z" fill="#010103"/>
</svg>
