<svg width="16" height="16" viewBox="0 0 16 16" fill="none" xmlns="http://www.w3.org/2000/svg">
<rect opacity="0.08" x="5" y="5" width="6" height="6" rx="3" fill="#010103"/>
<path d="M8.26172 12.9932C8.53748 12.9789 8.77286 13.191 8.78711 13.4668C8.80133 13.7426 8.58925 13.978 8.31348 13.9922C8.20962 13.9975 8.1051 14 8 14C7.8949 14 7.79038 13.9975 7.68652 13.9922C7.41075 13.978 7.19867 13.7426 7.21289 13.4668C7.22714 13.191 7.46252 12.9789 7.73828 12.9932C7.82491 12.9976 7.91217 13 8 13C8.08783 13 8.17509 12.9976 8.26172 12.9932ZM4.58496 12.3408C4.73557 12.1094 5.04589 12.0437 5.27734 12.1943C5.42305 12.2891 5.5739 12.3766 5.72949 12.4561C5.97537 12.5816 6.07366 12.883 5.94824 13.1289C5.82269 13.3748 5.52131 13.4722 5.27539 13.3467C5.08823 13.2511 4.90654 13.1462 4.73145 13.0322C4.50013 12.8817 4.43457 12.5722 4.58496 12.3408ZM10.7227 12.1943C10.9541 12.0437 11.2644 12.1094 11.415 12.3408C11.5654 12.5722 11.4999 12.8817 11.2686 13.0322C11.0935 13.1462 10.9118 13.2511 10.7246 13.3467C10.4787 13.4722 10.1773 13.3748 10.0518 13.1289C9.92634 12.883 10.0246 12.5816 10.2705 12.4561C10.4261 12.3766 10.577 12.2891 10.7227 12.1943ZM2.87109 10.0518C3.117 9.92634 3.41841 10.0246 3.54395 10.2705C3.6234 10.4261 3.71087 10.577 3.80566 10.7227C3.95628 10.9541 3.89063 11.2644 3.65918 11.415C3.42778 11.5654 3.11835 11.4999 2.96777 11.2686C2.85384 11.0935 2.74887 10.9118 2.65332 10.7246C2.52784 10.4787 2.62519 10.1773 2.87109 10.0518ZM12.4561 10.2705C12.5816 10.0246 12.883 9.92634 13.1289 10.0518C13.3748 10.1773 13.4722 10.4787 13.3467 10.7246C13.2511 10.9118 13.1462 11.0935 13.0322 11.2686C12.8817 11.4999 12.5722 11.5654 12.3408 11.415C12.1094 11.2644 12.0437 10.9541 12.1943 10.7227C12.2891 10.577 12.3766 10.4261 12.4561 10.2705ZM2.5332 7.21289C2.80895 7.22714 3.02106 7.46252 3.00684 7.73828C3.00238 7.82491 3 7.91217 3 8C3 8.08783 3.00238 8.17509 3.00684 8.26172C3.02106 8.53748 2.80895 8.77286 2.5332 8.78711C2.25743 8.80133 2.02203 8.58925 2.00781 8.31348C2.00246 8.20962 2 8.1051 2 8C2 7.8949 2.00246 7.79038 2.00781 7.68652C2.02203 7.41075 2.25743 7.19867 2.5332 7.21289ZM13.4668 7.21289C13.7426 7.19867 13.978 7.41075 13.9922 7.68652C13.9975 7.79038 14 7.8949 14 8C14 8.1051 13.9975 8.20962 13.9922 8.31348C13.978 8.58925 13.7426 8.80133 13.4668 8.78711C13.191 8.77286 12.9789 8.53748 12.9932 8.26172C12.9976 8.17509 13 8.08783 13 8C13 7.91217 12.9976 7.82491 12.9932 7.73828C12.9789 7.46252 13.191 7.22714 13.4668 7.21289ZM2.96777 4.73145C3.11835 4.50013 3.42778 4.43457 3.65918 4.58496C3.89063 4.73557 3.95628 5.04589 3.80566 5.27734C3.71087 5.42305 3.6234 5.5739 3.54395 5.72949C3.41841 5.97537 3.117 6.07366 2.87109 5.94824C2.62519 5.82269 2.52784 5.52131 2.65332 5.27539C2.74887 5.08823 2.85384 4.90654 2.96777 4.73145ZM12.3408 4.58496C12.5722 4.43457 12.8817 4.50013 13.0322 4.73145C13.1462 4.90654 13.2511 5.08823 13.3467 5.27539C13.4722 5.52131 13.3748 5.82269 13.1289 5.94824C12.883 6.07366 12.5816 5.97537 12.4561 5.72949C12.3766 5.5739 12.2891 5.42305 12.1943 5.27734C12.0437 5.04589 12.1094 4.73557 12.3408 4.58496ZM5.27539 2.65332C5.52131 2.52784 5.82269 2.62519 5.94824 2.87109C6.07366 3.117 5.97537 3.41841 5.72949 3.54395C5.5739 3.6234 5.42305 3.71087 5.27734 3.80566C5.04589 3.95628 4.73557 3.89063 4.58496 3.65918C4.43457 3.42778 4.50013 3.11835 4.73145 2.96777C4.90654 2.85384 5.08823 2.74887 5.27539 2.65332ZM10.0518 2.87109C10.1773 2.62519 10.4787 2.52784 10.7246 2.65332C10.9118 2.74887 11.0935 2.85384 11.2686 2.96777C11.4999 3.11835 11.5654 3.42778 11.415 3.65918C11.2644 3.89063 10.9541 3.95628 10.7227 3.80566C10.577 3.71087 10.4261 3.6234 10.2705 3.54395C10.0246 3.41841 9.92634 3.117 10.0518 2.87109ZM8.31348 2.00781C8.58925 2.02203 8.80133 2.25743 8.78711 2.5332C8.77286 2.80895 8.53748 3.02106 8.26172 3.00684C8.17509 3.00238 8.08783 3 8 3C7.91217 3 7.82491 3.00238 7.73828 3.00684C7.46252 3.02106 7.22714 2.80895 7.21289 2.5332C7.19867 2.25743 7.41075 2.02203 7.68652 2.00781C7.79038 2.00246 7.8949 2 8 2C8.1051 2 8.20962 2.00246 8.31348 2.00781Z" fill="#010103"/>
</svg>
