<svg width="16" height="16" viewBox="0 0 16 16" fill="none" xmlns="http://www.w3.org/2000/svg">
<path d="M11 12C11.2761 12 11.5 12.2239 11.5 12.5C11.5 12.7761 11.2761 13 11 13H5C4.72386 13 4.5 12.7761 4.5 12.5C4.5 12.2239 4.72386 12 5 12H11ZM11 3C11.2761 3 11.5 3.22386 11.5 3.5V7.5C11.5 9.433 9.933 11 8 11C6.067 11 4.5 9.433 4.5 7.5V3.5C4.5 3.22386 4.72386 3 5 3C5.27614 3 5.5 3.22386 5.5 3.5V7.5C5.5 8.88071 6.61929 10 8 10C9.38071 10 10.5 8.88071 10.5 7.5V3.5C10.5 3.22386 10.7239 3 11 3Z" fill="#010103"/>
</svg>
