<svg width="16" height="16" viewBox="0 0 16 16" fill="none" xmlns="http://www.w3.org/2000/svg">
<path d="M5.11664 3.6797C5.29346 3.46782 5.6087 3.43952 5.82074 3.61622C6.03261 3.79305 6.06091 4.10828 5.88422 4.32032L4.06781 6.50001H11.5004L11.7045 6.51075C12.7132 6.61301 13.5004 7.46438 13.5004 8.50001V10.5C13.5004 11.6046 12.605 12.5 11.5004 12.5H9.00043C8.72433 12.5 8.50045 12.2761 8.50043 12C8.50045 11.7239 8.72433 11.5 9.00043 11.5H11.5004C12.0527 11.5 12.5004 11.0523 12.5004 10.5V8.50001C12.5004 7.98235 12.1071 7.55622 11.603 7.50489L11.5004 7.50001H4.06781L5.88422 9.6797C6.06091 9.89174 6.03261 10.207 5.82074 10.3838C5.6087 10.5605 5.29347 10.5322 5.11664 10.3203L2.61664 7.32032C2.60972 7.31202 2.60439 7.30259 2.59808 7.29396C2.5913 7.28468 2.5847 7.27538 2.57855 7.26564C2.56875 7.25006 2.56011 7.23412 2.55219 7.21778C2.54576 7.20457 2.5389 7.19158 2.53363 7.17774C2.52878 7.16498 2.52568 7.15173 2.52191 7.13868C2.50914 7.09451 2.50043 7.0483 2.50043 7.00001C2.50043 6.95138 2.50896 6.90481 2.52191 6.86036C2.5257 6.84733 2.52876 6.83405 2.53363 6.8213C2.53892 6.80749 2.54574 6.79445 2.55219 6.78126C2.56013 6.76496 2.56873 6.74896 2.57855 6.73341C2.58471 6.72369 2.59129 6.71434 2.59808 6.70509C2.60425 6.69667 2.60988 6.6878 2.61664 6.6797L5.11664 3.6797Z" fill="#010103"/>
</svg>
