<svg width="16" height="16" viewBox="0 0 16 16" fill="none" xmlns="http://www.w3.org/2000/svg">
<path opacity="0.08" d="M8.5 1.5H3.5C2.39543 1.5 1.5 2.39543 1.5 3.5V8.5C1.5 9.60457 2.39543 10.5 3.5 10.5H5.5V12.5C5.5 13.6046 6.39543 14.5 7.5 14.5H12.5C13.6046 14.5 14.5 13.6046 14.5 12.5V7.5C14.5 6.39543 13.6046 5.5 12.5 5.5H10.5V3.5C10.5 2.39543 9.60457 1.5 8.5 1.5Z" fill="#010103"/>
<path d="M8.5 1C9.88071 1 11 2.11929 11 3.5V5H12.5C13.8807 5 15 6.11929 15 7.5V12.5C15 13.8807 13.8807 15 12.5 15H7.5C6.11929 15 5 13.8807 5 12.5V11H3.5C2.11929 11 1 9.88071 1 8.5V3.5C1 2.11929 2.11929 1 3.5 1H8.5ZM3.5 2C2.67157 2 2 2.67157 2 3.5V8.5C2 9.32843 2.67157 10 3.5 10H5.5C5.77614 10 6 10.2239 6 10.5V12.5C6 13.3284 6.67157 14 7.5 14H12.5C13.3284 14 14 13.3284 14 12.5V7.5C14 6.67157 13.3284 6 12.5 6H10.5C10.2239 6 10 5.77614 10 5.5V3.5C10 2.67157 9.32843 2 8.5 2H3.5Z" fill="#010103"/>
</svg>
