<svg width="16" height="16" viewBox="0 0 16 16" fill="none" xmlns="http://www.w3.org/2000/svg">
<path d="M13.4786 3.00023C13.7111 2.98999 13.9268 3.14458 13.9854 3.37914L14.4854 5.37914C14.5521 5.64689 14.3889 5.91864 14.1212 5.98558C13.8534 6.05233 13.5817 5.88899 13.5147 5.62132L13.3126 4.81273L10.4317 9.75218C10.3293 9.92757 10.1308 10.0239 9.92975 9.99535C9.7285 9.96666 9.56409 9.8185 9.51471 9.62132L8.84186 6.93285L6.44733 11.7239C6.35689 11.9045 6.16644 12.0135 5.9649 11.9993C5.76326 11.9849 5.58945 11.8502 5.52545 11.6584L4.82721 9.56371L2.40045 12.8C2.23483 13.0207 1.92109 13.0659 1.70026 12.9006C1.4795 12.7351 1.43441 12.4213 1.59967 12.2004L4.59967 8.20042L4.64557 8.14769C4.75821 8.03438 4.91967 7.98103 5.08014 8.00706C5.26369 8.03687 5.41587 8.16561 5.47467 8.34203L6.09283 10.1965L8.5528 5.2766C8.64637 5.08945 8.84676 4.98033 9.05475 5.00316C9.26269 5.02604 9.43468 5.17618 9.48541 5.37914L10.1866 8.18675L12.4698 4.27269L11.6212 4.48558C11.3534 4.55233 11.0817 4.38899 11.0147 4.12132C10.9479 3.85353 11.1112 3.58187 11.379 3.51488L13.379 3.01488L13.4786 3.00023Z" fill="#010103"/>
</svg>
