<svg width="16" height="16" viewBox="0 0 16 16" fill="none" xmlns="http://www.w3.org/2000/svg">
<path opacity="0.08" d="M2.5 12C2.5 10.5 5 10 8 10C11 10 13.5 10.5 13.5 12C13.5 13.5 11 14 8 14C5 14 2.5 13.5 2.5 12Z" fill="#010103"/>
<path d="M8 9.5C9.51602 9.5 10.9516 9.6247 12.0244 9.95996C13.0598 10.2836 14 10.8924 14 12C14 13.1076 13.0598 13.7164 12.0244 14.04C10.9516 14.3753 9.51602 14.5 8 14.5C6.48398 14.5 5.04841 14.3753 3.97559 14.04C2.9402 13.7164 2 13.1076 2 12C2 10.8924 2.9402 10.2836 3.97559 9.95996C5.04841 9.6247 6.48398 9.5 8 9.5ZM8 10.5C6.51611 10.5 5.20158 10.6253 4.27441 10.915C3.30986 11.2165 3 11.6076 3 12C3 12.3924 3.30986 12.7835 4.27441 13.085C5.20158 13.3747 6.51611 13.5 8 13.5C9.48389 13.5 10.7984 13.3747 11.7256 13.085C12.6901 12.7835 13 12.3924 13 12C13 11.6076 12.6901 11.2165 11.7256 10.915C10.7984 10.6253 9.48389 10.5 8 10.5ZM8 2.5C9.65685 2.5 11 3.84315 11 5.5C11 7.15685 9.65685 8.5 8 8.5C6.34315 8.5 5 7.15685 5 5.5C5 3.84315 6.34315 2.5 8 2.5ZM8 3.5C6.89543 3.5 6 4.39543 6 5.5C6 6.60457 6.89543 7.5 8 7.5C9.10457 7.5 10 6.60457 10 5.5C10 4.39543 9.10457 3.5 8 3.5Z" fill="#010103"/>
</svg>
