<svg width="16" height="16" viewBox="0 0 16 16" fill="none" xmlns="http://www.w3.org/2000/svg">
<path d="M7.23996 2.1187C7.63901 1.65246 8.36031 1.65265 8.75949 2.1187L9.76047 3.28764L11.2663 3.04546C11.8673 2.94866 12.4148 3.40669 12.4255 4.01518L12.4519 5.58257L13.7761 6.38921C14.29 6.70263 14.412 7.39613 14.0368 7.86674L13.0612 9.09038L13.5661 10.5777C13.7605 11.1504 13.4056 11.7634 12.8122 11.8804L11.3064 12.1773L10.7566 13.6314C10.5401 14.2043 9.86445 14.4504 9.33078 14.1499L7.99973 13.3999L6.66867 14.1499C6.13501 14.4503 5.45931 14.2043 5.24289 13.6314L4.69308 12.1773L3.18723 11.8804C2.59408 11.7633 2.239 11.1503 2.43332 10.5777L2.9382 9.09038L1.96262 7.86674C1.58773 7.39614 1.70961 6.70257 2.22336 6.38921L3.54758 5.58257L3.57394 4.01518C3.58463 3.4068 4.13232 2.94889 4.73312 3.04546L6.23898 3.28764L7.23996 2.1187Z" fill="#47AD7A"/>
<path d="M9.64673 6.64635C9.84201 6.45128 10.1586 6.45115 10.3538 6.64635C10.5489 6.84155 10.5488 7.15812 10.3538 7.35338L7.85376 9.85338C7.65851 10.0486 7.34199 10.0486 7.14673 9.85338L5.64673 8.35338C5.45147 8.15812 5.45147 7.84161 5.64673 7.64635C5.84201 7.45128 6.15856 7.45115 6.35376 7.64635L7.50024 8.79283L9.64673 6.64635Z" fill="white"/>
</svg>
