<svg width="16" height="16" viewBox="0 0 16 16" fill="none" xmlns="http://www.w3.org/2000/svg">
<path d="M7.23999 2.1187C7.63904 1.65246 8.36034 1.65265 8.75952 2.1187L9.7605 3.28764L11.2664 3.04546C11.8673 2.94866 12.4148 3.40669 12.4255 4.01518L12.4519 5.58257L13.7761 6.38921C14.29 6.70263 14.412 7.39613 14.0369 7.86674L13.0613 9.09038L13.5662 10.5777C13.7605 11.1504 13.4056 11.7634 12.8123 11.8804L11.3064 12.1773L10.7566 13.6314C10.5402 14.2043 9.86448 14.4504 9.33081 14.1499L7.99976 13.3999L6.6687 14.1499C6.13504 14.4503 5.45935 14.2043 5.24292 13.6314L4.69312 12.1773L3.18726 11.8804C2.59411 11.7633 2.23903 11.1503 2.43335 10.5777L2.93823 9.09038L1.96265 7.86674C1.58776 7.39614 1.70964 6.70257 2.22339 6.38921L3.54761 5.58257L3.57397 4.01518C3.58466 3.4068 4.13235 2.94889 4.73315 3.04546L6.23901 3.28764L7.23999 2.1187Z" fill="#47AD7A"/>
<path d="M9.64673 6.64635C9.84201 6.45128 10.1586 6.45115 10.3538 6.64635C10.5489 6.84155 10.5488 7.15812 10.3538 7.35338L7.85376 9.85338C7.65851 10.0486 7.34199 10.0486 7.14673 9.85338L5.64673 8.35338C5.45147 8.15812 5.45147 7.84161 5.64673 7.64635C5.84201 7.45128 6.15856 7.45115 6.35376 7.64635L7.50024 8.79283L9.64673 6.64635Z" fill="white"/>
</svg>
