<svg width="16" height="16" viewBox="0 0 16 16" fill="none" xmlns="http://www.w3.org/2000/svg">
<path opacity="0.08" d="M8.99056 7.05498C6.63063 8.41749 6.33259 10.5534 6.37153 11.7345C7.58102 11.86 10.3 11.8889 11.5 11C12.7 10.1111 12.8357 7.59586 12.7536 6.44933C11.7281 6.2012 10.4261 6.22615 8.99056 7.05498Z" fill="#010103"/>
<path d="M8.25012 2.50026C11.0115 2.50033 13.2501 4.73888 13.2501 7.50026C13.25 10.2615 11.0114 12.5002 8.25012 12.5003C7.66669 12.5003 7.10502 12.4005 6.58313 12.2161C6.56532 12.2098 6.54738 12.2019 6.5304 12.1936L6.15833 12.012L3.95227 12.2415C3.77526 12.2597 3.60204 12.1821 3.49719 12.0383C3.39234 11.8943 3.37161 11.7053 3.44348 11.5423L4.03918 10.1926C3.54113 9.41511 3.25017 8.49135 3.25012 7.50026C3.25012 4.73884 5.4887 2.50026 8.25012 2.50026ZM8.25012 3.50026C6.04098 3.50026 4.25012 5.29112 4.25012 7.50026C4.25018 8.37875 4.5324 9.19037 5.01184 9.84987C5.11643 9.99393 5.13747 10.1831 5.06555 10.346L4.70618 11.1575L6.19836 11.0032L6.26868 11.0003C6.33805 11.0029 6.407 11.0204 6.46985 11.051L6.93469 11.2776C7.3461 11.4208 7.78834 11.5003 8.25012 11.5003C10.4591 11.5002 12.25 9.70924 12.2501 7.50026C12.2501 5.29116 10.4592 3.50033 8.25012 3.50026ZM6.9386 5.50026C7.24215 5.50049 7.50947 5.69975 7.5968 5.99049L7.672 6.23952C7.7199 6.39998 7.67604 6.57411 7.55774 6.69264C7.4201 6.83034 7.38205 7.0427 7.4845 7.20827C7.75012 7.63736 8.11299 8.0003 8.54211 8.26588C8.70765 8.36817 8.9201 8.33022 9.05774 8.19264C9.17634 8.07427 9.35032 8.03035 9.51086 8.07838L9.75989 8.15358C10.0506 8.24098 10.2499 8.50824 10.2501 8.81178C10.25 9.16775 9.97725 9.4665 9.63489 9.44948L9.56555 9.44167C8.00926 9.1731 6.76033 8.00515 6.37415 6.49245L6.30872 6.18483C6.24438 5.81053 6.55872 5.50026 6.9386 5.50026Z" fill="#010103"/>
</svg>
