<svg width="16" height="16" viewBox="0 0 16 16" fill="none" xmlns="http://www.w3.org/2000/svg">
<path opacity="0.08" d="M10 4C10 2.89543 10.8954 2 12 2C13.1046 2 14 2.89543 14 4C14 5.10457 13.1046 6 12 6C10.8954 6 10 5.10457 10 4Z" fill="#010103"/>
<path opacity="0.08" d="M10 12C10 10.8954 10.8954 10 12 10C13.1046 10 14 10.8954 14 12C14 13.1046 13.1046 14 12 14C10.8954 14 10 13.1046 10 12Z" fill="#010103"/>
<path d="M4.50024 1.49969C5.6046 1.49983 6.50008 2.39535 6.50024 3.49969H9.50024C9.50041 2.39527 10.3958 1.49969 11.5002 1.49969H12.5002C13.6046 1.49983 14.5001 2.39535 14.5002 3.49969V4.49969C14.5002 5.60418 13.6047 6.49956 12.5002 6.49969H11.5002C10.4648 6.49969 9.61255 5.71317 9.51001 4.70477L9.50024 4.49969H6.50024V6.99969C6.50024 8.03529 5.71294 8.88759 4.70435 8.98993L4.50024 8.99969V10.4997C4.50024 11.052 4.94796 11.4997 5.50024 11.4997H9.55005C9.7818 10.3587 10.7909 9.49969 12.0002 9.49969C13.3807 9.49983 14.5001 10.6192 14.5002 11.9997C14.5002 13.3803 13.3808 14.4996 12.0002 14.4997C10.7907 14.4997 9.78157 13.641 9.55005 12.4997H5.50024C4.39567 12.4997 3.50024 11.6043 3.50024 10.4997V8.99969L3.29517 8.98993C2.28681 8.88736 1.50024 8.03512 1.50024 6.99969V3.49969C1.50041 2.39527 2.39578 1.4997 3.50024 1.49969H4.50024ZM12.0002 10.4997C11.1719 10.4997 10.5004 11.1714 10.5002 11.9997C10.5002 12.8281 11.1718 13.4997 12.0002 13.4997C12.8286 13.4996 13.5002 12.828 13.5002 11.9997C13.5001 11.1715 12.8285 10.4998 12.0002 10.4997ZM3.50024 2.49969C2.94806 2.4997 2.50041 2.94755 2.50024 3.49969V6.99969C2.50024 7.55198 2.94796 7.99969 3.50024 7.99969H4.50024C5.05242 7.99956 5.50024 7.5519 5.50024 6.99969V3.49969C5.50008 2.94763 5.05231 2.49983 4.50024 2.49969H3.50024ZM11.5002 2.49969C10.9481 2.49969 10.5004 2.94755 10.5002 3.49969V4.49969C10.5002 5.05198 10.948 5.49969 11.5002 5.49969H12.5002C13.0524 5.49956 13.5002 5.0519 13.5002 4.49969V3.49969C13.5001 2.94763 13.0523 2.49983 12.5002 2.49969H11.5002Z" fill="#010103"/>
</svg>
