<svg width="118" height="26" viewBox="0 0 118 26" fill="none" xmlns="http://www.w3.org/2000/svg">
<path d="M59 0.8125C61.6924 0.8125 63.875 2.99511 63.875 5.6875V8.125C66.5674 8.125 68.75 10.3076 68.75 13V20.3125C68.75 23.0049 66.5674 25.1875 63.875 25.1875H54.125C51.4326 25.1875 49.25 23.0049 49.25 20.3125V13C49.25 10.3076 51.4326 8.125 54.125 8.125H62.25V5.6875C62.25 3.89257 60.7949 2.4375 59 2.4375C57.2051 2.4375 55.75 3.89257 55.75 5.6875V6.09375H54.125V5.6875C54.125 2.99511 56.3076 0.8125 59 0.8125ZM54.125 9.75C52.3301 9.75 50.875 11.2051 50.875 13V20.3125C50.875 22.1074 52.3301 23.5625 54.125 23.5625H63.875C65.6699 23.5625 67.125 22.1074 67.125 20.3125V13C67.125 11.2051 65.6699 9.75 63.875 9.75H54.125ZM59 13C59.8975 13 60.625 13.7275 60.625 14.625C60.625 15.2373 60.2854 15.7689 59.7852 16.0459C59.8021 16.1112 59.8125 16.1794 59.8125 16.25V19.5C59.8125 19.9487 59.4487 20.3125 59 20.3125C58.5513 20.3125 58.1875 19.9487 58.1875 19.5V16.25C58.1875 16.1795 58.197 16.1112 58.2139 16.0459C57.714 15.7688 57.375 15.237 57.375 14.625C57.375 13.7275 58.1025 13 59 13Z" fill="#4061D8"/>
<path opacity="0.08" d="M64 9V12C64 18.6274 58.6274 24 52 24L50.3287 21.9109C50.1159 21.6449 50 21.3144 50 20.9738V12.4155C50 12.1436 50.0739 11.8769 50.2138 11.6437L51.1117 10.1472C51.356 9.74007 51.7786 9.47262 52.2512 9.42618L56.5882 9H64Z" fill="#4061D8"/>
</svg>
