<svg width="12" height="12" viewBox="0 0 12 12" fill="none" xmlns="http://www.w3.org/2000/svg">
<path opacity="0.08" d="M10.5 6L7.5 4.5H7.125C5.67525 4.5 4.5 5.67525 4.5 7.125L6 10.5L7.5 7.125L10.5 6Z" fill="#010103"/>
<path d="M5.99957 0.999756C6.17 0.999756 6.30361 1.07136 6.38336 1.12573C6.46776 1.18343 6.54003 1.25465 6.59918 1.323C6.71841 1.46092 6.83304 1.64244 6.93903 1.84448C7.15324 2.25296 7.36806 2.81627 7.53473 3.47729C7.65606 3.95857 8.03977 4.34208 8.52106 4.46362C9.18243 4.63039 9.74613 4.84586 10.1548 5.0603C10.3569 5.16636 10.5384 5.28091 10.6763 5.40015C10.7447 5.4593 10.8159 5.53159 10.8736 5.61597C10.928 5.69562 10.9995 5.82915 10.9996 5.99976L10.9879 6.12085C10.9652 6.23395 10.9144 6.3238 10.8736 6.38354C10.8157 6.46824 10.744 6.54009 10.6754 6.59937C10.5374 6.71856 10.3569 6.83324 10.1548 6.93921C9.74615 7.15347 9.18241 7.36826 8.52106 7.53491C8.03978 7.65632 7.65605 8.03994 7.53473 8.52124C7.36805 9.18275 7.15333 9.74631 6.93903 10.155C6.83303 10.3572 6.71842 10.5375 6.59918 10.6755C6.53992 10.7441 6.46803 10.8159 6.38336 10.8738C6.30364 10.9282 6.1702 10.9998 5.99957 10.9998C5.82906 10.9996 5.6954 10.9281 5.61578 10.8738C5.53142 10.8161 5.45911 10.7449 5.39996 10.6765C5.28072 10.5386 5.16618 10.3571 5.06012 10.155C4.84566 9.74631 4.63022 9.18265 4.46344 8.52124C4.34193 8.03989 3.95843 7.65625 3.47711 7.53491C2.81615 7.36824 2.25275 7.15342 1.8443 6.93921C1.6424 6.83329 1.46167 6.7185 1.32379 6.59937C1.25533 6.54016 1.18333 6.46806 1.12555 6.38354C1.0848 6.32381 1.03384 6.23368 1.01129 6.12085L0.999573 5.99976L1.01129 5.87866C1.03388 5.76576 1.08386 5.67565 1.12457 5.61597C1.18237 5.53128 1.25428 5.45947 1.32281 5.40015C1.46074 5.28083 1.64219 5.16642 1.8443 5.0603C2.2528 4.84587 2.816 4.63044 3.47711 4.46362C3.95857 4.34216 4.34198 3.95875 4.46344 3.47729C4.63026 2.81609 4.84566 2.25303 5.06012 1.84448C5.16625 1.64232 5.28063 1.46097 5.39996 1.323C5.45926 1.25447 5.53112 1.18257 5.61578 1.12476C5.6954 1.07043 5.8291 0.999878 5.99957 0.999756ZM5.94489 2.30933C5.77387 2.6352 5.58457 3.1223 5.43317 3.72241C5.22168 4.56018 4.56 5.22186 3.72223 5.43335C3.12222 5.58474 2.63498 5.77407 2.30914 5.94507C2.27511 5.96295 2.24365 5.98211 2.21442 5.99878C2.24363 6.01543 2.27416 6.03559 2.30817 6.05347C2.63391 6.22431 3.12122 6.41385 3.72125 6.56519C4.55937 6.77648 5.22174 7.43912 5.43317 8.2771C5.58451 8.87719 5.77389 9.36421 5.94489 9.69019C5.96246 9.72367 5.98216 9.75413 5.9986 9.78296C6.01515 9.75388 6.03555 9.72401 6.05328 9.69019C6.22418 9.36418 6.41369 8.87754 6.565 8.2771C6.77624 7.43897 7.43882 6.7765 8.27692 6.56519C8.87721 6.41391 9.364 6.22434 9.69 6.05347C9.72376 6.03577 9.75375 6.01532 9.78278 5.99878C9.75397 5.98235 9.72346 5.96263 9.69 5.94507C9.36402 5.77408 8.87697 5.58468 8.27692 5.43335C7.439 5.22189 6.77628 4.55951 6.565 3.72144C6.41366 3.1213 6.22414 2.63411 6.05328 2.30835C6.0354 2.27431 6.01526 2.24383 5.9986 2.2146C5.98189 2.24389 5.9628 2.27521 5.94489 2.30933ZM2.24957 0.999756C2.49553 0.999756 2.63727 1.16347 2.66949 1.2019C2.71936 1.26153 2.75258 1.32418 2.77203 1.36401C2.81318 1.44842 2.84562 1.54503 2.86871 1.6189C2.86956 1.6216 2.8699 1.62496 2.87067 1.62769C2.87376 1.62864 2.87733 1.62966 2.88043 1.63062C2.95423 1.65368 3.05084 1.68617 3.13531 1.72729C3.17503 1.74667 3.23769 1.77997 3.29742 1.82983C3.33506 1.86135 3.4994 2.00314 3.49957 2.24976C3.49957 2.49661 3.33508 2.63814 3.29742 2.66968C3.23758 2.71973 3.17512 2.7528 3.13531 2.77222C3.05077 2.81341 2.95432 2.84581 2.88043 2.8689C2.87734 2.86981 2.87374 2.8699 2.87067 2.87085C2.86972 2.87391 2.86962 2.87753 2.86871 2.88062C2.84562 2.9545 2.81323 3.05096 2.77203 3.1355C2.75262 3.1753 2.71954 3.23776 2.66949 3.29761C2.63796 3.33526 2.49643 3.49976 2.24957 3.49976C2.00295 3.49959 1.86117 3.33524 1.82965 3.29761C1.77979 3.23788 1.74649 3.17522 1.72711 3.1355C1.68599 3.05103 1.65349 2.95441 1.63043 2.88062C1.62947 2.87752 1.62846 2.87394 1.6275 2.87085C1.62478 2.87008 1.62142 2.86974 1.61871 2.8689C1.54484 2.8458 1.44824 2.81337 1.36383 2.77222C1.324 2.75277 1.26135 2.71955 1.20172 2.66968C1.16329 2.63746 0.999573 2.49571 0.999573 2.24976C0.999747 2.00321 1.16403 1.8614 1.20172 1.82983C1.2615 1.77984 1.32401 1.74673 1.36383 1.72729C1.40621 1.70663 1.45186 1.68788 1.49567 1.67163L1.6275 1.62769L1.67145 1.49585C1.6877 1.45205 1.70645 1.40639 1.72711 1.36401C1.74654 1.32419 1.77966 1.26168 1.82965 1.2019C1.86124 1.16419 2.00304 0.999925 2.24957 0.999756Z" fill="#010103"/>
</svg>
