<svg width="12" height="12" viewBox="0 0 12 12" fill="none" xmlns="http://www.w3.org/2000/svg">
<path opacity="0.08" d="M8.25 6.75V6.13081C8.25 6.05857 8.19143 6 8.11919 6C6.12036 6 4.5 7.62036 4.5 9.61918V9.9811C4.5 10.0606 4.5644 10.125 4.64387 10.125H6C6.75 10.125 6 10.5 7.5 10.5C8.4321 10.5 9.27369 9.51958 9.60301 8.78892C9.74851 8.46609 9.58328 8.12496 9.3 7.9125L8.55 7.35C8.36115 7.20836 8.25 6.98607 8.25 6.75Z" fill="#010103"/>
<path d="M7.70419 3.37524C8.23548 3.37526 8.75653 3.55268 9.15146 3.77075C9.33011 3.86944 9.47453 4.00563 9.55966 4.18384C9.64479 4.36235 9.65432 4.54849 9.62314 4.71704C9.56394 5.03661 9.35429 5.3334 9.13974 5.56177C8.9199 5.79582 8.76181 6.07636 8.76181 6.39771C8.76194 6.68857 8.84769 6.91626 8.97177 7.09595C9.17035 7.38348 9.46331 7.76077 9.64365 8.13794C9.83073 8.52942 9.94328 9.01186 9.6954 9.50122C9.34726 10.1882 8.72023 10.8752 7.70419 10.8752C7.24453 10.8752 6.9515 10.7988 6.69931 10.7288C6.4607 10.6624 6.28433 10.6106 6.00009 10.6106C5.71581 10.6106 5.5395 10.6624 5.30087 10.7288C5.04866 10.7988 4.75569 10.8752 4.29599 10.8752C3.35355 10.8752 2.75311 10.0489 2.40732 9.21216C2.04716 8.34046 1.87518 7.26491 1.87509 6.39771C1.87509 4.59877 3.00868 3.37524 4.29599 3.37524C4.72322 3.37538 5.1282 3.53918 5.42783 3.67212C5.59155 3.74477 5.71069 3.80302 5.82626 3.84985C5.88043 3.87179 5.92311 3.88665 5.95615 3.89575C5.98369 3.90332 5.9975 3.90429 6.00009 3.90454C6.00473 3.90368 6.03489 3.89772 6.11337 3.85962C6.1565 3.83866 6.20436 3.81332 6.26376 3.78149C6.32103 3.75081 6.38796 3.71486 6.46005 3.67896C6.75664 3.53127 7.1559 3.37533 7.70419 3.37524ZM7.70419 4.12524C7.31075 4.12533 7.02864 4.23397 6.79404 4.35083C6.73349 4.38099 6.67658 4.41137 6.61826 4.44263C6.5619 4.47283 6.5005 4.50576 6.4415 4.53442C6.33089 4.58816 6.17545 4.65452 6.00009 4.65454C5.83551 4.65454 5.66933 4.59455 5.54501 4.54419C5.41573 4.49181 5.25746 4.41727 5.12314 4.35767C4.82665 4.22613 4.55013 4.12539 4.29599 4.12524C3.53785 4.12524 2.62509 4.88782 2.62509 6.39771C2.62518 7.18462 2.78427 8.16032 3.10068 8.92603C3.43169 9.72688 3.8549 10.1252 4.29599 10.1252C4.65775 10.1252 4.87592 10.0683 5.0997 10.0061C5.33727 9.94009 5.60262 9.8606 6.00009 9.8606C6.39752 9.86061 6.66293 9.94009 6.90048 10.0061C7.12423 10.0683 7.34246 10.1252 7.70419 10.1252C8.31631 10.1252 8.74003 9.72749 9.02646 9.16235C9.12402 8.96975 9.10618 8.75381 8.96689 8.46216C8.82061 8.15615 8.59044 7.86327 8.35458 7.52173C8.14898 7.22395 8.01194 6.84928 8.01181 6.39771C8.01181 5.81527 8.30016 5.35974 8.59286 5.0481C8.77155 4.8579 8.86553 4.68962 8.88583 4.58032C8.89414 4.53515 8.88682 4.51536 8.8829 4.50708C8.87887 4.49865 8.86152 4.467 8.78915 4.427C8.47585 4.25399 8.07891 4.12527 7.70419 4.12524ZM7.18954 1.28247C7.39388 1.31622 7.53286 1.50977 7.49911 1.71411C7.4607 1.94642 7.29655 2.30139 7.0665 2.58423C6.84152 2.86051 6.4507 3.18834 5.93857 3.10376C5.73437 3.06989 5.59624 2.87637 5.62997 2.67212C5.68995 2.30902 5.84273 1.93911 6.09677 1.66724C6.36 1.38566 6.73786 1.20797 7.18954 1.28247Z" fill="#010103"/>
</svg>
