<svg width="12" height="12" viewBox="0 0 12 12" fill="none" xmlns="http://www.w3.org/2000/svg">
<path d="M9.1456 8.69418L9.14169 8.71664C9.13962 8.73174 9.13733 8.74668 9.13388 8.76157L9.12997 8.7811C9.12651 8.79369 9.12168 8.80604 9.11728 8.81821C9.11434 8.82634 9.11186 8.83462 9.10849 8.84262C9.09977 8.86329 9.08951 8.88307 9.07822 8.90219C9.06898 8.91782 9.05805 8.93235 9.04697 8.94711C9.0361 8.96162 9.02514 8.97589 9.01279 8.98911C9.00902 8.99313 9.00597 8.99787 9.00204 9.0018C8.99767 9.00617 8.99189 9.00934 8.9874 9.01352C8.97399 9.02598 8.96013 9.03774 8.9454 9.04868C8.93502 9.0564 8.92497 9.06432 8.91415 9.07114C8.89326 9.08428 8.87157 9.09631 8.84872 9.10629C8.83382 9.11281 8.81818 9.11692 8.80283 9.12192C8.78963 9.12621 8.77645 9.13043 8.76279 9.13364C8.74853 9.13698 8.73426 9.13937 8.71982 9.14145C8.7111 9.14271 8.70231 9.14553 8.69345 9.14633L4.81064 9.49985C4.53576 9.52475 4.29274 9.32162 4.26767 9.04672C4.24279 8.7718 4.44492 8.5278 4.71982 8.50278L7.54111 8.24692L2.64658 3.35336C2.45138 3.15815 2.45149 2.84162 2.64658 2.64633C2.84183 2.45106 3.15836 2.45106 3.35361 2.64633L8.24814 7.53989L8.50302 4.71957C8.52805 4.44465 8.77207 4.24252 9.04697 4.26743C9.32165 4.29266 9.52398 4.53561 9.49912 4.81039L9.1456 8.69418Z" fill="#010103"/>
</svg>
