<svg width="12" height="12" viewBox="0 0 12 12" fill="none" xmlns="http://www.w3.org/2000/svg">
<g clip-path="url(#clip0_2144_31794)">
<path d="M9.18221 2.81801C9.3773 3.01329 9.37741 3.32991 9.18221 3.52512L6.70734 5.99999L9.18221 8.47487C9.3773 8.67014 9.37741 8.98677 9.18221 9.18197C8.987 9.37718 8.67038 9.37706 8.4751 9.18197L6.00023 6.7071L3.52536 9.18197C3.33015 9.37718 3.01352 9.37706 2.81825 9.18197C2.62299 8.98671 2.62299 8.67013 2.81825 8.47487L5.29312 5.99999L2.81825 3.52512C2.62299 3.32986 2.62299 3.01327 2.81825 2.81801C3.01351 2.62275 3.33009 2.62275 3.52536 2.81801L6.00023 5.29289L8.4751 2.81801C8.67036 2.62275 8.98695 2.62275 9.18221 2.81801Z" fill="#010103"/>
</g>
<defs>
<clipPath id="clip0_2144_31794">
<rect width="12" height="12" fill="white"/>
</clipPath>
</defs>
</svg>
