<svg width="12" height="12" viewBox="0 0 12 12" fill="none" xmlns="http://www.w3.org/2000/svg">
<path opacity="0.08" d="M1.59978 1.67873C3.23614 1.67873 6.09978 3.31509 6.09978 3.31509C6.09978 3.31509 8.96341 1.67873 10.5998 1.67873L10.5 8.86364C8.86366 8.86364 6 10.5 6 10.5C6 10.5 3.13636 8.86364 1.5 8.86364L1.59978 1.67873Z" fill="#010103"/>
<path d="M9.3916 1.15681C10.3151 0.926392 10.9998 1.70101 11 2.49959V7.86287C11 8.70101 10.3324 9.31638 9.63379 9.4908C8.60349 9.748 7.4037 10.3235 6.73242 10.6724C6.27373 10.9108 5.72627 10.9108 5.26758 10.6724C4.5963 10.3235 3.39651 9.748 2.36621 9.4908C1.66756 9.31638 1 8.70101 1 7.86287V2.49959C1.00023 1.70101 1.68495 0.926392 2.6084 1.15681C3.76036 1.44438 5.04817 2.06786 5.72852 2.42146C5.89815 2.50963 6.10185 2.50963 6.27148 2.42146C6.95183 2.06786 8.23964 1.44438 9.3916 1.15681ZM2.36621 2.12654C2.26962 2.10246 2.19148 2.12714 2.12793 2.18416C2.0581 2.24715 2.00011 2.35859 2 2.49959V7.86287C2 8.12924 2.23545 8.42697 2.6084 8.5201C3.64232 8.77818 4.78463 9.30918 5.5 9.67049V3.40486C5.42094 3.37863 5.34265 3.34816 5.26758 3.30916C4.59627 2.96024 3.39655 2.38372 2.36621 2.12654ZM9.63379 2.12654C8.60345 2.38372 7.40373 2.96024 6.73242 3.30916C6.65735 3.34816 6.57906 3.37863 6.5 3.40486V9.67049C7.21537 9.30918 8.35768 8.77818 9.3916 8.5201C9.76455 8.42697 10 8.12924 10 7.86287V2.49959C9.99989 2.35859 9.9419 2.24715 9.87207 2.18416C9.80852 2.12714 9.73038 2.10246 9.63379 2.12654Z" fill="#010103"/>
</svg>
