<svg width="12" height="12" viewBox="0 0 12 12" fill="none" xmlns="http://www.w3.org/2000/svg">
<path d="M9.99968 1.50002C10.2758 1.50002 10.4997 1.72387 10.4997 2.00002V5.00002C10.4997 6.38071 9.38038 7.50002 7.99968 7.50002H3.06706L4.38347 9.07912C4.56025 9.29126 4.53213 9.60741 4.31999 9.78419C4.10791 9.96083 3.79267 9.93169 3.61589 9.71974L1.61589 7.31935C1.6102 7.31251 1.60554 7.30493 1.60027 7.29787C1.59242 7.28736 1.58482 7.27677 1.5778 7.26564C1.56625 7.24733 1.55648 7.22833 1.54753 7.209C1.54379 7.20092 1.5401 7.19289 1.53679 7.18459C1.52848 7.16377 1.52167 7.14264 1.51628 7.12111C1.51393 7.1117 1.51125 7.1024 1.50945 7.09279C1.5059 7.07406 1.50497 7.0551 1.50359 7.03615C1.50273 7.02416 1.49968 7.01222 1.49968 7.00002C1.49968 6.98749 1.50268 6.9752 1.50359 6.96291C1.50499 6.94396 1.50588 6.92499 1.50945 6.90627C1.51127 6.89667 1.51392 6.88734 1.51628 6.87794C1.5217 6.85643 1.52846 6.83527 1.53679 6.81447C1.54011 6.80618 1.54378 6.79812 1.54753 6.79005C1.55668 6.77035 1.56692 6.75108 1.57878 6.73244C1.58472 6.72311 1.59081 6.71398 1.59734 6.70509C1.60348 6.69671 1.60916 6.68778 1.61589 6.6797L3.61589 4.27931C3.79262 4.06761 4.10797 4.03949 4.31999 4.21584C4.53185 4.39265 4.56012 4.7079 4.38347 4.91994L3.06511 6.50002H7.99968C8.8281 6.50002 9.49966 5.82843 9.49968 5.00002V2.00002C9.49968 1.72398 9.72368 1.50019 9.99968 1.50002Z" fill="#010103"/>
</svg>
