<svg width="12" height="12" viewBox="0 0 12 12" fill="none" xmlns="http://www.w3.org/2000/svg">
<path d="M5.99976 0.999771C8.76111 0.999771 10.9996 3.23845 10.9998 5.99977C10.9998 8.76119 8.76118 10.9998 5.99976 10.9998C3.23845 10.9996 0.999756 8.76111 0.999756 5.99977C0.999876 3.23853 3.23852 0.999907 5.99976 0.999771ZM5.99976 1.99977C3.79081 1.99991 1.99988 3.79082 1.99976 5.99977C1.99976 8.20883 3.79073 9.99964 5.99976 9.99977C8.20889 9.99977 9.99976 8.20891 9.99976 5.99977C9.99964 3.79073 8.20882 1.99977 5.99976 1.99977ZM5.99976 5.12477C6.27582 5.12477 6.49964 5.34873 6.49976 5.62477V8.24977C6.49976 8.52591 6.2759 8.74977 5.99976 8.74977C5.72373 8.74964 5.49976 8.52583 5.49976 8.24977V5.62477C5.49988 5.34881 5.7238 5.12491 5.99976 5.12477ZM5.99976 3.1609C6.41397 3.1609 6.74976 3.49669 6.74976 3.9109V3.9402C6.74957 4.35425 6.41385 4.6902 5.99976 4.6902C5.58566 4.6902 5.24994 4.35425 5.24976 3.9402V3.9109C5.24976 3.49669 5.58554 3.1609 5.99976 3.1609Z" fill="#010103"/>
</svg>
