<svg width="12" height="12" viewBox="0 0 12 12" fill="none" xmlns="http://www.w3.org/2000/svg">
<path opacity="0.12" d="M10.5 9V4H8C5.23858 4 3 6.23858 3 9L4 10.5L7 9H10.5Z" fill="#010103"/>
<path d="M9 1C10.1046 1 11 1.89543 11 3V7.5C11 8.60457 10.1046 9.5 9 9.5H7.26562C7.17871 9.5 7.09306 9.52235 7.01758 9.56543L4.84668 10.8066C4.02379 11.2765 3 10.6821 3 9.73438C2.99997 9.60495 2.89505 9.50003 2.76562 9.5H2.7002C1.76131 9.5 1 8.73869 1 7.7998V3C1 1.89543 1.89543 1 3 1H9ZM3 2C2.44772 2 2 2.44772 2 3V7.7998C2 8.1864 2.3136 8.5 2.7002 8.5H2.76562C3.44734 8.50003 3.99997 9.05266 4 9.73438C4 9.91438 4.1943 10.0268 4.35059 9.9375L6.52148 8.69727C6.74807 8.56785 7.00468 8.5 7.26562 8.5H9C9.55229 8.5 10 8.05228 10 7.5V3C10 2.44772 9.55228 2 9 2H3ZM8.5 6C8.77614 6 9 6.22386 9 6.5C9 6.77614 8.77614 7 8.5 7H3.5C3.22386 7 3 6.77614 3 6.5C3 6.22386 3.22386 6 3.5 6H8.5ZM6.5 4C6.77614 4 7 4.22386 7 4.5C7 4.77614 6.77614 5 6.5 5H3.5C3.22386 5 3 4.77614 3 4.5C3 4.22386 3.22386 4 3.5 4H6.5Z" fill="#010103"/>
</svg>
