<svg width="12" height="12" viewBox="0 0 12 12" fill="none" xmlns="http://www.w3.org/2000/svg">
<path opacity="0.12" d="M10.5 3.5V8.5C6.63401 8.5 3.5 5.36599 3.5 1.5V1H8C9.38071 1 10.5 2.11929 10.5 3.5Z" fill="#010103"/>
<path d="M8.5 1C9.60457 1 10.5 1.89543 10.5 3V9C10.5 10.1046 9.60457 11 8.5 11H3.5C2.39543 11 1.5 10.1046 1.5 9V3C1.5 1.89543 2.39543 1 3.5 1H8.5ZM3.5 2C2.94772 2 2.5 2.44772 2.5 3V9C2.5 9.55229 2.94772 10 3.5 10H8.5C9.05228 10 9.5 9.55229 9.5 9V3C9.5 2.44772 9.05228 2 8.5 2H3.5ZM7 8C7.27614 8 7.5 8.22386 7.5 8.5C7.5 8.77614 7.27614 9 7 9H5C4.72386 9 4.5 8.77614 4.5 8.5C4.5 8.22386 4.72386 8 5 8H7Z" fill="#010103"/>
</svg>
