<svg width="12" height="12" viewBox="0 0 12 12" fill="none" xmlns="http://www.w3.org/2000/svg">
<path opacity="0.08" d="M1.125 9C1.125 7.875 2.82955 7.5 4.875 7.5C6.92045 7.5 8.625 7.875 8.625 9C8.625 10.125 6.92045 10.5 4.875 10.5C2.82955 10.5 1.125 10.125 1.125 9Z" fill="#010103"/>
<path d="M4.875 7C5.91574 7 6.9192 7.09405 7.67969 7.35547C8.42478 7.61163 9.125 8.10736 9.125 9C9.125 9.89264 8.42478 10.3884 7.67969 10.6445C6.9192 10.906 5.91574 11 4.875 11C3.83426 11 2.8308 10.906 2.07031 10.6445C1.32522 10.3884 0.625 9.89264 0.625 9C0.625 8.10736 1.32522 7.61163 2.07031 7.35547C2.8308 7.09405 3.83426 7 4.875 7ZM4.875 8C3.87033 8 2.99865 8.09347 2.39551 8.30078C1.77702 8.51339 1.625 8.7677 1.625 9C1.625 9.2323 1.77702 9.48661 2.39551 9.69922C2.99865 9.90653 3.87033 10 4.875 10C5.87967 10 6.75135 9.90653 7.35449 9.69922C7.97298 9.48661 8.125 9.2323 8.125 9C8.125 8.7677 7.97298 8.51339 7.35449 8.30078C6.75135 8.09347 5.87967 8 4.875 8ZM7.64551 6.04785C8.52971 6.05554 9.37652 6.13355 10.0273 6.33691C10.6763 6.53981 11.375 6.95579 11.375 7.77344C11.3746 8.59057 10.6761 9.00613 10.0273 9.20898C9.93439 9.23802 9.83681 9.26298 9.73633 9.28711C9.74419 9.19257 9.75 9.09689 9.75 9C9.75 8.69732 9.73419 8.4554 9.70215 8.26172C9.71081 8.25912 9.71998 8.25755 9.72852 8.25488C10.3052 8.07463 10.3747 7.87622 10.375 7.77344C10.375 7.67085 10.3065 7.47266 9.72852 7.29199C9.32306 7.16531 8.78119 7.09017 8.1543 7.06055C8.06091 6.62999 7.89897 6.28969 7.64551 6.04785ZM4.875 1.75C6.18668 1.75 7.25 2.81332 7.25 4.125C7.25 5.43668 6.18668 6.5 4.875 6.5C3.56332 6.5 2.5 5.43668 2.5 4.125C2.5 2.81332 3.56332 1.75 4.875 1.75ZM8.25098 1.75C9.37392 1.75053 10.2852 2.66111 10.2852 3.78418C10.2851 4.90721 9.37389 5.81782 8.25098 5.81836C7.96754 5.81836 7.6973 5.75905 7.45215 5.6543C7.62133 5.36982 7.74779 5.05675 7.81543 4.72168C7.94769 4.78312 8.09556 4.81836 8.25098 4.81836C8.82161 4.81783 9.28511 4.35492 9.28516 3.78418C9.28516 3.2134 8.82164 2.75053 8.25098 2.75C8.02123 2.75 7.80839 2.82538 7.63672 2.95215C7.5044 2.64103 7.31958 2.35807 7.0957 2.11133C7.42387 1.88443 7.82183 1.75 8.25098 1.75ZM4.875 2.75C4.11561 2.75 3.5 3.36561 3.5 4.125C3.5 4.88439 4.11561 5.5 4.875 5.5C5.63439 5.5 6.25 4.88439 6.25 4.125C6.25 3.36561 5.63439 2.75 4.875 2.75Z" fill="#010103"/>
</svg>
