<svg width="12" height="12" viewBox="0 0 12 12" fill="none" xmlns="http://www.w3.org/2000/svg">
<path d="M6 1C8.76142 1 11 3.23858 11 6C11 8.76142 8.76142 11 6 11C3.23858 11 1 8.76142 1 6C1 3.23858 3.23858 1 6 1ZM6 2C3.79086 2 2 3.79086 2 6C2 8.20914 3.79086 10 6 10C8.20914 10 10 8.20914 10 6C10 3.79086 8.20914 2 6 2ZM6 7.2998C6.3866 7.2998 6.7002 7.6134 6.7002 8C6.7002 8.3866 6.3866 8.7002 6 8.7002C5.6134 8.7002 5.2998 8.3866 5.2998 8C5.2998 7.6134 5.6134 7.2998 6 7.2998ZM6 3C6.27614 3 6.5 3.22386 6.5 3.5V6C6.5 6.27614 6.27614 6.5 6 6.5C5.72386 6.5 5.5 6.27614 5.5 6V3.5C5.5 3.22386 5.72386 3 6 3Z" fill="#010103"/>
</svg>
