<svg width="12" height="12" viewBox="0 0 12 12" fill="none" xmlns="http://www.w3.org/2000/svg">
<path opacity="0.08" d="M6.61847 5.25833C4.55395 6.45028 4.46486 8.61613 4.60411 9.83154C5.7342 10.0661 7.75689 10.0442 8.78954 9.23697C9.8222 8.4297 10.2236 6.14944 10.0474 4.9657C9.07683 4.62143 7.87435 4.53325 6.61847 5.25833Z" fill="#010103"/>
<path d="M6.00009 1.5002C8.48533 1.50025 10.5001 3.51495 10.5001 6.0002C10.5 8.48536 8.48526 10.5001 6.00009 10.5002C5.47511 10.5002 4.96984 10.4103 4.50009 10.2443C4.4822 10.238 4.46442 10.2302 4.44736 10.2219L4.13095 10.0676L2.18564 10.2697C2.00849 10.288 1.83445 10.2105 1.72958 10.0666C1.62494 9.92258 1.60498 9.73341 1.67685 9.57051L2.19345 8.39864C1.75504 7.70409 1.50013 6.88144 1.50009 6.0002C1.50009 3.51492 3.51481 1.5002 6.00009 1.5002ZM6.00009 2.5002C4.06709 2.5002 2.50009 4.0672 2.50009 6.0002C2.50013 6.76897 2.74758 7.47881 3.16708 8.05586C3.27164 8.19991 3.29173 8.38911 3.21982 8.55196L2.93954 9.18575L4.17099 9.05879L4.24033 9.05586C4.30989 9.05838 4.37847 9.07589 4.4415 9.10664L4.85068 9.30586C5.21014 9.43082 5.5965 9.5002 6.00009 9.5002C7.93298 9.50015 9.49998 7.93307 9.50009 6.0002C9.50009 4.06723 7.93305 2.50025 6.00009 2.5002ZM4.68857 4.0002C4.99214 4.00042 5.25944 4.19968 5.34677 4.49043L5.42197 4.73946C5.46991 4.89994 5.42603 5.07403 5.30771 5.19258C5.17006 5.33028 5.13202 5.54264 5.23447 5.70821C5.50009 6.13733 5.86294 6.50023 6.29208 6.76582C6.45763 6.86815 6.67006 6.83019 6.80771 6.69258C6.92631 6.57421 7.10029 6.53029 7.26083 6.57832L7.50986 6.65352C7.80057 6.7409 7.99991 7.00816 8.00009 7.31172C7.99999 7.66773 7.72725 7.96646 7.38486 7.94942L7.31552 7.9416C5.75921 7.67304 4.51028 6.50512 4.12411 4.99239L4.05869 4.68477C3.99435 4.31047 4.30869 4.0002 4.68857 4.0002Z" fill="#010103"/>
</svg>
