<svg width="24" height="24" viewBox="0 0 24 24" fill="none" xmlns="http://www.w3.org/2000/svg">
<path d="M11.2405 2.1187C11.6397 1.65263 12.3609 1.65247 12.76 2.1187L14.802 4.50542L17.8782 4.0103C18.479 3.91372 19.0266 4.37167 19.0374 4.98003L19.0911 8.16069L21.7766 9.79741C22.2904 10.1108 22.4123 10.8043 22.0374 11.2749L20.0618 13.7515L21.0842 16.7642C21.2785 17.3368 20.9235 17.9498 20.3303 18.0669L17.2649 18.6714L16.1467 21.6314C15.9303 22.2042 15.2546 22.4501 14.7209 22.1499L12.0002 20.6177L9.27954 22.1499C8.74593 22.4501 8.07014 22.2042 7.85376 21.6314L6.7356 18.6714L3.67017 18.0669C3.0768 17.95 2.72191 17.3369 2.91626 16.7642L3.93872 13.7515L1.96313 11.2749C1.58798 10.8043 1.71002 10.1108 2.22388 9.79741L4.90942 8.16069L4.96313 4.98003C4.97386 4.37157 5.5214 3.91352 6.12231 4.0103L9.19849 4.50542L11.2405 2.1187Z" fill="#47AD7A"/>
<path d="M14.6259 9.66812C14.8093 9.46181 15.1256 9.4429 15.332 9.62613C15.5383 9.80952 15.5572 10.1258 15.374 10.3322L11.374 14.8322C11.2013 15.0263 10.9081 15.0563 10.7001 14.9005L8.70013 13.4005C8.47937 13.235 8.43427 12.9212 8.59955 12.7003C8.76516 12.4795 9.07885 12.4344 9.29974 12.5998L10.9316 13.8234L14.6259 9.66812Z" fill="white"/>
</svg>
